<!-- icon666.com - MILLIONS OF FREE VECTOR ICONS --><svg version="1.1" id="Capa_1" xmlns="http://www.w3.org/2000/svg" xmlns:xlink="http://www.w3.org/1999/xlink" x="0px" y="0px" viewBox="0 0 511.872 511.872" style="enable-background:new 0 0 511.872 511.872;" xml:space="preserve"><path style="fill:#F0C020;" d="M132.094,305.741l4.403-1.229l-4.403-1.229c-10.445-2.867-18.534-11.059-21.402-21.402l-1.229-4.403 l-1.229,4.403c-2.867,10.445-11.059,18.534-21.402,21.402l-4.403,1.229l4.403,1.229c10.445,2.867,18.534,11.059,21.402,21.402 l1.229,4.403l1.229-4.403C113.56,316.8,121.649,308.608,132.094,305.741z"/><path style="fill:#221F1F;" d="M109.464,336.666c-2.253,0-4.301-1.536-4.915-3.789l-1.229-4.301 c-2.355-8.602-9.216-15.462-17.818-17.818l-4.403-1.229c-2.253-0.614-3.789-2.662-3.789-4.915s1.536-4.301,3.789-4.915l4.403-1.229 c8.602-2.355,15.462-9.216,17.818-17.818l1.229-4.403c0.614-2.253,2.662-3.789,4.915-3.789l0,0c2.253,0,4.301,1.536,4.915,3.789 l1.229,4.403c2.355,8.602,9.216,15.462,17.818,17.818l4.403,1.229c2.253,0.614,3.789,2.662,3.789,4.915s-1.536,4.301-3.789,4.915 l-4.403,1.229l0,0c-8.602,2.355-15.462,9.216-17.818,17.818l-1.229,4.403C113.764,335.13,111.716,336.666,109.464,336.666z M96.868,304.512c5.12,3.072,9.523,7.373,12.595,12.595c3.072-5.12,7.373-9.523,12.595-12.595 c-5.12-3.072-9.523-7.373-12.595-12.595C106.392,297.139,102.091,301.44,96.868,304.512z"/><path style="fill:#FFB69F;" d="M163.326,241.843h-9.83c-14.541,0-26.214-11.776-26.214-26.214v-12.8 c0-14.541,11.776-26.214,26.214-26.214h9.933v65.229L163.326,241.843L163.326,241.843z"/><g><path style="fill:#221F1F;" d="M163.326,246.963h-9.83c-17.306,0-31.334-14.029-31.334-31.334v-12.8 c0-17.306,14.029-31.334,31.334-31.334h9.933c2.867,0,5.12,2.253,5.12,5.12v65.331C168.446,244.71,166.193,246.963,163.326,246.963 z M153.496,181.632c-11.674,0-21.094,9.523-21.094,21.094v12.8c0,11.674,9.523,21.094,21.094,21.094h4.813v-55.09h-4.813V181.632z" /><path style="fill:#221F1F;" d="M163.326,214.298h-9.523c-2.867,0-5.12-2.253-5.12-5.12s2.253-5.12,5.12-5.12h9.523 c2.867,0,5.12,2.253,5.12,5.12S166.193,214.298,163.326,214.298z"/></g><path style="fill:#FFB69F;" d="M406.628,241.843h9.933c14.541,0,26.214-11.776,26.214-26.214v-12.8 c0-14.541-11.776-26.214-26.214-26.214h-9.933V241.843z"/><g><path style="fill:#221F1F;" d="M416.561,246.963h-9.933c-2.867,0-5.12-2.253-5.12-5.12v-65.331c0-2.867,2.253-5.12,5.12-5.12h9.933 c17.306,0,31.334,14.029,31.334,31.334v12.8C447.896,232.934,433.867,246.963,416.561,246.963z M411.748,236.723h4.813 c11.674,0,21.094-9.523,21.094-21.094v-12.8c0-11.674-9.523-21.094-21.094-21.094h-4.813V236.723z"/><path style="fill:#221F1F;" d="M416.152,214.298h-9.523c-2.867,0-5.12-2.253-5.12-5.12s2.253-5.12,5.12-5.12h9.523 c2.867,0,5.12,2.253,5.12,5.12S419.02,214.298,416.152,214.298z"/></g><path style="fill:#FFB69F;" d="M353.892,353.357l-40.243,38.605c-15.974,15.36-41.267,15.36-57.344,0l-40.243-38.605 c-33.485-32.154-52.736-79.36-52.736-129.024V150.4c0-19.046,15.462-34.509,34.509-34.509h174.182 c19.046,0,34.509,15.462,34.509,34.509v73.83C406.628,273.997,387.378,321.101,353.892,353.357z"/><path style="fill:#EA8F7D;" d="M372.12,115.891H197.937c-19.046,0-34.509,15.462-34.509,34.509v73.83 c0,9.728,0.717,19.251,2.15,28.672l23.142-26.624c10.035-9.421,15.872-22.528,15.872-36.352v-4.506l8.602-8.602 c9.421-9.421,14.541-21.811,14.541-35.123v-5.427h114.688v5.427c0,13.312,5.12,25.702,14.541,35.123l8.602,8.602v4.506 c0,13.824,5.734,26.931,15.872,36.352l23.142,26.624c1.434-9.421,2.15-19.046,2.15-28.672V150.4 C406.628,131.354,391.166,115.891,372.12,115.891z"/><path style="fill:#221F1F;" d="M284.977,408.653c-11.571,0-23.142-4.301-32.256-13.005l-40.243-38.605 c-34.509-33.178-54.374-81.613-54.374-132.71V150.4c0-21.914,17.818-39.629,39.629-39.629h174.182 c21.914,0,39.629,17.818,39.629,39.629v73.83c0,51.2-19.763,99.533-54.374,132.71l-40.243,38.605 C308.222,404.352,296.548,408.653,284.977,408.653z M197.937,121.011c-16.179,0-29.389,13.21-29.389,29.389v73.83 c0,48.435,18.637,94.106,51.2,125.338l40.243,38.605c14.131,13.517,36.147,13.517,50.176,0l40.243-38.605l3.584,3.686l-3.584-3.686 c32.563-31.232,51.2-77.005,51.2-125.338V150.4c0-16.179-13.21-29.389-29.389-29.389 C372.221,121.011,197.937,121.011,197.937,121.011z"/><path style="fill:#7C7B7A;" d="M406.628,130.227v94.003l-10.65-12.288c-6.349-5.53-10.035-13.517-10.035-22.016v-12.902 l-14.541-14.541c-5.427-5.427-8.499-12.902-8.499-20.582v-13.005c0-7.168-5.837-12.902-12.902-12.902H220.056 c-7.168,0-12.902,5.837-12.902,12.902v13.005c0,7.782-3.072,15.155-8.499,20.582l-14.541,14.541v13.005 c0,8.397-3.686,16.486-10.035,22.016l-10.65,12.288V130.33c0-47.616,38.605-86.221,86.221-86.221h70.758 C368.024,44.109,406.628,82.611,406.628,130.227z"/><path style="fill:#221F1F;" d="M406.628,229.35c-1.434,0-2.867-0.614-3.891-1.741l-10.445-12.083 c-7.27-6.554-11.469-15.77-11.469-25.6v-10.854l-13.005-13.005c-6.451-6.451-10.035-15.053-10.035-24.269v-13.005 c0-4.301-3.482-7.782-7.782-7.782H220.056c-4.301,0-7.782,3.482-7.782,7.782v13.005c0,9.114-3.584,17.818-10.035,24.269 l-13.005,13.005v10.854c0,9.83-4.198,19.149-11.469,25.6L167.32,227.61c-1.434,1.638-3.686,2.15-5.632,1.434 c-2.048-0.717-3.277-2.662-3.277-4.813v-94.003c0-50.381,40.96-91.341,91.341-91.341h70.656c50.381,0,91.341,40.96,91.341,91.341 v94.003c0,2.15-1.331,4.096-3.277,4.813C407.857,229.248,407.243,229.35,406.628,229.35z M220.056,110.771h129.843 c9.933,0,18.022,8.09,18.022,18.022v13.005c0,6.451,2.458,12.493,7.066,16.998l14.541,14.541c0.922,0.922,1.536,2.253,1.536,3.584 v13.005c0,6.963,2.97,13.517,8.294,18.125c0.205,0.205,0.307,0.307,0.512,0.512l1.741,1.946v-80.282 c0-44.749-36.352-81.101-81.101-81.101H249.65c-44.749,0-81.101,36.352-81.101,81.101v80.282l1.741-1.946 c0.205-0.205,0.307-0.307,0.512-0.512c5.222-4.608,8.294-11.162,8.294-18.125v-12.902c0-1.331,0.512-2.662,1.536-3.584 l14.541-14.541c4.506-4.506,7.066-10.547,7.066-16.998v-13.005C202.033,118.861,210.123,110.771,220.056,110.771z"/><path style="fill:#4C4945;" d="M394.75,60.288L394.75,60.288c7.373,12.39,3.686,26.317-9.626,36.454l-24.883,19.046H209.816 l-24.883-19.046c-13.312-10.24-16.998-24.064-9.626-36.454l0,0c4.198-7.168,11.878-13.312,21.811-17.51l87.859-37.786l87.859,37.786 C382.872,47.078,390.449,53.222,394.75,60.288z"/><path style="fill:#221F1F;" d="M360.241,121.011H209.816c-1.126,0-2.253-0.41-3.072-1.024l-24.883-19.046 c-15.258-11.674-19.558-28.672-10.854-43.11c4.813-8.09,13.21-14.848,24.269-19.661l87.859-37.786c1.331-0.512,2.765-0.512,3.994,0 l87.859,37.786c11.059,4.71,19.354,11.571,24.269,19.661l0,0c8.602,14.541,4.403,31.437-10.854,43.11l-24.883,19.046 C362.494,120.602,361.368,121.011,360.241,121.011z M211.556,110.771H358.5l23.552-18.022c11.162-8.602,14.336-19.763,8.294-29.798 l4.403-2.662l-4.403,2.662c-3.686-6.144-10.547-11.674-19.456-15.462l-85.914-36.864l-85.914,36.864 c-8.909,3.789-15.77,9.318-19.456,15.462c-5.939,10.035-2.867,21.197,8.294,29.798L211.556,110.771z"/><g><path style="fill:#7C7B7A;" d="M281.086,34.074c-1.946,0-3.891-1.126-4.71-3.072c-1.126-2.56,0.102-5.632,2.662-6.758l3.994-1.741 c2.56-1.126,5.632,0.102,6.758,2.662s-0.102,5.632-2.662,6.758l-3.994,1.741C282.417,33.971,281.701,34.074,281.086,34.074z"/><path style="fill:#7C7B7A;" d="M216.676,100.531c-1.126,0-2.15-0.307-3.072-1.024L194.25,84.659 c-8.806-6.758-7.987-12.698-5.734-16.486c1.434-2.458,5.325-7.27,14.746-11.264l55.296-23.757c2.56-1.126,5.632,0.102,6.758,2.662 s-0.102,5.632-2.662,6.758L207.358,66.33c-7.066,3.072-9.421,6.349-9.933,7.066c0.307,0.512,1.024,1.536,3.174,3.174l19.354,14.848 c2.253,1.741,2.662,4.915,0.922,7.168C219.748,99.814,218.212,100.531,216.676,100.531z"/></g><g><path style="fill:#221F1F;" d="M284.977,121.011c-2.867,0-5.12-2.253-5.12-5.12V84.454c0-2.867,2.253-5.12,5.12-5.12 s5.12,2.253,5.12,5.12v31.437C290.097,118.758,287.844,121.011,284.977,121.011z"/><path style="fill:#221F1F;" d="M284.977,73.702c-2.867,0-5.12-2.253-5.12-5.12v-1.946c0-2.867,2.253-5.12,5.12-5.12 s5.12,2.253,5.12,5.12v1.946C290.097,71.45,287.844,73.702,284.977,73.702z"/><path style="fill:#221F1F;" d="M262.244,121.011c-2.867,0-5.12-2.253-5.12-5.12V97.766c0-2.867,2.253-5.12,5.12-5.12 s5.12,2.253,5.12,5.12v18.125C267.365,118.758,265.009,121.011,262.244,121.011z"/><path style="fill:#221F1F;" d="M307.813,121.011c-2.867,0-5.12-2.253-5.12-5.12V97.766c0-2.867,2.253-5.12,5.12-5.12 s5.12,2.253,5.12,5.12v18.125C312.932,118.758,310.577,121.011,307.813,121.011z"/></g><path style="fill:#4C4945;" d="M284.977,271.949l30.72,5.427c18.022,3.174,36.25-4.198,47.002-18.944l2.97-4.096l0,0 c-12.288,3.994-25.702,2.867-37.171-3.072l-11.469-6.042C306.993,240,295.012,240,285.08,245.427l0,0l0,0 c-9.933-5.427-21.914-5.427-31.949-0.205l-11.469,6.042c-11.469,6.042-24.883,7.168-37.171,3.072l0,0l2.97,4.096 c10.752,14.746,29.082,22.118,47.002,18.944L284.977,271.949z"/><path style="fill:#221F1F;" d="M246.168,283.213c-16.794,0-32.973-7.987-43.008-21.811l-2.97-4.096 c-1.331-1.843-1.331-4.198,0-6.042c1.331-1.843,3.584-2.56,5.734-1.843c10.957,3.584,23.04,2.56,33.28-2.765l11.469-6.042 c10.752-5.632,23.45-5.939,34.406-1.024c10.957-5.018,23.654-4.71,34.406,1.024l11.469,6.042c10.138,5.325,22.323,6.349,33.28,2.765 c2.15-0.717,4.403,0.102,5.734,1.843c1.331,1.843,1.331,4.198,0,6.042l-2.97,4.096c-11.878,16.282-32.256,24.474-52.122,20.992 l-29.798-5.222l-29.798,5.222C252.209,282.906,249.137,283.213,246.168,283.213z M217.188,261.811 c9.728,8.806,23.142,12.902,36.25,10.547l30.72-5.427c0.614-0.102,1.229-0.102,1.741,0l30.72,5.427 c13.107,2.355,26.624-1.741,36.25-10.547c-9.216,0.307-18.534-1.741-26.726-6.042l-11.469-6.042 c-8.499-4.506-18.739-4.403-27.136,0.205c-1.536,0.819-3.379,0.819-4.915,0c-8.499-4.608-18.637-4.608-27.136-0.205l-11.469,6.042 C235.62,260.07,226.404,262.118,217.188,261.811z"/><path style="fill:#4C4945;" d="M399.358,239.078c-7.373,0-13.312,5.939-13.312,13.312v46.592c0,19.456-15.77,35.328-35.328,35.328 h-34.304c-6.144,0-11.162-5.018-11.162-11.162v-5.939c0-5.325-4.301-9.523-9.523-9.523h-21.504c-5.325,0-9.523,4.301-9.523,9.523 v5.939c0,6.144-5.018,11.162-11.162,11.162h-34.304c-19.456,0-35.328-15.77-35.328-35.328V252.39 c0-7.373-5.939-13.312-13.312-13.312h-6.758V356.94c0,34.714,19.968,66.355,51.405,81.203l69.632,32.973h0.307l69.632-32.973 c31.334-14.848,51.405-46.49,51.405-81.203V239.078H399.358z"/><path style="fill:#7C7B7A;" d="M239.102,431.795c-0.717,0-1.434-0.205-2.15-0.512l-15.053-7.066 C195.992,411.93,179.3,385.51,179.3,356.941v-14.438c0-2.867,2.253-5.12,5.12-5.12s5.12,2.253,5.12,5.12v14.438 c0,24.678,14.438,47.514,36.762,58.061l15.053,7.066c2.56,1.229,3.686,4.301,2.458,6.861 C242.891,430.771,241.048,431.795,239.102,431.795z"/><g><path style="fill:#221F1F;" d="M164.657,373.12c-2.56,0-4.71-1.946-5.12-4.506c-0.205-1.638-0.41-3.379-0.512-5.12 c-0.205-2.867,1.946-5.222,4.71-5.427c2.867-0.205,5.222,1.946,5.427,4.71c0.102,1.536,0.205,3.072,0.41,4.506 c0.307,2.765-1.638,5.325-4.403,5.734C165.067,373.12,164.862,373.12,164.657,373.12z"/><path style="fill:#221F1F;" d="M163.94,349.978c-2.867,0-5.12-2.253-5.12-5.12v-22.835c0-2.867,2.253-5.12,5.12-5.12 s5.12,2.253,5.12,5.12v22.835C169.06,347.725,166.808,349.978,163.94,349.978z"/><path style="fill:#221F1F;" d="M285.284,476.237h-0.307c-0.717,0-1.536-0.205-2.15-0.512l-69.632-32.973 c-6.349-2.97-12.288-6.656-17.818-10.957c-2.253-1.741-2.662-4.915-0.922-7.168s4.915-2.662,7.168-0.922 c4.915,3.789,10.24,7.168,15.872,9.83l67.584,32.051l67.584-32.051c29.389-13.926,48.435-44.032,48.435-76.595V244.198h-1.843 c-4.506,0-8.192,3.686-8.192,8.192v46.592c0,22.323-18.125,40.448-40.448,40.448h-34.304c-9.011,0-16.282-7.27-16.282-16.282 v-5.939c0-2.458-1.946-4.403-4.403-4.403h-21.504c-2.458,0-4.403,1.946-4.403,4.403v5.939c0,9.011-7.27,16.282-16.282,16.282 h-34.304c-22.323,0-40.448-18.125-40.448-40.448V252.39c0-4.506-3.686-8.192-8.192-8.192h-1.638v60.416 c0,2.867-2.253,5.12-5.12,5.12c-2.867,0-5.12-2.253-5.12-5.12v-65.536c0-2.867,2.253-5.12,5.12-5.12h6.758 c10.138,0,18.432,8.294,18.432,18.432v46.592c0,16.589,13.517,30.208,30.208,30.208h34.304c3.277,0,6.042-2.662,6.042-6.042v-5.939 c0-8.09,6.554-14.643,14.643-14.643h21.504c8.09,0,14.643,6.554,14.643,14.643v5.939c0,3.277,2.662,6.042,6.042,6.042h34.304 c16.589,0,30.208-13.517,30.208-30.208V252.39c0-10.138,8.294-18.432,18.432-18.432h6.963c2.867,0,5.12,2.253,5.12,5.12V356.94 c0,36.454-21.299,70.144-54.272,85.811l-69.632,32.973C286.82,476.032,286.001,476.237,285.284,476.237z"/></g><path style="fill:#AFAFAF;" d="M466.02,389.914h-7.373c-10.65,0-19.251-8.602-19.251-19.251v-88.371 c0-10.65,8.602-19.251,19.251-19.251h7.373V389.914z"/><g><path style="fill:#221F1F;" d="M466.02,395.034h-7.373c-13.414,0-24.371-10.957-24.371-24.371v-88.371 c0-13.414,10.957-24.371,24.371-24.371h7.373c2.867,0,5.12,2.253,5.12,5.12v126.771 C471.141,392.781,468.785,395.034,466.02,395.034z M458.648,268.16c-7.782,0-14.131,6.349-14.131,14.131v88.371 c0,7.782,6.349,14.131,14.131,14.131h2.253V268.16H458.648z"/><path style="fill:#221F1F;" d="M466.02,432.512c-2.867,0-5.12-2.253-5.12-5.12v-37.478c0-2.867,2.253-5.12,5.12-5.12 s5.12,2.253,5.12,5.12v37.478C471.141,430.259,468.785,432.512,466.02,432.512z"/></g><path style="fill:#464A51;" d="M376.728,502.861L376.728,502.861c-5.222-5.222-5.222-13.619,0-18.842l66.662-66.662 c5.222-5.222,13.619-5.222,18.739,0l0,0c5.222,5.222,5.222,13.619,0,18.739l-66.662,66.662 C390.347,508.083,381.848,508.083,376.728,502.861z"/><path style="fill:#221F1F;" d="M386.046,511.872c-4.71,0-9.421-1.843-13.005-5.427l0,0l0,0c-3.482-3.482-5.325-8.09-5.325-13.005 s1.946-9.523,5.427-13.005l66.662-66.662c3.482-3.482,8.09-5.427,13.005-5.427s9.523,1.946,13.005,5.427 c7.168,7.168,7.168,18.842,0,26.112l-66.662,66.662C395.569,510.029,390.859,511.872,386.046,511.872z M452.708,418.586 c-2.15,0-4.198,0.819-5.734,2.355l-66.662,66.662c-1.536,1.536-2.355,3.584-2.355,5.734s0.819,4.198,2.355,5.734l0,0 c3.174,3.174,8.397,3.174,11.571,0l66.662-66.662c3.174-3.174,3.174-8.397,0-11.571 C456.908,419.507,454.859,418.586,452.708,418.586z"/><path style="fill:#AFAFAF;" d="M395.16,484.429L395.16,484.429c-5.12-5.12-13.414-5.222-18.637-0.205 c-5.018,5.222-4.915,13.517,0.205,18.637l0,0c5.12,5.12,13.414,5.222,18.637,0.205C400.28,497.843,400.28,489.549,395.16,484.429z" /><path style="fill:#221F1F;" d="M386.046,511.77c-4.71,0-9.421-1.741-13.005-5.325c-7.066-7.066-7.168-18.637-0.307-25.805 c0-0.102,0.102-0.102,0.102-0.102c7.168-6.861,18.739-6.758,25.805,0.307l0,0c7.066,7.066,7.168,18.637,0.307,25.805 c0,0.102-0.102,0.102-0.102,0.102C395.262,510.131,390.654,511.77,386.046,511.77z M380.107,487.808 c-2.97,3.174-2.867,8.294,0.205,11.366s8.192,3.174,11.366,0.205c2.97-3.174,2.867-8.294-0.205-11.366 S383.281,484.838,380.107,487.808z"/><path style="fill:#AFAFAF;" d="M126.769,431.795L126.769,431.795c7.885-17.92,23.962-32.973,43.418-40.96l82.227-33.587 l-68.915,56.013C167.115,426.675,146.225,433.434,126.769,431.795L126.769,431.795z"/><g><path style="fill:#221F1F;" d="M68.299,494.054c-9.421,0-18.637-4.813-23.757-13.517c-3.789-6.349-4.813-13.722-2.97-20.89 c1.843-7.168,6.349-13.107,12.698-16.896l0,0c13.107-7.782,30.106-3.379,37.786,9.626c3.789,6.349,4.813,13.722,2.97,20.89 s-6.349,13.107-12.698,16.896C77.924,492.826,73.112,494.054,68.299,494.054z M68.196,449.101c-2.97,0-6.042,0.819-8.806,2.458l0,0 c-3.994,2.355-6.861,6.144-7.987,10.65c-1.126,4.506-0.512,9.216,1.843,13.107c4.915,8.192,15.565,10.957,23.757,6.042 c3.994-2.355,6.861-6.144,7.987-10.65c1.126-4.506,0.512-9.216-1.843-13.107C79.972,452.173,74.136,449.101,68.196,449.101z M56.83,447.155L56.83,447.155L56.83,447.155z"/><path style="fill:#221F1F;" d="M132.606,437.222c-2.048,0-4.198-0.102-6.246-0.307c-1.638-0.102-3.174-1.024-3.994-2.458 c-0.819-1.434-0.922-3.174-0.307-4.71c8.499-19.149,25.293-35.021,46.182-43.622l82.227-33.587c2.355-0.922,5.018-0.102,6.349,2.15 c1.331,2.15,0.819,5.018-1.126,6.554l-68.915,56.013C171.006,430.157,151.55,437.222,132.606,437.222z M222.411,375.066 l-50.381,20.582c-15.462,6.349-28.774,17.715-36.966,31.232c15.77-0.614,32.154-6.963,45.158-17.51L222.411,375.066z"/><path style="fill:#221F1F;" d="M87.652,460.16c-1.741,0-3.482-0.922-4.403-2.56c-1.434-2.458-0.614-5.53,1.843-7.066l39.117-23.245 c2.458-1.434,5.53-0.614,7.066,1.843c1.536,2.458,0.614,5.53-1.843,7.066l-39.117,23.245 C89.393,459.955,88.472,460.16,87.652,460.16z"/></g><path style="fill:#AFAFAF;" d="M126.769,431.795L126.769,431.795c7.885,17.92,23.859,33.075,43.315,41.062l82.125,33.894 l-68.813-56.32C167.115,437.12,146.225,430.259,126.769,431.795L126.769,431.795z"/><g><path style="fill:#221F1F;" d="M68.299,424.627c-4.915,0-9.728-1.331-14.131-3.891c-13.107-7.782-17.306-24.781-9.523-37.888 c3.789-6.349,9.83-10.854,16.998-12.595c7.168-1.843,14.541-0.717,20.89,3.072s10.854,9.83,12.595,16.998 c1.843,7.168,0.717,14.541-3.072,20.89s-9.83,10.854-16.998,12.595C72.907,424.32,70.552,424.627,68.299,424.627z M68.401,379.571 c-1.434,0-2.867,0.205-4.301,0.512c-4.506,1.126-8.294,3.994-10.65,7.885c-4.915,8.192-2.253,18.944,6.042,23.859 c3.994,2.355,8.704,3.072,13.107,1.946c4.506-1.126,8.294-3.994,10.65-7.885c2.355-3.891,3.072-8.704,1.946-13.107 c-1.126-4.506-3.994-8.294-7.987-10.65C74.545,380.39,71.473,379.571,68.401,379.571z"/><path style="fill:#221F1F;" d="M252.209,511.872c-0.614,0-1.331-0.102-1.946-0.41l-82.125-33.894 c-20.787-8.602-37.581-24.576-46.08-43.725c-0.717-1.536-0.512-3.277,0.307-4.71c0.819-1.434,2.355-2.355,3.994-2.458 c20.89-1.638,42.906,5.53,60.314,19.763l68.813,56.32c1.946,1.638,2.458,4.403,1.126,6.554 C255.691,510.95,253.95,511.872,252.209,511.872z M135.064,436.813c8.09,13.517,21.402,24.986,36.966,31.334l50.278,20.685 l-42.086-34.406C167.217,443.776,150.833,437.53,135.064,436.813z"/><path style="fill:#221F1F;" d="M126.769,436.915c-0.922,0-1.843-0.205-2.662-0.717L84.99,412.851 c-2.458-1.434-3.174-4.608-1.741-7.066c1.434-2.458,4.608-3.174,7.066-1.741l39.117,23.347c2.458,1.434,3.174,4.608,1.741,7.066 C130.148,436.096,128.51,436.915,126.769,436.915z"/><path style="fill:#221F1F;" d="M285.284,476.237c-2.867,0-5.12-2.253-5.12-5.12v-43.725c0-2.867,2.253-5.12,5.12-5.12 s5.12,2.253,5.12,5.12v43.725C290.404,473.882,288.152,476.237,285.284,476.237z"/><path style="fill:#221F1F;" d="M285.284,413.568c-2.867,0-5.12-2.253-5.12-5.12v-5.018c0-2.867,2.253-5.12,5.12-5.12 s5.12,2.253,5.12,5.12v5.018C290.404,411.315,288.152,413.568,285.284,413.568z"/><path style="fill:#221F1F;" d="M312.523,463.232c-2.867,0-5.12-2.253-5.12-5.12v-23.757c0-2.867,2.253-5.12,5.12-5.12 s5.12,2.253,5.12,5.12v23.757C317.643,460.877,315.288,463.232,312.523,463.232z"/><path style="fill:#221F1F;" d="M257.841,463.232c-2.867,0-5.12-2.253-5.12-5.12v-23.757c0-2.867,2.253-5.12,5.12-5.12 c2.867,0,5.12,2.253,5.12,5.12v23.757C262.961,460.877,260.606,463.232,257.841,463.232z"/></g><g><path style="fill:#231F20;" d="M257.227,193.408c-1.536,0-3.072-0.717-4.096-2.048c-4.403-5.837-11.059-9.216-18.33-9.216 c-0.102,0-0.205,0-0.307,0c-7.168,0.102-13.824,3.482-18.125,9.216c-1.638,2.253-4.915,2.765-7.168,1.024 c-2.253-1.638-2.765-4.915-1.024-7.168c6.246-8.397,16.179-13.414,26.624-13.414c0.102,0,0.205,0,0.307,0 c10.342,0.102,20.173,5.12,26.317,13.414c1.638,2.253,1.229,5.427-1.024,7.168C259.378,193.101,258.251,193.408,257.227,193.408z" /><circle style="fill:#231F20;" cx="234.7" cy="204.88" r="10.04"/><path style="fill:#231F20;" d="M357.784,193.408c-1.536,0-3.072-0.717-4.096-2.048c-4.403-5.837-11.059-9.216-18.33-9.216 c-0.102,0-0.205,0-0.307,0c-7.168,0.102-13.824,3.482-18.125,9.216c-1.638,2.253-4.915,2.765-7.168,1.024 c-2.253-1.638-2.765-4.915-1.024-7.168c6.246-8.397,16.179-13.414,26.624-13.414c0.102,0,0.205,0,0.307,0 c10.342,0.102,20.173,5.12,26.317,13.414c1.638,2.253,1.229,5.427-1.024,7.168C359.934,193.101,358.809,193.408,357.784,193.408z" /><circle style="fill:#231F20;" cx="335.26" cy="204.88" r="10.04"/></g></svg>