<!-- icon666.com - MILLIONS OF FREE VECTOR ICONS --><svg id="Layer_1" enable-background="new 0 0 505.569 505.569" viewBox="0 0 505.569 505.569" xmlns="http://www.w3.org/2000/svg"><g><g><g><path d="m350.323 144.517s-64.102 35.167-110.249-9.252c-29.94-28.819-56.972-13.526-56.972-13.526-21.723 8.197-41.045 45.495-41.045 45.495v114.43c0 16.644 2.849 27.153 2.849 27.153 16.683 77.523 101.284 107.506 101.284 107.506s84.577-29.975 101.276-107.473c0 0 2.856-10.541 2.856-27.185v-137.148z" fill="#ffceb7"/><path d="m330.323 152.506v129.159c0 16.644-2.856 27.185-2.856 27.185-13.151 61.033-68.393 92.585-91.276 103.24 6.173 2.874 10 4.233 10 4.233s84.577-29.975 101.276-107.473c0 0 2.856-10.541 2.856-27.185v-137.148s-7.839 4.296-20 7.989z" fill="#ffaa81"/><path d="m300.369 296.569c-11.35 1.619-22.92.571-33.794-3.061l-20.276-6.773-20.276 6.773c-10.874 3.632-22.445 4.68-33.794 3.061l-49.96-7.127c.659 12.07 2.638 19.376 2.638 19.376 16.682 77.522 101.283 107.505 101.283 107.505s84.577-29.975 101.276-107.473c0 0 1.98-7.317 2.643-19.377z" fill="#d09596"/><path d="m329.917 292.354c-.787 10.327-2.45 16.496-2.45 16.496-13.151 61.033-68.393 92.585-91.276 103.24 6.173 2.874 10 4.233 10 4.233s84.577-29.975 101.276-107.473c0 0 1.98-7.317 2.643-19.377z" fill="#bb696a"/><path d="m350.339 144.517c21.857-13.588 42.037-35.417 42.037-60.038 0-41.204-45.696-74.607-94.662-74.607-32.192 0-60.373 14.438-75.906 36.037h-18.029c-34.293 0-61.721 27.835-61.721 62.172v59.153s19.322-37.298 41.045-45.495c0 0 27.032-15.293 56.972 13.526 46.147 44.419 110.249 9.252 110.249 9.252" fill="#d09596"/><path d="m297.714 9.872c-3.361 0-6.676.167-9.94.473 44.985 4.173 84.602 35.769 84.602 74.134 0 24.622-20.181 46.45-42.037 60.038h-.016s-18.696 10.25-43.159 12.69c33.495 3.576 63.159-12.69 63.159-12.69h.016c21.857-13.588 42.037-35.417 42.037-60.038 0-41.204-45.695-74.607-94.662-74.607z" fill="#bb696a"/><g fill="#ffaa81"><path d="m142.057 233.361h-18.181c-10.338 0-18.719-8.381-18.719-18.719v-16.24c0-10.338 8.381-18.719 18.719-18.719h18.181z"/><path d="m350.943 179.684h18.181c10.338 0 18.719 8.381 18.719 18.719v16.24c0 10.338-8.381 18.719-18.719 18.719h-18.181z"/></g><path d="m276.924 245.006c-10.263 0-17.653 3.041-22.979 7.43-4.414 3.638-10.878 3.638-15.292 0-5.326-4.389-12.716-7.43-22.979-7.43-36.888 0-37.196 41.73-92.374 41.73l68.929 9.834c11.349 1.619 22.92.571 33.794-3.061l20.276-6.773 20.276 6.773c10.874 3.632 22.444 4.68 33.794 3.061l68.929-9.834c-55.179 0-55.486-41.73-92.374-41.73z" fill="#d09596"/></g><path d="m255.438 458.498v23.703c0 5.523-4.477 10-10 10h-227.938c-5.523 0-10-4.477-10-10v-64.875c0-11.046 8.954-20 20-20h126.222c11.089 0 20.061 9.022 20 20.111l-.222 39.889 72.1-8.827c5.459.089 9.838 4.54 9.838 9.999z" fill="#79787d"/><g><path d="m434.905 263.498h-.005-.005c-20.777 0-37.62 16.843-37.62 37.62v74.38c0 11.046 8.954 20 20 20h17.625 17.625c11.046 0 20-8.954 20-20v-74.38c-.001-20.777-16.844-37.62-37.62-37.62z" fill="#79787d"/><path d="m460.685 393.746c.063-.735.102-1.476.102-2.227 0-14.294-11.588-25.882-25.882-25.882s-25.882 11.588-25.882 25.882c0 .753.039 1.495.102 2.232 2.491 1.114 5.244 1.747 8.15 1.747h17.625 17.625c2.909 0 5.666-.635 8.16-1.752z" fill="#58565b"/></g></g><g><path d="m370.357 294.16-1.06-14.925c-4.16 0-7.965-.261-11.476-.735v-37.639h11.302c14.457 0 26.219-11.762 26.219-26.219v-16.24c0-14.457-11.762-26.219-26.219-26.219h-11.302v-23.572c26.408-17.554 42.054-41.293 42.054-64.133 0-11.134-2.899-21.991-8.617-32.269l-13.107 7.292c4.462 8.021 6.725 16.425 6.725 24.977 0 18.552-14.291 38.536-38.238 53.504-2.444 1.302-60.351 31.355-101.362-8.122-31.478-30.299-60.674-17.313-65.28-14.962-11.811 4.642-22.479 15.931-30.438 26.532v-33.349c0-30.146 24.323-54.672 54.222-54.672h4.796l-10.676 17.826 12.869 7.707 17.283-28.862c14.634-20.18 41.296-32.708 69.661-32.708 27.432 0 54.87 11.465 71.607 29.921l11.111-10.077c-19.491-21.492-51.186-34.844-82.717-34.844-32.253 0-61.708 13.402-79.638 36.037h-14.297c-38.169 0-69.222 31.255-69.222 69.672v64.103h-10.682c-14.457 0-26.219 11.762-26.219 26.219v16.24c0 14.457 11.762 26.219 26.219 26.219h10.682v37.666c-3.451.456-7.183.708-11.258.708l-1.06 14.925 13.011 1.856c.806 8.174 2.066 13.398 2.357 14.537 7.242 33.444 27.896 63.567 59.736 87.117 23.86 17.648 45.434 25.4 46.341 25.721l2.505.888 2.505-.888c.907-.321 22.474-8.07 46.331-25.714 31.835-23.543 52.489-53.657 59.738-87.091.29-1.133 1.551-6.362 2.36-14.539zm-11.915-106.976h10.682c6.186 0 11.219 5.033 11.219 11.219v16.24c0 6.186-5.033 11.219-11.219 11.219h-10.682zm-8.12-42.667-.125-.227.141.227zm-226.446 81.344c-6.186 0-11.219-5.033-11.219-11.219v-16.24c0-6.186 5.033-11.219 11.219-11.219h10.682v38.677h-10.682zm25.682-56.754c5.81-10.678 21.357-34.752 36.191-40.35l.988-.458c.921-.5 22.864-11.957 48.136 12.369 20.605 19.834 47.829 27.895 78.732 23.298 11.838-1.759 22.033-5.044 29.217-7.858v118.52c-10.605-4.262-17.841-10.901-24.927-17.41-10.548-9.691-21.456-19.712-40.972-19.712-11.051 0-20.388 3.076-27.749 9.142-1.641 1.351-4.112 1.351-5.753 0-7.36-6.066-16.696-9.142-27.748-9.142-19.516 0-30.424 10.021-40.972 19.712-7.134 6.553-14.421 13.237-25.145 17.495v-105.606zm190.67 137.784-.093.379c-6.502 30.174-24.56 56.445-53.673 78.084-17.579 13.066-34.136 20.424-40.271 22.922-6.143-2.501-22.702-9.861-40.281-22.929-29.118-21.645-47.176-47.924-53.671-78.107l-.088-.366c-.013-.046-.836-3.2-1.551-8.668l33.039 4.713 2.119-14.85-22.553-3.217c8.957-4.932 15.65-11.081 21.646-16.589 9.584-8.804 17.153-15.758 30.824-15.758 7.479 0 13.605 1.924 18.209 5.718 7.195 5.929 17.638 5.928 24.831 0 4.604-3.794 10.731-5.718 18.21-5.718 13.671 0 21.24 6.954 30.824 15.758 5.995 5.508 12.688 11.657 21.646 16.589l-30.086 4.292c-10.142 1.447-20.64.496-30.357-2.75l-22.652-7.566-22.652 7.566c-7.624 2.547-15.569 3.679-23.593 3.363l-.588 14.988c1.074.042 2.146.063 3.217.063 8.75 0 17.386-1.405 25.716-4.187l17.9-5.979 17.9 5.979c11.918 3.981 24.79 5.148 37.229 3.372l40.348-5.756c-.717 5.466-1.541 8.62-1.549 8.654z"/><path d="m187.625 192.889h14.875v15h-14.875z"/><path d="m292.625 192.889h14.875v15h-14.875z"/><path d="m245.723 441-.519-.008-64.157 7.854.175-31.367c.041-7.374-2.801-14.315-8-19.544-5.2-5.229-12.126-8.109-19.5-8.109h-126.222c-15.163 0-27.5 12.336-27.5 27.5v64.875c0 9.649 7.851 17.5 17.5 17.5h227.938c9.649 0 17.5-7.851 17.5-17.5v-23.703c0-9.494-7.723-17.343-17.215-17.498zm2.215 41.201c0 1.378-1.121 2.5-2.5 2.5h-227.938c-1.379 0-2.5-1.122-2.5-2.5v-64.875c0-6.893 5.607-12.5 12.5-12.5h10.438v37.375h15v-37.375h15v37.375h15v-37.375h15v37.375h15v-37.375h15v37.375h15v-37.375h10.784c3.352 0 6.5 1.309 8.863 3.686 2.364 2.376 3.655 5.532 3.637 8.884l-.269 48.41 79.87-9.778c1.193.188 2.114 1.23 2.114 2.47v23.703z"/><path d="m504.834 451.784c-3.635-16.139-19.715-26.313-35.857-22.679-5.5 1.238-10.426 3.937-14.357 7.784l-9.757-33.891h7.662c.481 0 3.337-.096 5.752-.61 5.984-1.274 9.5-3.603 9.5-3.603 7.357-4.94 12.248-13.779 12.248-23.288v-74.38c0-24.879-20.241-45.12-45.12-45.12h-.01c-24.879 0-45.12 20.241-45.12 45.12v74.38c0 9.513 4.895 18.356 12.258 23.295s3.973 2.907 9.473 3.591c2.225.277 5.288.614 5.769.614h7.662l-9.762 33.908c-3.842-3.76-8.734-6.537-14.352-7.801-7.819-1.76-15.854-.37-22.625 3.914-6.772 4.284-11.472 10.948-13.231 18.766h.001c-1.761 7.818-.371 15.853 3.912 22.625.853 1.348 1.803 2.609 2.834 3.786l-14.652 14.249 10.457 10.754 16.933-16.467c1.041.357 2.104.665 3.193.91 2.21.498 4.417.736 6.593.736 13.716 0 26.128-9.486 29.265-23.415.389-1.729.61-3.456.692-5.169l10.705-37.185 10.7 37.167c.084 1.729.31 3.463.698 5.187 1.76 7.817 6.459 14.482 13.231 18.766 4.858 3.073 10.366 4.657 15.978 4.657 2.211 0 4.438-.246 6.647-.743 16.138-3.634 26.312-19.719 22.68-35.858zm-39.81-150.666v74.38c0 .491-.036.973-.091 1.45-4.361-8.95-12.608-15.665-22.531-17.952l.002-87.052c12.992 3.341 22.62 15.154 22.62 29.174zm-60.25 0c0-14.022 9.632-25.836 22.63-29.176l-.002 87.055c-9.927 2.29-18.176 9.01-22.533 17.967-.057-.482-.094-.969-.094-1.466v-74.38zm12.092 86.86c1.655-8.447 9.114-14.841 18.039-14.841s16.385 6.394 18.04 14.84c-.14.005-.278.021-.419.021h-35.25c-.14 0-.274-.016-.41-.02zm-7.998 73.689c-1.816 8.07-9.869 13.157-17.929 11.34-3.909-.88-7.241-3.229-9.383-6.615s-2.837-7.404-1.957-11.313h.001c.879-3.909 3.229-7.241 6.614-9.383 2.43-1.536 5.184-2.328 7.989-2.328 1.105 0 2.219.123 3.323.372 8.071 1.815 13.158 9.858 11.342 17.927zm69.991 11.34c-3.907.88-7.926.185-11.313-1.957-3.386-2.142-5.735-5.474-6.615-9.383s-.185-7.926 1.957-11.313c2.142-3.386 5.474-5.735 9.383-6.615 1.104-.249 2.208-.368 3.296-.368 6.857 0 13.064 4.743 14.633 11.708h-.001c1.817 8.069-3.27 16.111-11.34 17.928z"/><g><path d="m48 37.998h15v15h-15z"/><path d="m48 67.998h15v15h-15z"/><path d="m63 52.998h15v15h-15z"/><path d="m33 52.998h15v15h-15z"/></g><path d="m23.5 214.889h15v15h-15z"/><path d="m453.287 124.888h15v15h-15z"/></g></g></svg>