<!-- icon666.com - MILLIONS OF FREE VECTOR ICONS --><svg version="1.1" id="Capa_1" xmlns="http://www.w3.org/2000/svg" xmlns:xlink="http://www.w3.org/1999/xlink" x="0px" y="0px" viewBox="0 0 512.133 512.133" style="enable-background:new 0 0 512.133 512.133;" xml:space="preserve"><path style="fill:#EEBE1F;" d="M437.176,55.772l4.403-1.229l-4.403-1.229c-10.342-2.867-18.534-11.059-21.402-21.402l-1.229-4.403 l-1.229,4.403c-2.867,10.445-10.957,18.534-21.402,21.402l-4.403,1.229l4.403,1.229c10.342,2.867,18.534,11.059,21.402,21.402 l1.229,4.403l1.229-4.403C418.641,66.832,426.731,58.64,437.176,55.772z"/><path style="fill:#211E1F;" d="M414.545,86.697c-2.253,0-4.301-1.536-4.915-3.789l-1.229-4.403 c-2.355-8.602-9.216-15.462-17.818-17.818l-4.403-1.229c-2.253-0.614-3.789-2.662-3.789-4.915c0-2.253,1.536-4.301,3.789-4.915 l4.403-1.229c8.602-2.355,15.462-9.216,17.818-17.818l1.229-4.403c0.614-2.253,2.662-3.789,4.915-3.789s4.301,1.536,4.915,3.789 l1.229,4.403c2.355,8.602,9.216,15.462,17.818,17.818l4.403,1.229c2.253,0.614,3.789,2.662,3.789,4.915 c0,2.253-1.536,4.301-3.789,4.915l-4.403,1.229l0,0c-8.602,2.355-15.462,9.216-17.818,17.818l-1.229,4.403 C418.846,85.161,416.901,86.697,414.545,86.697z M402.053,54.544c5.12,3.072,9.421,7.373,12.493,12.595 c3.072-5.12,7.373-9.523,12.493-12.595c-5.12-3.072-9.421-7.373-12.493-12.493C411.473,47.171,407.173,51.472,402.053,54.544z"/><path style="fill:#EEBE1F;" d="M502.507,355.702l4.403-1.229l-4.403-1.229c-10.342-2.867-18.534-11.059-21.402-21.402l-1.229-4.403 l-1.229,4.403c-2.867,10.445-10.957,18.534-21.402,21.402l-4.403,1.229l4.403,1.229c10.342,2.867,18.534,11.059,21.402,21.402 l1.229,4.403l1.229-4.403C484.075,366.659,492.165,358.569,502.507,355.702z"/><path style="fill:#211E1F;" d="M479.979,386.627c-2.253,0-4.301-1.536-4.915-3.789l-1.229-4.403 c-2.355-8.602-9.216-15.462-17.818-17.818l-4.403-1.229c-2.253-0.614-3.789-2.662-3.789-4.915c0-2.253,1.536-4.301,3.789-4.915 l4.403-1.229c8.602-2.355,15.462-9.216,17.818-17.818l1.229-4.403c0.614-2.253,2.662-3.789,4.915-3.789s4.301,1.536,4.915,3.789 l1.229,4.403c2.355,8.602,9.216,15.462,17.818,17.818l4.403,1.229c2.253,0.614,3.789,2.662,3.789,4.915 c0,2.253-1.536,4.301-3.789,4.915l-4.403,1.229l0,0c-8.602,2.355-15.462,9.216-17.818,17.818l-1.229,4.403 C484.28,385.091,482.232,386.627,479.979,386.627z M467.486,354.473c5.12,3.072,9.421,7.373,12.493,12.595 c3.072-5.12,7.373-9.523,12.493-12.595c-5.12-3.072-9.421-7.373-12.493-12.493C476.907,347.1,472.606,351.401,467.486,354.473z"/><path style="fill:#4D4A46;" d="M110.11,506.947c22.221,0,40.243-18.022,40.243-40.346V256.476c0-22.323,18.022-40.346,40.243-40.346 h-80.998c-22.221,0-40.243,18.022-40.243,40.346v210.227c0,22.323-18.022,40.346-40.243,40.346h80.998 C110.11,507.049,110.11,506.947,110.11,506.947z"/><path style="fill:#35322F;" d="M109.496,216.131c-22.221,0-40.243,18.022-40.243,40.346v35.226 c11.059,14.95,28.877,24.678,48.947,24.678h6.656c0.41,0,0.922,0,1.331,0c13.619,0.614,24.064,12.186,24.064,25.805V248.08 c0-13.926,18.022-32.051,40.243-32.051h-80.998C109.496,216.029,109.496,216.131,109.496,216.131z"/><path style="fill:#211E1F;" d="M110.11,512.067H29.009c-2.867,0-5.12-2.253-5.12-5.12s2.253-5.12,5.12-5.12 c19.354,0,35.123-15.77,35.123-35.226v-15.258c0-2.867,2.253-5.12,5.12-5.12c2.867,0,5.12,2.253,5.12,5.12v15.258 c0,14.234-6.554,26.829-16.691,35.226h52.429c19.354,0,35.123-15.77,35.123-35.226V256.476c0-14.234,6.554-26.829,16.691-35.226 h-52.429c-19.354,0-35.123,15.77-35.123,35.226v51.712c0,2.867-2.253,5.12-5.12,5.12c-2.867,0-5.12-2.253-5.12-5.12v-51.712 c0-25.088,20.378-45.466,45.363-45.466h80.998c2.867,0,5.12,2.253,5.12,5.12s-2.253,5.12-5.12,5.12 c-19.354,0-35.123,15.77-35.123,35.226v210.227C155.371,491.689,135.096,512.067,110.11,512.067z"/><path style="fill:#F8B39E;" d="M150.251,436.291V323.139c0-13.619-10.547-25.19-24.064-25.805c-0.41,0-0.922,0-1.331,0H118.2 c-33.587,0-60.826-27.341-60.826-61.03V211.83c0-4.403-3.584-7.885-7.885-7.885h-3.994c-6.144,0-9.933-6.758-6.758-12.083 l11.162-18.227c4.915-7.987,7.475-17.101,7.475-26.419V84.752c0-43.93,35.43-79.565,79.258-79.565l0,0h138.342v431.104"/><path style="fill:#E98E7E;" d="M274.974,132.47V5.187H136.632c-43.827,0-79.258,35.635-79.258,79.565v47.821h217.6V132.47z"/><path style="fill:#211E1F;" d="M274.974,441.411c-2.867,0-5.12-2.253-5.12-5.12V10.307H136.632 c-40.858,0-74.138,33.382-74.138,74.445v62.464c0,10.24-2.867,20.378-8.192,29.184l-11.264,18.125 c-0.819,1.229-0.307,2.458-0.102,2.867c0.205,0.41,0.922,1.434,2.458,1.434h3.994c7.168,0,13.005,5.837,13.005,13.005v24.474 c0,30.822,24.986,55.91,55.706,55.91h6.656c0.512,0,1.024,0,1.536,0c16.282,0.717,28.979,14.234,28.979,30.925v113.152 c0,2.867-2.253,5.12-5.12,5.12s-5.12-2.253-5.12-5.12V323.139c0-11.162-8.397-20.173-19.251-20.685c-0.41,0-0.717,0-1.126,0h-6.656 c-36.352,0-65.946-29.696-65.946-66.15V211.83c0-1.536-1.229-2.765-2.765-2.765h-3.994c-4.813,0-9.011-2.458-11.366-6.656 c-2.355-4.198-2.253-9.114,0.307-13.21l11.162-18.227c4.403-7.168,6.656-15.36,6.656-23.757V84.752 c0.205-46.694,37.99-84.685,84.582-84.685h138.342c2.867,0,5.12,2.253,5.12,5.12v431.104 C280.094,439.056,277.739,441.411,274.974,441.411z"/><path style="fill:#4D4A46;" d="M362.219,431.888v-329.83c0-53.453-43.213-96.87-96.563-96.87H136.632 c-43.827,0-79.258,35.635-79.258,79.565v27.546h57.037c23.04,0,41.779,18.739,41.779,41.882v33.792 c0,20.173,16.282,36.454,36.352,36.454l0,0c10.547,0,19.046,8.499,19.046,19.046v188.416c0,41.472,33.485,75.059,74.854,75.059 h150.733C395.806,506.947,362.219,473.36,362.219,431.888z"/><g><path style="fill:#7D7B7A;" d="M265.656,30.787h-3.789c-2.867,0-5.12-2.253-5.12-5.12s2.253-5.12,5.12-5.12h3.789 c2.867,0,5.12,2.253,5.12,5.12S268.523,30.787,265.656,30.787z"/><path style="fill:#7D7B7A;" d="M77.752,96.937c-2.867,0-5.12-2.253-5.12-5.12v-7.066c0-35.43,28.672-64.205,64-64.205h105.267 c2.867,0,5.12,2.253,5.12,5.12s-2.253,5.12-5.12,5.12H136.632c-29.594,0-53.76,24.166-53.76,53.965v7.066 C82.872,94.684,80.619,96.937,77.752,96.937z"/></g><path style="fill:#211E1F;" d="M437.073,512.067H286.341c-44.134,0-79.974-35.942-79.974-80.179V243.472 c0-7.68-6.246-13.926-13.926-13.926c-22.835,0-41.472-18.637-41.472-41.574V154.18c0-20.275-16.384-36.762-36.659-36.762H57.374 c-2.867,0-5.12-2.253-5.12-5.12V84.752c0-46.694,37.786-84.685,84.378-84.685h129.024c46.899,0,87.552,31.846,98.714,77.517 c0.717,2.765-1.024,5.53-3.789,6.144c-2.765,0.717-5.53-1.024-6.144-3.789c-10.035-41.062-46.592-69.632-88.781-69.632H136.632 c-40.858,0-74.138,33.382-74.138,74.445v22.426h51.917c25.805,0,46.899,21.094,46.899,47.002v33.792 c0,17.306,14.029,31.334,31.232,31.334c13.312,0,24.166,10.854,24.166,24.166v188.416c0,38.605,31.232,69.939,69.734,69.939H398.16 c-14.746-8.294-26.931-21.299-33.997-37.478c-1.126-2.56,0-5.632,2.56-6.758s5.632,0,6.758,2.56 c11.162,25.293,36.25,41.574,63.795,41.574c2.867,0,5.12,2.253,5.12,5.12S439.941,512.067,437.073,512.067z"/><ellipse style="fill:#FFFFFF;" cx="362.429" cy="131.55" rx="20.17" ry="34.918"/><path style="fill:#211E1F;" d="M362.424,171.587c-0.922,0-1.741-0.205-2.56-0.717c-14.029-8.09-22.733-23.142-22.733-39.322 s8.704-31.232,22.733-39.322c1.536-0.922,3.584-0.922,5.12,0c14.029,8.09,22.733,23.142,22.733,39.322s-8.704,31.232-22.733,39.322 C364.267,171.28,363.345,171.587,362.424,171.587z M362.424,102.774c-9.318,6.554-15.053,17.306-15.053,28.774 s5.734,22.323,15.053,28.774c9.318-6.554,15.053-17.306,15.053-28.774S371.845,109.328,362.424,102.774z"/><ellipse transform="matrix(-0.9178 0.3971 -0.3971 -0.9178 817.2843 135.5824)" style="fill:#FFFFFF;" cx="394.605" cy="152.404" rx="34.92" ry="20.17"/><path style="fill:#211E1F;" d="M386.59,179.267c-9.626,0-19.149-3.072-27.136-8.909c-1.434-1.126-2.253-2.867-2.048-4.71 c1.843-16.077,12.288-30.003,27.034-36.454c14.746-6.451,32.154-4.403,45.158,5.222c1.434,1.126,2.253,2.867,2.048,4.71 c-1.843,16.077-12.288,30.003-27.034,36.454C398.878,178.038,392.734,179.267,386.59,179.267z M368.056,163.804 c9.728,5.939,21.914,6.861,32.461,2.355c10.547-4.608,18.227-14.029,20.48-25.19c-9.728-5.939-21.914-6.861-32.461-2.355 C377.989,143.222,370.411,152.643,368.056,163.804z"/><ellipse transform="matrix(-0.3971 0.9178 -0.9178 -0.3971 601.4766 -90.3288)" style="fill:#FFFFFF;" cx="330.408" cy="152.397" rx="20.17" ry="34.92"/><path style="fill:#211E1F;" d="M338.36,179.267c-6.144,0-12.288-1.229-18.022-3.686c-14.848-6.451-25.19-20.378-27.034-36.454 c-0.205-1.843,0.614-3.584,2.048-4.71c13.005-9.626,30.31-11.571,45.158-5.222c14.848,6.451,25.19,20.378,27.034,36.454 c0.205,1.843-0.614,3.584-2.048,4.71C357.509,176.297,347.985,179.267,338.36,179.267z M303.851,140.969 c2.253,11.162,9.933,20.685,20.48,25.19c10.547,4.608,22.733,3.686,32.461-2.355c-2.253-11.162-9.933-20.685-20.48-25.19 C325.765,134.006,313.579,134.928,303.851,140.969z"/><ellipse transform="matrix(-0.7077 0.7065 -0.7065 -0.7077 709.3925 88.1977)" style="fill:#FFFFFF;" cx="336.452" cy="190.843" rx="34.918" ry="20.17"/><path style="fill:#211E1F;" d="M322.078,221.968c-3.891,0-7.782-0.512-11.674-1.536c-1.741-0.512-3.174-1.843-3.584-3.584 c-4.198-15.667,0.307-32.461,11.776-43.827c11.469-11.469,28.262-15.974,43.827-11.776c1.741,0.512,3.174,1.843,3.584,3.584 c4.198,15.667-0.307,32.461-11.776,43.827C345.63,217.257,333.957,221.968,322.078,221.968z M316.037,211.216 c11.264,1.946,22.938-1.638,31.027-9.728s11.776-19.763,9.728-31.027c-11.264-1.946-22.938,1.638-31.027,9.728 C317.675,188.278,313.989,199.952,316.037,211.216z"/><ellipse transform="matrix(-0.7065 0.7077 -0.7077 -0.7065 798.0766 50.603)" style="fill:#FFFFFF;" cx="388.545" cy="190.787" rx="20.17" ry="34.918"/><path style="fill:#211E1F;" d="M402.872,221.968c-11.878,0-23.552-4.71-32.154-13.312c-11.469-11.469-15.974-28.262-11.776-43.827 c0.512-1.741,1.843-3.174,3.584-3.584c15.667-4.198,32.461,0.307,43.827,11.776c11.469,11.469,15.974,28.262,11.776,43.827 c-0.512,1.741-1.843,3.174-3.584,3.584C410.654,221.456,406.763,221.968,402.872,221.968z M413.214,215.414L413.214,215.414 L413.214,215.414z M368.158,170.46c-1.946,11.264,1.638,22.835,9.728,31.027c8.09,8.09,19.763,11.776,31.027,9.728 c1.946-11.264-1.638-22.835-9.728-31.027C390.993,172.099,379.32,168.412,368.158,170.46z"/><ellipse style="fill:#F05E40;" cx="362.529" cy="164.73" rx="12.39" ry="12.39"/><path style="fill:#211E1F;" d="M362.526,182.236c-9.626,0-17.51-7.885-17.51-17.51s7.885-17.51,17.51-17.51 c9.626,0,17.51,7.885,17.51,17.51S372.152,182.236,362.526,182.236z M362.526,157.558c-3.994,0-7.27,3.277-7.27,7.27 c0,3.994,3.277,7.27,7.27,7.27s7.27-3.277,7.27-7.27C369.797,160.835,366.52,157.558,362.526,157.558z"/><ellipse style="fill:#F05E40;" cx="362.429" cy="250.54" rx="20.17" ry="34.918"/><path style="fill:#211E1F;" d="M362.424,290.473c-0.922,0-1.741-0.205-2.56-0.717c-14.029-8.09-22.733-23.142-22.733-39.322 s8.704-31.232,22.733-39.322c1.536-0.922,3.584-0.922,5.12,0c14.029,8.09,22.733,23.142,22.733,39.322s-8.704,31.232-22.733,39.322 C364.267,290.268,363.345,290.473,362.424,290.473z M362.424,221.66c-9.318,6.554-15.053,17.306-15.053,28.774 s5.734,22.323,15.053,28.774c9.318-6.554,15.053-17.306,15.053-28.774S371.845,228.214,362.424,221.66z"/><ellipse transform="matrix(-0.9178 0.3971 -0.3971 -0.9178 864.4465 363.6034)" style="fill:#F05E40;" cx="394.58" cy="271.297" rx="34.92" ry="20.17"/><path style="fill:#211E1F;" d="M386.59,298.256c-9.626,0-19.149-3.072-27.136-8.909c-1.434-1.126-2.253-2.867-2.048-4.71 c1.843-16.077,12.288-30.003,27.034-36.454c14.746-6.451,32.154-4.403,45.158,5.222c1.434,1.126,2.253,2.867,2.048,4.71 c-1.843,16.077-12.288,30.003-27.034,36.454C398.878,297.027,392.734,298.256,386.59,298.256z M368.056,282.793 c9.728,5.939,21.914,6.861,32.461,2.355c10.547-4.608,18.227-14.029,20.48-25.19c-9.728-5.939-21.914-6.861-32.461-2.355 C377.989,262.108,370.411,271.632,368.056,282.793z"/><ellipse transform="matrix(-0.3971 0.9178 -0.9178 -0.3971 710.5356 75.8957)" style="fill:#F05E40;" cx="330.339" cy="271.331" rx="20.17" ry="34.92"/><path style="fill:#211E1F;" d="M338.36,298.256c-6.144,0-12.288-1.229-18.022-3.686c-14.848-6.451-25.19-20.378-27.034-36.454 c-0.205-1.843,0.614-3.584,2.048-4.71c13.005-9.626,30.31-11.571,45.158-5.222c14.848,6.451,25.19,20.378,27.034,36.454 c0.205,1.843-0.614,3.584-2.048,4.71C357.509,295.184,347.985,298.256,338.36,298.256z M303.851,259.856 c2.253,11.162,9.933,20.685,20.48,25.19c10.547,4.608,22.733,3.686,32.461-2.355c-2.253-11.162-9.933-20.685-20.48-25.19 C325.765,252.995,313.579,253.916,303.851,259.856z"/><ellipse transform="matrix(-0.7077 0.7065 -0.7065 -0.7077 793.291 291.3184)" style="fill:#F05E40;" cx="336.384" cy="309.758" rx="34.918" ry="20.17"/><path style="fill:#211E1F;" d="M322.078,340.854c-3.891,0-7.782-0.512-11.674-1.536c-1.741-0.512-3.174-1.843-3.584-3.584 c-4.198-15.667,0.307-32.461,11.776-43.827c11.469-11.469,28.262-15.872,43.827-11.776c1.741,0.512,3.174,1.843,3.584,3.584 c4.198,15.667-0.307,32.461-11.776,43.827C345.63,336.246,333.957,340.854,322.078,340.854z M316.037,330.102 c11.264,1.946,22.938-1.638,31.027-9.728c8.09-8.09,11.776-19.763,9.728-31.027c-11.264-1.946-22.938,1.638-31.027,9.728 C317.675,307.267,313.989,318.94,316.037,330.102z"/><ellipse transform="matrix(-0.7065 0.7077 -0.7077 -0.7065 882.1345 253.557)" style="fill:#F05E40;" cx="388.491" cy="309.694" rx="20.17" ry="34.918"/><path style="fill:#211E1F;" d="M402.872,340.854c-11.878,0-23.552-4.71-32.154-13.312c-11.469-11.469-15.974-28.262-11.776-43.827 c0.512-1.741,1.843-3.174,3.584-3.584c15.667-4.198,32.461,0.307,43.827,11.776c11.469,11.469,15.974,28.262,11.776,43.827 c-0.512,1.741-1.843,3.174-3.584,3.584C410.654,340.444,406.763,340.854,402.872,340.854z M413.214,334.403L413.214,334.403 L413.214,334.403z M368.158,289.347c-1.946,11.264,1.638,22.835,9.728,31.027c8.09,8.09,19.763,11.776,31.027,9.728 c1.946-11.264-1.638-22.835-9.728-31.027C390.993,290.985,379.32,287.401,368.158,289.347z"/><ellipse style="fill:#FFFFFF;" cx="362.529" cy="283.71" rx="12.39" ry="12.39"/><path style="fill:#211E1F;" d="M362.526,301.225c-9.626,0-17.51-7.885-17.51-17.51c0-9.626,7.885-17.51,17.51-17.51 c9.626,0,17.51,7.885,17.51,17.51C380.037,293.34,372.152,301.225,362.526,301.225z M362.526,276.444c-3.994,0-7.27,3.277-7.27,7.27 s3.277,7.27,7.27,7.27s7.27-3.277,7.27-7.27S366.52,276.444,362.526,276.444z"/><ellipse style="fill:#F05E40;" cx="69.249" cy="362.05" rx="20.17" ry="34.918"/><path style="fill:#211E1F;" d="M69.253,402.089c-0.922,0-1.741-0.205-2.56-0.717c-14.029-8.09-22.733-23.142-22.733-39.322 c0-16.179,8.704-31.232,22.733-39.322c1.536-0.922,3.584-0.922,5.12,0c14.029,8.09,22.733,23.142,22.733,39.322 c0,16.179-8.704,31.232-22.733,39.322C70.993,401.884,70.174,402.089,69.253,402.089z M69.253,333.276 C59.935,339.83,54.2,350.582,54.2,362.05s5.734,22.323,15.053,28.774c9.318-6.554,15.053-17.306,15.053-28.774 S78.571,339.83,69.253,333.276z"/><ellipse transform="matrix(-0.9178 0.3971 -0.3971 -0.9178 346.5726 694.077)" style="fill:#F05E40;" cx="101.429" cy="382.919" rx="34.92" ry="20.17"/><path style="fill:#211E1F;" d="M93.419,409.769c-9.626,0-19.149-3.072-27.136-8.909c-1.434-1.126-2.253-2.867-2.048-4.71 c1.843-16.077,12.288-30.003,27.034-36.454c14.746-6.451,32.154-4.403,45.158,5.222c1.434,1.126,2.253,2.867,2.048,4.71 c-1.843,16.077-12.288,30.003-27.034,36.454C105.605,408.54,99.461,409.769,93.419,409.769z M74.885,394.409 c9.728,5.939,21.914,6.861,32.461,2.355c10.547-4.608,18.227-14.029,20.48-25.19c-9.728-5.939-21.914-6.861-32.461-2.355 S77.24,383.248,74.885,394.409z"/><ellipse transform="matrix(-0.3971 0.9178 -0.9178 -0.3971 403.4197 500.804)" style="fill:#F05E40;" cx="37.215" cy="382.91" rx="20.17" ry="34.92"/><path style="fill:#211E1F;" d="M45.189,409.769c-6.144,0-12.288-1.229-18.022-3.686c-14.848-6.451-25.19-20.378-27.136-36.454 c-0.205-1.843,0.614-3.584,2.048-4.71c13.005-9.626,30.31-11.571,45.158-5.222c14.848,6.451,25.19,20.378,27.034,36.454 c0.205,1.843-0.614,3.584-2.048,4.71C64.337,406.8,54.712,409.769,45.189,409.769z M10.68,371.472 c2.253,11.162,9.933,20.685,20.48,25.19c10.547,4.608,22.733,3.686,32.461-2.355c-2.253-11.162-9.933-20.685-20.48-25.19 C32.593,364.611,20.408,365.532,10.68,371.472z"/><ellipse transform="matrix(-0.7077 0.7065 -0.7065 -0.7077 371.505 688.9744)" style="fill:#F05E40;" cx="43.232" cy="421.336" rx="34.918" ry="20.17"/><path style="fill:#211E1F;" d="M28.907,452.47c-3.891,0-7.782-0.512-11.674-1.536c-1.741-0.512-3.174-1.843-3.584-3.584 c-4.198-15.667,0.307-32.461,11.776-43.827c11.469-11.469,28.262-15.872,43.827-11.776c1.741,0.512,3.174,1.843,3.584,3.584 c4.198,15.667-0.307,32.461-11.776,43.827C52.459,447.76,40.785,452.47,28.907,452.47z M22.865,441.718 c11.264,1.946,22.938-1.638,31.027-9.728s11.776-19.763,9.728-31.027c-11.264-1.946-22.938,1.638-31.027,9.728 C24.504,418.883,20.817,430.454,22.865,441.718z"/><ellipse transform="matrix(-0.7065 0.7077 -0.7077 -0.7065 460.9142 651.4273)" style="fill:#F05E40;" cx="95.38" cy="421.287" rx="20.17" ry="34.918"/><path style="fill:#211E1F;" d="M109.598,452.47c-11.878,0-23.552-4.71-32.154-13.312c-11.469-11.366-15.974-28.16-11.776-43.827 c0.512-1.741,1.843-3.174,3.584-3.584c15.667-4.198,32.461,0.307,43.827,11.776c11.469,11.469,15.974,28.262,11.776,43.827 c-0.512,1.741-1.843,3.174-3.584,3.584C117.483,451.958,113.592,452.47,109.598,452.47z M120.043,446.019L120.043,446.019 L120.043,446.019z M74.885,400.963c-1.946,11.264,1.638,22.835,9.728,31.027c8.09,8.09,19.763,11.776,31.027,9.728 c1.946-11.264-1.638-22.835-9.728-31.027C97.822,402.601,86.149,399.017,74.885,400.963z"/><ellipse style="fill:#FFFFFF;" cx="69.359" cy="395.33" rx="12.39" ry="12.39"/><path style="fill:#211E1F;" d="M69.355,412.739c-9.626,0-17.51-7.885-17.51-17.51c0-9.626,7.885-17.51,17.51-17.51 s17.51,7.885,17.51,17.51C86.865,404.854,78.981,412.739,69.355,412.739z M69.355,388.06c-3.994,0-7.27,3.277-7.27,7.27 c0,3.994,3.277,7.27,7.27,7.27c3.994,0,7.27-3.277,7.27-7.27S73.349,388.06,69.355,388.06z"/><ellipse style="fill:#FFFFFF;" cx="362.429" cy="369.53" rx="20.17" ry="34.918"/><path style="fill:#211E1F;" d="M362.424,409.462c-0.922,0-1.741-0.205-2.56-0.717c-14.029-8.09-22.733-23.142-22.733-39.322 c0-16.179,8.704-31.232,22.733-39.322c1.536-0.922,3.584-0.922,5.12,0c14.029,8.09,22.733,23.142,22.733,39.322 c0,16.179-8.704,31.232-22.733,39.322C364.267,409.257,363.345,409.462,362.424,409.462z M362.424,340.649 c-9.318,6.554-15.053,17.306-15.053,28.774s5.734,22.323,15.053,28.774c9.318-6.554,15.053-17.306,15.053-28.774 S371.845,347.203,362.424,340.649z"/><ellipse transform="matrix(-0.9178 0.3971 -0.3971 -0.9178 911.7244 591.7819)" style="fill:#FFFFFF;" cx="394.596" cy="390.281" rx="34.92" ry="20.17"/><path style="fill:#211E1F;" d="M386.59,417.244c-9.626,0-19.149-3.072-27.136-8.909c-1.434-1.126-2.253-2.867-2.048-4.71 c1.843-16.077,12.288-30.003,27.034-36.454c14.746-6.451,32.154-4.403,45.158,5.222c1.434,1.126,2.253,2.867,2.048,4.71 c-1.843,16.077-12.288,30.003-27.034,36.454C398.878,416.016,392.734,417.244,386.59,417.244z M368.056,401.782 c9.728,5.939,21.914,6.861,32.461,2.355c10.547-4.608,18.227-14.029,20.48-25.19c-9.728-5.939-21.914-6.861-32.461-2.355 C377.989,381.097,370.411,390.62,368.056,401.782z"/><ellipse transform="matrix(-0.3971 0.9178 -0.9178 -0.3971 819.7722 242.0819)" style="fill:#FFFFFF;" cx="330.372" cy="390.304" rx="20.17" ry="34.92"/><path style="fill:#211E1F;" d="M338.36,417.244c-6.144,0-12.288-1.229-18.022-3.686c-14.848-6.451-25.19-20.378-27.034-36.454 c-0.205-1.843,0.614-3.584,2.048-4.71c13.005-9.626,30.31-11.571,45.158-5.222c14.848,6.451,25.19,20.378,27.034,36.454 c0.205,1.843-0.614,3.584-2.048,4.71C357.509,414.172,347.985,417.244,338.36,417.244z M303.851,378.844 c2.253,11.162,9.933,20.685,20.48,25.19c10.547,4.608,22.733,3.686,32.461-2.355c-2.253-11.162-9.933-20.685-20.48-25.19 S313.579,372.905,303.851,378.844z"/><ellipse transform="matrix(-0.7077 0.7065 -0.7065 -0.7077 877.3865 494.5138)" style="fill:#FFFFFF;" cx="336.399" cy="428.752" rx="34.918" ry="20.17"/><path style="fill:#211E1F;" d="M322.078,459.843c-3.891,0-7.782-0.512-11.674-1.536c-1.741-0.512-3.174-1.843-3.584-3.584 c-4.198-15.667,0.307-32.461,11.776-43.827c11.469-11.469,28.262-15.974,43.827-11.776c1.741,0.512,3.174,1.843,3.584,3.584 c4.198,15.667-0.307,32.461-11.776,43.827C345.63,455.235,333.957,459.843,322.078,459.843z M316.037,449.091 c11.264,1.946,22.938-1.638,31.027-9.728s11.776-19.763,9.728-31.027c-11.264-1.946-22.938,1.638-31.027,9.728 C317.675,426.256,313.989,437.827,316.037,449.091z"/><ellipse transform="matrix(-0.7065 0.7077 -0.7077 -0.7065 966.3689 456.5716)" style="fill:#FFFFFF;" cx="388.512" cy="428.668" rx="20.17" ry="34.918"/><path style="fill:#211E1F;" d="M402.872,459.843c-11.878,0-23.552-4.71-32.154-13.312c-11.469-11.469-15.974-28.262-11.776-43.827 c0.512-1.741,1.843-3.174,3.584-3.584c15.667-4.198,32.461,0.307,43.827,11.776c11.469,11.469,15.974,28.262,11.776,43.827 c-0.512,1.741-1.843,3.174-3.584,3.584C410.654,459.331,406.763,459.843,402.872,459.843z M413.214,453.392L413.214,453.392 L413.214,453.392z M368.158,408.336c-1.946,11.264,1.638,22.835,9.728,31.027c8.09,8.09,19.763,11.776,31.027,9.728 c1.946-11.264-1.638-22.835-9.728-31.027C390.993,409.974,379.32,406.39,368.158,408.336z"/><ellipse style="fill:#F05E40;" cx="362.529" cy="402.7" rx="12.39" ry="12.39"/><path style="fill:#211E1F;" d="M362.526,420.214c-9.626,0-17.51-7.885-17.51-17.51c0-9.626,7.885-17.51,17.51-17.51 c9.626,0,17.51,7.885,17.51,17.51C380.037,412.329,372.152,420.214,362.526,420.214z M362.526,395.433 c-3.994,0-7.27,3.277-7.27,7.27s3.277,7.27,7.27,7.27s7.27-3.277,7.27-7.27S366.52,395.433,362.526,395.433z"/><path style="fill:#EEBE1F;" d="M227.051,104.822l4.403-1.229l-4.403-1.229c-10.342-2.867-18.534-11.059-21.402-21.402l-1.229-4.403 l-1.229,4.403c-2.867,10.445-10.957,18.534-21.402,21.402l-4.403,1.229l4.403,1.229c10.342,2.867,18.534,11.059,21.402,21.402 l1.229,4.403l1.229-4.403C208.517,115.779,216.606,107.689,227.051,104.822z"/><path style="fill:#211E1F;" d="M204.421,135.747c-2.253,0-4.301-1.536-4.915-3.789l-1.229-4.403 c-2.355-8.602-9.216-15.462-17.818-17.818l-4.403-1.229c-2.253-0.614-3.789-2.662-3.789-4.915s1.536-4.301,3.789-4.915l4.403-1.229 c8.602-2.355,15.462-9.216,17.818-17.818l1.229-4.403c0.614-2.253,2.662-3.789,4.915-3.789c2.253,0,4.301,1.536,4.915,3.789 l1.229,4.403c2.355,8.602,9.216,15.462,17.818,17.818l4.403,1.229c2.253,0.614,3.789,2.662,3.789,4.915s-1.536,4.301-3.789,4.915 l-4.403,1.229l0,0c-8.602,2.355-15.462,9.216-17.818,17.818l-1.229,4.403C208.824,134.211,206.776,135.747,204.421,135.747z M191.928,103.593c5.12,3.072,9.421,7.373,12.493,12.595c3.072-5.12,7.373-9.523,12.493-12.595 c-5.12-3.072-9.421-7.373-12.493-12.595C201.349,96.22,197.048,100.521,191.928,103.593z"/><ellipse style="fill:#F27366;" cx="97.109" cy="205.99" rx="22.528" ry="11.469"/><g><path style="fill:#221F1F;" d="M102.328,148.752c-1.536,0-3.072-0.717-4.096-2.048c-4.403-5.837-11.059-9.216-18.33-9.216 c-0.102,0-0.205,0-0.307,0c-7.168,0.102-13.824,3.482-18.125,9.216c-1.638,2.253-4.915,2.765-7.168,1.024 c-2.253-1.638-2.765-4.915-1.024-7.168c6.246-8.397,16.179-13.414,26.624-13.414c0.102,0,0.205,0,0.307,0 c10.342,0.102,20.173,5.12,26.317,13.414c1.638,2.253,1.229,5.53-1.024,7.168C104.478,148.444,103.352,148.752,102.328,148.752z"/><circle style="fill:#221F1F;" cx="78.669" cy="161.24" r="10.04"/></g></svg>