<!-- icon666.com - MILLIONS OF FREE VECTOR ICONS --><svg id="Filloutline" enable-background="new 0 0 126 77.047" viewBox="0 0 126 77.047" xmlns="http://www.w3.org/2000/svg"><g><g><g id="XMLID_78_"><g><path d="m117.88 1h-109.76c-3.93 0-7.12 3.19-7.12 7.12v36.76 24.05c0 3.93 3.19 7.12 7.12 7.12h109.76c3.93 0 7.12-3.19 7.12-7.12v-24.05-36.76c0-3.93-3.19-7.12-7.12-7.12z" fill="#ffdbac"/></g><g><g><path d="m7.09 19.84h41.82c0 1.61-.18 3.17-.53 4.67-.01.03-.01.07-.02.1-2.15 9.25-10.45 16.14-20.36 16.14s-18.21-6.89-20.36-16.14c-.01-.03-.01-.07-.02-.1-.35-1.5-.53-3.06-.53-4.67z" fill="#e7f2f1"/></g><g><path d="m77.09 19.84h41.82c0 1.61-.18 3.17-.53 4.67-.01.03-.01.07-.02.1-2.15 9.25-10.45 16.14-20.36 16.14s-18.21-6.89-20.36-16.14c-.01-.03-.01-.07-.02-.1-.35-1.5-.53-3.06-.53-4.67z" fill="#e7f2f1"/></g><g><path d="m48.86 29.62c.75 1.41.76 3.12-.09 4.48-.04.05-.07.1-.1.15-.65 1.01-.48 2.32.42 3.12 3.15 2.8 6.97 3.62 12.16 1.66-4.45 2.87-8.84 3.49-13.99 2.19 3.45 3.74 7.64 4.63 13.65 2.9-7.91 3.88-14.68 1.74-19.79-2.73 1.64 4.34 5.89 7.12 11.88 8.85-6.91.24-12.93-1.79-15.95-6.94-.42.15-.84.3-1.27.43-.57.17-1.15.32-1.74.46-1.37 4.1-1.08 9.05 0 14.39-4.44-3.91-5.81-8.85-4.65-13.78 0 0-.59.07-1.39.08-.82 0-1.63-.04-2.42-.11-1.16-.1-2.3-.28-3.4-.53-1.81 5.09-4.06 9.37-9.2 11.67 2.71-4.24 4.63-8.54 5.09-12.95-.87-.35-1.71-.75-2.53-1.19-1.78 3.48-5.33 5.59-9.48 6.99 2.5-2.6 4.28-5.18 5.14-7.76.34-1.03.07-2.17-.72-2.93-.32-.31-.63-.63-.93-.95-.86-.94-1.63-1.94-2.3-3.01-.86-1.35-.86-3.08-.1-4.49.78-1.47.9-3.16.49-5.01 2.15 9.25 10.45 16.14 20.36 16.14s18.21-6.89 20.36-16.14c-.41 1.85-.29 3.55.5 5.01z" fill="#655f68"/></g><g><path d="m118.85 29.62c.76 1.41.76 3.14-.1 4.49-.67 1.07-1.44 2.07-2.3 3.01-.3.32-.61.64-.93.95-.79.76-1.06 1.9-.72 2.93.86 2.58 2.64 5.16 5.14 7.76-4.15-1.4-7.7-3.51-9.48-6.99-.82.44-1.66.84-2.53 1.19.46 4.41 2.38 8.71 5.09 12.95-5.14-2.3-7.39-6.58-9.2-11.67-1.1.25-2.24.43-3.4.53-.79.07-1.6.11-2.42.11-.8-.01-1.39-.08-1.39-.08 1.16 4.93-.21 9.87-4.65 13.78 1.08-5.34 1.37-10.29 0-14.39-.59-.14-1.17-.29-1.74-.46-.43-.13-.85-.28-1.27-.43-3.02 5.15-9.04 7.18-15.95 6.94 5.99-1.73 10.24-4.51 11.88-8.85-5.11 4.47-11.88 6.61-19.79 2.73 6.01 1.73 10.2.84 13.65-2.9-5.15 1.3-9.54.68-13.99-2.19 5.19 1.96 9.01 1.14 12.16-1.66.9-.8 1.07-2.11.42-3.12-.03-.05-.06-.1-.1-.15-.85-1.36-.84-3.07-.09-4.48.79-1.46.91-3.16.5-5.01 2.15 9.25 10.45 16.14 20.36 16.14s18.21-6.89 20.36-16.14c-.41 1.85-.29 3.54.49 5.01z" fill="#655f68"/></g></g><g id="XMLID_79_"><g><path d="m117.88 1h-4.86c0 7.07-1.47 13.32-4.07 18.84h9.96c0 1.61-.18 3.17-.53 4.67-.01.03-.01.07-.02.1-.41 1.85-.29 3.54.49 5.01.76 1.41.76 3.14-.1 4.49-.67 1.07-1.44 2.07-2.3 3.01-.3.32-.61.64-.93.95-.79.76-1.06 1.9-.72 2.93.86 2.58 2.64 5.16 5.14 7.76-4.15-1.4-7.7-3.51-9.48-6.99-.82.44-1.66.84-2.53 1.19.46 4.41 2.38 8.71 5.09 12.95-5.14-2.3-7.39-6.58-9.2-11.67-1.1.25-2.24.43-3.4.53-.79.07-1.6.11-2.42.11-.8-.01-1.39-.08-1.39-.08 1.16 4.93-.21 9.87-4.65 13.78 1.08-5.34 1.37-10.29 0-14.39-.59-.14-1.17-.29-1.74-.46-.43-.13-.85-.28-1.27-.43-3.02 5.15-9.04 7.18-15.95 6.94 4.19-1.21 7.52-2.93 9.71-5.34-15.02 7.87-33.18 12.11-48.56 14.4-18.61 2.76-33.15 2.66-33.15 2.66v6.97c0 3.93 3.19 7.12 7.12 7.12h109.76c3.93 0 7.12-3.19 7.12-7.12v-24.05-36.76c0-3.93-3.19-7.12-7.12-7.12z" fill="#efcea8"/></g></g></g></g><path d="m117.878 0h-109.756c-4.478 0-8.122 3.644-8.122 8.122v60.803c0 4.479 3.644 8.122 8.122 8.122h109.756c4.479 0 8.122-3.644 8.122-8.122v-60.803c0-4.478-3.644-8.122-8.122-8.122zm-10.328 42.039c-.001 0-.001 0-.002 0-.005.002-.008.007-.013.009-.11.047-.206.114-.289.193-.03.028-.051.06-.076.091-.051.061-.096.125-.131.196-.019.04-.034.079-.048.12-.024.072-.039.145-.046.222-.004.045-.009.087-.008.133.001.023-.006.044-.004.067.33 3.12 1.376 6.358 3.179 9.819-2.509-2.191-4.021-5.246-5.352-8.981-.17-.475-.668-.75-1.159-.64-1.821.404-3.688.609-5.548.609-.016 0-.033 0-.049 0-.722-.002-1.26-.069-1.265-.07-.329-.041-.65.078-.87.322-.219.243-.306.579-.231.898.896 3.822.163 7.374-2.121 10.425.654-4.687.452-8.419-.606-11.577-.11-.33-.384-.578-.723-.657-.982-.227-1.955-.514-2.892-.855-.453-.167-.961.017-1.205.433-1.727 2.942-4.682 4.939-8.574 5.867 3.154-1.795 5.233-4.087 6.297-6.922.161-.429.01-.913-.367-1.174-.376-.261-.884-.232-1.228.07-2.205 1.933-5.199 3.802-8.882 4.341 1.502-.677 2.87-1.703 4.146-3.086.3-.325.35-.809.124-1.189s-.674-.566-1.104-.458c-2.126.537-4.086.728-5.955.565 1.813-.425 3.484-1.323 5.03-2.697 1.264-1.123 1.516-2.976.596-4.41l-.089-.14c-.639-1.015-.66-2.346-.055-3.474.11-.205.209-.415.297-.629 3.564 7.271 11.042 12.29 19.673 12.29s16.109-5.018 19.677-12.289c.088.214.187.423.296.628.605 1.13.581 2.468-.065 3.491-.856 1.356-1.895 2.626-3.087 3.775-1.051 1.012-1.431 2.567-.968 3.96.53 1.601 1.386 3.212 2.589 4.865-2.422-1.315-4.102-2.925-5.094-4.868-.123-.241-.337-.421-.595-.501s-.537-.052-.773.077c-.782.426-1.599.813-2.43 1.151zm-9.55-2.289c-10.641 0-19.358-8.393-19.881-18.906h39.762c-.523 10.513-9.24 18.906-19.881 18.906zm20.344-3.336c1.091 1.617 2.789 3.253 5.656 3.536v3.541c-2.849-1.094-4.767-3.001-6.355-6.226.24-.279.474-.562.699-.851zm-90.344 3.336c-10.641 0-19.358-8.393-19.881-18.906h39.762c-.523 10.513-9.24 18.906-19.881 18.906zm0 2c8.631 0 16.109-5.018 19.677-12.289.088.215.187.425.297.63.605 1.127.583 2.458-.055 3.472l-.092.145c-.917 1.431-.666 3.284.598 4.407 1.546 1.374 3.216 2.271 5.03 2.697-1.869.162-3.83-.029-5.955-.566-.432-.109-.878.078-1.104.458s-.176.864.124 1.189c1.276 1.383 2.643 2.409 4.145 3.086-3.682-.54-6.677-2.409-8.881-4.341-.344-.302-.851-.331-1.228-.07s-.528.745-.367 1.174c1.064 2.834 3.143 5.126 6.297 6.922-3.892-.928-6.848-2.925-8.575-5.867-.245-.417-.752-.6-1.205-.433-.937.341-1.91.629-2.892.855-.339.079-.612.327-.723.657-1.058 3.157-1.26 6.89-.606 11.577-2.284-3.051-3.018-6.604-2.121-10.425.075-.319-.012-.655-.231-.898-.22-.244-.546-.364-.87-.322-.005 0-.543.068-1.265.07-1.896.028-3.761-.201-5.598-.609-.495-.109-.989.166-1.159.64-1.332 3.735-2.843 6.79-5.352 8.981 1.803-3.461 2.849-6.699 3.179-9.819.002-.023-.005-.044-.004-.067.002-.045-.003-.088-.008-.133-.008-.077-.022-.15-.046-.222-.014-.042-.029-.081-.048-.12-.035-.072-.08-.135-.131-.196-.026-.031-.047-.063-.076-.091-.084-.079-.179-.146-.289-.193-.005-.002-.008-.007-.013-.009-.001 0-.001 0-.002 0-.831-.338-1.648-.725-2.429-1.15-.236-.128-.515-.156-.773-.077-.258.08-.473.26-.595.501-.992 1.942-2.672 3.552-5.094 4.868 1.203-1.653 2.059-3.264 2.589-4.865.462-1.394.083-2.949-.968-3.961-1.192-1.148-2.231-2.418-3.087-3.775-.646-1.023-.67-2.361-.065-3.491.109-.204.208-.414.296-.628 3.566 7.27 11.044 12.288 19.675 12.288zm-20.344-5.336c.225.289.459.572.699.851-1.588 3.225-3.506 5.132-6.355 6.226v-3.541c2.867-.282 4.565-1.918 5.656-3.536zm110.222 38.633h-109.756c-3.375 0-6.122-2.746-6.122-6.122v-23.316c4.233-1.405 6.396-4.082 7.819-6.778.474.481.646 1.202.429 1.854-.766 2.315-2.417 4.798-4.908 7.381-.32.332-.372.84-.125 1.229.248.39.729.56 1.165.412 4.611-1.559 7.75-3.727 9.556-6.609.266.132.536.255.807.378-2.041 4.493-5.079 7.702-9.291 9.757-.496.242-.703.841-.46 1.337.173.355.529.562.899.562.147 0 .297-.032.438-.101 2.693-1.314 4.977-3.116 6.867-5.354-.784 1.821-1.795 3.71-3.062 5.691-.238.372-.203.856.085 1.191.289.334.762.44 1.166.26 5.047-2.256 7.487-6.199 9.441-11.423.519.098 1.042.176 1.565.244-.919 4.727-3.056 8.499-6.546 11.479-.42.359-.47.99-.111 1.41.198.231.479.351.761.351.229 0 .46-.079.649-.239 3.898-3.329 6.262-7.537 7.247-12.813.519.029 1.039.049 1.558.049.075.001.146 0 .217-.001-.755 5.061 1.066 9.798 5.211 13.459.188.166.424.25.662.25.172 0 .344-.044.5-.134.372-.215.565-.644.48-1.065-1.132-5.589-1.204-9.818-.225-13.235.134 5.31 2.026 9.27 5.678 11.75.172.117.368.173.561.173.32 0 .635-.153.828-.438.311-.457.191-1.079-.265-1.389-3.213-2.183-4.778-5.643-4.811-10.522 3.14 4.468 8.858 6.775 16.255 6.512.491-.018.896-.389.957-.877.06-.488-.243-.947-.715-1.083-3.484-1.006-6.174-2.31-8.107-3.94 4.198 2.08 9.665 2.878 16.18-.321.465-.228.679-.774.492-1.258-.186-.483-.713-.744-1.21-.601-4.09 1.183-7.2 1.102-9.817-.343 3.916.278 7.476-.685 10.972-2.939.43-.277.581-.833.351-1.29-.229-.457-.765-.665-1.246-.486-4.541 1.709-8.083 1.24-11.144-1.479-.523-.465-.625-1.235-.245-1.828l.103-.162c1.021-1.622 1.069-3.723.125-5.483-.652-1.216-.775-2.66-.378-4.415.003-.014-.002-.028.001-.042.354-1.559.546-3.179.546-4.844 0-.552-.448-1-1-1h-41.811c-.552 0-1 .448-1 1 0 1.665.193 3.284.546 4.844.003.014-.002.028.001.042.397 1.754.273 3.198-.377 4.414-.944 1.762-.892 3.869.134 5.499-1.175 2.012-2.556 3.042-4.398 3.283v-29.806c0-3.375 2.747-6.122 6.122-6.122h109.756c3.375 0 6.122 2.747 6.122 6.122v29.806c-1.842-.241-3.223-1.271-4.398-3.285 1.027-1.63 1.078-3.737.134-5.499-.651-1.215-.774-2.659-.377-4.414.003-.014-.002-.028.001-.042.354-1.559.546-3.179.546-4.844 0-.552-.448-1-1-1h-41.812c-.552 0-1 .448-1 1 0 1.665.193 3.284.546 4.844.003.014-.002.028.001.042.397 1.755.273 3.199-.378 4.415-.944 1.761-.896 3.862.126 5.485l.1.157c.383.596.281 1.367-.243 1.832-3.061 2.719-6.603 3.188-11.144 1.479-.478-.178-1.016.031-1.246.486-.23.457-.079 1.013.351 1.29 3.497 2.255 7.053 3.218 10.972 2.939-2.618 1.444-5.727 1.527-9.818.343-.497-.144-1.023.117-1.21.601-.187.483.027 1.03.492 1.258 6.517 3.2 11.985 2.4 16.181.321-1.933 1.63-4.623 2.935-8.108 3.941-.472.137-.775.596-.715 1.083.061.487.466.859.957.877 7.394.266 13.115-2.044 16.255-6.512-.033 4.878-1.597 8.339-4.811 10.522-.457.31-.576.932-.265 1.389.193.285.508.438.828.438.193 0 .389-.056.561-.173 3.652-2.481 5.544-6.441 5.678-11.75.978 3.417.906 7.647-.225 13.235-.085.421.108.85.48 1.065.156.09.328.134.5.134.238 0 .475-.085.662-.25 4.145-3.661 5.967-8.398 5.211-13.459.054.001.108.001.164.001.532-.007 1.07-.03 1.608-.062.983 5.283 3.348 9.494 7.249 12.826.188.161.419.239.649.239.282 0 .563-.119.761-.351.358-.42.309-1.051-.111-1.41-3.492-2.981-5.629-6.754-6.547-11.484.525-.065 1.048-.141 1.566-.238 1.954 5.225 4.394 9.167 9.441 11.423.403.18.877.074 1.166-.26.288-.335.323-.819.085-1.191-1.267-1.981-2.278-3.87-3.062-5.691 1.89 2.238 4.174 4.04 6.867 5.354.141.069.291.101.438.101.37 0 .726-.207.899-.562.242-.497.036-1.095-.46-1.337-4.212-2.054-7.25-5.263-9.291-9.757.271-.123.541-.246.807-.378 1.807 2.882 4.945 5.05 9.556 6.609.437.148.918-.022 1.165-.412.247-.389.195-.897-.125-1.229-2.49-2.583-4.142-5.066-4.908-7.381-.217-.652-.045-1.372.429-1.854 1.424 2.696 3.587 5.372 7.819 6.778v23.316c.003 3.375-2.744 6.121-6.119 6.121z" fill="#3a322b"/></g></svg>