<!-- icon666.com - MILLIONS OF FREE VECTOR ICONS --><svg version="1.1" id="Capa_1" xmlns="http://www.w3.org/2000/svg" xmlns:xlink="http://www.w3.org/1999/xlink" x="0px" y="0px" viewBox="0 0 512 512" style="enable-background:new 0 0 512 512;" xml:space="preserve"><path style="fill:#FFB69F;" d="M279.807,5.12v355.942c0,27.341-16.998,51.814-42.701,61.338L97.33,474.112 c-6.656,2.458-11.059,8.806-11.059,15.872l0,0c0,9.318,7.578,16.896,16.896,16.896h133.939c10.65,0,21.197-1.536,31.437-4.506 l11.878-3.482c23.45-6.861,48.538-5.837,71.475,2.867l0,0c8.806,3.379,18.227,5.12,27.75,5.12l0,0 c17.408,0,31.642-14.131,31.642-31.642V5.12"/><g><path style="fill:#FBE0E2;" d="M123.135,491.52c-2.048,0-3.994-1.229-4.813-3.379c-1.024-2.662,0.41-5.632,3.072-6.554 l121.139-44.851c31.539-11.674,52.736-42.086,52.736-75.674v-20.378c0-2.867,2.253-5.12,5.12-5.12s5.12,2.253,5.12,5.12v20.378 c0,37.888-23.859,72.192-59.392,85.299l-121.242,44.851C124.364,491.418,123.749,491.52,123.135,491.52z"/><path style="fill:#FBE0E2;" d="M300.287,125.235c-2.867,0-5.12-2.253-5.12-5.12V39.936c0-2.867,2.253-5.12,5.12-5.12 s5.12,2.253,5.12,5.12v80.179C305.407,122.982,303.154,125.235,300.287,125.235z"/><path style="fill:#FBE0E2;" d="M300.287,17.408c-2.867,0-5.12-2.253-5.12-5.12V5.12c0-2.867,2.253-5.12,5.12-5.12 s5.12,2.253,5.12,5.12v7.168C305.407,15.155,303.154,17.408,300.287,17.408z"/></g><path style="fill:#221F1F;" d="M379.647,512c-10.138,0-20.07-1.843-29.491-5.427c-21.709-8.192-45.875-9.216-68.198-2.765 l-11.878,3.482c-10.65,3.072-21.709,4.71-32.87,4.71H103.167c-12.186,0-22.016-9.83-22.016-22.016 c0-9.216,5.734-17.51,14.336-20.685l139.776-51.814c23.552-8.704,39.322-31.437,39.322-56.525V5.12c0-2.867,2.253-5.12,5.12-5.12 s5.12,2.253,5.12,5.12v355.942c0,29.389-18.534,55.91-45.978,66.15L99.071,478.925c-4.608,1.741-7.68,6.144-7.68,11.059 c0,6.451,5.325,11.776,11.776,11.776h133.939c10.138,0,20.275-1.434,30.003-4.301l11.878-3.482 c24.371-7.066,50.893-6.042,74.65,2.97c8.294,3.174,16.998,4.71,25.907,4.71c14.643,0,26.522-11.878,26.522-26.522V5.12 c0-2.867,2.253-5.12,5.12-5.12s5.12,2.253,5.12,5.12v470.118C416.409,495.514,399.922,512,379.647,512z"/><path style="fill:#AFAFAF;" d="M366.847,318.157h-44.339c-8.909,0-16.077-7.168-16.077-16.077V155.955 c0-8.909,7.168-16.077,16.077-16.077h44.339c8.909,0,16.077,7.168,16.077,16.077V302.08 C382.924,310.989,375.756,318.157,366.847,318.157z"/><path style="fill:#221F1F;" d="M366.847,323.277h-44.339c-11.674,0-21.197-9.523-21.197-21.197V155.955 c0-11.674,9.523-21.197,21.197-21.197h44.339c11.674,0,21.197,9.523,21.197,21.197V302.08 C388.044,313.754,378.521,323.277,366.847,323.277z M322.508,145.101c-6.042,0-10.957,4.915-10.957,10.957V302.08 c0,6.042,4.915,10.957,10.957,10.957h44.339c6.042,0,10.957-4.915,10.957-10.957V155.955c0-6.042-4.915-10.957-10.957-10.957 h-44.339V145.101z"/><path style="fill:#FFB69F;" d="M13.26,124.928h245.35c19.866,0,37.376,13.107,42.906,32.256l14.029,48.64h-98.406 c-8.294,0-16.486-2.662-23.142-7.578l-6.656-4.915c-6.758-4.915-14.848-7.578-23.142-7.578H13.26"/><g><path style="fill:#FBE0E2;" d="M17.663,150.528H13.26c-2.867,0-5.12-2.253-5.12-5.12s2.253-5.12,5.12-5.12h4.403 c2.867,0,5.12,2.253,5.12,5.12S20.53,150.528,17.663,150.528z"/><path style="fill:#FBE0E2;" d="M281.855,167.936c-2.253,0-4.301-1.434-4.915-3.686c-2.355-8.09-9.83-13.722-18.33-13.722H37.631 c-2.867,0-5.12-2.253-5.12-5.12s2.253-5.12,5.12-5.12H258.61c13.005,0,24.576,8.704,28.16,21.197 c0.819,2.765-0.819,5.53-3.482,6.349C282.777,167.834,282.367,167.936,281.855,167.936z"/></g><path style="fill:#221F1F;" d="M315.647,210.842h-98.406c-9.523,0-18.534-2.97-26.214-8.602l-6.656-4.915 c-5.837-4.301-12.8-6.554-20.07-6.554H13.26c-2.867,0-5.12-2.253-5.12-5.12s2.253-5.12,5.12-5.12H164.3 c9.523,0,18.534,2.97,26.214,8.602l6.656,4.915c5.837,4.301,12.8,6.554,20.07,6.554h91.648l-12.186-42.086 c-4.915-16.794-20.48-28.57-37.99-28.57H13.26c-2.867,0-5.12-2.253-5.12-5.12s2.253-5.12,5.12-5.12h245.35 c22.016,0,41.677,14.746,47.821,35.942l14.029,48.64c0.41,1.536,0.102,3.174-0.819,4.506 C318.719,210.125,317.183,210.842,315.647,210.842z"/><path style="fill:#FFB69F;" d="M290.457,177.562h40.141c7.782,0,14.131,6.349,14.131,14.131l0,0c0,7.782-6.349,14.131-14.131,14.131 h-40.141"/><g><path style="fill:#221F1F;" d="M330.597,210.842h-40.141c-2.867,0-5.12-2.253-5.12-5.12s2.253-5.12,5.12-5.12h40.141 c4.915,0,9.011-3.994,9.011-9.011s-3.994-9.011-9.011-9.011h-51.405c-2.867,0-5.12-2.253-5.12-5.12s2.253-5.12,5.12-5.12h51.405 c10.547,0,19.251,8.602,19.251,19.251C349.849,202.24,341.247,210.842,330.597,210.842z"/><path style="fill:#221F1F;" d="M319.129,67.072c-2.867,0-5.12-2.253-5.12-5.12V56.32c0-2.867,2.253-5.12,5.12-5.12 s5.12,2.253,5.12,5.12v5.632C324.249,64.819,321.893,67.072,319.129,67.072z"/><path style="fill:#221F1F;" d="M319.129,92.672c-2.867,0-5.12-2.253-5.12-5.12V81.92c0-2.867,2.253-5.12,5.12-5.12 s5.12,2.253,5.12,5.12v5.632C324.249,90.419,321.893,92.672,319.129,92.672z"/><path style="fill:#221F1F;" d="M319.129,118.272c-2.867,0-5.12-2.253-5.12-5.12v-5.632c0-2.867,2.253-5.12,5.12-5.12 s5.12,2.253,5.12,5.12v5.632C324.249,116.019,321.893,118.272,319.129,118.272z"/><path style="fill:#221F1F;" d="M344.729,67.072c-2.867,0-5.12-2.253-5.12-5.12V56.32c0-2.867,2.253-5.12,5.12-5.12 s5.12,2.253,5.12,5.12v5.632C349.849,64.819,347.493,67.072,344.729,67.072z"/><path style="fill:#221F1F;" d="M344.729,92.672c-2.867,0-5.12-2.253-5.12-5.12V81.92c0-2.867,2.253-5.12,5.12-5.12 s5.12,2.253,5.12,5.12v5.632C349.849,90.419,347.493,92.672,344.729,92.672z"/><path style="fill:#221F1F;" d="M344.729,118.272c-2.867,0-5.12-2.253-5.12-5.12v-5.632c0-2.867,2.253-5.12,5.12-5.12 s5.12,2.253,5.12,5.12v5.632C349.849,116.019,347.493,118.272,344.729,118.272z"/><path style="fill:#221F1F;" d="M370.329,67.072c-2.867,0-5.12-2.253-5.12-5.12V56.32c0-2.867,2.253-5.12,5.12-5.12 s5.12,2.253,5.12,5.12v5.632C375.449,64.819,373.093,67.072,370.329,67.072z"/><path style="fill:#221F1F;" d="M370.329,92.672c-2.867,0-5.12-2.253-5.12-5.12V81.92c0-2.867,2.253-5.12,5.12-5.12 s5.12,2.253,5.12,5.12v5.632C375.449,90.419,373.093,92.672,370.329,92.672z"/><path style="fill:#221F1F;" d="M370.329,118.272c-2.867,0-5.12-2.253-5.12-5.12v-5.632c0-2.867,2.253-5.12,5.12-5.12 s5.12,2.253,5.12,5.12v5.632C375.449,116.019,373.093,118.272,370.329,118.272z"/><path style="fill:#221F1F;" d="M319.129,15.872c-2.867,0-5.12-2.253-5.12-5.12V5.12c0-2.867,2.253-5.12,5.12-5.12 s5.12,2.253,5.12,5.12v5.632C324.249,13.619,321.893,15.872,319.129,15.872z"/><path style="fill:#221F1F;" d="M319.129,41.472c-2.867,0-5.12-2.253-5.12-5.12V30.72c0-2.867,2.253-5.12,5.12-5.12 s5.12,2.253,5.12,5.12v5.632C324.249,39.219,321.893,41.472,319.129,41.472z"/><path style="fill:#221F1F;" d="M344.729,15.872c-2.867,0-5.12-2.253-5.12-5.12V5.12c0-2.867,2.253-5.12,5.12-5.12 s5.12,2.253,5.12,5.12v5.632C349.849,13.619,347.493,15.872,344.729,15.872z"/><path style="fill:#221F1F;" d="M344.729,41.472c-2.867,0-5.12-2.253-5.12-5.12V30.72c0-2.867,2.253-5.12,5.12-5.12 s5.12,2.253,5.12,5.12v5.632C349.849,39.219,347.493,41.472,344.729,41.472z"/><path style="fill:#221F1F;" d="M370.329,15.872c-2.867,0-5.12-2.253-5.12-5.12V5.12c0-2.867,2.253-5.12,5.12-5.12 s5.12,2.253,5.12,5.12v5.632C375.449,13.619,373.093,15.872,370.329,15.872z"/><path style="fill:#221F1F;" d="M370.329,41.472c-2.867,0-5.12-2.253-5.12-5.12V30.72c0-2.867,2.253-5.12,5.12-5.12 s5.12,2.253,5.12,5.12v5.632C375.449,39.219,373.093,41.472,370.329,41.472z"/><path style="fill:#221F1F;" d="M319.129,352.358c-2.867,0-5.12-2.253-5.12-5.12v-5.632c0-2.867,2.253-5.12,5.12-5.12 s5.12,2.253,5.12,5.12v5.632C324.249,350.003,321.893,352.358,319.129,352.358z"/><path style="fill:#221F1F;" d="M319.129,377.958c-2.867,0-5.12-2.253-5.12-5.12v-5.632c0-2.867,2.253-5.12,5.12-5.12 s5.12,2.253,5.12,5.12v5.632C324.249,375.603,321.893,377.958,319.129,377.958z"/><path style="fill:#221F1F;" d="M319.129,403.558c-2.867,0-5.12-2.253-5.12-5.12v-5.632c0-2.867,2.253-5.12,5.12-5.12 s5.12,2.253,5.12,5.12v5.632C324.249,401.203,321.893,403.558,319.129,403.558z"/><path style="fill:#221F1F;" d="M344.729,352.358c-2.867,0-5.12-2.253-5.12-5.12v-5.632c0-2.867,2.253-5.12,5.12-5.12 s5.12,2.253,5.12,5.12v5.632C349.849,350.003,347.493,352.358,344.729,352.358z"/><path style="fill:#221F1F;" d="M344.729,377.958c-2.867,0-5.12-2.253-5.12-5.12v-5.632c0-2.867,2.253-5.12,5.12-5.12 s5.12,2.253,5.12,5.12v5.632C349.849,375.603,347.493,377.958,344.729,377.958z"/><path style="fill:#221F1F;" d="M344.729,403.558c-2.867,0-5.12-2.253-5.12-5.12v-5.632c0-2.867,2.253-5.12,5.12-5.12 s5.12,2.253,5.12,5.12v5.632C349.849,401.203,347.493,403.558,344.729,403.558z"/><path style="fill:#221F1F;" d="M370.329,352.358c-2.867,0-5.12-2.253-5.12-5.12v-5.632c0-2.867,2.253-5.12,5.12-5.12 s5.12,2.253,5.12,5.12v5.632C375.449,350.003,373.093,352.358,370.329,352.358z"/><path style="fill:#221F1F;" d="M370.329,377.958c-2.867,0-5.12-2.253-5.12-5.12v-5.632c0-2.867,2.253-5.12,5.12-5.12 s5.12,2.253,5.12,5.12v5.632C375.449,375.603,373.093,377.958,370.329,377.958z"/><path style="fill:#221F1F;" d="M370.329,403.558c-2.867,0-5.12-2.253-5.12-5.12v-5.632c0-2.867,2.253-5.12,5.12-5.12 s5.12,2.253,5.12,5.12v5.632C375.449,401.203,373.093,403.558,370.329,403.558z"/></g><path style="fill:#F0C020;" d="M236.287,270.95l4.403-1.229l-4.403-1.229c-10.445-2.867-18.534-11.059-21.402-21.402l-1.229-4.403 l-1.229,4.403c-2.867,10.445-10.957,18.534-21.402,21.402l-4.403,1.229l4.403,1.229c10.445,2.867,18.534,11.059,21.402,21.402 l1.229,4.403l1.229-4.403C217.753,281.907,225.842,273.818,236.287,270.95z"/><path style="fill:#221F1F;" d="M213.657,301.875c-2.253,0-4.301-1.536-4.915-3.789l-1.229-4.403 c-2.355-8.602-9.216-15.462-17.818-17.818l-4.403-1.229c-2.253-0.614-3.789-2.662-3.789-4.915c0-2.253,1.536-4.301,3.789-4.915 l4.403-1.229c8.602-2.355,15.462-9.216,17.818-17.818l1.229-4.403c0.614-2.253,2.662-3.789,4.915-3.789 c2.253,0,4.301,1.536,4.915,3.789l1.229,4.403c2.355,8.602,9.216,15.462,17.818,17.818l4.403,1.229 c2.253,0.614,3.789,2.662,3.789,4.915s-1.536,4.301-3.789,4.915l-4.403,1.229c-8.602,2.355-15.462,9.216-17.818,17.818l-1.229,4.403 C217.957,300.339,215.909,301.875,213.657,301.875z M201.061,269.722c5.12,3.072,9.523,7.373,12.595,12.595 c3.072-5.12,7.373-9.523,12.595-12.595c-5.12-3.072-9.523-7.373-12.595-12.595C210.585,262.246,206.181,266.65,201.061,269.722z"/><path style="fill:#F0C020;" d="M494.335,160.358l4.403-1.229l-4.403-1.229c-10.445-2.867-18.534-11.059-21.402-21.402l-1.229-4.403 l-1.229,4.403c-2.867,10.445-10.957,18.534-21.402,21.402l-4.403,1.229l4.403,1.229c10.445,2.867,18.534,11.059,21.402,21.402 l1.229,4.403l1.229-4.403C475.801,171.315,483.89,163.226,494.335,160.358z"/><path style="fill:#221F1F;" d="M471.705,191.283c-2.253,0-4.301-1.536-4.915-3.789l-1.229-4.403 c-2.355-8.602-9.216-15.462-17.818-17.818l-4.403-1.229c-2.253-0.614-3.789-2.662-3.789-4.915c0-2.253,1.536-4.301,3.789-4.915 l4.403-1.229c8.602-2.355,15.462-9.216,17.818-17.818l1.229-4.403c0.614-2.253,2.662-3.789,4.915-3.789s4.301,1.536,4.915,3.789 l1.229,4.403c2.355,8.602,9.216,15.462,17.818,17.818l4.403,1.229c2.253,0.614,3.789,2.662,3.789,4.915 c0,2.253-1.536,4.301-3.789,4.915l-4.403,1.229c-8.602,2.355-15.462,9.216-17.818,17.818l-1.229,4.403 C476.005,189.747,473.957,191.283,471.705,191.283z M459.109,159.13c5.12,3.072,9.523,7.373,12.595,12.595 c3.072-5.12,7.373-9.523,12.595-12.595c-5.12-3.072-9.523-7.373-12.595-12.595C468.633,151.654,464.229,156.058,459.109,159.13z"/></svg>