<!-- icon666.com - MILLIONS OF FREE VECTOR ICONS --><svg id="Layer_1" enable-background="new 0 0 500.742 500.742" viewBox="0 0 500.742 500.742" xmlns="http://www.w3.org/2000/svg"><g><g><path d="m8.937 150.976c-.939 4.657-1.437 9.474-1.437 14.407 0 40.046 32.464 72.51 72.51 72.51 37.627 0 68.554-28.662 72.154-65.342z" fill="#cfdbfa"/><path d="m134.608 169.906c-7.479 32.082-36.239 55.987-70.599 55.987-12.722 0-24.672-3.286-35.066-9.041 13.105 13.004 31.145 21.041 51.066 21.041 37.627 0 68.554-28.662 72.154-65.342z" fill="#9eb6f4"/><path d="m238.869 299.169-76.219-71.254c-6.973-18.198-25.14-30.855-46.081-29.516-22.755 1.456-41.241 19.729-42.935 42.467-2.016 27.055 19.338 49.631 45.966 49.631.119 0 .238-.006.357-.007v97.068c0 4.686 3.678 8.547 8.358 8.775l224.55 11.092c5.014.244 9.213-3.755 9.213-8.775v-110.843c0-5.45-4.91-9.585-10.281-8.658z" fill="#e08ea2"/><path d="m351.798 279.149-11.93 2.115c1.443 7.113 2.21 14.429 2.21 21.87v83.735l-222.121-10.972v11.662c0 4.686 3.678 8.547 8.358 8.775l224.55 11.092c5.014.244 9.213-3.755 9.213-8.775v-110.844c.001-5.45-4.909-9.585-10.28-8.658z" fill="#d15573"/><path d="m489.978 356.604-97.003-17.108 2.953-16.742c1.918-10.878 12.292-18.141 23.17-16.222l57.611 10.161c10.878 1.918 18.141 12.292 16.222 23.17z" fill="#e08ea2"/><path d="m458.708 313.693c10.878 1.918 18.141 12.292 16.222 23.17l-2.923 16.572 17.97 3.169 2.953-16.742c1.918-10.878-5.344-21.251-16.222-23.17z" fill="#d15573"/><path d="m142.44 80.51c0 18.655-12.088 29.278-27 29.278s-27-10.623-27-29.278 27-39.178 27-39.178 27 20.523 27 39.178z" fill="#cfdbfa"/></g><g><g><path d="m280.439 363.769h-15v-15h15zm-30 0h-15v-15h15zm-30 0h-15v-15h15z" fill="#fff"/></g><g><path d="m495.762 320.617c-4.213-6.017-10.518-10.034-17.751-11.31l-57.61-10.161c-14.934-2.633-29.224 7.372-31.858 22.306l-4.255 24.127 26.294 4.637-41.002 11.274v-35.222h-15v72.381c0 .456-.217.758-.399.931s-.506.368-.944.354l-224.555-11.093c-.687-.033-1.224-.597-1.224-1.284v-104.628l-7.562.062-.295.006c-10.699 0-21.013-4.5-28.296-12.346-7.383-7.954-11.002-18.334-10.19-29.228.805-10.795 6.247-20.842 14.934-27.565l-9.182-11.862c-9.036 6.994-15.541 16.602-18.7 27.313-13.715-2.524-26.276-9.404-35.879-19.78-11.148-12.044-17.288-27.722-17.288-44.145 0-1.957.089-3.917.265-5.87l128.36 19.335c-1.113 5.32-2.896 10.432-5.313 15.303-6.922-2.564-14.459-3.731-22.222-3.237-4.335.277-8.629 1.088-12.763 2.411l4.57 14.287c2.963-.948 6.041-1.529 9.149-1.728 17.007-1.097 32.517 8.844 38.6 24.714l.618 1.614 6.54 6.114-23.338 5.382 3.371 14.616 33.175-7.65 60.472 56.534 68.378-12.122v16.245h15v-18.904l33.21-5.888c.482-.083.839.108 1.048.284.208.176.457.489.457.983v23.524h15v-23.524c0-4.815-2.112-9.355-5.795-12.457-3.683-3.101-8.513-4.41-13.296-3.585l-30.624 5.429v-21.489c0-13.069-5.865-25.232-16.093-33.369-10.227-8.137-23.396-11.12-36.132-8.183l-87.215 20.112-11.438-10.693c-3.831-9.098-9.933-16.697-17.478-22.282 4.381-8.735 7.166-18.286 8.12-28.006l.696-7.088-125.007-18.83v-36.866c0-5.554 4.518-10.072 10.071-10.072h15.997v-15h-15.994c-13.824 0-25.071 11.247-25.071 25.072v34.606l-17.322-2.609-1.411 6.998c-1.052 5.216-1.585 10.562-1.585 15.889 0 20.213 7.557 39.509 21.278 54.334 2.775 2.998 5.76 5.746 8.907 8.256v71.218c0 24.604 20.018 44.622 44.622 44.622h37.649v43.744c0 8.698 6.806 15.843 15.488 16.266l5.708.282v49.725h-108.213v15h390v-15h-49.861l-28.032-39.653 14.954.739c.261.013.521.019.782.019 4.16 0 8.221-1.614 11.243-4.493 3.212-3.059 5.054-7.357 5.054-11.793v-21.603l75.471-20.751 51.013 8.997 4.254-24.127c1.276-7.235-.341-14.532-4.555-20.549zm-224.751-91.848c8.256-1.903 16.792.03 23.422 5.305 6.629 5.275 10.432 13.159 10.432 21.631v24.148l-63.612 11.277-47.62-44.518zm-196.203 100.045c-16.334 0-29.622-13.289-29.622-29.622v-61.757c6.569 3.178 13.57 5.454 20.832 6.735-.071 13.68 4.919 26.586 14.294 36.685 8.479 9.133 19.915 15.001 32.146 16.659v31.299h-37.65zm272.401 125.017h-198.556v-48.984l169.859 8.391zm138.336-115.271-1.65 9.355-82.23-14.503 1.649-9.355c1.197-6.787 7.697-11.333 14.481-10.139l57.61 10.161c3.288.58 6.154 2.405 8.069 5.141 1.916 2.735 2.651 6.052 2.071 9.34z"/><path d="m115.439 117.288c20.313 0 34.5-15.124 34.5-36.778 0-21.747-26.895-42.818-29.962-45.149l-4.538-3.45-4.538 3.45c-3.067 2.331-29.962 23.402-29.962 45.149 0 21.654 14.187 36.778 34.5 36.778zm.007-66.196c7.752 6.922 19.493 19.516 19.493 29.417 0 13.23-7.654 21.778-19.5 21.778s-19.5-8.548-19.5-21.778c0-9.859 11.756-22.48 19.507-29.417z"/><path d="m432.106 453.831h15v15h-15z"/><g><g><path d="m243.002 43.56h15v15h-15z"/></g><g><path d="m243.002 73.56h15v15h-15z"/></g><g><path d="m258.002 58.56h15v15h-15z"/></g><g><path d="m228.002 58.56h15v15h-15z"/></g></g><g><g><path d="m424.606 171.811h15v15h-15z"/></g><g><path d="m424.606 201.811h15v15h-15z"/></g><g><path d="m439.606 186.811h15v15h-15z"/></g><g><path d="m409.606 186.811h15v15h-15z"/></g></g><path d="m210.291 153.863h15v14.938h-15z"/><path d="m432.106 48.033h15v14.938h-15z"/></g></g></g></svg>