<!-- icon666.com - MILLIONS OF FREE VECTOR ICONS --><svg version="1.1" id="Capa_1" xmlns="http://www.w3.org/2000/svg" xmlns:xlink="http://www.w3.org/1999/xlink" x="0px" y="0px" viewBox="0 0 512 512" style="enable-background:new 0 0 512 512;" xml:space="preserve"><path style="fill:#F2E1D6;" d="M370.305,434.176H133.454c-11.264,0-20.48-9.216-20.48-20.48V49.869 c0-11.264,9.216-20.48,20.48-20.48h236.851c11.264,0,20.48,9.216,20.48,20.48v363.827 C390.785,424.96,381.569,434.176,370.305,434.176z"/><path style="fill:#D6C0B4;" d="M251.828,330.445c-54.272,0-98.406,44.134-98.406,98.406c0,1.741,0,3.482,0.102,5.222h196.608 c0.102-1.741,0.102-3.482,0.102-5.222C350.337,374.682,306.1,330.445,251.828,330.445z"/><g><path style="fill:#FFFFFF;" d="M133.454,62.976c-2.867,0-5.12-2.253-5.12-5.12v-7.987c0-2.867,2.253-5.12,5.12-5.12 s5.12,2.253,5.12,5.12v7.987C138.574,60.723,136.219,62.976,133.454,62.976z"/><path style="fill:#FFFFFF;" d="M133.454,418.816c-2.867,0-5.12-2.253-5.12-5.12V82.432c0-2.867,2.253-5.12,5.12-5.12 s5.12,2.253,5.12,5.12v331.264C138.574,416.563,136.219,418.816,133.454,418.816z"/></g><g><path style="fill:#221F1F;" d="M390.785,193.229c-2.867,0-5.12-2.253-5.12-5.12V49.869c0-8.499-6.861-15.36-15.36-15.36H133.454 c-8.499,0-15.36,6.861-15.36,15.36V82.33c0,2.867-2.253,5.12-5.12,5.12s-5.12-2.253-5.12-5.12V49.869 c0-14.131,11.469-25.6,25.6-25.6h236.851c14.131,0,25.6,11.469,25.6,25.6v138.342C395.905,190.976,393.652,193.229,390.785,193.229 z"/><path style="fill:#221F1F;" d="M112.974,244.736c-2.867,0-5.12-2.253-5.12-5.12V215.04c0-2.867,2.253-5.12,5.12-5.12 s5.12,2.253,5.12,5.12v24.576C118.094,242.483,115.739,244.736,112.974,244.736z"/><path style="fill:#221F1F;" d="M370.305,439.296H133.454c-14.131,0-25.6-11.469-25.6-25.6V373.76c0-2.867,2.253-5.12,5.12-5.12 s5.12,2.253,5.12,5.12v39.936c0,8.499,6.861,15.36,15.36,15.36h236.851c8.499,0,15.36-6.861,15.36-15.36v-53.248 c0-2.867,2.253-5.12,5.12-5.12s5.12,2.253,5.12,5.12v53.248C395.905,427.827,384.436,439.296,370.305,439.296z"/></g><path style="fill:#FC5D3D;" d="M303.233,5.12H200.526c-13.414,0-24.269,10.854-24.269,24.269l0,0 c0,13.414,10.854,24.269,24.269,24.269h102.707c13.414,0,24.269-10.854,24.269-24.269l0,0C327.502,15.974,316.648,5.12,303.233,5.12 z"/><g><path style="fill:#FFCBC2;" d="M303.233,30.72h-78.131c-2.867,0-5.12-2.253-5.12-5.12s2.253-5.12,5.12-5.12h78.131 c2.867,0,5.12,2.253,5.12,5.12S306.1,30.72,303.233,30.72z"/><path style="fill:#FFCBC2;" d="M206.363,30.72h-5.837c-2.867,0-5.12-2.253-5.12-5.12s2.253-5.12,5.12-5.12h5.837 c2.867,0,5.12,2.253,5.12,5.12S209.23,30.72,206.363,30.72z"/></g><path style="fill:#221F1F;" d="M303.233,58.675H200.526c-16.179,0-29.389-13.21-29.389-29.389C171.137,13.21,184.347,0,200.526,0 h102.707c16.179,0,29.389,13.21,29.389,29.389S319.412,58.675,303.233,58.675z M200.526,10.24c-10.547,0-19.149,8.602-19.149,19.149 s8.602,19.149,19.149,19.149h102.707c10.547,0,19.149-8.602,19.149-19.149S313.78,10.24,303.233,10.24 C303.233,10.24,200.526,10.24,200.526,10.24z"/><path style="fill:#AFAFAF;" d="M390.99,271.36L390.99,271.36c17.92-7.885,32.973-23.962,40.96-43.418l33.587-82.227l-56.013,68.915 C396.11,231.014,389.352,251.904,390.99,271.36L390.99,271.36z"/><g><path style="fill:#221F1F;" d="M356.276,357.478c-4.813,0-9.626-1.229-14.029-3.891c-13.107-7.782-17.408-24.781-9.626-37.786 c3.789-6.349,9.728-10.854,16.896-12.698c7.168-1.843,14.541-0.717,20.89,2.97c13.107,7.782,17.408,24.781,9.626,37.786 C374.913,352.666,365.697,357.478,356.276,357.478z M356.276,312.525c-1.434,0-2.867,0.205-4.301,0.512 c-4.506,1.126-8.294,3.994-10.65,7.987c-4.915,8.192-2.15,18.944,6.042,23.757c8.192,4.915,18.944,2.15,23.757-6.042 c4.915-8.192,2.15-18.944-6.042-23.757C362.42,313.344,359.451,312.525,356.276,312.525z"/><path style="fill:#221F1F;" d="M390.99,276.48c-0.922,0-1.843-0.205-2.662-0.717c-1.434-0.819-2.355-2.355-2.458-3.994 c-1.741-20.89,5.427-42.906,19.661-60.416l56.013-68.915c1.638-1.946,4.403-2.458,6.554-1.126c2.15,1.331,3.072,3.994,2.15,6.349 l-33.587,82.227c-8.499,20.89-24.371,37.683-43.622,46.182C392.424,276.378,391.707,276.48,390.99,276.48z M447.72,175.718 l-34.304,42.189c-10.547,13.005-16.896,29.389-17.51,45.158c13.517-8.09,24.883-21.504,31.232-37.069L447.72,175.718z"/><path style="fill:#221F1F;" d="M367.745,315.699c-0.922,0-1.741-0.205-2.56-0.717c-2.458-1.434-3.277-4.608-1.843-7.066 l23.245-39.117c1.434-2.458,4.608-3.277,7.066-1.843c2.458,1.434,3.277,4.608,1.843,7.066l-23.245,39.117 C371.227,314.778,369.486,315.699,367.745,315.699z"/></g><path style="fill:#AFAFAF;" d="M390.99,271.36L390.99,271.36c-17.92-7.885-33.075-23.859-41.062-43.315l-33.894-82.125l56.32,68.813 C385.665,231.014,392.526,251.904,390.99,271.36L390.99,271.36z"/><g><path style="fill:#221F1F;" d="M425.908,357.376c-9.421,0-18.534-4.813-23.757-13.414l0,0c-7.782-13.107-3.482-30.003,9.523-37.888 c6.349-3.789,13.722-4.915,20.89-3.072c7.168,1.843,13.21,6.246,16.998,12.595s4.915,13.722,3.072,20.89 s-6.246,13.21-12.595,16.998C435.534,356.147,430.721,357.376,425.908,357.376z M410.958,338.637 c4.915,8.192,15.565,10.957,23.859,6.042c3.994-2.355,6.758-6.144,7.885-10.65c1.126-4.506,0.41-9.216-1.946-13.107 c-2.355-3.994-6.144-6.758-10.65-7.885c-4.506-1.126-9.216-0.41-13.107,1.946C408.705,319.795,406.043,330.445,410.958,338.637 L410.958,338.637z"/><path style="fill:#221F1F;" d="M390.99,276.48c-0.717,0-1.434-0.102-2.048-0.41c-19.251-8.397-35.123-25.19-43.725-46.08 l-33.894-82.125c-0.922-2.355-0.102-5.018,2.15-6.349c2.15-1.331,5.018-0.819,6.554,1.126l56.32,68.813 c14.234,17.408,21.504,39.424,19.763,60.314c-0.102,1.638-1.024,3.174-2.458,3.994C392.833,276.275,391.912,276.48,390.99,276.48z M333.953,175.821l20.685,50.278c6.349,15.462,17.818,28.877,31.334,36.966c-0.717-15.77-7.066-32.154-17.613-45.158 L333.953,175.821z"/><path style="fill:#221F1F;" d="M414.337,315.597c-1.741,0-3.482-0.922-4.403-2.458l-23.347-39.117 c-1.434-2.458-0.614-5.53,1.741-7.066c2.458-1.434,5.53-0.614,7.066,1.741l23.347,39.117c1.434,2.458,0.614,5.53-1.741,7.066 C416.078,315.392,415.156,315.597,414.337,315.597z"/></g><path style="fill:#72C1E8;" d="M123.316,182.272v-68.403c0-6.042-4.915-10.957-10.957-10.957H80.001l0,0 c-18.432,0-33.485,14.95-33.485,33.485v56.934v67.277v56.934c0,18.432,14.95,33.485,33.485,33.485l0,0h32.358 c6.042,0,10.957-4.915,10.957-10.957v-68.403c0-6.042-4.915-10.957-10.957-10.957H86.657c-3.686,0-6.656-2.97-6.656-6.656V200.09 c0-3.686,2.97-6.656,6.656-6.656h25.702C118.401,193.229,123.316,188.314,123.316,182.272z"/><path style="fill:#221F1F;" d="M112.36,356.045H80.001c-21.299,0-38.605-17.306-38.605-38.605V136.192 c0-21.299,17.306-38.605,38.605-38.605h32.358c8.909,0,16.179,7.27,16.179,16.179v68.506c0,8.909-7.27,16.179-16.179,16.179H86.657 c-0.819,0-1.536,0.717-1.536,1.536v53.965c0,0.819,0.717,1.536,1.536,1.536h25.702c8.909,0,16.179,7.27,16.179,16.179v68.301 C128.436,348.877,121.268,356.045,112.36,356.045z M80.001,107.93c-15.667,0-28.365,12.698-28.365,28.365v181.248 c0,15.667,12.698,28.365,28.365,28.365h32.358c3.277,0,5.939-2.662,5.939-5.939v-68.403c0-3.277-2.662-5.939-5.939-5.939H86.657 c-6.451,0-11.776-5.325-11.776-11.776v-53.965c0-6.451,5.325-11.776,11.776-11.776h25.702c3.277,0,5.939-2.662,5.939-5.939v-68.403 c0-3.277-2.662-5.939-5.939-5.939H80.001V107.93z"/><g><path style="fill:#AFAFAF;" d="M112.36,102.81H95.361v90.419h16.998c6.042,0,10.957-4.915,10.957-10.957v-68.403 C123.316,107.725,118.401,102.81,112.36,102.81z"/><path style="fill:#AFAFAF;" d="M112.36,260.506H95.361v90.419h16.998c6.042,0,11.059-4.915,11.059-11.059v-68.403 C123.316,265.523,118.401,260.506,112.36,260.506z"/></g><g><path style="fill:#221F1F;" d="M112.36,198.349H95.361c-2.867,0-5.12-2.253-5.12-5.12V102.81c0-2.867,2.253-5.12,5.12-5.12h16.998 c8.909,0,16.179,7.27,16.179,16.179v68.403C128.436,191.078,121.268,198.349,112.36,198.349z M100.481,188.109h11.878 c3.277,0,5.939-2.662,5.939-5.837v-68.403c0-3.277-2.662-5.939-5.939-5.939h-11.878V188.109z"/><path style="fill:#221F1F;" d="M112.36,356.045H95.361c-2.867,0-5.12-2.253-5.12-5.12v-90.419c0-2.867,2.253-5.12,5.12-5.12h16.998 c8.909,0,16.179,7.27,16.179,16.179v68.403C128.436,348.877,121.268,356.045,112.36,356.045z M100.481,345.805h11.878 c3.277,0,5.939-2.662,5.939-5.939v-68.403c0-3.277-2.662-5.939-5.939-5.939h-11.878V345.805z"/><path style="fill:#221F1F;" d="M75.803,512c-2.867,0-5.12-2.253-5.12-5.12V350.925c0-2.867,2.253-5.12,5.12-5.12 s5.12,2.253,5.12,5.12V506.88C80.923,509.747,78.67,512,75.803,512z"/></g><circle style="fill:#AFAFAF;" cx="251.83" cy="428.95" r="77.926"/><path style="fill:#221F1F;" d="M251.828,512c-45.773,0-83.046-37.274-83.046-83.046s37.274-83.046,83.046-83.046 s83.046,37.274,83.046,83.046S297.704,512,251.828,512z M251.828,356.045c-40.141,0-72.806,32.666-72.806,72.806 s32.666,72.806,72.806,72.806s72.806-32.666,72.806-72.806C324.737,388.71,291.969,356.045,251.828,356.045z"/><g><path style="fill:#EFEFEF;" d="M243.739,377.139c-2.458,0-4.71-1.843-5.018-4.403c-0.41-2.765,1.536-5.427,4.301-5.837 c2.867-0.41,5.837-0.614,8.806-0.614c2.867,0,5.12,2.253,5.12,5.12s-2.253,5.12-5.12,5.12c-2.458,0-5.018,0.205-7.373,0.512 C244.251,377.139,243.944,377.139,243.739,377.139z"/><path style="fill:#EFEFEF;" d="M194.382,434.074c-2.867,0-5.12-2.253-5.12-5.12c0-23.859,13.926-45.978,35.43-56.422 c2.56-1.229,5.632-0.205,6.861,2.355c1.229,2.56,0.205,5.632-2.355,6.861c-18.022,8.704-29.594,27.238-29.594,47.206 C199.502,431.718,197.249,434.074,194.382,434.074z"/></g><g><path style="fill:#221F1F;" d="M251.828,434.074h-22.835c-2.867,0-5.12-2.253-5.12-5.12s2.253-5.12,5.12-5.12h17.715v-30.925 c0-2.867,2.253-5.12,5.12-5.12s5.12,2.253,5.12,5.12v36.045C256.948,431.718,254.696,434.074,251.828,434.074z"/><path style="fill:#221F1F;" d="M251.828,376.832c-2.867,0-5.12-2.253-5.12-5.12v-1.331c0-2.867,2.253-5.12,5.12-5.12 s5.12,2.253,5.12,5.12v1.331C256.948,374.477,254.696,376.832,251.828,376.832z"/><path style="fill:#221F1F;" d="M251.828,492.544c-2.867,0-5.12-2.253-5.12-5.12v-1.331c0-2.867,2.253-5.12,5.12-5.12 s5.12,2.253,5.12,5.12v1.331C256.948,490.291,254.696,492.544,251.828,492.544z"/><path style="fill:#221F1F;" d="M292.276,393.523c-1.331,0-2.662-0.512-3.584-1.536c-2.048-2.048-2.048-5.222,0-7.27l0.922-0.922 c2.048-2.048,5.222-2.048,7.27,0c2.048,2.048,2.048,5.222,0,7.27l-0.922,0.922C294.939,393.114,293.608,393.523,292.276,393.523z" /><path style="fill:#221F1F;" d="M210.459,475.443c-1.331,0-2.662-0.512-3.584-1.536c-2.048-2.048-2.048-5.222,0-7.27l0.922-0.922 c2.048-2.048,5.222-2.048,7.27,0s2.048,5.222,0,7.27l-0.922,0.922C213.121,474.931,211.79,475.443,210.459,475.443z"/><path style="fill:#221F1F;" d="M310.401,434.074h-1.331c-2.867,0-5.12-2.253-5.12-5.12s2.253-5.12,5.12-5.12h1.331 c2.867,0,5.12,2.253,5.12,5.12S313.268,434.074,310.401,434.074z"/><path style="fill:#221F1F;" d="M194.587,434.074h-1.331c-2.867,0-5.12-2.253-5.12-5.12s2.253-5.12,5.12-5.12h1.331 c2.867,0,5.12,2.253,5.12,5.12S197.454,434.074,194.587,434.074z"/><path style="fill:#221F1F;" d="M293.3,475.443c-1.331,0-2.662-0.512-3.584-1.536l-0.922-0.922c-2.048-2.048-2.048-5.222,0-7.27 s5.222-2.048,7.27,0l0.922,0.922c2.048,2.048,2.048,5.222,0,7.27C295.86,474.931,294.529,475.443,293.3,475.443z"/><path style="fill:#221F1F;" d="M211.38,393.523c-1.331,0-2.662-0.512-3.584-1.536l-0.922-0.819c-2.048-2.048-2.048-5.222,0-7.27 s5.222-2.048,7.27,0l0.922,0.922c2.048,2.048,2.048,5.222,0,7.27C214.043,393.114,212.712,393.523,211.38,393.523z"/><path style="fill:#221F1F;" d="M186.907,121.856h-13.312c-2.867,0-5.12-2.253-5.12-5.12s2.253-5.12,5.12-5.12h13.312 c2.867,0,5.12,2.253,5.12,5.12S189.774,121.856,186.907,121.856z"/><path style="fill:#221F1F;" d="M296.475,121.856h-83.456c-2.867,0-5.12-2.253-5.12-5.12s2.253-5.12,5.12-5.12h83.456 c2.867,0,5.12,2.253,5.12,5.12S299.342,121.856,296.475,121.856z"/><path style="fill:#221F1F;" d="M186.907,153.19h-13.312c-2.867,0-5.12-2.253-5.12-5.12s2.253-5.12,5.12-5.12h13.312 c2.867,0,5.12,2.253,5.12,5.12S189.774,153.19,186.907,153.19z"/><path style="fill:#221F1F;" d="M296.475,153.19h-83.456c-2.867,0-5.12-2.253-5.12-5.12s2.253-5.12,5.12-5.12h83.456 c2.867,0,5.12,2.253,5.12,5.12S299.342,153.19,296.475,153.19z"/><path style="fill:#221F1F;" d="M186.907,184.422h-13.312c-2.867,0-5.12-2.253-5.12-5.12s2.253-5.12,5.12-5.12h13.312 c2.867,0,5.12,2.253,5.12,5.12S189.774,184.422,186.907,184.422z"/><path style="fill:#221F1F;" d="M296.475,184.422h-83.456c-2.867,0-5.12-2.253-5.12-5.12s2.253-5.12,5.12-5.12h83.456 c2.867,0,5.12,2.253,5.12,5.12S299.342,184.422,296.475,184.422z"/><path style="fill:#221F1F;" d="M186.907,215.757h-13.312c-2.867,0-5.12-2.253-5.12-5.12s2.253-5.12,5.12-5.12h13.312 c2.867,0,5.12,2.253,5.12,5.12S189.774,215.757,186.907,215.757z"/><path style="fill:#221F1F;" d="M296.475,215.757h-83.456c-2.867,0-5.12-2.253-5.12-5.12s2.253-5.12,5.12-5.12h83.456 c2.867,0,5.12,2.253,5.12,5.12S299.342,215.757,296.475,215.757z"/><path style="fill:#221F1F;" d="M186.907,246.989h-13.312c-2.867,0-5.12-2.253-5.12-5.12s2.253-5.12,5.12-5.12h13.312 c2.867,0,5.12,2.253,5.12,5.12S189.774,246.989,186.907,246.989z"/><path style="fill:#221F1F;" d="M296.475,246.989h-83.456c-2.867,0-5.12-2.253-5.12-5.12s2.253-5.12,5.12-5.12h83.456 c2.867,0,5.12,2.253,5.12,5.12S299.342,246.989,296.475,246.989z"/></g><path style="fill:#F0C020;" d="M360.475,91.238l4.403-1.229l-4.403-1.229c-10.445-2.765-18.534-10.957-21.504-21.299l-1.229-4.403 l-1.229,4.403c-2.765,10.342-10.957,18.534-21.299,21.402l-4.403,1.229l4.403,1.229c10.445,2.867,18.534,11.059,21.402,21.402 l1.229,4.403l1.229-4.403C341.94,102.298,350.03,94.208,360.475,91.238z"/><path style="fill:#221F1F;" d="M337.844,122.163c-2.253,0-4.301-1.536-4.915-3.789l-1.229-4.403 c-2.355-8.602-9.216-15.462-17.818-17.818l-4.403-1.229c-2.253-0.614-3.789-2.662-3.789-4.915s1.536-4.301,3.789-4.915l4.403-1.229 c8.602-2.355,15.462-9.216,17.818-17.818l1.229-4.403c0.614-2.253,2.662-3.789,4.915-3.789s4.301,1.536,4.915,3.789l1.229,4.403 c2.355,8.602,9.216,15.462,17.818,17.818l4.403,1.229c2.253,0.614,3.789,2.662,3.789,4.915s-1.536,4.301-3.789,4.915l-4.403,1.229 c-8.602,2.355-15.462,9.216-17.818,17.818l-1.229,4.403C342.145,120.627,340.097,122.163,337.844,122.163z M325.249,90.112 c5.12,3.072,9.523,7.373,12.595,12.595c3.072-5.12,7.373-9.523,12.595-12.595c-5.12-3.072-9.523-7.373-12.595-12.595 C334.772,82.637,330.369,87.04,325.249,90.112z"/></svg>