<!-- icon666.com - MILLIONS OF FREE VECTOR ICONS --><svg version="1.1" id="Layer_1" xmlns="http://www.w3.org/2000/svg" xmlns:xlink="http://www.w3.org/1999/xlink" x="0px" y="0px" viewBox="0 0 512 512" style="enable-background:new 0 0 512 512;" xml:space="preserve"><path style="fill:#FFDFB3;" d="M495.255,512H260.824c-9.248,0-16.745-7.497-16.745-16.745V344.55 c0-73.984,59.976-133.96,133.96-133.96l0,0c73.984,0,133.96,59.976,133.96,133.96v150.705C512,504.503,504.503,512,495.255,512z"/><path style="fill:#FFCC99;" d="M495.255,512c9.248,0,16.745-7.497,16.745-16.745V344.55c0-73.984-59.976-133.96-133.96-133.96V512 H495.255z"/><path style="fill:#F26C9A;" d="M445.02,260.824c0-27.744-22.491-50.235-50.235-50.235h-34.115c-24.02,0-44.888,16.953-49.61,40.304 l-0.999,110.401c0,27.701,22.702,50.235,50.61,50.235h34.115c27.744,0,50.235-22.491,50.235-50.235v-100.47H445.02z"/><path style="fill:#D95782;" d="M394.785,210.589H378.04V411.53h16.745c27.744,0,50.235-22.491,50.235-50.235v-100.47 C445.02,233.08,422.528,210.589,394.785,210.589z"/><path style="fill:#736056;" d="M250.173,266.918c-4.285,0-8.569-1.635-11.839-4.906l-82.21-82.21 c-6.541-6.541-6.541-17.138,0-23.679c6.541-6.541,17.138-6.541,23.679,0l82.21,82.21c6.541,6.541,6.541,17.138,0,23.679 C258.741,265.283,254.457,266.918,250.173,266.918z"/><circle style="fill:#FFCC33;" cx="294.311" cy="126.861" r="16.745"/><g><path style="fill:#FFE14D;" d="M193.844,366.876h-16.745v-16.745c0-9.244-7.501-16.745-16.745-16.745s-16.745,7.501-16.745,16.745 v16.745h-16.745c-9.244,0-16.745,7.501-16.745,16.745s7.501,16.745,16.745,16.745h16.745v16.745 c0,9.244,7.501,16.745,16.745,16.745s16.745-7.501,16.745-16.745v-16.745h16.745c9.244,0,16.745-7.501,16.745-16.745 S203.088,366.876,193.844,366.876z"/><path style="fill:#FFE14D;" d="M439.438,76.629h-16.745V59.884c0-9.244-7.501-16.745-16.745-16.745s-16.745,7.501-16.745,16.745 v16.745h-16.745c-9.244,0-16.745,7.501-16.745,16.745s7.501,16.745,16.745,16.745h16.745v16.745 c0,9.244,7.501,16.745,16.745,16.745s16.745-7.501,16.745-16.745v-16.745h16.745c9.244,0,16.745-7.501,16.745-16.745 S448.683,76.629,439.438,76.629z"/></g><path style="fill:#FFCC33;" d="M422.693,126.864v-16.745h16.745c9.244,0,16.745-7.501,16.745-16.745s-7.501-16.745-16.745-16.745 h-16.745V59.884c0-9.244-7.501-16.745-16.745-16.745v100.47C415.192,143.609,422.693,136.108,422.693,126.864z"/><path style="fill:#665247;" d="M156.124,179.802l82.21,82.21c3.271,3.271,7.555,4.906,11.839,4.906s8.569-1.635,11.839-4.906 L156.123,156.123C149.582,162.665,149.582,173.261,156.124,179.802z"/><path style="fill:#FF80AB;" d="M283.238,362.297c-2.725,0-5.483-0.218-8.253-0.665c-16.134-2.617-29.576-12.504-36.892-27.124 l-15.786-31.571c-9.681-19.383-5.898-42.68,9.408-57.986l13.234-13.234c15.295-15.317,38.603-19.089,57.976-9.408l31.582,15.786 c14.62,7.315,24.507,20.757,27.124,36.892c2.606,16.134-2.518,32.008-14.074,43.563l-29.009,29.009 C308.976,357.129,296.429,362.297,283.238,362.297z"/><path style="fill:#F26C9A;" d="M238.333,238.333l-6.618,6.618c-15.306,15.306-19.089,38.603-9.408,57.986l15.786,31.571 c7.315,14.62,20.757,24.507,36.892,27.124c2.768,0.447,5.527,0.665,8.253,0.665c13.191,0,25.739-5.168,35.311-14.739l14.505-14.505 L238.333,238.333z"/><path style="fill:#736056;" d="M132.446,220.236c-4.284,0-8.569-1.635-11.839-4.906L19.624,114.347C6.966,101.692,0,84.869,0,66.98 s6.966-34.711,19.623-47.357C32.269,6.966,49.091,0,66.98,0s34.711,6.966,47.368,19.623l100.983,100.983 c6.541,6.541,6.541,17.138,0,23.679l-71.047,71.047C141.013,218.601,136.729,220.236,132.446,220.236z"/><path style="fill:#665247;" d="M19.623,19.623C6.966,32.269,0,49.091,0,66.98s6.966,34.711,19.623,47.368l100.983,100.983 c3.271,3.271,7.555,4.906,11.839,4.906c4.283,0,8.569-1.635,11.839-4.906l35.523-35.523L19.623,19.623z"/><path style="fill:#FFCC33;" d="M177.099,417.111v-16.745h16.745c9.244,0,16.745-7.501,16.745-16.745s-7.501-16.745-16.745-16.745 h-16.745v-16.745c0-9.244-7.501-16.745-16.745-16.745v100.47C169.598,433.856,177.099,426.356,177.099,417.111z"/></svg>