<!-- icon666.com - MILLIONS OF FREE VECTOR ICONS --><svg version="1.1" id="Capa_1" xmlns="http://www.w3.org/2000/svg" xmlns:xlink="http://www.w3.org/1999/xlink" x="0px" y="0px" viewBox="0 0 512 512" style="enable-background:new 0 0 512 512;" xml:space="preserve"><path style="fill:#FFB69F;" d="M5.12,350.925h405.197c18.739,0,33.894,15.155,33.894,33.792v88.269 c0,18.739-15.155,33.792-33.894,33.792H5.12"/><g><path style="fill:#FBE0E2;" d="M254.669,376.627H5.12c-2.867,0-5.12-2.253-5.12-5.12s2.253-5.12,5.12-5.12h249.549 c2.867,0,5.12,2.253,5.12,5.12S257.536,376.627,254.669,376.627z"/><path style="fill:#FBE0E2;" d="M287.744,376.627h-6.451c-2.867,0-5.12-2.253-5.12-5.12s2.253-5.12,5.12-5.12h6.451 c2.867,0,5.12,2.253,5.12,5.12S290.509,376.627,287.744,376.627z"/></g><g><path style="fill:#221F1F;" d="M410.317,512H5.12C2.253,512,0,509.747,0,506.88s2.253-5.12,5.12-5.12h405.197 c15.872,0,28.774-12.902,28.774-28.672v-88.166c0-2.867,2.253-5.12,5.12-5.12s5.12,2.253,5.12,5.12v88.064 C449.229,494.49,431.821,512,410.317,512z"/><path style="fill:#221F1F;" d="M365.67,356.045H5.12c-2.867,0-5.12-2.253-5.12-5.12s2.253-5.12,5.12-5.12h360.55 c2.867,0,5.12,2.253,5.12,5.12S368.538,356.045,365.67,356.045z"/></g><path style="fill:#FC5D3D;" d="M332.288,429.056v-0.205c0-29.491,23.859-53.35,53.35-53.35h89.19 c17.715,0,32.051,14.336,32.051,32.051v42.803c0,17.715-14.336,32.051-32.051,32.051h-89.19 C356.25,482.406,332.288,458.445,332.288,429.056z"/><g><path style="fill:#FFCBC2;" d="M486.4,452.71c-2.867,0-5.12-2.253-5.12-5.12v-4.915c0-2.867,2.253-5.12,5.12-5.12 s5.12,2.253,5.12,5.12v4.915C491.52,450.458,489.165,452.71,486.4,452.71z"/><path style="fill:#FFCBC2;" d="M352.87,434.074c-2.867,0-5.12-2.253-5.12-5.12c0-20.992,17.101-38.093,38.093-38.093h88.986 c9.216,0,16.691,7.475,16.691,16.691v15.667c0,2.867-2.253,5.12-5.12,5.12s-5.12-2.253-5.12-5.12v-15.667 c0-3.584-2.867-6.451-6.451-6.451h-88.986c-15.36,0-27.853,12.493-27.853,27.853C357.99,431.718,355.635,434.074,352.87,434.074z" /></g><g><path style="fill:#221F1F;" d="M474.726,487.526H385.74c-32.358,0-58.573-26.317-58.573-58.573 c0-27.853,19.763-52.019,47.104-57.446c1.843-0.41,3.686-0.614,5.632-0.819c2.765-0.307,5.325,1.741,5.632,4.608 c0.307,2.765-1.741,5.325-4.608,5.632c-1.536,0.205-3.072,0.41-4.608,0.717c-22.528,4.506-38.81,24.371-38.81,47.411 c0,26.624,21.709,48.333,48.333,48.333h88.986c14.848,0,27.034-12.083,27.034-27.034v-42.701c0-13.722-10.24-25.19-23.859-26.829 c-2.765-0.307-4.813-2.867-4.506-5.632c0.307-2.765,2.867-4.813,5.632-4.506c18.739,2.15,32.87,18.125,32.87,36.966v42.701 C512,470.835,495.309,487.526,474.726,487.526z"/><path style="fill:#221F1F;" d="M139.162,459.366c-2.867,0-5.12-2.253-5.12-5.12V402.33c0-2.867,2.253-5.12,5.12-5.12 s5.12,2.253,5.12,5.12v51.917C144.282,457.011,142.029,459.366,139.162,459.366z"/><path style="fill:#221F1F;" d="M139.162,389.939c-2.867,0-5.12-2.253-5.12-5.12v-7.168c0-2.867,2.253-5.12,5.12-5.12 s5.12,2.253,5.12,5.12v7.168C144.282,387.686,142.029,389.939,139.162,389.939z"/><path style="fill:#221F1F;" d="M139.162,485.274c-2.867,0-5.12-2.253-5.12-5.12v-7.168c0-2.867,2.253-5.12,5.12-5.12 s5.12,2.253,5.12,5.12v7.168C144.282,483.021,142.029,485.274,139.162,485.274z"/><path style="fill:#221F1F;" d="M106.598,483.021c-1.331,0-2.662-0.512-3.584-1.536c-14.234-14.234-22.016-33.178-22.016-53.248 s7.885-39.014,22.016-53.248c2.048-2.048,5.222-2.048,7.27,0s2.048,5.222,0,7.27c-12.288,12.288-19.046,28.672-19.046,45.978 s6.758,33.69,19.046,45.978c2.048,2.048,2.048,5.222,0,7.27C109.158,482.509,107.827,483.021,106.598,483.021z"/><path style="fill:#221F1F;" d="M320.922,483.021c-1.331,0-2.662-0.512-3.584-1.536c-14.234-14.234-22.016-33.178-22.016-53.248 s7.885-39.014,22.016-53.248c2.048-2.048,5.222-2.048,7.27,0c2.048,2.048,2.048,5.222,0,7.27 c-12.288,12.288-19.046,28.672-19.046,45.978s6.758,33.69,19.046,45.978c2.048,2.048,2.048,5.222,0,7.27 C323.584,482.509,322.253,483.021,320.922,483.021z"/></g><path style="fill:#464A51;" d="M481.075,142.336h-107.52V25.6c0-11.264,9.216-20.48,20.48-20.48h66.56 c11.264,0,20.48,9.216,20.48,20.48L481.075,142.336L481.075,142.336z"/><g><path style="fill:#828A97;" d="M393.933,35.123c-2.867,0-5.12-2.253-5.12-5.12V25.6c0-2.867,2.253-5.12,5.12-5.12 s5.12,2.253,5.12,5.12v4.403C399.053,32.87,396.8,35.123,393.933,35.123z"/><path style="fill:#828A97;" d="M393.933,104.755c-2.867,0-5.12-2.253-5.12-5.12V49.766c0-2.867,2.253-5.12,5.12-5.12 s5.12,2.253,5.12,5.12v49.869C399.053,102.4,396.8,104.755,393.933,104.755z"/></g><g><path style="fill:#221F1F;" d="M481.075,147.456h-107.52c-2.867,0-5.12-2.253-5.12-5.12V25.6c0-14.131,11.469-25.6,25.6-25.6h66.56 c14.131,0,25.6,11.469,25.6,25.6v116.838C486.195,145.203,483.84,147.456,481.075,147.456z M378.573,137.216h97.28V25.6 c0-8.499-6.861-15.36-15.36-15.36h-66.56c-8.499,0-15.36,6.861-15.36,15.36L378.573,137.216L378.573,137.216z"/><path style="fill:#221F1F;" d="M427.213,246.886c-2.867,0-5.12-2.253-5.12-5.12v-99.43c0-2.867,2.253-5.12,5.12-5.12 s5.12,2.253,5.12,5.12v99.43C432.333,244.634,430.08,246.886,427.213,246.886z"/></g><path style="fill:#FC5D3D;" d="M427.213,402.33l27.034-39.322c22.221-32.358,16.282-80.691-27.034-121.139l0,0l0,0 c-43.315,40.448-49.254,88.781-27.034,121.139L427.213,402.33z"/><path style="fill:#FFCBC2;" d="M417.075,356.454c-1.638,0-3.277-0.819-4.198-2.253c-8.909-13.005-11.981-28.877-8.602-45.875 c2.662-13.414,9.011-26.726,18.944-39.526c1.741-2.253,4.915-2.662,7.168-0.922s2.662,4.915,0.922,7.168 c-8.909,11.469-14.643,23.347-16.998,35.226c-2.765,14.234-0.307,27.443,7.066,38.195c1.638,2.355,1.024,5.53-1.331,7.168 C419.123,356.147,418.099,356.454,417.075,356.454z"/><g><path style="fill:#221F1F;" d="M427.213,407.45L427.213,407.45c-1.638,0-3.277-0.819-4.198-2.253l-27.034-39.322 c-11.981-17.408-16.179-39.219-11.878-61.44c4.608-23.45,18.227-46.387,39.629-66.355c1.946-1.843,5.018-1.843,6.963,0 c21.299,19.968,35.021,42.906,39.629,66.355c4.301,22.221,0.102,44.032-11.878,61.44l-27.034,39.322 C430.49,406.63,428.954,407.45,427.213,407.45z M427.213,248.934c-35.328,35.226-44.646,79.36-22.835,111.104l22.835,33.178 l22.835-33.178C471.859,328.294,462.643,284.16,427.213,248.934z"/><path style="fill:#221F1F;" d="M481.075,122.778h-107.52c-2.867,0-5.12-2.253-5.12-5.12s2.253-5.12,5.12-5.12h107.52 c2.867,0,5.12,2.253,5.12,5.12S483.84,122.778,481.075,122.778z"/></g><path style="fill:#F0C020;" d="M361.165,269.005l4.403-1.229l-4.403-1.229c-10.445-2.867-18.534-11.059-21.402-21.402l-1.229-4.403 l-1.229,4.403c-2.867,10.445-11.059,18.534-21.402,21.402l-4.403,1.229l4.403,1.229c10.445,2.867,18.534,11.059,21.402,21.402 l1.229,4.403l1.229-4.403C342.63,280.064,350.822,271.872,361.165,269.005z"/><path style="fill:#221F1F;" d="M338.534,299.93c-2.253,0-4.301-1.536-4.915-3.789l-1.229-4.403 c-2.355-8.602-9.216-15.462-17.818-17.818l-4.403-1.229c-2.253-0.614-3.789-2.662-3.789-4.915s1.536-4.301,3.789-4.915l4.403-1.229 c8.602-2.355,15.462-9.216,17.818-17.818l1.229-4.403c0.614-2.253,2.662-3.789,4.915-3.789l0,0c2.253,0,4.301,1.536,4.915,3.789 l1.229,4.403c2.355,8.602,9.216,15.462,17.818,17.818l4.403,1.229c2.253,0.614,3.789,2.662,3.789,4.915s-1.536,4.301-3.789,4.915 l-4.403,1.229l0,0c-8.602,2.355-15.462,9.216-17.818,17.818l-1.229,4.403C342.835,298.394,340.89,299.93,338.534,299.93z M326.042,267.776c5.12,3.072,9.523,7.373,12.595,12.595c3.072-5.12,7.373-9.523,12.595-12.595 c-5.12-3.072-9.523-7.373-12.595-12.595C335.462,260.403,331.162,264.704,326.042,267.776z"/><path style="fill:#F0C020;" d="M502.477,211.661l4.403-1.229l-4.403-1.229c-10.445-2.867-18.534-11.059-21.402-21.402l-1.229-4.403 l-1.229,4.403c-2.867,10.445-11.059,18.534-21.402,21.402l-4.403,1.229l4.403,1.229c10.445,2.867,18.534,11.059,21.402,21.402 l1.229,4.403l1.229-4.403C483.942,222.72,492.134,214.528,502.477,211.661z"/><path style="fill:#221F1F;" d="M479.846,242.586c-2.253,0-4.301-1.536-4.915-3.789l-1.229-4.403 c-2.355-8.602-9.216-15.462-17.818-17.818l-4.403-1.229c-2.253-0.614-3.789-2.662-3.789-4.915c0-2.253,1.536-4.301,3.789-4.915 l4.403-1.229c8.602-2.355,15.462-9.216,17.818-17.818l1.229-4.403c0.614-2.253,2.662-3.789,4.915-3.789l0,0 c2.253,0,4.301,1.536,4.915,3.789l1.229,4.403c2.355,8.602,9.216,15.462,17.818,17.818l4.403,1.229 c2.253,0.614,3.789,2.662,3.789,4.915c0,2.253-1.536,4.301-3.789,4.915l-4.403,1.229l0,0c-8.602,2.355-15.462,9.216-17.818,17.818 l-1.229,4.403C484.147,241.05,482.202,242.586,479.846,242.586z M467.354,210.432c5.12,3.072,9.523,7.373,12.595,12.595 c3.072-5.12,7.373-9.523,12.595-12.595c-5.12-3.072-9.523-7.373-12.595-12.595C476.774,203.059,472.474,207.36,467.354,210.432z"/></svg>