<!-- icon666.com - MILLIONS OF FREE VECTOR ICONS --><svg version="1.1" id="Capa_1" xmlns="http://www.w3.org/2000/svg" xmlns:xlink="http://www.w3.org/1999/xlink" x="0px" y="0px" viewBox="0 0 512 512" style="enable-background:new 0 0 512 512;" xml:space="preserve"><path style="fill:#4C4945;" d="M386.765,159.642c-9.83-22.63-17.51-46.08-23.859-69.939c-1.434-5.53-3.277-10.65-5.325-15.565 C336.486,25.293,285.491,5.12,225.894,5.12c-66.048,0-121.446,24.678-137.216,85.811c-6.144,23.654-14.131,46.899-23.859,69.325 c-9.216,21.299-14.234,44.851-14.234,69.53c0,34.406,9.933,207.667,27.034,234.803c16.794,26.522,46.182,42.291,77.619,42.291 h19.866c10.445,0,18.842-8.499,18.842-18.842V365.466h63.795v122.573c0,10.445,8.499,18.842,18.842,18.842h19.968 c31.334,0,60.826-15.77,77.619-42.291c17.101-27.034,27.034-200.397,27.034-234.803 C401.203,204.902,396.083,181.146,386.765,159.642z"/><g><path style="fill:#221F1F;" d="M63.795,309.248h-9.216c-2.867,0-5.12-2.253-5.12-5.12s2.253-5.12,5.12-5.12h9.216 c2.867,0,5.12,2.253,5.12,5.12S66.662,309.248,63.795,309.248z"/><path style="fill:#221F1F;" d="M95.949,309.248h-9.216c-2.867,0-5.12-2.253-5.12-5.12s2.253-5.12,5.12-5.12h9.216 c2.867,0,5.12,2.253,5.12,5.12S98.714,309.248,95.949,309.248z"/><path style="fill:#221F1F;" d="M128,309.248h-9.216c-2.867,0-5.12-2.253-5.12-5.12s2.253-5.12,5.12-5.12H128 c2.867,0,5.12,2.253,5.12,5.12S130.867,309.248,128,309.248z"/><path style="fill:#221F1F;" d="M333.005,309.248h-9.216c-2.867,0-5.12-2.253-5.12-5.12s2.253-5.12,5.12-5.12h9.216 c2.867,0,5.12,2.253,5.12,5.12S335.872,309.248,333.005,309.248z"/><path style="fill:#221F1F;" d="M365.158,309.248h-9.216c-2.867,0-5.12-2.253-5.12-5.12s2.253-5.12,5.12-5.12h9.216 c2.867,0,5.12,2.253,5.12,5.12S368.026,309.248,365.158,309.248z"/><path style="fill:#221F1F;" d="M397.312,309.248h-9.216c-2.867,0-5.12-2.253-5.12-5.12s2.253-5.12,5.12-5.12h9.216 c2.867,0,5.12,2.253,5.12,5.12S400.077,309.248,397.312,309.248z"/></g><path style="fill:#35322F;" d="M379.392,141.619h-21.914c2.867,7.782,5.939,15.565,9.216,23.347h-31.642 c-38.605,0-64-12.8-78.336-23.347h-61.952c-14.438,10.445-39.936,23.347-78.131,23.347H85.094 c3.277-7.782,6.349-15.462,9.216-23.347H72.397c-2.458,6.246-4.915,12.493-7.578,18.637c-6.144,14.336-10.445,29.594-12.595,45.568 h64.512c54.784,0,90.317-20.89,109.158-36.557c18.842,15.565,54.374,36.557,109.158,36.557h64.512 c-2.15-15.974-6.451-31.334-12.595-45.568C384.307,154.112,381.85,147.866,379.392,141.619z"/><g><path style="fill:#221F1F;" d="M175.104,512h-19.968c-33.587,0-64.205-16.691-81.92-44.646 c-10.547-16.691-17.715-80.486-21.914-131.072c-0.102-1.536-0.41-5.427-0.614-6.963c-0.205-2.867,1.843-5.325,4.71-5.53 c2.867-0.205,5.325,1.843,5.53,4.71c0.102,1.536,0.41,5.427,0.614,6.963c5.734,68.813,13.107,114.893,20.378,126.362 c15.77,24.986,43.213,39.936,73.318,39.936h19.866c7.578,0,13.722-6.144,13.722-13.722V365.466c0-2.867,2.253-5.12,5.12-5.12 h31.846c2.867,0,5.12,2.253,5.12,5.12s-2.253,5.12-5.12,5.12h-26.726v117.453C199.168,501.248,188.416,512,175.104,512z"/><path style="fill:#221F1F;" d="M52.531,284.979c-2.662,0-4.915-2.15-5.12-4.813c-1.229-21.402-1.946-40.653-1.946-50.381 c0-24.883,4.915-48.947,14.643-71.578c9.83-22.733,17.715-45.875,23.654-68.608C98.611,31.846,149.094,0,225.894,0 s127.283,31.846,142.234,89.702c5.837,22.733,13.824,45.773,23.654,68.608c9.728,22.63,14.643,46.694,14.643,71.578 c0,9.626-0.717,28.979-1.946,50.381c-0.205,2.867-2.56,5.018-5.427,4.813c-2.867-0.205-5.018-2.56-4.813-5.427 c1.229-21.197,1.946-40.346,1.946-49.766c0-23.45-4.608-46.182-13.824-67.482c-10.035-23.245-18.125-46.797-24.166-70.144 C339.763,20.89,267.366,10.24,225.894,10.24s-113.868,10.65-132.3,82.022c-5.939,23.245-14.131,46.797-24.166,70.144 c-9.216,21.299-13.824,44.032-13.824,67.482c0,9.523,0.717,28.57,1.946,49.766c0.205,2.867-2.048,5.222-4.813,5.427 C52.736,284.979,52.634,284.979,52.531,284.979z"/><path style="fill:#221F1F;" d="M296.653,512h-19.968c-13.21,0-23.962-10.752-23.962-23.962V370.586h-26.726 c-2.867,0-5.12-2.253-5.12-5.12s2.253-5.12,5.12-5.12h31.846c2.867,0,5.12,2.253,5.12,5.12v122.573 c0,7.578,6.144,13.722,13.722,13.722h19.968c30.106,0,57.446-14.95,73.318-39.936c7.27-11.469,14.643-57.549,20.378-126.464 c0.102-1.331,0.41-4.506,0.512-6.246l0.102-0.717c0.205-2.867,2.662-4.915,5.53-4.71s4.915,2.662,4.71,5.53l-0.102,0.717 c-0.102,1.843-0.41,5.018-0.512,6.349c-4.198,50.586-11.366,114.381-21.914,131.072C360.858,495.309,330.24,512,296.653,512z"/></g><path style="fill:#FFB69F;" d="M287.744,353.792l-36.045,34.714c-14.336,13.824-37.069,13.824-51.507,0l-36.045-34.714 c-30.106-28.877-47.411-71.27-47.411-115.917v-66.253c0-17.101,13.926-31.027,31.027-31.027h156.365 c17.101,0,31.027,13.926,31.027,31.027v66.253C335.053,282.522,317.747,324.915,287.744,353.792z"/><path style="fill:#EA8F7D;" d="M335.053,205.926L335.053,205.926v-34.304c0-2.253-0.307-4.506-0.717-6.656 c-39.424-0.205-65.024-13.722-78.95-24.269h-59.187c-14.029,10.547-39.731,24.166-78.848,24.269 c-0.512,2.15-0.717,4.403-0.717,6.656v34.304c54.784,0,90.317-20.89,109.158-36.557 C244.736,184.934,280.269,205.926,335.053,205.926z"/><path style="fill:#221F1F;" d="M225.894,404.07c-10.547,0-21.094-3.994-29.286-11.878l-36.045-34.714 c-31.13-29.901-48.947-73.523-48.947-119.603v-66.253c0-19.968,16.179-36.147,36.147-36.147h156.365 c19.968,0,36.147,16.179,36.147,36.147v66.253c0,46.08-17.818,89.702-48.947,119.603l0,0l-36.147,34.714 C246.989,400.077,236.442,404.07,225.894,404.07z M147.661,145.715c-14.234,0-25.907,11.571-25.907,25.907v66.253 c0,43.315,16.691,84.173,45.773,112.128l36.045,34.714c12.39,11.981,31.949,11.981,44.339,0l36.045-34.714 c29.082-27.955,45.773-68.915,45.773-112.128v-66.253c0-14.234-11.571-25.907-25.907-25.907L147.661,145.715L147.661,145.715z M287.744,353.792L287.744,353.792L287.744,353.792z"/><path style="fill:#4C4945;" d="M386.97,160.256c-9.728-22.426-17.818-45.67-23.859-69.325C347.443,29.798,291.942,5.12,225.894,5.12 S104.448,29.798,88.678,90.931c-6.144,23.654-14.131,46.899-23.859,69.325c-3.072,7.27-5.734,14.746-7.885,22.426v2.662h59.802 c76.186,0,109.158-44.851,109.158-44.851s33.075,44.851,109.158,44.851h59.802v-2.662 C392.704,175.002,390.144,167.526,386.97,160.256z"/><path style="fill:#221F1F;" d="M394.854,190.566h-59.802c-63.59,0-97.997-30.003-109.158-42.086 c-11.264,11.981-45.568,42.086-109.158,42.086H56.934c-2.867,0-5.12-2.253-5.12-5.12v-2.662c0-0.512,0.102-0.922,0.205-1.331 c2.15-7.885,4.915-15.667,8.09-23.142c9.83-22.733,17.715-45.875,23.654-68.608C98.611,31.846,149.094,0,225.894,0 s127.283,31.846,142.234,89.702c5.837,22.733,13.824,45.773,23.654,68.608c3.174,7.373,5.939,15.155,8.09,23.142 c0.102,0.41,0.205,0.922,0.205,1.331v2.662C399.974,188.211,397.722,190.566,394.854,190.566z M56.934,182.784L56.934,182.784 L56.934,182.784z M225.894,135.475L225.894,135.475c1.638,0,3.174,0.819,4.096,2.048c0.102,0.102,8.192,10.854,25.088,21.402 c15.565,9.728,42.086,21.299,79.974,21.299h53.76c-1.843-6.144-4.096-12.186-6.554-18.022l0,0 c-10.035-23.245-18.125-46.797-24.166-70.144C339.763,20.89,267.366,10.24,225.894,10.24s-113.868,10.65-132.3,82.022 c-5.939,23.245-14.131,46.797-24.166,70.144c-2.458,5.837-4.71,11.878-6.554,18.022h53.862c37.888,0,64.41-11.571,79.974-21.299 c16.896-10.547,24.986-21.299,25.088-21.402C222.72,136.294,224.256,135.475,225.894,135.475z"/><g><path style="fill:#7C7B7A;" d="M175.923,36.864c-2.253,0-4.301-1.536-4.915-3.789c-0.717-2.765,0.819-5.53,3.584-6.246 c3.891-1.024,7.885-2.048,11.981-2.765c2.765-0.512,5.427,1.229,6.042,4.096c0.512,2.765-1.229,5.427-4.096,6.042 c-3.891,0.717-7.68,1.638-11.264,2.662C176.845,36.864,176.333,36.864,175.923,36.864z"/><path style="fill:#7C7B7A;" d="M85.094,170.086c-0.614,0-1.331-0.102-1.946-0.41c-2.56-1.126-3.789-4.096-2.765-6.758 c9.523-22.63,17.408-45.568,23.142-68.198c6.349-24.883,20.685-43.827,42.496-56.32c2.458-1.434,5.632-0.512,6.963,1.843 c1.434,2.458,0.512,5.632-1.843,6.963c-19.354,11.162-31.949,28.058-37.683,50.074c-5.939,23.142-13.926,46.49-23.654,69.632 C88.986,168.858,87.04,170.086,85.094,170.086z"/></g><g><path style="fill:#221F1F;" d="M225.894,145.715c-2.867,0-5.12-2.253-5.12-5.12V73.421c0-2.867,2.253-5.12,5.12-5.12 s5.12,2.253,5.12,5.12v67.174C231.014,143.462,228.762,145.715,225.894,145.715z"/><path style="fill:#221F1F;" d="M225.894,54.682c-2.867,0-5.12-2.253-5.12-5.12v-5.837c0-2.867,2.253-5.12,5.12-5.12 s5.12,2.253,5.12,5.12v5.837C231.014,52.429,228.762,54.682,225.894,54.682z"/></g><path style="fill:#FFB69F;" d="M116.736,264.294h-6.246c-14.541,0-26.214-11.776-26.214-26.214v-6.144 c0-14.541,11.776-26.214,26.214-26.214h6.246C116.736,205.722,116.736,264.294,116.736,264.294z"/><path style="fill:#221F1F;" d="M116.736,269.414h-6.246c-17.306,0-31.334-14.029-31.334-31.334v-6.144 c0-17.306,14.029-31.334,31.334-31.334h6.246c2.867,0,5.12,2.253,5.12,5.12v58.675C121.856,267.162,119.501,269.414,116.736,269.414 z M110.49,210.739c-11.674,0-21.094,9.523-21.094,21.094v6.144c0,11.674,9.523,21.094,21.094,21.094h1.126v-48.435h-1.126V210.739z" /><path style="fill:#FFB69F;" d="M335.053,205.619h6.246c14.541,0,26.214,11.776,26.214,26.214v6.144 c0,14.541-11.776,26.214-26.214,26.214h-6.246V205.619z"/><g><path style="fill:#221F1F;" d="M341.299,269.414h-6.246c-2.867,0-5.12-2.253-5.12-5.12v-58.675c0-2.867,2.253-5.12,5.12-5.12h6.246 c17.306,0,31.334,14.029,31.334,31.334v6.144C372.736,255.386,358.605,269.414,341.299,269.414z M340.173,259.174h1.126 c11.674,0,21.094-9.523,21.094-21.094v-6.144c0-11.674-9.523-21.094-21.094-21.094h-1.126V259.174z"/><path style="fill:#221F1F;" d="M116.736,240.128h-8.602c-2.867,0-5.12-2.253-5.12-5.12s2.253-5.12,5.12-5.12h8.602 c2.867,0,5.12,2.253,5.12,5.12S119.501,240.128,116.736,240.128z"/><path style="fill:#221F1F;" d="M343.654,240.128h-8.602c-2.867,0-5.12-2.253-5.12-5.12s2.253-5.12,5.12-5.12h8.602 c2.867,0,5.12,2.253,5.12,5.12S346.522,240.128,343.654,240.128z"/></g><path style="fill:#F0C020;" d="M136.294,370.483l4.403-1.229l-4.403-1.229c-10.445-2.867-18.534-11.059-21.402-21.402l-1.229-4.403 l-1.229,4.403c-2.867,10.445-11.059,18.534-21.402,21.402l-4.403,1.229l4.403,1.229c10.445,2.867,18.534,11.059,21.402,21.402 l1.229,4.403l1.229-4.403C117.76,381.542,125.85,373.35,136.294,370.483z"/><path style="fill:#221F1F;" d="M113.664,401.408c-2.253,0-4.301-1.536-4.915-3.789l-1.229-4.403 c-2.355-8.602-9.216-15.462-17.818-17.818l-4.403-1.229c-2.253-0.614-3.789-2.662-3.789-4.915c0-2.253,1.536-4.301,3.789-4.915 l4.403-1.229c8.602-2.355,15.462-9.216,17.818-17.818l1.229-4.403c0.614-2.253,2.662-3.789,4.915-3.789s4.301,1.536,4.915,3.789 l1.229,4.403c2.355,8.602,9.216,15.462,17.818,17.818l4.403,1.229c2.253,0.614,3.789,2.662,3.789,4.915 c0,2.253-1.536,4.301-3.789,4.915l-4.403,1.229c-8.602,2.355-15.462,9.216-17.818,17.818l-1.229,4.403 C117.965,399.872,115.917,401.408,113.664,401.408z M101.069,369.254c5.12,3.072,9.523,7.373,12.595,12.595 c3.072-5.12,7.373-9.523,12.595-12.595c-5.12-3.072-9.523-7.373-12.595-12.595C110.592,361.882,106.291,366.182,101.069,369.254z"/><path style="fill:#F0C020;" d="M340.275,433.766l4.403-1.229l-4.403-1.229c-10.445-2.867-18.534-11.059-21.402-21.402l-1.229-4.403 l-1.229,4.403c-2.867,10.445-11.059,18.534-21.402,21.402l-4.403,1.229l4.403,1.229c10.445,2.867,18.534,11.059,21.402,21.402 l1.229,4.403l1.229-4.403C321.741,444.723,329.933,436.634,340.275,433.766z"/><path style="fill:#221F1F;" d="M317.645,464.691c-2.253,0-4.301-1.536-4.915-3.789l-1.229-4.403 c-2.355-8.602-9.216-15.462-17.818-17.818l-4.403-1.229c-2.253-0.614-3.789-2.662-3.789-4.915c0-2.253,1.536-4.301,3.789-4.915 l4.403-1.229c8.602-2.355,15.462-9.216,17.818-17.818l1.229-4.403c0.614-2.253,2.662-3.789,4.915-3.789s4.301,1.536,4.915,3.789 l1.229,4.403c2.355,8.602,9.216,15.462,17.818,17.818l4.403,1.229c2.253,0.614,3.789,2.662,3.789,4.915s-1.536,4.301-3.789,4.915 l-4.403,1.229l0,0c-8.602,2.355-15.462,9.216-17.818,17.818l-1.229,4.403C321.946,463.155,320,464.691,317.645,464.691z M305.152,432.538c5.12,3.072,9.523,7.373,12.595,12.595c3.072-5.12,7.373-9.523,12.595-12.595 c-5.12-3.072-9.523-7.373-12.595-12.595C314.573,425.062,310.272,429.466,305.152,432.538z"/><path style="fill:#AFAFAF;" d="M408.166,279.962v5.222c0,10.65-4.915,20.787-13.312,27.341l0,0l0,0 c-8.397-6.554-13.312-16.589-13.312-27.341v-5.222L408.166,279.962L408.166,279.962z"/><path style="fill:#4C4945;" d="M381.542,502.067V339.456c0-10.65,4.915-20.787,13.312-27.341l0,0l0,0 c8.397,6.554,13.312,16.589,13.312,27.341V502.17l0,0C400.486,508.518,389.325,508.518,381.542,502.067L381.542,502.067z"/><g><path style="fill:#221F1F;" d="M394.854,317.645c-1.126,0-2.253-0.41-3.174-1.126c-9.728-7.578-15.258-19.046-15.258-31.334v-5.222 c0-2.867,2.253-5.12,5.12-5.12h26.624c2.867,0,5.12,2.253,5.12,5.12v5.222c0,12.288-5.53,23.757-15.258,31.334 C397.107,317.235,395.981,317.645,394.854,317.645z M386.662,285.082L386.662,285.082c0,7.782,2.97,15.053,8.192,20.48 c5.222-5.427,8.192-12.698,8.192-20.378v-0.102L386.662,285.082L386.662,285.082z"/><path style="fill:#221F1F;" d="M394.854,512c-5.837,0-11.776-1.946-16.589-5.939c-1.229-0.922-1.843-2.458-1.843-3.994V339.456 c0-12.288,5.53-23.757,15.258-31.334c1.843-1.434,4.403-1.434,6.349,0c9.728,7.578,15.258,19.046,15.258,31.334V502.17 c0,1.536-0.717,2.97-1.843,3.994C406.63,510.054,400.794,512,394.854,512z M386.662,499.507c5.018,3.072,11.366,3.072,16.384,0 V339.456c0-7.68-2.97-14.95-8.192-20.378c-5.222,5.427-8.192,12.698-8.192,20.378L386.662,499.507L386.662,499.507z"/></g><path style="fill:#F0C020;" d="M394.854,312.115c-8.397,6.554-13.312,16.589-13.312,27.341v9.523c7.782,6.349,18.842,6.349,26.624,0 l0,0v-9.523C408.166,328.806,403.251,318.669,394.854,312.115z"/><path style="fill:#221F1F;" d="M394.854,358.81c-5.837,0-11.776-1.946-16.589-5.939c-1.229-0.922-1.843-2.458-1.843-3.994v-9.523 c0-12.288,5.53-23.757,15.258-31.334c1.843-1.434,4.403-1.434,6.349,0c9.728,7.578,15.258,19.046,15.258,31.334v9.523 c0,1.536-0.717,2.97-1.843,3.994C406.63,356.864,400.794,358.81,394.854,358.81z M386.662,346.317 c5.018,3.072,11.366,3.072,16.384,0v-6.861c0-7.68-2.97-14.95-8.192-20.378c-5.222,5.427-8.192,12.698-8.192,20.378L386.662,346.317 L386.662,346.317z"/><path style="fill:#AFAFAF;" d="M434.79,279.962v5.222c0,10.65-4.915,20.787-13.312,27.341l0,0l0,0 c-8.397-6.554-13.312-16.589-13.312-27.341v-5.222L434.79,279.962L434.79,279.962z"/><path style="fill:#4C4945;" d="M408.166,502.067V339.456c0-10.65,4.915-20.787,13.312-27.341l0,0l0,0 c8.397,6.554,13.312,16.589,13.312,27.341V502.17l0,0C427.11,508.518,415.949,508.518,408.166,502.067L408.166,502.067z"/><g><path style="fill:#221F1F;" d="M421.478,317.645c-1.126,0-2.253-0.41-3.174-1.126c-9.728-7.578-15.258-19.046-15.258-31.334v-5.222 c0-2.867,2.253-5.12,5.12-5.12h26.624c2.867,0,5.12,2.253,5.12,5.12v5.222c0,12.288-5.53,23.757-15.258,31.334 C423.731,317.235,422.605,317.645,421.478,317.645z M413.286,285.082L413.286,285.082c0,7.782,2.97,15.053,8.192,20.48 c5.222-5.427,8.192-12.698,8.192-20.378v-0.102L413.286,285.082L413.286,285.082z"/><path style="fill:#221F1F;" d="M421.478,512c-5.837,0-11.776-1.946-16.589-5.939c-1.229-0.922-1.843-2.458-1.843-3.994V339.456 c0-12.288,5.53-23.757,15.258-31.334c1.843-1.434,4.403-1.434,6.349,0c9.728,7.578,15.258,19.046,15.258,31.334V502.17 c0,1.536-0.717,2.97-1.843,3.994C433.254,510.054,427.418,512,421.478,512z M413.286,499.507c5.018,3.072,11.366,3.072,16.384,0 V339.456c0-7.68-2.97-14.95-8.192-20.378c-5.222,5.427-8.192,12.698-8.192,20.378L413.286,499.507L413.286,499.507z"/></g><path style="fill:#F0C020;" d="M421.478,312.115c-8.397,6.554-13.312,16.589-13.312,27.341v9.523c7.782,6.349,18.842,6.349,26.624,0 l0,0v-9.523C434.79,328.806,429.875,318.669,421.478,312.115z"/><path style="fill:#221F1F;" d="M421.478,358.81c-5.837,0-11.776-1.946-16.589-5.939c-1.229-0.922-1.843-2.458-1.843-3.994v-9.523 c0-12.288,5.53-23.757,15.258-31.334c1.843-1.434,4.403-1.434,6.349,0c9.728,7.578,15.258,19.046,15.258,31.334v9.523 c0,1.536-0.717,2.97-1.843,3.994C433.254,356.864,427.418,358.81,421.478,358.81z M413.286,346.317 c5.018,3.072,11.366,3.072,16.384,0v-6.861c0-7.68-2.97-14.95-8.192-20.378c-5.222,5.427-8.192,12.698-8.192,20.378L413.286,346.317 L413.286,346.317z"/><path style="fill:#AFAFAF;" d="M461.414,279.962v5.222c0,10.65-4.915,20.787-13.312,27.341l0,0l0,0 c-8.397-6.554-13.312-16.589-13.312-27.341v-5.222L461.414,279.962L461.414,279.962z"/><path style="fill:#4C4945;" d="M434.79,502.067V339.456c0-10.65,4.915-20.787,13.312-27.341l0,0l0,0 c8.397,6.554,13.312,16.589,13.312,27.341V502.17l0,0C453.734,508.518,442.573,508.518,434.79,502.067L434.79,502.067z"/><g><path style="fill:#221F1F;" d="M448.102,317.645c-1.126,0-2.253-0.41-3.174-1.126c-9.728-7.578-15.258-19.046-15.258-31.334v-5.222 c0-2.867,2.253-5.12,5.12-5.12h26.624c2.867,0,5.12,2.253,5.12,5.12v5.222c0,12.288-5.53,23.757-15.258,31.334 C450.355,317.235,449.229,317.645,448.102,317.645z M439.91,285.082L439.91,285.082c0,7.782,2.97,15.053,8.192,20.48 c5.222-5.427,8.192-12.698,8.192-20.378v-0.102L439.91,285.082L439.91,285.082z"/><path style="fill:#221F1F;" d="M448.102,512c-5.837,0-11.776-1.946-16.589-5.939c-1.229-0.922-1.843-2.458-1.843-3.994V339.456 c0-12.288,5.53-23.757,15.258-31.334c1.843-1.434,4.403-1.434,6.349,0c9.728,7.578,15.258,19.046,15.258,31.334V502.17 c0,1.536-0.717,2.97-1.843,3.994C459.878,510.054,454.042,512,448.102,512z M439.91,499.507c5.018,3.072,11.366,3.072,16.384,0 V339.456c0-7.68-2.97-14.95-8.192-20.378c-5.222,5.427-8.192,12.698-8.192,20.378L439.91,499.507L439.91,499.507z"/></g><path style="fill:#F0C020;" d="M448.102,312.115c-8.397,6.554-13.312,16.589-13.312,27.341v9.523c7.782,6.349,18.842,6.349,26.624,0 l0,0v-9.523C461.414,328.806,456.499,318.669,448.102,312.115z"/><path style="fill:#221F1F;" d="M448.102,358.81c-5.837,0-11.776-1.946-16.589-5.939c-1.229-0.922-1.843-2.458-1.843-3.994v-9.523 c0-12.288,5.53-23.757,15.258-31.334c1.843-1.434,4.403-1.434,6.349,0c9.728,7.578,15.258,19.046,15.258,31.334v9.523 c0,1.536-0.717,2.97-1.843,3.994C459.878,356.864,454.042,358.81,448.102,358.81z M439.91,346.317 c5.018,3.072,11.366,3.072,16.384,0v-6.861c0-7.68-2.97-14.95-8.192-20.378c-5.222,5.427-8.192,12.698-8.192,20.378L439.91,346.317 L439.91,346.317z"/><path style="fill:#231F20;" d="M198.144,226.611c-1.536,0-3.072-0.717-4.096-2.048c-4.403-5.837-11.059-9.216-18.33-9.216 c-0.102,0-0.205,0-0.307,0c-7.168,0.102-13.824,3.482-18.125,9.216c-1.638,2.253-4.915,2.765-7.168,1.024 c-2.253-1.638-2.765-4.915-1.024-7.168c6.246-8.397,16.179-13.414,26.624-13.414c0.102,0,0.205,0,0.307,0 c10.342,0.102,20.173,5.12,26.317,13.414c1.638,2.253,1.229,5.427-1.024,7.168C200.192,226.304,199.168,226.611,198.144,226.611z"/><path style="fill:#F2203A;" d="M225.894,337.408c-0.102,0-0.205,0-0.307,0c-9.933-0.102-19.456-4.915-25.395-13.005 c-1.638-2.253-1.229-5.427,1.024-7.168c2.253-1.638,5.53-1.229,7.168,1.024c4.198,5.632,10.547,8.806,17.51,8.806 c0.102,0,0.205,0,0.205,0c6.861-0.102,13.107-3.277,17.203-8.806c1.638-2.253,4.915-2.765,7.168-1.024 c2.253,1.638,2.765,4.915,1.024,7.168C245.658,332.595,236.032,337.408,225.894,337.408z"/><circle style="fill:#231F20;" cx="175.62" cy="238.08" r="10.04"/><g><ellipse style="fill:#FF7364;" cx="175.62" cy="268.49" rx="22.528" ry="11.469"/><ellipse style="fill:#FF7364;" cx="276.17" cy="268.49" rx="22.528" ry="11.469"/></g><g><path style="fill:#231F20;" d="M298.701,226.611c-1.536,0-3.072-0.717-4.096-2.048c-4.403-5.837-11.059-9.216-18.33-9.216 c-0.102,0-0.205,0-0.307,0c-7.168,0.102-13.824,3.482-18.125,9.216c-1.638,2.253-4.915,2.765-7.168,1.024 c-2.253-1.638-2.765-4.915-1.024-7.168c6.246-8.397,16.179-13.414,26.624-13.414c0.102,0,0.205,0,0.307,0 c10.342,0.102,20.173,5.12,26.317,13.414c1.638,2.253,1.229,5.427-1.024,7.168C300.851,226.304,299.725,226.611,298.701,226.611z" /><circle style="fill:#231F20;" cx="276.17" cy="238.08" r="10.04"/><path style="fill:#231F20;" d="M225.894,302.08L225.894,302.08c-4.301,0-8.192-1.946-10.854-5.325l-4.813-6.246 c-1.741-2.253-1.331-5.427,0.922-7.168s5.427-1.331,7.168,0.922l4.813,6.246c0.922,1.126,2.048,1.331,2.662,1.331 s1.843-0.205,2.662-1.331l4.813-6.246c1.741-2.253,4.915-2.662,7.168-0.922s2.662,4.915,0.922,7.168l-4.813,6.246 C234.086,300.134,230.195,302.08,225.894,302.08z"/></g></svg>