<!-- icon666.com - MILLIONS OF FREE VECTOR ICONS --><svg version="1.1" id="Layer_1" xmlns="http://www.w3.org/2000/svg" xmlns:xlink="http://www.w3.org/1999/xlink" x="0px" y="0px" viewBox="0 0 512 512" style="enable-background:new 0 0 512 512;" xml:space="preserve"><path style="fill:#665247;" d="M297.185,308l-16.597-49.81c-2.792-8.379-11.626-13.134-20.156-10.85c0,0-40.678,10.877-64.66,17.286 c-9.291,2.483-14.562,12.279-11.522,21.404l25.12,75.421c2.272,6.82,8.653,11.42,15.84,11.42h25.225 c15.804,0,30.75-7.652,39.978-20.468C299.652,339.587,302.185,322.99,297.185,308z"/><path style="fill:#D95782;" d="M267.13,439.652c0,28.16-17.476,52.313-42.184,62.108c-7.569,3.005-15.917,4.675-24.598,4.675 c-27.492,0-51.867-16.473-61.998-41.962L77.467,281.934c-1.002-3.117-1.113-6.233-0.334-9.238h137.573 c0.445,0.89,0.89,1.781,1.224,2.783l46.748,140.355C265.572,422.734,267.13,431.082,267.13,439.652z"/><path style="fill:#FF80AB;" d="M433.522,93.359c2.381-8.902-2.902-18.055-11.815-20.445L189.098,10.652 c-12.62-3.369-25.686-5.087-38.837-5.087C67.403,5.565,0,72.968,0,155.826s67.403,150.261,150.261,150.261 c13.152,0,26.218-1.717,38.837-5.087l232.608-62.261c8.913-2.391,14.196-11.543,11.815-20.445V93.359z"/><path style="fill:#F26C9A;" d="M433.522,155.826H0c0,82.858,67.403,150.261,150.261,150.261c13.152,0,26.218-1.717,38.837-5.087 l232.608-62.261c8.913-2.391,14.196-11.543,11.815-20.445V155.826z"/><path style="fill:#736056;" d="M150.261,239.304c-46.032,0-83.478-37.446-83.478-83.478s37.446-83.478,83.478-83.478 s83.478,37.446,83.478,83.478S196.293,239.304,150.261,239.304z"/><path style="fill:#665247;" d="M150.261,239.304c46.032,0,83.478-37.446,83.478-83.478H66.783 C66.783,201.858,104.229,239.304,150.261,239.304z"/><path style="fill:#736056;" d="M493.087,271.555c-2.522,0-5.054-0.511-7.456-1.533l-84.935-25.639V67.291l84.935-25.661 c5.816-2.489,12.511-1.924,17.848,1.587c5.337,3.522,8.521,9.424,8.521,15.815V252.62c0,6.391-3.184,12.294-8.521,15.815 C500.336,270.5,496.728,271.555,493.087,271.555z M498.794,72.316l-0.022,0.011C498.783,72.326,498.794,72.326,498.794,72.316z"/><path style="fill:#665247;" d="M400.696,155.826v88.556l84.935,25.639c2.402,1.022,4.935,1.533,7.456,1.533 c3.641,0,7.25-1.054,10.391-3.12c5.337-3.522,8.521-9.424,8.521-15.815v-96.792H400.696z"/></svg>