<!-- icon666.com - MILLIONS OF FREE VECTOR ICONS --><svg id="Layer_1" enable-background="new 0 0 511.246 511.246" viewBox="0 0 511.246 511.246" xmlns="http://www.w3.org/2000/svg"><g><g><path d="m237.627 16.217v51.909h-43.038c-49.706 0-90 40.294-90 90v237.293h105.786l-.25-25.097 74.43-.267c27.544-.099 49.82-22.456 49.82-50v-303.838" fill="#ffc277"/><path d="m314.375 16.217v303.838c0 27.544-22.276 49.901-49.82 50h20c27.544-.099 49.82-22.456 49.82-50v-303.838z" fill="#f69500"/><g><path d="m385.004 399.417-123.329-29.095v.088h-84.6v-.088l-123.329 29.095c-27.086 6.39-46.223 30.567-46.223 58.397v37.215h423.705v-37.215c0-27.83-19.137-52.007-46.224-58.397z" fill="#c7efbc"/><path d="m385.004 399.417-22.164-5.229 2.164 2.229c27.086 6.39 46.223 33.567 46.223 61.397v37.215h20v-37.215c.001-27.83-19.136-52.007-46.223-58.397z" fill="#7bdaa9"/><g fill="#ffaa81"><path d="m240.311 326.687c-5.569 2.937-11.771 4.456-18.067 4.456h-5.914c-6.296 0-12.498-1.52-18.067-4.456-5.566-2.935-13.171-7.228-21.187-12.591v56.313c0 23.362 18.938 42.3 42.3 42.3 23.362 0 42.3-18.938 42.3-42.3v-56.432c-8.083 5.419-15.758 9.754-21.365 12.71z"/><g><path d="m134.599 233.871h-11.291c-10.338 0-18.719-8.381-18.719-18.719v-6.217c0-10.338 8.381-18.719 18.719-18.719h11.291z"/><path d="m304.479 190.216h11.291c10.338 0 18.719 8.381 18.719 18.719v6.217c0 10.338-8.381 18.719-18.719 18.719h-11.291z"/></g></g></g><path d="m197.375 130.216c0 33.137-26.863 60-60 60h-2.776v68.3c0 31.176 44.24 57.928 63.664 68.171 5.569 2.937 11.771 4.457 18.067 4.457h5.914c6.296 0 12.498-1.52 18.067-4.457 19.424-10.243 63.664-36.995 63.664-68.171v-68.3h-46.6c-33.137 0-60-26.862-60-60z" fill="#ffceb7"/><path d="m283.975 190.216v68.3c0 31.176-44.24 57.928-63.664 68.171-3.472 1.831-7.191 3.11-11.024 3.815 2.315.425 4.672.642 7.043.642h5.914c6.296 0 12.498-1.52 18.067-4.457 19.424-10.243 63.664-36.995 63.664-68.171v-68.3z" fill="#ffaa81"/><g><path d="m385.951 91.08 3.871-17.195c2.426-10.776-4.343-21.478-15.119-23.904l-40.327-9.078v38.567z" fill="#9eb6f4"/><path d="m385.951 91.964 3.871 17.195c2.426 10.776-4.343 21.478-15.119 23.904l-60.857 13.7c-20.27 4.563-40.401-8.17-44.964-28.439l-.001-.005z" fill="#cfdbfa"/></g><path d="m7.5 336.126c0 8.284 6.716 15 15 15h7.875c8.284 0 15-6.716 15-15v-135h-17.875c-11.046 0-20 8.954-20 20z" fill="#cfdbfa"/></g><g><path d="m.022 457.814v37.215h15v-37.215c0-16.831 8.154-32.757 21.813-42.604l-8.771-12.168c-17.559 12.658-28.042 33.134-28.042 54.772z"/><path d="m174.525 213.734h15v15h-15z"/><path d="m244.343 213.734h15v15h-15z"/><path d="m511.246 158.46-16.467-16.933c.356-1.041.664-2.104.909-3.193 1.761-7.818.371-15.853-3.912-22.625-4.284-6.772-10.948-11.471-18.766-13.231-1.805-.406-3.608-.631-5.395-.702l-45.552-10.254 45.547-10.254c1.788-.072 3.593-.296 5.399-.703 7.817-1.76 14.481-6.458 18.766-13.231 4.283-6.772 5.673-14.808 3.913-22.625s-6.459-14.482-13.231-18.766c-6.771-4.284-14.806-5.673-22.625-3.914-16.138 3.633-26.312 19.718-22.679 35.856 1.155 5.129 3.574 9.649 6.846 13.321l-48.337 10.884 1.476-6.558c3.331-14.793-5.995-29.538-20.788-32.868l-34.475-7.76v-18.687h-15v81.358l-66.783 15.039 1.436 7.18.037.176c2.647 11.758 9.714 21.781 19.899 28.224 7.308 4.622 15.592 7.003 24.032 7.003 3.324 0 6.674-.37 9.997-1.118l11.382-2.562v33.675c-3.375-1.585-7.137-2.476-11.105-2.476h-4.295-54.1c-28.948 0-52.5-23.551-52.5-52.5h-15c0 28.949-23.552 52.5-52.5 52.5h-10.276-3.791c-4.012 0-7.815.909-11.219 2.527v-27.118c0-45.491 37.01-82.5 82.5-82.5h35.538v29.563h15v-88.971h-15v44.409h-35.538c-53.762 0-97.5 43.738-97.5 97.5v223.36l-45.064 10.631c-2.885.68-5.748 1.558-8.509 2.607l5.328 14.021c2.148-.816 4.377-1.499 6.624-2.029l114.97-27.123c4.323 23.086 24.615 40.616 48.937 40.616s44.613-17.531 48.937-40.616l114.97 27.123c23.813 5.618 40.445 26.63 40.445 51.097v37.215h15v-37.215c0-31.458-21.384-58.474-52.002-65.697l-79.777-18.821c20.516-8.792 34.926-29.181 34.926-52.878v-20.293h-15v20.293c0 23.435-19.065 42.5-42.5 42.5h-15.2v-44.982c5.133-3.586 10.311-7.548 15.206-11.854 17.978-15.815 27.094-31.819 27.094-47.566v-17.145h4.295c3.968 0 7.731-.891 11.105-2.476v46.168h15v-136.922l34.475-7.761c7.166-1.613 13.275-5.92 17.201-12.128 3.927-6.208 5.2-13.573 3.588-20.739l-1.476-6.558 48.334 10.88c-3.272 3.672-5.688 8.194-6.843 13.323-3.632 16.138 6.542 32.223 22.68 35.856 2.21.498 4.437.743 6.647.743 5.611 0 11.12-1.584 15.978-4.657 1.347-.852 2.609-1.802 3.785-2.833l14.249 14.652zm-387.938 39.257h3.791v28.654h-3.791c-6.186 0-11.219-5.033-11.219-11.219v-6.217c0-6.186 5.033-11.218 11.219-11.218zm-11.219 41.127c3.403 1.618 7.206 2.527 11.219 2.527h3.791v17.145c0 15.747 9.115 31.751 27.094 47.566 4.952 4.356 10.192 8.361 15.383 11.979v46.325l-57.486 13.562v-139.104zm142.086 122.091v9.475c0 19.188-15.611 34.8-34.8 34.8s-34.8-15.611-34.8-34.8v-.088-9.475-33.203c3.678 2.159 7.132 4.065 10.189 5.677 6.603 3.482 14.06 5.322 21.565 5.322h5.914c7.506 0 14.964-1.841 21.564-5.322 3.106-1.638 6.622-3.579 10.366-5.781v33.395zm42.3-102.419c0 11.247-7.402 23.461-22.002 36.304-13.267 11.671-29.29 20.819-37.661 25.233-4.453 2.349-9.49 3.59-14.567 3.59h-5.914c-5.077 0-10.114-1.242-14.569-3.591-8.37-4.414-24.394-13.562-37.66-25.233-14.6-12.843-22.002-25.058-22.002-36.304v-17.145-43.818c24.083-1.673 44.729-16.037 55.276-36.43 11.231 21.715 33.912 36.594 60 36.594h39.1v60.8zm19.295-32.145h-3.791v-28.654h3.791c5.674 0 10.366 4.238 11.105 9.712v9.229c-.74 5.475-5.432 9.713-11.105 9.713zm147.358-189.707c1.104-.249 2.218-.372 3.323-.372 2.806 0 5.56.792 7.989 2.328 3.386 2.142 5.735 5.474 6.615 9.383s.185 7.926-1.957 11.313c-2.142 3.386-5.474 5.735-9.383 6.615-8.067 1.816-16.112-3.271-17.928-11.339-1.815-8.069 3.272-16.112 11.341-17.928zm-90.073 20.634c6.725 1.514 10.964 8.216 9.449 14.94l-2.223 9.877-38.406-8.646v-23.19zm-31.18 31.547 11.889 2.676-11.889 2.677zm38.999 31.388c-1.785 2.822-4.562 4.779-7.819 5.513l-60.856 13.7c-7.844 1.767-15.915.372-22.716-3.929-4.634-2.931-8.301-6.972-10.726-11.734l101.524-22.854 2.223 9.877c.733 3.257.154 6.605-1.63 9.427zm93.566 24.19c-3.387 2.142-7.403 2.836-11.313 1.957-8.069-1.817-13.156-9.859-11.341-17.928 1.816-8.068 9.855-13.156 17.929-11.339 3.909.88 7.241 3.229 9.383 6.615s2.837 7.404 1.956 11.313c-.878 3.908-3.228 7.24-6.614 9.382z"/><path d="m262.875 16.217h15v73.909h-15z"/><path d="m292.875 45.188h15v44.938h-15z"/><path d="m292.875 16.217h15v14.409h-15z"/><path d="m22.5 358.626h7.875c12.406 0 22.5-10.093 22.5-22.5v-37.5h29.5v-15h-29.5v-15h29.5v-15h-29.5v-15h29.5v-15h-29.5v-15h29.5v-15h-29.5-7.5-17.875c-15.163 0-27.5 12.336-27.5 27.5v19h15v-19c0-6.893 5.607-12.5 12.5-12.5h10.375v127.5c0 4.136-3.364 7.5-7.5 7.5h-7.875c-4.136 0-7.5-3.364-7.5-7.5v-81.063h-15v81.063c0 12.406 10.094 22.5 22.5 22.5z"/><g><path d="m70.875 33.205h15v15h-15z"/><path d="m70.875 63.205h15v15h-15z"/><path d="m85.875 48.205h15v15h-15z"/><path d="m55.875 48.205h15v15h-15z"/></g><path d="m28.875 136.504h15v15h-15z"/><path d="m398.8 247.563h15v15h-15z"/></g></g></svg>