<!-- icon666.com - MILLIONS OF FREE VECTOR ICONS --><svg id="Layer_1" enable-background="new 0 0 494.79 494.79" viewBox="0 0 494.79 494.79" xmlns="http://www.w3.org/2000/svg"><g><g><path d="m244.353 31.199h-6.748-36.289-6.748c-49.706 0-90 40.294-90 90v223.837h157.086v112.181h72.7v-336.018c-.001-49.705-40.296-90-90.001-90z" fill="#ffc277"/><path d="m244.353 31.199h-6.748-13.252c49.706 0 90 40.294 90 90v336.018h20v-336.018c0-49.706-40.295-90-90-90z" fill="#f69500"/><path d="m261.652 328.024v-44.432l-84.6.118v44.225l-123.329 29.096c-27.086 6.39-46.223 30.567-46.223 58.396v41.79h254.152z" fill="#ffceb7"/><path d="m384.982 357.031-50.629-11.908v112.094h96.853v-41.79c-.001-27.829-19.138-52.006-46.224-58.396z" fill="#ffaa81"/><path d="m197.353 99.83c0 33.137-26.863 60-60 60h-2.776v68.3c0 31.176 44.24 57.928 63.664 68.171 5.569 2.937 11.771 4.456 18.067 4.456h5.914c6.296 0 12.498-1.52 18.067-4.456 19.424-10.243 63.664-36.995 63.664-68.171v-68.3h-46.6c-33.138 0-60-26.863-60-60z" fill="#ffceb7"/><path d="m283.952 159.83v68.3c0 31.176-44.24 57.928-63.664 68.171-3.472 1.831-7.191 3.11-11.024 3.815 2.315.425 4.672.642 7.043.642h5.914c6.296 0 12.498-1.52 18.067-4.456 19.424-10.243 63.664-36.995 63.664-68.171v-68.3h-20z" fill="#ffaa81"/><g fill="#ffaa81"><path d="m134.576 203.484h-11.291c-10.338 0-18.719-8.381-18.719-18.719v-6.217c0-10.338 8.381-18.719 18.719-18.719h11.291z"/><path d="m304.456 159.83h11.291c10.338 0 18.719 8.381 18.719 18.719v6.217c0 10.338-8.381 18.719-18.719 18.719h-11.291z"/></g><path d="m459.353 405.474h-75l-7.12-12.456c-1.781-3.115-5.094-5.037-8.682-5.037h-139.287c-5.523 0-10 4.477-10 10v66.729c0 5.523 4.477 10 10 10h139.286c3.588 0 6.901-1.922 8.682-5.037l7.12-12.456h75v-51.743z" fill="#e08ea2"/><path d="m439.353 405.474v31.743h-65l-7.12 12.456c-1.781 3.115-5.094 5.037-8.682 5.037h-139.287v10c0 5.523 4.477 10 10 10h139.286c3.588 0 6.901-1.922 8.682-5.037l7.12-12.456h75v-51.743z" fill="#d15573"/><path d="m219.46 457.217h-130.107v-12.806c0-11.046 8.954-20 20-20h110.107z" fill="#cfdbfa"/></g><g><g><path d="m336.853 438.474h-15v-15h15zm-30 0h-15v-15h15zm-30 0h-15v-15h15z" fill="#fff"/></g><g><path d="m174.502 183.348h15v15h-15z"/><path d="m244.32 183.348h15v15h-15z"/><path d="m494.79 423.846h-27.938v-25.872h-30.445c-6.36-23.878-25.281-42.481-49.709-48.244l-44.877-10.554v-217.977c0-53.744-43.725-97.469-97.469-97.469h-49.786c-25.206 0-49.119 9.588-67.334 26.997l10.321 10.799c15.423-14.74 35.671-22.858 57.013-22.858h49.786c45.508 0 82.531 37.023 82.531 82.531v33.621c-3.383-1.594-7.156-2.49-11.137-2.49h-4.295-14.496-39.604c-28.949 0-52.5-23.552-52.5-52.5h-15c0 28.948-23.551 52.5-52.5 52.5h-10.276-3.791c-4.024 0-7.839.914-11.25 2.541v-33.672c0-17.673 5.503-34.523 15.915-48.729l-12.049-8.83c-12.301 16.785-18.803 36.689-18.803 57.56v217.893l-45.096 10.637c-30.618 7.224-52.001 34.24-52.001 65.698v41.789h15v-41.789c0-24.467 16.632-45.479 40.445-51.098l129.107-30.458v-36.614c3.677 2.159 7.132 4.065 10.189 5.677 6.603 3.481 14.061 5.321 21.566 5.321h5.914c7.505 0 14.962-1.84 21.566-5.322 10.942-5.771 26.864-15.18 40.571-27.238 4.622-4.066 8.648-8.144 12.094-12.227v57.005h15v-91.5h-.031c.006-.281.031-.563.031-.845v-17.145h4.295c3.98 0 7.754-.896 11.137-2.49v171.986h-28.031v-35.357h-15v35.357h-14.731v-67.889h-14.938v67.889h-24.919c-9.649 0-17.5 7.851-17.5 17.5v18.962h-55.287v14.938h55.287v32.83c0 9.649 7.851 17.5 17.5 17.5h139.287c6.263 0 12.084-3.377 15.193-8.815l4.96-8.678h78.148v-25.871h27.938v-15zm-382.724-245.297c0-6.186 5.033-11.219 11.219-11.219h3.791v28.654h-3.791c-6.186 0-11.219-5.033-11.219-11.219zm57.487 143.45-57.518 13.569v-127.125c3.411 1.627 7.226 2.541 11.25 2.541h3.791v17.145c0 15.747 9.116 31.751 27.094 47.567 4.952 4.356 10.192 8.36 15.382 11.979v34.324zm104.897-57.565c-13.267 11.672-29.29 20.819-37.66 25.232-4.455 2.35-9.493 3.591-14.569 3.591h-5.914c-5.077 0-10.115-1.241-14.569-3.59-8.371-4.414-24.394-13.563-37.661-25.233-14.599-12.843-22.001-25.058-22.001-36.305v-17.145-43.817c24.083-1.673 44.728-16.037 55.276-36.431 11.232 21.716 33.912 36.594 60 36.594h39.1v60.799c0 11.247-7.402 23.462-22.002 36.305zm41.297-68.45h-3.791v-28.654h3.791c5.745 0 10.489 4.343 11.137 9.917v8.821c-.648 5.573-5.392 9.916-11.137 9.916zm26.074 158.6 41.438 9.746c17.653 4.165 31.611 16.954 37.466 33.644h-32.022l-4.961-8.68c-3.109-5.437-8.931-8.813-15.192-8.813h-26.729zm110.032 95.133h-71.852l-9.279 16.233c-.444.777-1.276 1.26-2.171 1.26h-139.287c-1.378 0-2.5-1.121-2.5-2.5v-66.73c0-1.379 1.122-2.5 2.5-2.5h139.287c.895 0 1.727.483 2.17 1.259l9.28 16.234h71.852z"/><path d="m81.884 444.411v12.806h14.938v-12.806c0-6.909 5.622-12.531 12.531-12.531h32v-14.938h-32c-15.147 0-27.469 12.323-27.469 27.469z"/><path d="m367.853 313.71h15c0-6.576 1.671-9.449 3.983-13.426 2.681-4.609 6.017-10.347 6.017-20.967s-3.336-16.356-6.017-20.967c-2.313-3.977-3.983-6.851-3.983-13.427 0-6.574 1.671-9.447 3.983-13.423 2.681-4.609 6.017-10.345 6.017-20.965h-15c0 6.575-1.671 9.447-3.983 13.424-2.681 4.608-6.017 10.345-6.017 20.964 0 10.621 3.336 16.357 6.017 20.968 2.313 3.977 3.983 6.85 3.983 13.426s-1.671 9.449-3.983 13.426c-2.682 4.61-6.017 10.347-6.017 20.967z"/><path d="m407.853 313.71h15c0-6.576 1.671-9.449 3.983-13.426 2.681-4.609 6.017-10.347 6.017-20.967s-3.336-16.356-6.017-20.967c-2.313-3.977-3.983-6.851-3.983-13.427 0-6.574 1.671-9.447 3.983-13.423 2.681-4.609 6.017-10.345 6.017-20.965h-15c0 6.575-1.671 9.447-3.983 13.424-2.681 4.608-6.017 10.345-6.017 20.964 0 10.621 3.336 16.357 6.017 20.968 2.313 3.977 3.983 6.85 3.983 13.426s-1.671 9.449-3.983 13.426c-2.682 4.61-6.017 10.347-6.017 20.967z"/><g><g><path d="m37.993 12.58h15v15h-15z"/></g><g><path d="m37.993 42.58h15v15h-15z"/></g><g><path d="m52.993 27.58h15v15h-15z"/></g><g><path d="m22.993 27.58h15v15h-15z"/></g></g><path d="m13.493 158.005h15v14.938h-15z"/><path d="m377.853 92.361h15v14.938h-15z"/></g></g></g></svg>