<!-- icon666.com - MILLIONS OF FREE VECTOR ICONS --><svg version="1.1" id="Capa_1" xmlns="http://www.w3.org/2000/svg" xmlns:xlink="http://www.w3.org/1999/xlink" x="0px" y="0px" viewBox="0 0 512.049 512.049" style="enable-background:new 0 0 512.049 512.049;" xml:space="preserve"><path style="fill:#F0C020;" d="M402.023,191.946l4.403-1.229l-4.403-1.229c-10.445-2.867-18.534-11.059-21.402-21.402l-1.229-4.403 l-1.229,4.403c-2.867,10.445-11.059,18.534-21.402,21.402l-4.403,1.229l4.403,1.229c10.445,2.867,18.534,11.059,21.402,21.402 l1.229,4.403l1.229-4.403C383.488,202.903,391.578,194.813,402.023,191.946z"/><path style="fill:#221F1F;" d="M379.392,222.871L379.392,222.871c-2.253,0-4.301-1.536-4.915-3.789l-1.229-4.403 c-2.355-8.602-9.216-15.462-17.818-17.818l-4.403-1.229c-2.253-0.614-3.789-2.662-3.789-4.915s1.536-4.301,3.789-4.915l4.403-1.229 c8.602-2.355,15.462-9.216,17.818-17.818l1.229-4.403c0.614-2.253,2.662-3.789,4.915-3.789c2.253,0,4.301,1.536,4.915,3.789 l1.229,4.403c2.355,8.602,9.216,15.462,17.818,17.818l4.403,1.229c2.253,0.614,3.789,2.662,3.789,4.915s-1.536,4.301-3.789,4.915 l-4.403,1.229c-8.602,2.355-15.462,9.216-17.818,17.818l-1.229,4.403C383.693,221.335,381.645,222.871,379.392,222.871z M366.797,190.717c5.12,3.072,9.523,7.373,12.595,12.595c3.072-5.12,7.373-9.523,12.595-12.595 c-5.12-3.072-9.523-7.373-12.595-12.595C376.32,183.345,372.019,187.645,366.797,190.717z"/><path style="fill:#F0C020;" d="M236.032,64.253l4.403-1.229l-4.403-1.229c-10.445-2.867-18.534-11.059-21.402-21.402l-1.229-4.403 l-1.229,4.403c-2.867,10.445-11.059,18.534-21.402,21.402l-4.403,1.229l4.403,1.229c10.445,2.867,18.534,11.059,21.402,21.402 l1.229,4.403l1.229-4.403C217.498,75.313,225.587,67.121,236.032,64.253z"/><path style="fill:#221F1F;" d="M213.402,95.178c-2.253,0-4.301-1.536-4.915-3.789l-1.229-4.403 c-2.355-8.602-9.216-15.462-17.818-17.818l-4.403-1.229c-2.253-0.614-3.789-2.662-3.789-4.915c0-2.253,1.536-4.301,3.789-4.915 l4.403-1.229c8.602-2.355,15.462-9.216,17.818-17.818l1.229-4.403c0.614-2.253,2.662-3.789,4.915-3.789l0,0 c2.253,0,4.301,1.536,4.915,3.789l1.229,4.403c2.355,8.602,9.216,15.462,17.818,17.818l4.403,1.229 c2.253,0.614,3.789,2.662,3.789,4.915s-1.536,4.301-3.789,4.915l-4.403,1.229c-8.602,2.355-15.462,9.216-17.818,17.818l-1.229,4.403 C217.703,93.642,215.655,95.178,213.402,95.178z M200.807,63.025c5.12,3.072,9.523,7.373,12.595,12.595 c3.072-5.12,7.373-9.523,12.595-12.595c-5.12-3.072-9.523-7.373-12.595-12.595C210.33,55.652,205.927,59.953,200.807,63.025z"/><path style="fill:#FFB69F;" d="M91.751,345.137h-9.933c-14.541,0-26.214-11.776-26.214-26.214V306.02 c0-14.541,11.776-26.214,26.214-26.214h9.933V345.137z"/><g><path style="fill:#221F1F;" d="M91.751,350.257h-9.933c-17.306,0-31.334-14.029-31.334-31.334V306.02 c0-17.306,14.029-31.334,31.334-31.334h9.933c2.867,0,5.12,2.253,5.12,5.12v65.331C96.871,348.004,94.515,350.257,91.751,350.257z M81.818,284.925c-11.674,0-21.094,9.523-21.094,21.094v12.902c0,11.674,9.523,21.094,21.094,21.094h4.813v-55.091L81.818,284.925 L81.818,284.925z"/><path style="fill:#221F1F;" d="M91.751,317.591h-9.523c-2.867,0-5.12-2.253-5.12-5.12s2.253-5.12,5.12-5.12h9.523 c2.867,0,5.12,2.253,5.12,5.12S94.515,317.591,91.751,317.591z"/></g><path style="fill:#FFB69F;" d="M335.053,345.137h9.933c14.541,0,26.214-11.776,26.214-26.214V306.02 c0-14.541-11.776-26.214-26.214-26.214h-9.933V345.137z"/><g><path style="fill:#221F1F;" d="M344.986,350.257h-9.933c-2.867,0-5.12-2.253-5.12-5.12v-65.331c0-2.867,2.253-5.12,5.12-5.12h9.933 c17.306,0,31.334,14.029,31.334,31.334v12.902C376.32,336.228,362.291,350.257,344.986,350.257z M340.173,340.017h4.813 c11.674,0,21.094-9.523,21.094-21.094V306.02c0-11.674-9.523-21.094-21.094-21.094h-4.813V340.017z"/><path style="fill:#221F1F;" d="M344.576,317.591h-9.523c-2.867,0-5.12-2.253-5.12-5.12s2.253-5.12,5.12-5.12h9.523 c2.867,0,5.12,2.253,5.12,5.12S347.443,317.591,344.576,317.591z"/></g><path style="fill:#FFB69F;" d="M282.215,456.65l-40.243,38.707c-15.974,15.36-41.37,15.36-57.344,0l-40.141-38.707 c-33.485-32.154-52.736-79.36-52.736-129.126v-73.83c0-19.046,15.462-34.509,34.509-34.509h174.182 c19.046,0,34.509,15.462,34.509,34.509v73.83C335.053,377.29,315.699,424.394,282.215,456.65z"/><path style="fill:#EA8F7D;" d="M300.442,219.185H126.259c-19.046,0-34.509,15.462-34.509,34.509v73.83 c0,9.728,0.717,19.251,2.15,28.672l23.142-26.624c10.035-9.421,15.872-22.528,15.872-36.352v-4.506l8.602-8.602 c9.421-9.421,14.541-21.811,14.541-35.123v-5.427h114.79v5.427c0,13.312,5.12,25.702,14.541,35.123l8.602,8.602v4.506 c0,13.824,5.734,27.034,15.872,36.352l23.142,26.624c1.434-9.421,2.15-19.046,2.15-28.672v-73.83 C335.053,234.647,319.591,219.185,300.442,219.185z"/><path style="fill:#221F1F;" d="M213.402,512.049c-11.571,0-23.142-4.301-32.256-13.005l-40.243-38.707 c-34.509-33.178-54.374-81.613-54.374-132.813v-73.83c0-21.914,17.818-39.629,39.629-39.629H300.34 c21.914,0,39.629,17.818,39.629,39.629v73.83c0,51.2-19.763,99.533-54.374,132.813l0,0l-40.243,38.707 C236.544,507.645,224.973,512.049,213.402,512.049z M126.259,224.305c-16.179,0-29.389,13.21-29.389,29.389v73.83 c0,48.435,18.637,94.106,51.2,125.44l40.243,38.707c14.131,13.517,36.147,13.517,50.278,0l40.243-38.707 c32.563-31.334,51.2-77.005,51.2-125.44v-73.83c0-16.179-13.21-29.389-29.389-29.389H126.259L126.259,224.305z M282.215,456.65 L282.215,456.65L282.215,456.65z"/><path style="fill:#7C7B7A;" d="M335.053,233.521v94.003l-10.65-12.288c-6.349-5.53-10.035-13.517-10.035-22.016v-13.005 l-14.541-14.541c-5.427-5.427-8.499-12.902-8.499-20.685v-13.005c0-7.168-5.837-12.902-12.902-12.902H148.48 c-7.168,0-12.902,5.837-12.902,12.902v13.005c0,7.782-3.072,15.155-8.499,20.685l-14.541,14.541v13.005 c0,8.397-3.686,16.486-10.035,22.016l-10.65,12.288v-94.003c0-47.616,38.605-86.221,86.221-86.221h70.758 C296.448,147.3,335.053,185.905,335.053,233.521z"/><path style="fill:#221F1F;" d="M335.053,332.644c-1.434,0-2.867-0.614-3.891-1.741l-10.445-12.083 c-7.27-6.554-11.469-15.872-11.469-25.6v-10.854l-13.005-13.005c-6.451-6.451-10.035-15.053-10.035-24.269v-13.005 c0-4.301-3.482-7.782-7.782-7.782H148.48c-4.301,0-7.782,3.482-7.782,7.782v13.005c0,9.114-3.584,17.818-10.035,24.269 l-13.005,13.005v10.854c0,9.83-4.198,19.149-11.469,25.6l-10.445,12.083c-1.434,1.638-3.686,2.15-5.632,1.434 c-2.048-0.717-3.277-2.662-3.277-4.813v-94.003c0-50.381,40.96-91.341,91.341-91.341h70.656c50.381,0,91.341,40.96,91.341,91.341 v94.003c0,2.15-1.331,4.096-3.277,4.813C336.282,332.541,335.667,332.644,335.053,332.644z M177.971,152.42 c-44.749,0-81.101,36.352-81.101,81.101v80.384l1.741-1.946c0.205-0.205,0.307-0.307,0.512-0.512 c5.222-4.608,8.294-11.162,8.294-18.125v-13.005c0-1.331,0.512-2.662,1.536-3.584l14.541-14.541 c4.506-4.506,7.066-10.547,7.066-16.998v-13.005c0-9.933,8.09-18.022,18.022-18.022h129.843c9.933,0,18.022,8.09,18.022,18.022 v13.005c0,6.451,2.458,12.493,7.066,16.998l14.541,14.541c0.922,0.922,1.536,2.253,1.536,3.584v13.005 c0,6.963,2.97,13.619,8.294,18.125c0.205,0.205,0.307,0.307,0.512,0.512l1.741,1.946v-80.384c0-44.749-36.352-81.101-81.101-81.101 H177.971L177.971,152.42z"/><path style="fill:#4C4945;" d="M213.402,402.583l32.768,5.837c19.251,3.379,38.81-4.403,50.278-20.275l3.174-4.403l0,0 c-13.21,4.301-27.546,3.072-39.731-3.379l-12.288-6.451c-10.752-5.632-23.552-5.53-34.202,0.205l0,0l0,0 c-10.65-5.734-23.45-5.837-34.202-0.205l-12.288,6.451c-12.288,6.451-26.624,7.68-39.731,3.379l0,0l3.174,4.403 c11.571,15.77,31.027,23.654,50.278,20.275L213.402,402.583z"/><path style="fill:#221F1F;" d="M254.976,414.257c-3.174,0-6.451-0.307-9.626-0.819l-31.949-5.632l-31.949,5.632 c-20.992,3.686-42.701-5.018-55.296-22.323l-3.174-4.403c-1.331-1.843-1.331-4.198,0-6.042c1.331-1.843,3.584-2.56,5.734-1.843 c11.776,3.891,24.781,2.765,35.84-2.97l12.288-6.451c11.469-6.042,24.883-6.349,36.557-1.024 c11.674-5.325,25.088-5.018,36.557,1.024l12.288,6.451c10.957,5.734,24.064,6.861,35.84,2.97c2.15-0.717,4.403,0.102,5.734,1.843 c1.331,1.741,1.331,4.198,0,6.042l-3.174,4.403C289.997,405.757,272.691,414.257,254.976,414.257z M213.402,397.463 c0.307,0,0.614,0,0.922,0.102l32.768,5.837c14.438,2.56,29.286-2.048,39.834-11.981c-10.138,0.512-20.275-1.638-29.389-6.349 l-12.288-6.451c-9.216-4.813-20.173-4.813-29.389,0.205c-1.536,0.819-3.379,0.819-4.915,0c-9.216-4.915-20.173-5.018-29.389-0.205 l-12.288,6.451c-9.011,4.71-19.251,6.963-29.389,6.349c10.445,9.933,25.293,14.541,39.834,11.981l32.768-5.837 C212.787,397.565,213.095,397.463,213.402,397.463z"/><path style="fill:#4C4945;" d="M323.175,163.581L323.175,163.581c7.373,12.39,3.686,26.317-9.626,36.454l-24.883,19.149H138.138 l-24.883-19.149c-13.312-10.24-16.998-24.166-9.626-36.454l0,0c4.198-7.168,11.878-13.312,21.811-17.51l87.962-37.786l87.962,37.786 C311.296,150.269,318.874,156.413,323.175,163.581z"/><g><path style="fill:#221F1F;" d="M253.645,130.609c-0.717,0-1.331-0.102-2.048-0.41l-2.662-1.126 c-2.56-1.126-3.789-4.096-2.662-6.758c1.126-2.56,4.096-3.789,6.758-2.662l2.662,1.126c2.56,1.126,3.789,4.096,2.662,6.758 C257.536,129.482,255.591,130.609,253.645,130.609z"/><path style="fill:#221F1F;" d="M288.666,224.305H138.138c-1.126,0-2.253-0.41-3.072-1.024l-24.883-19.149 c-15.258-11.674-19.558-28.672-10.854-43.213c4.813-8.09,13.21-14.848,24.269-19.661l87.962-37.786 c1.331-0.512,2.765-0.512,3.994,0l20.378,8.806c2.56,1.126,3.789,4.096,2.662,6.758c-1.126,2.56-4.096,3.789-6.758,2.662 l-18.33-7.885l-85.914,36.966c-8.909,3.789-15.77,9.318-19.456,15.462c-6.042,10.035-2.867,21.197,8.294,29.798l23.552,18.022 h147.046l23.552-18.022c11.162-8.602,14.336-19.763,8.294-29.798c-2.662-4.608-7.168-8.806-13.005-12.186 c-2.458-1.434-3.277-4.608-1.843-6.963c1.434-2.355,4.608-3.277,6.963-1.843c7.27,4.301,13.005,9.728,16.589,15.77 c8.602,14.541,4.403,31.437-10.854,43.213l-24.986,18.944C290.816,223.895,289.792,224.305,288.666,224.305z"/></g><g><path style="fill:#7C7B7A;" d="M209.408,137.367c-1.946,0-3.891-1.126-4.71-3.072c-1.126-2.56,0.102-5.632,2.662-6.758l3.994-1.741 c2.56-1.126,5.632,0.102,6.758,2.662c1.126,2.56-0.102,5.632-2.662,6.758l-3.994,1.741 C210.739,137.162,210.125,137.367,209.408,137.367z"/><path style="fill:#7C7B7A;" d="M145.101,203.825c-1.126,0-2.15-0.307-3.072-1.024l-19.354-14.848 c-8.806-6.758-7.987-12.698-5.734-16.486c1.434-2.458,5.325-7.27,14.746-11.264l55.296-23.757c2.56-1.126,5.632,0.102,6.758,2.662 c1.126,2.56-0.102,5.632-2.662,6.758l-55.296,23.757c-7.168,3.072-9.421,6.349-9.933,7.066c0.307,0.512,1.024,1.536,3.174,3.174 l19.354,14.848c2.253,1.741,2.662,4.915,0.922,7.168C148.173,203.108,146.637,203.825,145.101,203.825z"/></g><g><path style="fill:#221F1F;" d="M213.402,224.305c-2.867,0-5.12-2.253-5.12-5.12v-31.437c0-2.867,2.253-5.12,5.12-5.12 s5.12,2.253,5.12,5.12v31.437C218.522,221.949,216.167,224.305,213.402,224.305z"/><path style="fill:#221F1F;" d="M213.402,176.996c-2.867,0-5.12-2.253-5.12-5.12v-1.946c0-2.867,2.253-5.12,5.12-5.12 s5.12,2.253,5.12,5.12v1.946C218.522,174.641,216.167,176.996,213.402,176.996z"/><path style="fill:#221F1F;" d="M190.567,224.305c-2.867,0-5.12-2.253-5.12-5.12V201.06c0-2.867,2.253-5.12,5.12-5.12 s5.12,2.253,5.12,5.12v18.125C195.687,221.949,193.434,224.305,190.567,224.305z"/><path style="fill:#221F1F;" d="M236.135,224.305c-2.867,0-5.12-2.253-5.12-5.12V201.06c0-2.867,2.253-5.12,5.12-5.12 s5.12,2.253,5.12,5.12v18.125C241.255,221.949,239.002,224.305,236.135,224.305z"/></g><path style="fill:#AFAFAF;" d="M375.501,79.613L375.501,79.613c-7.885-17.92-23.962-32.973-43.418-40.96l-82.33-33.587 l68.915,56.013C335.155,74.391,356.045,81.252,375.501,79.613L375.501,79.613z"/><g><path style="fill:#221F1F;" d="M433.971,141.873c-4.915,0-9.728-1.331-14.029-3.891c-6.349-3.789-10.854-9.728-12.698-16.896 s-0.717-14.541,2.97-20.89c7.782-13.107,24.781-17.408,37.786-9.626l0,0c13.107,7.782,17.408,24.781,9.626,37.786 c-3.789,6.349-9.728,10.854-16.896,12.698C438.579,141.565,436.224,141.873,433.971,141.873z M433.971,96.919 c-5.939,0-11.776,3.072-14.95,8.499c-2.355,3.994-3.072,8.704-1.843,13.107c1.126,4.506,3.994,8.294,7.987,10.65 c3.994,2.355,8.704,3.072,13.107,1.843c4.506-1.126,8.294-3.994,10.65-7.987c4.915-8.192,2.15-18.944-6.042-23.757l0,0 C440.115,97.738,437.043,96.919,433.971,96.919z"/><path style="fill:#221F1F;" d="M369.664,84.938c-18.944,0-38.4-7.066-54.17-19.866L246.579,9.06 c-1.946-1.638-2.458-4.403-1.126-6.554c1.331-2.15,3.994-3.072,6.349-2.15l82.227,33.587c20.89,8.499,37.683,24.371,46.182,43.622 c0.717,1.536,0.614,3.277-0.307,4.71s-2.355,2.355-3.994,2.458C373.863,84.836,371.815,84.938,369.664,84.938z M279.757,22.884 l42.189,34.304c13.005,10.547,29.389,16.896,45.158,17.51c-8.09-13.517-21.504-24.883-37.069-31.232L279.757,22.884z"/><path style="fill:#221F1F;" d="M414.618,107.978c-0.922,0-1.741-0.205-2.56-0.717l-39.117-23.245 c-2.458-1.434-3.277-4.608-1.843-7.066c1.434-2.458,4.608-3.277,7.066-1.843l39.117,23.245c2.458,1.434,3.277,4.608,1.843,7.066 C418.099,107.057,416.359,107.978,414.618,107.978z"/></g><path style="fill:#AFAFAF;" d="M375.501,79.613L375.501,79.613c-7.885,17.92-23.859,33.075-43.315,41.062l-82.125,33.894 l68.813-56.32C335.155,84.938,356.045,78.077,375.501,79.613L375.501,79.613z"/><g><path style="fill:#221F1F;" d="M433.971,72.343c-2.253,0-4.506-0.307-6.758-0.819c-7.168-1.843-13.21-6.246-16.998-12.595 c-7.782-13.107-3.482-30.003,9.523-37.888c13.107-7.782,30.003-3.482,37.888,9.523c3.789,6.349,4.915,13.722,3.072,20.89 c-1.843,7.168-6.246,13.21-12.595,16.998C443.699,71.012,438.887,72.343,433.971,72.343z M433.869,27.389 c-3.072,0-6.042,0.819-8.909,2.458c-8.192,4.915-10.957,15.565-6.042,23.859c2.355,3.994,6.144,6.758,10.65,7.885 c4.506,1.126,9.216,0.41,13.107-1.946l0,0c3.994-2.355,6.758-6.144,7.987-10.65c1.126-4.506,0.41-9.216-1.946-13.107 C445.543,30.359,439.808,27.389,433.869,27.389z"/><path style="fill:#221F1F;" d="M250.061,159.69c-1.741,0-3.482-0.922-4.403-2.458c-1.331-2.15-0.819-5.018,1.126-6.554 l68.813-56.32c17.408-14.234,39.424-21.504,60.314-19.763c1.638,0.102,3.174,1.024,3.994,2.458c0.819,1.434,0.922,3.174,0.307,4.71 c-8.397,19.251-25.19,35.123-46.08,43.725l-82.125,33.894C251.29,159.588,250.675,159.69,250.061,159.69z M367.207,84.631 c-15.77,0.717-32.154,7.066-45.158,17.613l-42.086,34.406l50.278-20.685C345.703,109.514,359.117,98.148,367.207,84.631z"/><path style="fill:#221F1F;" d="M375.501,84.733c-1.741,0-3.482-0.922-4.403-2.458c-1.434-2.458-0.614-5.53,1.741-7.066 l39.117-23.347c2.458-1.434,5.53-0.614,7.066,1.741c1.434,2.458,0.614,5.53-1.741,7.066l-39.117,23.347 C377.344,84.529,376.423,84.733,375.501,84.733z"/></g><g><path style="fill:#231F20;" d="M185.549,295.985c-1.536,0-3.072-0.717-4.096-2.048c-4.403-5.837-11.059-9.216-18.33-9.216 c-0.102,0-0.205,0-0.307,0c-7.168,0.102-13.824,3.482-18.125,9.216c-1.638,2.253-4.915,2.765-7.168,1.024 c-2.253-1.638-2.765-4.915-1.024-7.168c6.246-8.397,16.179-13.414,26.624-13.414c0.102,0,0.205,0,0.307,0 c10.342,0.102,20.173,5.12,26.317,13.414c1.638,2.253,1.229,5.53-1.024,7.168C187.699,295.677,186.675,295.985,185.549,295.985z"/><circle style="fill:#231F20;" cx="163.12" cy="307.45" r="10.04"/><path style="fill:#231F20;" d="M286.106,295.985c-1.536,0-3.072-0.717-4.096-2.048c-4.403-5.837-11.059-9.216-18.33-9.216 c-0.102,0-0.205,0-0.307,0c-7.168,0.102-13.824,3.482-18.125,9.216c-1.638,2.253-4.915,2.765-7.168,1.024 c-2.253-1.638-2.765-4.915-1.024-7.168c6.246-8.397,16.179-13.414,26.624-13.414c0.102,0,0.205,0,0.307,0 c10.342,0.102,20.173,5.12,26.317,13.414c1.638,2.253,1.229,5.427-1.024,7.168C288.256,295.677,287.232,295.985,286.106,295.985z" /><circle style="fill:#231F20;" cx="263.68" cy="307.45" r="10.04"/></g></svg>