<!-- icon666.com - MILLIONS OF FREE VECTOR ICONS --><svg version="1.1" id="Capa_1" xmlns="http://www.w3.org/2000/svg" xmlns:xlink="http://www.w3.org/1999/xlink" x="0px" y="0px" viewBox="0 0 511.946 511.946" style="enable-background:new 0 0 511.946 511.946;" xml:space="preserve"><path style="fill:#4C4945;" d="M57.701,366.948c0,0,0.717,120.525,91.75,139.366c13.005,2.662,25.19-7.27,25.19-20.48v-73.216 l-47.718-47.309L57.701,366.948z"/><path style="fill:#221F1F;" d="M153.65,511.946c-1.741,0-3.584-0.205-5.325-0.512c-39.014-8.09-67.994-35.738-83.763-80.077 c-11.674-32.973-11.981-63.078-12.083-64.307c0-2.765,2.253-5.12,5.018-5.12l69.12-1.536c1.434,0,2.765,0.512,3.686,1.434 l47.718,47.309c0.922,0.922,1.536,2.253,1.536,3.686v73.216c0,7.885-3.482,15.258-9.626,20.173 C165.323,509.898,159.589,511.946,153.65,511.946z M63.026,371.965c0.614,9.83,2.867,32.461,11.366,56.218 c14.746,41.165,40.346,65.843,76.083,73.216c4.71,0.922,9.421-0.205,13.21-3.174c3.686-2.97,5.837-7.475,5.837-12.288v-71.066 l-44.646-44.237L63.026,371.965z M57.701,366.948L57.701,366.948L57.701,366.948z"/><path style="fill:#4C4945;" d="M355.173,366.948c0,0-0.717,120.525-91.75,139.366c-13.005,2.662-25.19-7.27-25.19-20.48v-73.216 l47.718-47.309L355.173,366.948z"/><path style="fill:#221F1F;" d="M259.224,511.946c-5.939,0-11.674-2.048-16.384-5.837c-6.144-4.915-9.626-12.288-9.626-20.173V412.72 c0-1.331,0.512-2.662,1.536-3.686l47.718-47.309c1.024-1.024,2.355-1.536,3.686-1.434l69.12,1.536 c2.765,0.102,5.018,2.355,5.018,5.12c0,1.229-0.307,31.437-12.083,64.307c-15.77,44.339-44.749,71.987-83.763,80.077 C262.706,511.741,260.965,511.946,259.224,511.946z M243.455,414.871v71.066c0,4.813,2.15,9.216,5.837,12.288 c3.686,2.97,8.499,4.198,13.21,3.174c35.738-7.373,61.44-32.051,76.083-73.216c8.499-23.654,10.752-46.387,11.366-56.218 l-61.747-1.434L243.455,414.871z"/><path style="fill:#4C4945;" d="M277.144,409.751c31.334,0,60.826-15.77,77.619-42.291c17.101-27.034,27.034-59.187,27.034-93.594 c0-24.678-5.018-48.23-14.234-69.53c-9.728-22.426-17.818-45.67-23.859-69.325c-1.536-5.939-3.379-11.571-5.632-16.794 c-20.992-48.947-71.987-69.12-131.686-69.12c-66.048,0-121.549,24.678-137.216,85.811c-6.144,23.654-14.131,46.899-23.859,69.325 c-9.216,21.299-14.234,44.851-14.234,69.53c0,34.406,9.933,66.56,27.034,93.594c16.794,26.522,46.182,42.291,77.619,42.291h141.414 L277.144,409.751L277.144,409.751z"/><path style="fill:#35322F;" d="M359.883,185.597H337.97c2.867,7.782,5.939,15.565,9.216,23.347h-31.642 c-38.605,0-64-12.8-78.336-23.347h-61.952c-14.438,10.445-39.936,23.347-78.131,23.347H65.586 c3.277-7.782,6.349-15.462,9.216-23.347H52.888c-2.458,6.246-4.915,12.493-7.578,18.637c-6.144,14.336-10.445,29.594-12.595,45.568 h64.512c54.784,0,90.317-20.89,109.158-36.557c18.842,15.565,54.374,36.557,109.158,36.557h64.512 c-2.15-15.974-6.451-31.334-12.595-45.568C364.901,198.09,362.341,191.946,359.883,185.597z"/><g><path style="fill:#221F1F;" d="M115.147,412.516c-0.41,0-0.717,0-1.126-0.102c-1.843-0.41-3.686-0.922-5.53-1.434 c-2.765-0.819-4.301-3.584-3.482-6.349c0.819-2.765,3.584-4.301,6.349-3.482c1.638,0.512,3.277,0.922,4.915,1.229 c2.765,0.614,4.506,3.379,3.891,6.144C119.551,410.877,117.4,412.516,115.147,412.516z"/><path style="fill:#221F1F;" d="M89.035,402.276c-0.922,0-1.741-0.205-2.56-0.717c-13.312-7.68-24.576-18.637-32.768-31.437 c-18.227-28.774-27.853-62.157-27.853-96.358c0-24.883,4.915-48.947,14.643-71.578c9.83-22.733,17.715-45.875,23.654-68.608 c14.95-57.754,65.434-89.6,142.234-89.6c2.867,0,5.12,2.253,5.12,5.12s-2.253,5.12-5.12,5.12 c-41.472,0-113.869,10.65-132.198,82.022c-5.939,23.245-14.131,46.797-24.166,70.144c-9.216,21.299-13.824,44.032-13.824,67.482 c0,32.256,9.114,63.693,26.214,90.829c7.27,11.469,17.408,21.197,29.184,28.058c2.458,1.434,3.277,4.506,1.843,6.963 C92.517,401.354,90.879,402.276,89.035,402.276z"/><path style="fill:#221F1F;" d="M323.736,402.276c-1.741,0-3.482-0.922-4.403-2.56c-1.434-2.458-0.614-5.53,1.843-6.963 c11.878-6.861,21.914-16.589,29.184-28.058c17.203-27.136,26.214-58.573,26.214-90.829c0-23.45-4.608-46.182-13.824-67.482 c-10.035-23.245-18.125-46.797-24.166-70.144c-0.717-2.765,0.922-5.53,3.686-6.246c2.765-0.717,5.53,0.922,6.246,3.686 c5.837,22.733,13.824,45.773,23.654,68.608c9.728,22.63,14.643,46.694,14.643,71.578c0,34.202-9.626,67.584-27.853,96.358 c-8.09,12.902-19.456,23.757-32.768,31.437C325.477,402.071,324.658,402.276,323.736,402.276z"/><path style="fill:#221F1F;" d="M297.727,412.516c-2.355,0-4.403-1.638-5.018-3.994c-0.614-2.765,1.126-5.53,3.891-6.144 c1.638-0.41,3.277-0.819,4.915-1.229c2.765-0.819,5.53,0.819,6.349,3.482c0.819,2.662-0.819,5.53-3.482,6.349 c-1.843,0.512-3.686,1.024-5.53,1.434C298.443,412.516,298.136,412.516,297.727,412.516z"/></g><path style="fill:#FFB69F;" d="M268.235,397.77l-36.045,34.714c-14.336,13.824-37.069,13.824-51.507,0l-36.045-34.714 c-30.106-28.877-47.411-71.27-47.411-115.917V215.6c0-17.101,13.926-31.027,31.027-31.027h156.365 c17.101,0,31.027,13.926,31.027,31.027v66.253C315.647,326.5,298.341,368.893,268.235,397.77z"/><path style="fill:#EA8F7D;" d="M315.647,249.905L315.647,249.905v-34.304c0-2.253-0.307-4.506-0.717-6.656 c-39.424-0.205-65.024-13.722-78.95-24.269h-59.187c-14.029,10.547-39.731,24.166-78.848,24.269 c-0.512,2.15-0.717,4.403-0.717,6.656v34.304c54.784,0,90.317-20.89,109.158-36.557C225.33,228.913,260.76,249.905,315.647,249.905z "/><path style="fill:#221F1F;" d="M206.386,448.049c-10.547,0-21.094-3.994-29.286-11.878l-36.045-34.714 c-31.13-29.901-48.947-73.523-48.947-119.603v-66.253c0-19.968,16.179-36.147,36.147-36.147H284.62 c19.968,0,36.147,16.179,36.147,36.147v66.253c0,46.08-17.818,89.702-48.947,119.603l0,0l-36.147,34.714 C227.48,444.055,216.933,448.049,206.386,448.049z M128.255,189.693c-14.234,0-25.907,11.571-25.907,25.907v66.253 c0,43.315,16.691,84.173,45.773,112.128l36.045,34.714c12.39,11.981,31.949,11.981,44.339,0l36.045-34.714 c29.082-27.955,45.773-68.915,45.773-112.128V215.6c0-14.234-11.571-25.907-25.907-25.907L128.255,189.693L128.255,189.693z M268.235,397.77L268.235,397.77L268.235,397.77z"/><g><path style="fill:#4C4945;" d="M69.17,134.909c-6.144,23.654-14.131,46.899-23.859,69.325c-3.072,7.27-5.734,14.746-7.885,22.426 v2.662h59.802c76.186,0,109.158-44.851,109.158-44.851V49.098C140.44,49.098,84.939,73.777,69.17,134.909z"/><path style="fill:#4C4945;" d="M343.602,134.909c6.144,23.654,14.131,46.899,23.859,69.325c3.072,7.27,5.734,14.746,7.885,22.426 v2.662h-59.802c-76.186,0-109.158-44.851-109.158-44.851V49.098"/></g><path style="fill:#221F1F;" d="M375.448,234.545h-59.802c-63.59,0-97.997-30.003-109.158-42.086 c-11.264,11.981-45.568,42.086-109.158,42.086H37.426c-2.867,0-5.12-2.253-5.12-5.12v-2.662c0-0.512,0.102-0.922,0.205-1.331 c2.15-7.885,4.915-15.667,8.09-23.142c9.83-22.733,17.715-45.875,23.654-68.608C79.103,75.826,129.586,43.98,206.386,43.98 c34.304,0,63.693,6.451,87.142,19.046c2.458,1.331,3.379,4.403,2.048,6.963c-1.331,2.458-4.403,3.379-6.963,2.048 c-21.914-11.776-49.562-17.818-82.227-17.818c-41.472,0-113.869,10.65-132.198,82.022c-5.939,23.245-14.131,46.797-24.166,70.144 c-2.458,5.837-4.71,11.878-6.554,18.022h53.76c72.704,0,104.755-42.291,105.062-42.701c0.922-1.331,2.458-2.048,4.096-2.048 s3.174,0.819,4.096,2.048c0.102,0.102,8.192,10.854,25.088,21.402c15.565,9.728,42.086,21.299,79.974,21.299h53.76 c-1.843-6.144-4.096-12.186-6.554-18.022c-10.035-23.245-18.125-46.797-24.166-70.144c-1.638-6.246-3.686-12.186-6.144-17.715 c-1.126-2.56,0-5.632,2.56-6.758s5.632,0,6.758,2.56c2.765,6.042,5.018,12.595,6.758,19.354 c5.837,22.733,13.824,45.773,23.654,68.608c3.174,7.373,5.939,15.155,8.09,23.142c0.102,0.41,0.205,0.922,0.205,1.331v2.662 C380.568,232.189,378.213,234.545,375.448,234.545z M37.426,226.762L37.426,226.762L37.426,226.762z"/><g><path style="fill:#7C7B7A;" d="M156.415,80.842c-2.253,0-4.301-1.536-4.915-3.789c-0.717-2.765,0.819-5.53,3.584-6.246 c3.891-1.024,7.885-2.048,11.981-2.765c2.765-0.512,5.427,1.229,6.042,4.096c0.512,2.765-1.229,5.427-4.096,6.042 c-3.891,0.717-7.68,1.638-11.264,2.662C157.336,80.842,156.927,80.842,156.415,80.842z"/><path style="fill:#7C7B7A;" d="M65.586,214.065c-0.614,0-1.331-0.102-1.946-0.41c-2.56-1.126-3.789-4.096-2.765-6.758 c9.523-22.63,17.408-45.568,23.142-68.198c6.349-24.883,20.685-43.827,42.496-56.32c2.458-1.434,5.632-0.512,6.963,1.843 c1.434,2.458,0.512,5.632-1.843,6.963c-19.354,11.059-32.051,27.955-37.683,49.971c-5.939,23.142-13.926,46.49-23.654,69.632 C69.477,212.836,67.634,214.065,65.586,214.065z"/></g><g><path style="fill:#221F1F;" d="M316.056,90.98c-1.331,0-2.56-0.512-3.584-1.434c-1.638-1.638-3.379-3.174-5.12-4.71 c-2.15-1.843-2.355-5.12-0.614-7.168c1.843-2.15,5.12-2.355,7.168-0.614c1.946,1.638,3.789,3.379,5.632,5.222 c2.048,1.946,2.048,5.222,0,7.27C318.719,90.468,317.387,90.98,316.056,90.98z"/><path style="fill:#221F1F;" d="M206.386,189.693c-2.867,0-5.12-2.253-5.12-5.12v-67.174c0-2.867,2.253-5.12,5.12-5.12 s5.12,2.253,5.12,5.12v67.174C211.506,187.441,209.253,189.693,206.386,189.693z"/><path style="fill:#221F1F;" d="M206.386,98.762c-2.867,0-5.12-2.253-5.12-5.12v-5.837c0-2.867,2.253-5.12,5.12-5.12 s5.12,2.253,5.12,5.12v5.837C211.506,96.407,209.253,98.762,206.386,98.762z"/></g><path style="fill:#AFAFAF;" d="M400.024,79.613L400.024,79.613c-7.885-17.92-23.962-32.973-43.418-40.96L274.379,5.066 l68.915,56.013C359.679,74.391,380.568,81.252,400.024,79.613L400.024,79.613z"/><g><path style="fill:#221F1F;" d="M458.495,141.873c-4.915,0-9.728-1.331-14.029-3.891c-6.349-3.789-10.854-9.728-12.698-16.896 c-1.843-7.168-0.717-14.541,2.97-20.89c3.789-6.349,9.728-10.854,16.896-12.698s14.541-0.717,20.89,2.97l0,0 c6.349,3.789,10.854,9.728,12.698,16.896c1.843,7.168,0.717,14.541-2.97,20.89c-3.789,6.349-9.728,10.854-16.896,12.698 C463.103,141.565,460.747,141.873,458.495,141.873z M458.597,96.919c-1.434,0-2.867,0.205-4.301,0.512 c-4.506,1.126-8.294,3.994-10.65,7.987c-2.355,3.994-3.072,8.704-1.843,13.107c1.126,4.506,3.994,8.294,7.987,10.65 c3.994,2.355,8.704,3.072,13.107,1.843c4.506-1.126,8.294-3.994,10.65-7.987c2.355-3.994,3.072-8.704,1.843-13.107 c-1.126-4.506-3.994-8.294-7.987-10.65l0,0C464.639,97.738,461.669,96.919,458.597,96.919z"/><path style="fill:#221F1F;" d="M394.187,84.938c-18.944,0-38.4-7.066-54.17-19.866L271.103,9.06 c-1.946-1.638-2.458-4.403-1.126-6.554c1.331-2.15,3.994-3.072,6.349-2.15l82.227,33.587c20.89,8.499,37.683,24.371,46.182,43.622 c0.717,1.536,0.614,3.277-0.307,4.71s-2.355,2.355-3.994,2.458C398.386,84.836,396.338,84.938,394.187,84.938z M304.383,22.884 l42.189,34.304c13.005,10.547,29.389,16.896,45.158,17.51c-8.09-13.517-21.504-24.883-37.069-31.232L304.383,22.884z"/><path style="fill:#221F1F;" d="M439.141,107.978c-0.922,0-1.741-0.205-2.56-0.717l-39.117-23.245 c-2.458-1.434-3.277-4.608-1.843-7.066c1.434-2.458,4.608-3.277,7.066-1.843l39.117,23.245c2.458,1.434,3.277,4.608,1.843,7.066 C442.623,107.057,440.984,107.978,439.141,107.978z"/></g><path style="fill:#AFAFAF;" d="M400.024,79.613L400.024,79.613c-7.885,17.92-23.859,33.075-43.315,41.062l-82.125,33.894 l68.813-56.32C359.679,84.938,380.568,78.077,400.024,79.613L400.024,79.613z"/><g><path style="fill:#221F1F;" d="M458.495,72.343c-9.421,0-18.534-4.813-23.757-13.414c-7.782-13.107-3.482-30.003,9.523-37.888 c13.107-7.782,30.003-3.482,37.888,9.523c7.782,13.107,3.482,30.003-9.523,37.888l0,0C468.12,71.114,463.307,72.343,458.495,72.343 z M469.963,64.049L469.963,64.049L469.963,64.049z M458.392,27.389c-3.072,0-6.042,0.819-8.909,2.458 c-8.192,4.915-10.957,15.565-6.042,23.859s15.565,10.957,23.859,6.042l0,0c8.192-4.915,10.957-15.565,6.042-23.859 C470.066,30.359,464.331,27.389,458.392,27.389z"/><path style="fill:#221F1F;" d="M274.584,159.69c-1.741,0-3.482-0.922-4.403-2.458c-1.331-2.15-0.819-5.018,1.126-6.554 l68.813-56.32c17.408-14.234,39.424-21.504,60.314-19.763c1.638,0.102,3.174,1.024,3.994,2.458c0.819,1.434,0.922,3.174,0.307,4.71 c-8.397,19.251-25.19,35.123-46.08,43.725L276.53,159.28C275.915,159.588,275.199,159.69,274.584,159.69z M391.73,84.631 c-15.77,0.717-32.154,7.066-45.158,17.613l-42.086,34.406l50.278-20.685C370.328,109.514,383.64,98.148,391.73,84.631z"/><path style="fill:#221F1F;" d="M400.024,84.733c-1.741,0-3.482-0.922-4.403-2.458c-1.434-2.458-0.614-5.53,1.741-7.066 l39.117-23.347c2.458-1.434,5.53-0.614,7.066,1.741c1.434,2.458,0.614,5.53-1.741,7.066l-39.117,23.347 C401.867,84.529,400.946,84.733,400.024,84.733z"/></g><path style="fill:#FFB69F;" d="M97.227,308.273h-6.246c-14.541,0-26.214-11.776-26.214-26.214v-6.144 c0-14.541,11.776-26.214,26.214-26.214h6.246C97.227,249.701,97.227,308.273,97.227,308.273z"/><path style="fill:#221F1F;" d="M97.227,313.393h-6.246c-17.306,0-31.334-14.029-31.334-31.334v-6.144 c0-17.306,14.029-31.334,31.334-31.334h6.246c2.867,0,5.12,2.253,5.12,5.12v58.675C102.347,311.14,100.095,313.393,97.227,313.393z M90.981,254.717c-11.674,0-21.094,9.523-21.094,21.094v6.144c0,11.674,9.523,21.094,21.094,21.094h1.126v-48.435h-1.126V254.717z" /><path style="fill:#FFB69F;" d="M315.647,249.597h6.246c14.541,0,26.214,11.776,26.214,26.214v6.144 c0,14.541-11.776,26.214-26.214,26.214h-6.246V249.597z"/><g><path style="fill:#221F1F;" d="M321.893,313.393h-6.246c-2.867,0-5.12-2.253-5.12-5.12v-58.675c0-2.867,2.253-5.12,5.12-5.12h6.246 c17.306,0,31.334,14.029,31.334,31.334v6.144C353.227,299.364,339.199,313.393,321.893,313.393z M320.767,303.153h1.126 c11.674,0,21.094-9.523,21.094-21.094v-6.144c0-11.674-9.523-21.094-21.094-21.094h-1.126V303.153z"/><path style="fill:#221F1F;" d="M97.227,284.106h-8.602c-2.867,0-5.12-2.253-5.12-5.12s2.253-5.12,5.12-5.12h8.602 c2.867,0,5.12,2.253,5.12,5.12S100.095,284.106,97.227,284.106z"/><path style="fill:#221F1F;" d="M324.248,284.106h-8.602c-2.867,0-5.12-2.253-5.12-5.12s2.253-5.12,5.12-5.12h8.602 c2.867,0,5.12,2.253,5.12,5.12S327.013,284.106,324.248,284.106z"/></g><path style="fill:#F0C020;" d="M371.045,181.399l4.403-1.229l-4.403-1.229c-10.445-2.867-18.534-11.059-21.402-21.402l-1.229-4.403 l-1.229,4.403c-2.867,10.445-11.059,18.534-21.402,21.402l-4.403,1.229l4.403,1.229c10.445,2.867,18.534,11.059,21.402,21.402 l1.229,4.403l1.229-4.403C352.511,192.356,360.6,184.266,371.045,181.399z"/><path style="fill:#221F1F;" d="M348.415,212.324c-2.253,0-4.301-1.536-4.915-3.789l-1.229-4.403 c-2.355-8.602-9.216-15.462-17.818-17.818l-4.403-1.229c-2.253-0.614-3.789-2.662-3.789-4.915c0-2.253,1.536-4.301,3.789-4.915 l4.403-1.229c8.602-2.355,15.462-9.216,17.818-17.818l1.229-4.403c0.614-2.253,2.662-3.789,4.915-3.789s4.301,1.536,4.915,3.789 l1.229,4.403c2.355,8.602,9.216,15.462,17.818,17.818l4.403,1.229c2.253,0.614,3.789,2.662,3.789,4.915 c0,2.253-1.536,4.301-3.789,4.915l-4.403,1.229l0,0c-8.602,2.355-15.462,9.216-17.818,17.818l-1.229,4.403 C352.715,210.788,350.667,212.324,348.415,212.324z M335.819,180.17c5.12,3.072,9.523,7.373,12.595,12.595 c3.072-5.12,7.373-9.523,12.595-12.595c-5.12-3.072-9.523-7.373-12.595-12.595C345.343,172.695,340.939,177.098,335.819,180.17z"/><path style="fill:#F0C020;" d="M278.68,109.105l4.403-1.229l-4.403-1.229c-10.445-2.867-18.534-11.059-21.402-21.402l-1.229-4.403 l-1.229,4.403c-2.867,10.445-11.059,18.534-21.402,21.402l-4.403,1.229l4.403,1.229c10.445,2.867,18.534,11.059,21.402,21.402 l1.229,4.403l1.229-4.403C260.146,120.164,268.235,111.972,278.68,109.105z"/><path style="fill:#221F1F;" d="M256.05,140.029c-2.253,0-4.301-1.536-4.915-3.789l-1.229-4.403 c-2.355-8.602-9.216-15.462-17.818-17.818l-4.403-1.229c-2.253-0.614-3.789-2.662-3.789-4.915s1.536-4.301,3.789-4.915l4.403-1.229 c8.602-2.355,15.462-9.216,17.818-17.818l1.229-4.403c0.614-2.253,2.662-3.789,4.915-3.789c2.253,0,4.301,1.536,4.915,3.789 l1.229,4.403c2.355,8.602,9.216,15.462,17.818,17.818l4.403,1.229c2.253,0.614,3.789,2.662,3.789,4.915s-1.536,4.301-3.789,4.915 l-4.403,1.229c-8.602,2.355-15.462,9.216-17.818,17.818l-1.229,4.403C260.351,138.493,258.303,140.029,256.05,140.029z M243.455,107.876c5.12,3.072,9.523,7.373,12.595,12.595c3.072-5.12,7.373-9.523,12.595-12.595 c-5.12-3.072-9.523-7.373-12.595-12.595C252.978,100.503,248.677,104.804,243.455,107.876z"/><path style="fill:#231F20;" d="M178.635,270.589c-1.536,0-3.072-0.717-4.096-2.048c-4.403-5.837-11.059-9.216-18.33-9.216 c-0.102,0-0.205,0-0.307,0c-7.168,0.102-13.824,3.482-18.125,9.216c-1.638,2.253-4.915,2.765-7.168,1.024 c-2.253-1.638-2.765-4.915-1.024-7.168c6.246-8.397,16.179-13.414,26.624-13.414c0.102,0,0.205,0,0.307,0 c10.342,0.102,20.173,5.12,26.317,13.414c1.638,2.253,1.229,5.427-1.024,7.168C180.786,270.282,179.659,270.589,178.635,270.589z"/><path style="fill:#F2203A;" d="M206.386,381.386c-0.102,0-0.205,0-0.307,0c-9.933-0.102-19.456-4.915-25.395-13.005 c-1.638-2.253-1.229-5.427,1.024-7.168c2.253-1.638,5.53-1.229,7.168,1.024c4.198,5.632,10.547,8.806,17.51,8.806 c0.102,0,0.205,0,0.205,0c6.861-0.102,13.107-3.277,17.203-8.806c1.638-2.253,4.915-2.765,7.168-1.024 c2.253,1.638,2.765,4.915,1.024,7.168C226.149,376.573,216.523,381.386,206.386,381.386z"/><circle style="fill:#231F20;" cx="156.11" cy="282.06" r="10.04"/><g><ellipse style="fill:#FF7364;" cx="156.11" cy="312.47" rx="22.528" ry="11.469"/><ellipse style="fill:#FF7364;" cx="256.66" cy="312.47" rx="22.528" ry="11.469"/></g><g><path style="fill:#231F20;" d="M279.192,270.589c-1.536,0-3.072-0.717-4.096-2.048c-4.403-5.837-11.059-9.216-18.33-9.216 c-0.102,0-0.205,0-0.307,0c-7.168,0.102-13.824,3.482-18.125,9.216c-1.638,2.253-4.915,2.765-7.168,1.024 c-2.253-1.638-2.765-4.915-1.024-7.168c6.246-8.397,16.179-13.414,26.624-13.414c0.102,0,0.205,0,0.307,0 c10.342,0.102,20.173,5.12,26.317,13.414c1.638,2.253,1.229,5.427-1.024,7.168C281.343,270.282,280.216,270.589,279.192,270.589z" /><circle style="fill:#231F20;" cx="256.66" cy="282.06" r="10.04"/><path style="fill:#231F20;" d="M206.386,346.058L206.386,346.058c-4.301,0-8.192-1.946-10.854-5.325l-4.813-6.246 c-1.741-2.253-1.331-5.427,0.922-7.168c2.253-1.741,5.427-1.331,7.168,0.922l4.813,6.246c0.922,1.126,2.048,1.331,2.662,1.331 s1.843-0.205,2.662-1.331l4.813-6.246c1.741-2.253,4.915-2.662,7.168-0.922c2.253,1.741,2.662,4.915,0.922,7.168l-4.813,6.246 C214.68,344.113,210.687,346.058,206.386,346.058z"/></g></svg>