<!-- icon666.com - MILLIONS OF FREE VECTOR ICONS --><svg version="1.1" id="Capa_1" xmlns="http://www.w3.org/2000/svg" xmlns:xlink="http://www.w3.org/1999/xlink" x="0px" y="0px" viewBox="0 0 512 512" style="enable-background:new 0 0 512 512;" xml:space="preserve"><path style="fill:#F0C020;" d="M371.302,33.382l4.403-1.229l-4.403-1.229c-10.445-2.867-18.534-11.059-21.402-21.402l-1.229-4.403 l-1.229,4.403c-2.867,10.445-11.059,18.534-21.402,21.402l-4.403,1.229l4.403,1.229c10.445,2.867,18.534,11.059,21.402,21.402 l1.229,4.403l1.229-4.403C352.768,44.339,360.96,36.25,371.302,33.382z"/><path style="fill:#221F1F;" d="M348.672,64.307L348.672,64.307c-2.253,0-4.301-1.536-4.915-3.789l-1.229-4.403 c-2.355-8.602-9.216-15.462-17.818-17.818l-4.403-1.229c-2.253-0.614-3.789-2.662-3.789-4.915s1.536-4.301,3.789-4.915l4.403-1.229 c8.602-2.355,15.462-9.216,17.818-17.818l1.229-4.403C344.371,1.536,346.419,0,348.672,0s4.301,1.536,4.915,3.789l1.229,4.403 c2.355,8.602,9.216,15.462,17.818,17.818l4.403,1.229c2.253,0.614,3.789,2.662,3.789,4.915s-1.536,4.301-3.789,4.915l-4.403,1.229 c-8.602,2.355-15.462,9.216-17.818,17.818l-1.229,4.403C353.075,62.771,351.027,64.307,348.672,64.307z M336.179,32.154 c5.12,3.072,9.523,7.373,12.595,12.595c3.072-5.12,7.373-9.523,12.595-12.595c-5.12-3.072-9.523-7.373-12.595-12.595 C345.6,24.678,341.299,29.082,336.179,32.154z"/><path style="fill:#F0C020;" d="M90.726,305.971l4.403-1.229l-4.403-1.229c-10.445-2.867-18.534-11.059-21.402-21.402l-1.229-4.403 l-1.229,4.403c-2.866,10.446-11.058,18.535-21.4,21.403l-4.403,1.229l4.403,1.229C55.91,308.838,64,317.03,66.867,327.373 l1.229,4.403l1.229-4.403C72.192,316.928,80.384,308.838,90.726,305.971z"/><path style="fill:#221F1F;" d="M68.096,336.896c-2.253,0-4.301-1.536-4.915-3.789l-1.229-4.403 c-2.355-8.602-9.216-15.462-17.818-17.818l-4.403-1.229c-2.253-0.614-3.789-2.662-3.789-4.915s1.536-4.301,3.789-4.915l4.403-1.229 c8.602-2.355,15.462-9.216,17.818-17.818l1.229-4.403c0.614-2.253,2.662-3.789,4.915-3.789s4.301,1.536,4.915,3.789l1.229,4.403 c2.355,8.602,9.216,15.462,17.818,17.818l4.403,1.229c2.253,0.614,3.789,2.662,3.789,4.915s-1.536,4.301-3.789,4.915l-4.403,1.229 l0,0c-8.602,2.355-15.462,9.216-17.818,17.818l-1.229,4.403C72.397,335.36,70.451,336.896,68.096,336.896z M55.501,304.742 c5.12,3.072,9.523,7.373,12.595,12.595c3.072-5.12,7.373-9.523,12.595-12.595c-5.12-3.072-9.523-7.373-12.595-12.595 C65.024,297.37,60.723,301.67,55.501,304.742z"/><path style="fill:#AFAFAF;" d="M178.586,506.88H76.39c-14.131,0-25.6-11.469-25.6-25.6v-78.438h153.395v78.438 C204.186,495.411,192.717,506.88,178.586,506.88z"/><path style="fill:#221F1F;" d="M178.586,512H76.39c-16.998,0-30.72-13.824-30.72-30.72v-78.438c0-2.867,2.253-5.12,5.12-5.12 h153.395c2.867,0,5.12,2.253,5.12,5.12v78.438C209.306,498.176,195.482,512,178.586,512z M55.91,407.859v73.421 c0,11.264,9.216,20.48,20.48,20.48h102.195c11.264,0,20.48-9.216,20.48-20.48v-73.318H55.91V407.859z"/><g><path style="fill:#EFEFEF;" d="M72.499,432.538c-2.867,0-5.12-2.253-5.12-5.12v-2.97c0-2.867,2.253-5.12,5.12-5.12 c2.867,0,5.12,2.253,5.12,5.12v2.97C77.619,430.285,75.264,432.538,72.499,432.538z"/><path style="fill:#EFEFEF;" d="M72.499,484.864c-2.867,0-5.12-2.253-5.12-5.12v-33.792c0-2.867,2.253-5.12,5.12-5.12 c2.867,0,5.12,2.253,5.12,5.12v33.792C77.619,482.509,75.264,484.864,72.499,484.864z"/></g><path style="fill:#FC5D3D;" d="M205.312,369.664H49.664c-4.71,0-8.602,3.891-8.602,8.602v15.974c0,4.71,3.891,8.602,8.602,8.602 h155.648c4.71,0,8.602-3.891,8.602-8.602v-15.974C213.914,373.555,210.022,369.664,205.312,369.664z"/><path style="fill:#221F1F;" d="M205.312,407.859H49.664c-7.578,0-13.722-6.144-13.722-13.722v-15.974 c0-7.578,6.144-13.722,13.722-13.722h155.648c7.578,0,13.722,6.144,13.722,13.722v15.974 C219.034,401.715,212.89,407.859,205.312,407.859z M49.664,374.784c-1.946,0-3.482,1.536-3.482,3.482v15.974 c0,1.946,1.536,3.482,3.482,3.482h155.648c1.946,0,3.482-1.536,3.482-3.482v-15.974c0-1.946-1.536-3.482-3.482-3.482H49.664z"/><path style="fill:#AFAFAF;" d="M447.898,5.12c12.698,0,23.04,10.342,23.04,23.04v212.787c0,12.698-10.342,23.04-23.04,23.04v-88.269 V5.12z"/><g><path style="fill:#221F1F;" d="M447.898,269.107c-2.867,0-5.12-2.253-5.12-5.12V5.12c0-2.867,2.253-5.12,5.12-5.12 c15.462,0,28.16,12.595,28.16,28.16v212.787C476.058,256.512,463.36,269.107,447.898,269.107z M453.018,10.957v247.091 c7.373-2.253,12.8-9.011,12.8-17.101V28.16C465.818,20.07,460.39,13.21,453.018,10.957z"/><path style="fill:#221F1F;" d="M447.898,10.24h-22.221c-2.867,0-5.12-2.253-5.12-5.12S422.81,0,425.677,0h22.221 c2.867,0,5.12,2.253,5.12,5.12S450.765,10.24,447.898,10.24z"/><path style="fill:#221F1F;" d="M447.898,31.642h-22.221c-2.867,0-5.12-2.253-5.12-5.12s2.253-5.12,5.12-5.12h22.221 c2.867,0,5.12,2.253,5.12,5.12S450.765,31.642,447.898,31.642z"/><path style="fill:#221F1F;" d="M447.898,53.043h-22.221c-2.867,0-5.12-2.253-5.12-5.12s2.253-5.12,5.12-5.12h22.221 c2.867,0,5.12,2.253,5.12,5.12S450.765,53.043,447.898,53.043z"/><path style="fill:#221F1F;" d="M447.898,74.445h-22.221c-2.867,0-5.12-2.253-5.12-5.12s2.253-5.12,5.12-5.12h22.221 c2.867,0,5.12,2.253,5.12,5.12S450.765,74.445,447.898,74.445z"/><path style="fill:#221F1F;" d="M447.898,95.846h-22.221c-2.867,0-5.12-2.253-5.12-5.12s2.253-5.12,5.12-5.12h22.221 c2.867,0,5.12,2.253,5.12,5.12S450.765,95.846,447.898,95.846z"/><path style="fill:#221F1F;" d="M447.898,117.146h-22.221c-2.867,0-5.12-2.253-5.12-5.12s2.253-5.12,5.12-5.12h22.221 c2.867,0,5.12,2.253,5.12,5.12S450.765,117.146,447.898,117.146z"/><path style="fill:#221F1F;" d="M447.898,138.547h-22.221c-2.867,0-5.12-2.253-5.12-5.12s2.253-5.12,5.12-5.12h22.221 c2.867,0,5.12,2.253,5.12,5.12S450.765,138.547,447.898,138.547z"/><path style="fill:#221F1F;" d="M447.898,159.949h-22.221c-2.867,0-5.12-2.253-5.12-5.12c0-2.867,2.253-5.12,5.12-5.12h22.221 c2.867,0,5.12,2.253,5.12,5.12S450.765,159.949,447.898,159.949z"/></g><path style="fill:#FFB69F;" d="M140.8,293.581h-9.933c-14.541,0-26.214-11.776-26.214-26.214v-12.902 c0-14.541,11.776-26.214,26.214-26.214h9.933V293.581z"/><g><path style="fill:#221F1F;" d="M140.8,298.701h-9.933c-17.306,0-31.334-14.029-31.334-31.334v-12.902 c0-17.306,14.029-31.334,31.334-31.334h9.933c2.867,0,5.12,2.253,5.12,5.12v65.331C145.92,296.448,143.565,298.701,140.8,298.701z M130.867,233.37c-11.674,0-21.094,9.523-21.094,21.094v12.902c0,11.674,9.523,21.094,21.094,21.094h4.813v-55.09H130.867 L130.867,233.37z"/><path style="fill:#221F1F;" d="M140.8,266.035h-9.523c-2.867,0-5.12-2.253-5.12-5.12s2.253-5.12,5.12-5.12h9.523 c2.867,0,5.12,2.253,5.12,5.12S143.565,266.035,140.8,266.035z"/></g><path style="fill:#FFB69F;" d="M384.102,293.581h9.933c14.541,0,26.214-11.776,26.214-26.214v-12.902 c0-14.541-11.776-26.214-26.214-26.214h-9.933V293.581z"/><g><path style="fill:#221F1F;" d="M394.035,298.701h-9.933c-2.867,0-5.12-2.253-5.12-5.12V228.25c0-2.867,2.253-5.12,5.12-5.12h9.933 c17.306,0,31.334,14.029,31.334,31.334v12.902C425.37,284.672,411.341,298.701,394.035,298.701z M389.222,288.461h4.813 c11.674,0,21.094-9.523,21.094-21.094v-12.902c0-11.674-9.523-21.094-21.094-21.094h-4.813V288.461z"/><path style="fill:#221F1F;" d="M393.626,266.035h-9.523c-2.867,0-5.12-2.253-5.12-5.12s2.253-5.12,5.12-5.12h9.523 c2.867,0,5.12,2.253,5.12,5.12S396.493,266.035,393.626,266.035z"/></g><path style="fill:#FFB69F;" d="M331.264,405.094l-40.243,38.707c-15.974,15.36-41.37,15.36-57.344,0l-40.141-38.707 c-33.485-32.154-52.736-79.36-52.736-129.126v-73.83c0-19.046,15.462-34.509,34.509-34.509h174.182 c19.046,0,34.509,15.462,34.509,34.509v73.83C384.102,325.734,364.749,372.941,331.264,405.094z"/><path style="fill:#EA8F7D;" d="M349.594,167.629H175.309c-19.046,0-34.509,15.462-34.509,34.509v73.83 c0,9.728,0.717,19.251,2.15,28.672l23.142-26.624c10.035-9.421,15.872-22.528,15.872-36.352v-4.506l8.602-8.602 c9.421-9.421,14.541-21.811,14.541-35.123v-5.427h114.79v5.427c0,13.312,5.12,25.702,14.541,35.123l8.602,8.602v4.506 c0,13.824,5.734,27.034,15.872,36.352l23.142,26.624c1.434-9.421,2.15-19.046,2.15-28.672v-73.83 C384.102,183.091,368.64,167.629,349.594,167.629z"/><path style="fill:#221F1F;" d="M262.451,460.493c-11.571,0-23.142-4.301-32.256-13.005l-40.243-38.707 c-34.509-33.178-54.374-81.613-54.374-132.813v-73.83c0-21.914,17.818-39.629,39.629-39.629h174.182 c21.914,0,39.629,17.818,39.629,39.629v73.83c0,51.2-19.763,99.533-54.374,132.813l-40.038,38.707 C285.594,456.09,274.022,460.493,262.451,460.493z M175.309,172.749c-16.179,0-29.389,13.21-29.389,29.389v73.83 c0,48.435,18.637,94.106,51.2,125.44l40.243,38.707c14.131,13.517,36.147,13.517,50.278,0l40.243-38.707 c32.563-31.334,51.2-77.005,51.2-125.44v-73.83c0-16.179-13.21-29.389-29.389-29.389L175.309,172.749L175.309,172.749z"/><path style="fill:#7C7B7A;" d="M384.102,181.965v94.003l-10.65-12.288c-6.349-5.53-10.035-13.517-10.035-22.016v-13.005 l-14.541-14.541c-5.427-5.427-8.499-12.902-8.499-20.685v-13.005c0-7.168-5.837-12.902-12.902-12.902H197.53 c-7.168,0-12.902,5.837-12.902,12.902v13.107c0,7.782-3.072,15.155-8.499,20.685l-14.541,14.541v13.005 c0,8.397-3.686,16.486-10.035,22.016l-10.65,12.288v-94.003c0-47.616,38.605-86.221,86.221-86.221h70.861 C345.498,95.744,384.102,134.349,384.102,181.965z"/><path style="fill:#221F1F;" d="M384.102,281.19c-1.434,0-2.867-0.614-3.891-1.741l-10.445-12.083 c-7.27-6.554-11.469-15.872-11.469-25.6v-10.854l-13.005-13.005c-6.451-6.451-10.035-15.053-10.035-24.269v-13.005 c0-4.301-3.482-7.782-7.782-7.782H197.53c-4.301,0-7.782,3.482-7.782,7.782v12.902c0,9.114-3.584,17.818-10.035,24.269 l-13.005,13.005v10.854c0,9.83-4.198,19.149-11.469,25.6l-10.445,12.083c-1.434,1.638-3.686,2.15-5.632,1.434 c-2.048-0.717-3.277-2.662-3.277-4.813v-94.003c0-50.381,40.96-91.341,91.341-91.341h70.861c50.381,0,91.341,40.96,91.341,91.341 v94.003c0,2.15-1.331,4.096-3.277,4.813C385.331,281.088,384.717,281.19,384.102,281.19z M227.021,100.864 c-44.749,0-81.101,36.352-81.101,81.101v80.384l1.741-1.946c0.205-0.205,0.307-0.307,0.512-0.512 c5.222-4.608,8.294-11.162,8.294-18.125v-13.005c0-1.331,0.512-2.662,1.536-3.584l14.541-14.541 c4.506-4.506,7.066-10.547,7.066-16.998v-13.005c0-9.933,8.09-18.022,18.022-18.022h129.843c9.933,0,18.022,8.09,18.022,18.022 v12.902c0,6.451,2.458,12.493,7.066,16.998l14.541,14.541c0.922,0.922,1.536,2.253,1.536,3.584v13.005 c0,6.963,2.97,13.619,8.294,18.125c0.205,0.205,0.307,0.307,0.512,0.512l1.741,1.946v-80.384c0-44.749-36.352-81.101-81.101-81.101 H227.02v0.103H227.021z"/><path style="fill:#4C4945;" d="M262.451,351.13l32.768,5.837c19.251,3.379,38.81-4.403,50.278-20.275l3.174-4.403l0,0 c-13.21,4.301-27.546,3.072-39.731-3.379l-12.288-6.451c-10.752-5.632-23.552-5.53-34.202,0.205l0,0l0,0 c-10.65-5.734-23.45-5.837-34.202-0.205l-12.288,6.451c-12.288,6.451-26.624,7.68-39.731,3.379l0,0l3.174,4.403 c11.571,15.77,31.027,23.654,50.278,20.275L262.451,351.13z"/><path style="fill:#221F1F;" d="M220.877,362.803c-17.818,0-35.021-8.499-45.67-23.142l-3.174-4.403 c-1.331-1.843-1.331-4.198,0-6.042c1.331-1.843,3.584-2.56,5.734-1.843c11.776,3.891,24.781,2.765,35.84-2.97l12.288-6.451 c11.469-6.042,24.883-6.349,36.557-1.024c11.674-5.325,25.088-5.018,36.557,1.024l12.288,6.451 c10.957,5.734,24.064,6.861,35.84,2.97c2.15-0.717,4.403,0.102,5.734,1.843c1.331,1.843,1.331,4.198,0,6.042l-3.174,4.403 c-12.595,17.203-34.304,26.01-55.296,22.323l-31.949-5.632l-31.949,5.632C227.328,362.496,224.051,362.803,220.877,362.803z M262.451,346.01c0.307,0,0.614,0,0.922,0.102l32.768,5.837c14.438,2.56,29.286-2.048,39.834-11.981 c-10.138,0.512-20.275-1.638-29.389-6.349l-12.288-6.451c-9.216-4.813-20.173-4.813-29.389,0.205c-1.536,0.819-3.379,0.819-4.915,0 c-9.216-4.915-20.173-5.018-29.389-0.205l-12.288,6.451c-9.011,4.71-19.251,6.861-29.389,6.349 c10.445,9.933,25.395,14.541,39.834,11.981l32.768-5.837C261.837,346.01,262.144,346.01,262.451,346.01z"/><path style="fill:#4C4945;" d="M372.224,112.026L372.224,112.026c7.373,12.39,3.686,26.317-9.626,36.454l-24.883,19.149H187.187 l-24.883-19.149c-13.312-10.24-16.998-24.166-9.626-36.454l0,0c4.198-7.168,11.878-13.312,21.811-17.51l87.962-37.786l87.962,37.786 C360.346,98.816,367.923,104.858,372.224,112.026z"/><path style="fill:#221F1F;" d="M337.715,172.749H187.187c-1.126,0-2.253-0.41-3.072-1.024l-24.986-19.149 c-15.258-11.674-19.558-28.672-10.854-43.213c4.813-8.09,13.21-14.95,24.269-19.661l87.962-37.786c1.331-0.512,2.765-0.512,3.994,0 l87.962,37.786c11.059,4.71,19.456,11.571,24.269,19.661l0,0c8.602,14.541,4.403,31.437-10.854,43.213l-24.883,19.149 C339.866,172.339,338.842,172.749,337.715,172.749z M188.928,162.509h147.046l23.552-18.022 c11.162-8.602,14.336-19.763,8.294-29.798l0,0c-3.686-6.144-10.547-11.674-19.456-15.462L262.45,62.261l-85.914,36.966 c-8.909,3.789-15.77,9.318-19.456,15.462c-6.042,10.035-2.867,21.197,8.294,29.798L188.928,162.509z"/><g><path style="fill:#7C7B7A;" d="M258.458,85.811c-1.946,0-3.891-1.126-4.71-3.072c-1.126-2.56,0.102-5.632,2.662-6.758l3.994-1.741 c2.56-1.126,5.632,0.102,6.758,2.662c1.126,2.56-0.102,5.632-2.662,6.758l-3.994,1.741 C259.789,85.709,259.174,85.811,258.458,85.811z"/><path style="fill:#7C7B7A;" d="M194.15,152.269c-1.126,0-2.15-0.307-3.072-1.024l-19.354-14.848 c-8.806-6.758-7.987-12.698-5.734-16.486c1.434-2.458,5.325-7.27,14.746-11.264l55.296-23.757c2.56-1.126,5.632,0.102,6.758,2.662 c1.126,2.56-0.102,5.632-2.662,6.758l-55.296,23.757c-7.168,3.072-9.421,6.349-9.933,7.066c0.307,0.512,1.024,1.536,3.174,3.174 l19.354,14.848c2.253,1.741,2.662,4.915,0.922,7.168C197.222,151.552,195.686,152.269,194.15,152.269z"/></g><g><path style="fill:#221F1F;" d="M262.451,172.749c-2.867,0-5.12-2.253-5.12-5.12v-31.437c0-2.867,2.253-5.12,5.12-5.12 s5.12,2.253,5.12,5.12v31.437C267.571,170.496,265.216,172.749,262.451,172.749z"/><path style="fill:#221F1F;" d="M262.451,125.44c-2.867,0-5.12-2.253-5.12-5.12v-1.946c0-2.867,2.253-5.12,5.12-5.12 s5.12,2.253,5.12,5.12v1.946C267.571,123.187,265.216,125.44,262.451,125.44z"/><path style="fill:#221F1F;" d="M239.616,172.749c-2.867,0-5.12-2.253-5.12-5.12v-18.125c0-2.867,2.253-5.12,5.12-5.12 s5.12,2.253,5.12,5.12v18.125C244.736,170.496,242.483,172.749,239.616,172.749z"/><path style="fill:#221F1F;" d="M285.184,172.749c-2.867,0-5.12-2.253-5.12-5.12v-18.125c0-2.867,2.253-5.12,5.12-5.12 s5.12,2.253,5.12,5.12v18.125C290.304,170.496,288.051,172.749,285.184,172.749z"/></g><g><path style="fill:#231F20;" d="M234.598,246.067c-1.536,0-3.072-0.717-4.096-2.048c-4.403-5.837-11.059-9.216-18.33-9.216 c-0.102,0-0.205,0-0.307,0c-7.168,0.102-13.824,3.482-18.125,9.216c-1.638,2.253-4.915,2.765-7.168,1.024 c-2.253-1.638-2.765-4.915-1.024-7.168c6.246-8.397,16.179-13.414,26.624-13.414c0.102,0,0.205,0,0.307,0 c10.342,0.102,20.173,5.12,26.317,13.414c1.638,2.253,1.229,5.427-1.024,7.168C236.749,245.76,235.725,246.067,234.598,246.067z"/><circle style="fill:#231F20;" cx="212.17" cy="257.54" r="10.04"/><path style="fill:#231F20;" d="M335.258,246.067c-1.536,0-3.072-0.717-4.096-2.048c-4.403-5.837-11.059-9.216-18.33-9.216 c-0.102,0-0.205,0-0.307,0c-7.168,0.102-13.824,3.482-18.125,9.216c-1.638,2.253-4.915,2.765-7.168,1.024s-2.765-4.915-1.024-7.168 c6.246-8.397,16.179-13.414,26.624-13.414c0.102,0,0.205,0,0.307,0c10.342,0.102,20.173,5.12,26.317,13.414 c1.638,2.253,1.229,5.427-1.024,7.168C337.306,245.76,336.282,246.067,335.258,246.067z"/><circle style="fill:#231F20;" cx="312.73" cy="257.54" r="10.04"/></g></svg>