<!-- icon666.com - MILLIONS OF FREE VECTOR ICONS --><svg id="Layer_1" enable-background="new 0 0 468.536 468.536" viewBox="0 0 468.536 468.536" xmlns="http://www.w3.org/2000/svg"><g><g><path d="m181.099 416.401-153.073 36.112h411.148l-153.073-36.112v-58.666c-.003.002-.006.004-.01.007 24.25-16.385 51.213-40.67 51.213-67.656v-89.772c0-49.037-40.063-89.158-89.029-89.158h-29.568c-48.966 0-89.029 40.121-89.029 89.158v89.772c0 27.065 27.121 51.413 51.425 67.799-.002-.001-.004-.002-.006-.004v58.52z" fill="#ffceb7"/><path d="m317.305 200.313v89.772c0 26.987-26.964 63.272-51.213 79.656.003-.002.01 62.66.01 62.66l85.252 20.112h87.821l-153.073-36.112v-58.666c-.003.002-.006.004-.01.007 24.25-16.385 51.213-40.67 51.213-67.656v-89.772c0-49.037-40.063-89.158-89.029-89.158h-20c48.966-.001 89.029 40.12 89.029 89.157z" fill="#ffaa81"/><g fill="#ffaa81"><path d="m129.679 259.83h-18.068c-10.338 0-18.719-8.381-18.719-18.719v-16.152c0-10.338 8.381-18.719 18.719-18.719h18.068z"/><path d="m337.923 206.24h18.068c10.338 0 18.719 8.381 18.719 18.719v16.152c0 10.338-8.381 18.719-18.719 18.719h-18.068z"/></g><path d="m248.276 70.155h-29.568c-48.966 0-89.029 40.121-89.029 89.158v41c0-49.037 40.063-89.158 89.029-89.158h29.568c48.966 0 89.029 40.121 89.029 89.158v-41c0-49.037-40.063-89.158-89.029-89.158z" fill="#cfdbfa"/><path d="m218.708 70.155h29.568c7.633 0 15.049.975 22.131 2.807v-19.994c0-20.293-16.451-36.744-36.744-36.744-20.293 0-36.744 16.451-36.744 36.744v19.91c6.979-1.775 14.278-2.723 21.789-2.723z" fill="#ffc277"/><path d="m372.865 309.307h57v104h-57z" fill="#cfdbfa" transform="matrix(-.278 .961 -.961 -.278 860.127 76.396)"/><path d="m440.034 342.842-10.3 35.537-80.679-23.385-5.568 19.21 99.888 28.953 15.869-54.747z" fill="#9eb6f4"/><path d="m346.41 364.119 10.022-34.577-52.224-15.137c-4.018-1.165-8.336.295-10.824 3.658l-10.146 13.718c-4.142 5.6-1.434 13.612 5.256 15.551z" fill="#e08ea2"/><path d="m384.374 119.641h40v74.938h-40z" fill="#e08ea2" transform="matrix(-.223 -.975 .975 -.223 341.357 586.331)"/><path d="m175.625 286.706h-15.125l-60 13.063v31.5l60 15.438h15.125c11.046 0 20-8.954 20-20v-20c0-11.047-8.954-20.001-20-20.001z" fill="#cfdbfa"/><path d="m175.625 346.706c11.046 0 20-8.954 20-20v-20c0-11.046-8.954-20-20-20h-15.125v60z" fill="#ffc277"/><path d="m7.5 299.768h93v31.5h-93z" fill="#e08ea2"/></g><g><path d="m182.622 223.542h15v15h-15z"/><path d="m268.206 223.542h15v15h-15z"/><path d="m448.49 412.448 20.046-69.152-37.849-10.971-4.176 14.406 23.44 6.795-11.692 40.34-51.201-14.841 11.693-40.34 12.76 3.698 4.176-14.406-61.447-17.811-2.923 10.085-13.507-3.915c4.645-8.81 6.995-17.607 6.995-26.251v-22.754h11.186c14.457 0 26.219-11.762 26.219-26.219v-16.152c0-14.457-11.762-26.219-26.219-26.219h-11.186v-20.315l17.403-3.979 4.458 19.496 87.676-20.048-12.261-53.616-87.675 20.048 4.458 19.497-14.06 3.215v-3.725c0-42.951-28.124-79.441-66.898-91.993v-14.353c0-24.396-19.848-44.244-44.244-44.244s-44.243 19.848-44.243 44.244v14.24c-38.951 12.448-67.24 49.028-67.24 92.105v39.428h-10.567c-14.457 0-26.219 11.762-26.219 26.219v16.152c0 14.457 11.762 26.219 26.219 26.219h10.567v20.042l-22.486 4.895h-99.693v46.5h99.551l60 15.438h3.727c3.419 2.68 6.881 5.224 10.321 7.623v48.636l-147.294 34.747 3.443 14.6 158.851-37.475v-50.775c5.782 3.498 11.135 6.474 15.619 8.843 7.854 4.146 16.724 6.338 25.649 6.338h7.249c8.927 0 17.797-2.191 25.65-6.339 4.452-2.351 9.898-5.374 15.835-8.973v50.907l158.851 37.475 3.443-14.6-147.294-34.748v-48.784c1.669-1.166 3.345-2.371 5.02-3.605l38.497 11.158-2.924 10.085zm-17.688-274.203 5.573 24.37-58.43 13.36-5.572-24.37zm-58.15 236.604-19.874-5.761 2.017-6.96 9.676-33.379 19.874 5.76zm-27.229-161.108h10.567c6.187 0 11.219 5.033 11.219 11.219v16.152c0 6.186-5.032 11.219-11.219 11.219h-10.567zm-16.516-66.505c-13.973-21.212-36.058-36.61-61.799-41.728 2.569-4.181 4.053-9.096 4.053-14.352v-1c0-3.417-.631-6.687-1.775-9.708 30.972 8.324 54.72 34.494 59.521 66.788zm-124.488-94.268c0-16.125 13.118-29.244 29.243-29.244s29.244 13.119 29.244 29.244v10.795c-4.772-.73-9.658-1.109-14.631-1.109h-29.567c-4.854 0-9.625.365-14.289 1.061zm-92.808 199.363c-6.187 0-11.219-5.033-11.219-11.219v-16.152c0-6.186 5.032-11.219 11.219-11.219h10.567v38.59zm-96.611 54.937h78v16.5h-78zm93-1.457 45-9.797v41.018l-45-11.578zm67.625 33.395h-7.625v-45h7.625c6.893 0 12.5 5.607 12.5 12.5v20c0 6.892-5.607 12.5-12.5 12.5zm80.137 27.934c-5.703 3.011-12.15 4.603-18.646 4.603h-7.249c-6.494 0-12.942-1.592-18.645-4.603-6.855-3.621-15.825-8.714-25.194-14.984 10.019-4.111 17.097-13.968 17.097-25.45v-20c0-15.163-12.337-27.5-27.5-27.5h-15.932l-22.515 4.902v-83.794c0-27.054 13.467-52.345 36.024-67.652l-8.422-12.412c-10.774 7.311-19.791 16.553-26.717 27.081 5.806-39.365 39.753-69.675 80.644-69.675h24.954c6.893 0 12.5 5.607 12.5 12.5v1c0 6.893-5.607 12.5-12.5 12.5h-24.954c-13.057 0-25.744 2.598-37.709 7.721l5.904 13.789c10.089-4.319 20.789-6.51 31.805-6.51h29.567c33.497 0 62.329 20.344 74.857 49.339l-13.009 2.975-1.672-7.311-14.622 3.341 1.672 7.311-14.683 3.357-1.672-7.311-14.623 3.344 1.672 7.311-10.495 2.4 3.344 14.623 10.495-2.4 1.671 7.311 14.623-3.344-1.671-7.311 14.683-3.357 1.672 7.311 14.623-3.344-1.672-7.311 14.318-3.274c1.307 5.794 2.02 11.812 2.02 17.996v89.771c0 7.01-2.287 14.38-6.788 21.964l-16.72-4.846c-6.998-2.033-14.611.544-18.941 6.401l-10.147 13.718c-3.403 4.603-4.342 10.588-2.509 16.01 1.2 3.55 3.495 6.565 6.476 8.675-9.567 6.416-18.681 11.578-25.414 15.135zm34.82-27.013c-1.092-.315-1.517-1.138-1.672-1.6-.156-.462-.317-1.374.357-2.287l10.147-13.718c.478-.646 1.234-1.013 2.016-1.013.229 0 .463.032.69.098l45.02 13.05-.46 1.586-5.387 18.584z"/><path d="m31.1 31.831h15v15h-15z"/><path d="m31.1 61.831h15v15h-15z"/><path d="m46.1 46.831h15v15h-15z"/><path d="m16.1 46.831h15v15h-15z"/><path d="m61.1 149.61h15v15h-15z"/><path d="m406.1 46.831h15v15h-15z"/></g></g></svg>