<!-- icon666.com - MILLIONS OF FREE VECTOR ICONS --><svg id="Filloutline" enable-background="new 0 0 126 126.007" viewBox="0 0 126 126.007" xmlns="http://www.w3.org/2000/svg"><g><g><g id="XMLID_72_"><g><g><path d="m51.65 53.917c1.44.73 4.82-3 5.55-4.45.74-1.45.16-3.22-1.29-3.95-1.45-.74-3.22-.16-3.95 1.29-.74 1.45-1.76 6.37-.31 7.11z" fill="#ffd7d2"/></g><g><path d="m29 77.187v-8.47h.31c1.09 0 1.97-.88 1.97-1.97v-.64c0-1.08-.88-1.97-1.97-1.97h-.31v-1.24c0-1.43-1.16-2.59-2.59-2.59h-12.25c-1.43 0-2.59 1.16-2.59 2.59v1.24h-.32c-1.09 0-1.97.89-1.97 1.97v.64c0 1.09.88 1.97 1.97 1.97h.32v8.47c-4.79.83-10.57 6.85-10.57 10.91v5.55 23.31c0 1.05.22 2.07.64 3s1.02 1.78 1.8 2.48c1.83 1.66 4.21 2.57 6.68 2.57h10.16 10.17c1.23 0 2.45-.23 3.58-.66 1.13-.44 2.18-1.08 3.1-1.91 1.55-1.4 2.43-3.39 2.43-5.48v-23.31-5.55c0-4.06-5.78-10.08-10.56-10.91z" fill="#ffd7d2"/></g><g><path d="m98.7 33.657c-5.29.94-10.74 1.6-16.32 2.01-5.02.38-10.13.57-15.35.59-1.21.01-2.33.42-3.24 1.13-.91.7-1.59 1.7-1.91 2.86-.42 1.59-.12 3.3.88 4.61.95 1.25 2.44 2.79 4.62 4.09-1.31 1.63-3.06 4.76-2.15 5.76 1.08 1.21 5.57-1.06 6.78-2.15.54-.49.86-1.13.94-1.81 6.91 1.01 17.01.17 17.01.17-7.45 3.01-14.81 5.66-22.04 7.8-1.48.45-2.95.86-4.41 1.26h-.04c-.28-2.04-1.3-3.91-3.06-4.02-3-.18-8.43 3.4-12.74 2.16l-6.61-24.44c3.71-1.42 6.15-3.36 5.78-4.76l-1.52-5.61v-.01l-1.18-4.34-.03-.14-4.42-16.33c-.46-1.72-5.02-1.98-10.18-.58-5.16 1.39-8.96 3.91-8.5 5.63l4.42 16.33 1.21 4.49.01.04 1.51 5.57c.37 1.4 3.46 1.83 7.38 1.19v.01l6.61 24.44c-.21 1.99.34 3.75 1.61 5.1-.92.62-1.71 1.45-2.27 2.45-.65 1.13-.98 2.4-.98 3.67 0 1.22.31 2.43.95 3.5 1.19 1.98 3.31 4.07 7.1 5.04 8.04 2.06 23.62-1.81 24.39-2-7.02 2.46-14.22 4.55-21.53 6.15-2.07.45-3.74 2.03-4.17 4.1-.27 1.28-.31 2.7.29 3.89 1.69 3.34 3.75 7.99 17.86 7.99 13.88 0 40.36-11.54 41.18-11.9-2.91 1.85-5.88 3.62-8.91 5.3-4.98 2.78-10.11 5.34-15.41 7.68-2.42 1.07-3.4 4.08-1.9 6.27.02.03.03.05.05.08 1.91 2.69 4.81 4.76 15.11 4.34 8.35-.34 29.48-10.66 29.48-10.66v-26.27-23.38-16.13-8.86c-8.22 3.55-17.02 6.05-26.3 7.69z" fill="#ffd7d2"/></g></g><g><g><path d="m55.91 45.517c1.45.73 2.03 2.5 1.29 3.95-.73 1.45-4.11 5.18-5.55 4.45-1.45-.74-.43-5.66.31-7.11.73-1.45 2.5-2.03 3.95-1.29z" fill="#e15c63"/></g><g><path d="m67.38 48.947c.25-.32.49-.58.69-.76 1.21-1.09 3.07-.99 4.15.22.6.66.84 1.52.73 2.34-.08.68-.4 1.32-.94 1.81-1.21 1.09-5.7 3.36-6.78 2.15-.91-1 .84-4.13 2.15-5.76z" fill="#e15c63"/></g><g><path d="m29 62.897v1.24h-17.43v-1.24c0-1.43 1.16-2.59 2.59-2.59h12.25c1.43 0 2.59 1.16 2.59 2.59z" fill="#655f68"/></g><g><path d="m31.28 66.107v.64c0 1.09-.88 1.97-1.97 1.97h-.31-17.43-.32c-1.09 0-1.97-.88-1.97-1.97v-.64c0-1.08.88-1.97 1.97-1.97h.32 17.43.31c1.09 0 1.97.89 1.97 1.97z" fill="#ad6a6a"/></g><g><path d="m39.56 88.097v5.55s-5.62-10.21-19.28-10.21-19.28 10.21-19.28 10.21v-5.55c0-4.06 5.78-10.08 10.57-10.91v-8.47h17.43v8.47c4.78.83 10.56 6.85 10.56 10.91z" fill="#655f68"/></g><g><path d="m125 50.957v23.38c-5.87 4.77-11.99 9.2-18.4 13.25-.01 0-.01.01-.02.01-.82.36-27.3 11.9-41.18 11.9-14.11 0-16.17-4.65-17.86-7.99-.6-1.19-.56-2.61-.29-3.89.43-2.07 2.1-3.65 4.17-4.1 0 0-.29 6.14 5.09 7.72 5.38 1.57 16.72.25 18.99-5.09 2.27-5.33-2.52-8.79-2.52-8.79 6.33-2.22 12.53-4.74 18.53-7.51 12.03-5.55 23.31-12.04 33.49-18.89z" fill="#fec4b9"/></g><g><path d="m125 25.967v8.86c-11.87 5.94-23.57 11.45-35.04 16.09 0 0-10.1.84-17.01-.17.11-.82-.13-1.68-.73-2.34-1.08-1.21-2.94-1.31-4.15-.22-.2.18-.44.44-.69.76-2.18-1.3-3.67-2.84-4.62-4.09-1-1.31-1.3-3.02-.88-4.61 0 0 7.54 5.09 14.23 2.68 6.68-2.41 6.27-7.26 6.27-7.26 5.58-.41 11.03-1.07 16.32-2.01 9.28-1.64 18.08-4.14 26.3-7.69z" fill="#fec4b9"/></g><g><path d="m97.67 92.897s5.49 2.88 4.6 6.89c-.87 3.93-7.01 5.96-12.31 5.96-5.29 0-7.7-5.17-7.7-5.17 5.3-2.34 10.43-4.9 15.41-7.68z" fill="#e7f2f1"/></g><g><path d="m82.38 35.667s.41 4.85-6.27 7.26c-6.69 2.41-14.23-2.68-14.23-2.68.32-1.16 1-2.16 1.91-2.86.91-.71 2.03-1.12 3.24-1.13 5.22-.02 10.33-.21 15.35-.59z" fill="#e7f2f1"/></g><g><path d="m72.98 77.357s4.79 3.46 2.52 8.79c-2.27 5.34-13.61 6.66-18.99 5.09-5.38-1.58-5.09-7.72-5.09-7.72 7.31-1.6 14.51-3.69 21.53-6.15.02-.01.03-.01.03-.01z" fill="#e7f2f1"/></g><g><path d="m67.92 58.727s4.53 7.64-1.04 11.89c-5.56 4.26-15.97 2.02-19.18.46s-3.94-6.37-3.94-6.37c1.32 1.4 3.4 2.37 6.21 2.71 5.5.66 11.73-.74 13.01-3.35.53-1.08.7-2.63.49-4.09h.04c1.46-.4 2.93-.81 4.41-1.26z" fill="#e7f2f1"/></g><g><path d="m45.55 59.727c.77-.29 1.48-.83 2.12-1.61 4.31 1.24 9.74-2.34 12.74-2.16 1.76.11 2.78 1.98 3.06 4.02.21 1.46.04 3.01-.49 4.09-1.28 2.61-7.51 4.01-13.01 3.35-2.81-.34-4.89-1.31-6.21-2.71-1.27-1.35-1.82-3.11-1.61-5.1 1.25.46 2.38.5 3.4.12z" fill="#e15c63"/></g><g><path d="m41.06 33.677 6.61 24.44c-.64.78-1.35 1.32-2.12 1.61-1.02.38-2.15.34-3.4-.12l-6.61-24.44v-.01c.9-.14 1.84-.34 2.8-.6s1.87-.56 2.72-.88z" fill="#655f68"/></g><g><path d="m46.84 28.917c.37 1.4-2.07 3.34-5.78 4.76-.85.32-1.76.62-2.72.88s-1.9.46-2.8.6c-3.92.64-7.01.21-7.38-1.19l-1.51-5.57c.52 1.67 5.05 1.93 10.17.54 5.15-1.39 8.95-3.91 8.5-5.63z" fill="#ad6a6a"/></g><g><path d="m45.32 23.307c.45 1.72-3.35 4.24-8.5 5.63-5.12 1.39-9.65 1.13-10.17-.54l-.01-.04-1.21-4.49c.46 1.72 5.02 1.98 10.18.59 5.02-1.36 8.75-3.78 8.53-5.5l1.18 4.34z" fill="#ffc05a"/></g><g><path d="m44.14 18.957c.22 1.72-3.51 4.14-8.53 5.5-5.16 1.39-9.72 1.13-10.18-.59l-4.42-16.33c.47 1.72 5.03 1.99 10.18.59 5.16-1.39 8.97-3.92 8.5-5.64l4.42 16.33z" fill="#655f68"/></g><g><path d="m39.69 2.487c.47 1.72-3.34 4.25-8.5 5.64-5.15 1.4-9.71 1.13-10.18-.59-.46-1.72 3.34-4.24 8.5-5.63 5.16-1.4 9.72-1.14 10.18.58z" fill="#ad6a6a"/></g><g><path d="m39.56 93.647v23.31c0 2.09-.88 4.08-2.43 5.48-.92.83-1.97 1.47-3.1 1.91-1.13.43-2.35.66-3.58.66h-10.17-10.16c-2.47 0-4.85-.91-6.68-2.57-.78-.7-1.38-1.55-1.8-2.48s-.64-1.95-.64-3v-23.31s5.62-10.21 19.28-10.21 19.28 10.21 19.28 10.21z" fill="#e15c63"/></g></g><g id="XMLID_73_"><g><g><path d="m39.56 88.097v5.55s-4.81-8.74-16.35-10.04c.51-4.32.8-9.25.8-14.89h4.99v8.47c4.78.83 10.56 6.85 10.56 10.91z" fill="#5d5560"/></g><g><path d="m39.56 93.647v23.31c0 2.09-.88 4.08-2.43 5.48-.92.83-1.97 1.47-3.1 1.91-1.13.43-2.35.66-3.58.66h-10.17-10.16c-2.47 0-4.85-.91-6.68-2.57-.78-.7-1.38-1.55-1.8-2.48s-.64-1.95-.64-3v-3.56s18.15 4.51 22.21-29.79c11.54 1.3 16.35 10.04 16.35 10.04z" fill="#d14b62"/></g></g></g></g></g><g fill="#3a322b"><path d="m124.562 99.709c-.21.102-21.035 10.234-29.083 10.563-10.288.424-12.684-1.707-14.238-3.906 0-.001-.057-.083-.058-.084-.526-.77-.672-1.7-.411-2.617.194-.678.598-1.259 1.135-1.694 1.051 1.641 3.635 4.772 8.057 4.772 5.863 0 12.31-2.316 13.285-6.742.718-3.256-1.894-5.77-3.649-7.051 2.549-1.45 5.066-2.951 7.534-4.514 6.35-4.019 12.573-8.5 18.498-13.321.429-.349.493-.979.145-1.407-.347-.428-.976-.493-1.406-.145-5.846 4.756-11.986 9.178-18.25 13.145-1.45.631-27.308 11.785-40.722 11.785-13.207 0-15.235-4.015-16.865-7.241l-.104-.202c-.413-.814-.48-1.899-.202-3.224.265-1.257 1.108-2.313 2.256-2.912.311 2.552 1.735 6.105 5.745 7.279 1.449.424 3.341.653 5.391.653 5.813 0 12.9-1.84 14.798-6.305 1.608-3.784.077-6.96-1.563-8.803 5.686-2.046 11.387-4.365 17.076-6.986 11.484-5.291 22.799-11.672 33.629-18.966.458-.309.579-.93.271-1.388s-.932-.579-1.388-.271c-10.741 7.234-21.962 13.563-33.348 18.809-6.187 2.85-12.386 5.346-18.562 7.507-1.874.458-16.297 3.854-23.727 1.957-2.928-.749-5.109-2.291-6.483-4.584-1.101-1.837-1.087-4.2.035-6.166.231-.405.511-.782.825-1.126.537 1.718 1.706 4.299 4.084 5.453 1.976.959 6.266 2.095 10.693 2.095 3.433 0 6.948-.683 9.531-2.658 4.4-3.365 3.362-8.854 1.868-12.079 6.593-2.004 13.505-4.471 20.98-7.494 10.281-4.159 21.438-9.28 35.109-16.117.494-.247.694-.848.447-1.342-.248-.494-.849-.694-1.342-.447-13.561 6.78-24.632 11.865-34.825 15.992-1.214.094-9.579.69-15.785-.059-.101-.79-.432-1.53-.976-2.134-1.457-1.615-3.951-1.743-5.566-.289-.052.047-.116.111-.191.19-1.425-.95-2.661-2.079-3.656-3.389-.512-.674-.799-1.498-.845-2.349 1.908 1.036 5.549 2.676 9.503 2.676 1.395 0 2.827-.205 4.234-.711 5.498-1.982 6.658-5.522 6.886-7.262 5.422-.434 10.577-1.083 15.537-1.961 9.649-1.708 18.574-4.317 26.527-7.757.508-.219.74-.808.521-1.315-.219-.506-.808-.74-1.314-.521-7.811 3.378-16.586 5.943-26.082 7.623-9.572 1.693-19.873 2.539-31.491 2.585-2.857.012-5.371 1.958-6.113 4.733-.005.02-.007.04-.012.059-.001.005-.002.011-.003.016-.478 1.874-.086 3.884 1.061 5.392 1.098 1.445 2.449 2.695 4 3.749-1.319 1.882-2.788 4.721-1.479 6.174.438.486 1.062.679 1.773.679 2.396 0 5.786-2.186 6.421-2.758h.001c.453-.408.783-.911 1.004-1.461 2.448.299 5.165.407 7.688.407.873 0 1.721-.012 2.523-.031-6.949 2.646-13.432 4.797-19.654 6.521-.167-.615-.396-1.195-.692-1.702-.732-1.261-1.824-1.998-3.072-2.075-1.402-.088-3.026.458-4.915 1.085-2.309.768-4.897 1.615-7.084 1.217l-6.217-22.994c3.453-1.462 6.11-3.513 5.544-5.611l-1.518-5.615c0-.001 0-.001 0-.002 0 0 0 0 0-.001l-1.21-4.476c-.001-.002-.001-.005-.001-.007 0-.001-.001-.002-.001-.003l-4.417-16.321c-.759-2.801-6.444-2.634-11.407-1.292-2.596.702-4.957 1.707-6.649 2.83-2.554 1.694-2.798 3.129-2.554 4.035l7.146 26.429c.433 1.597 2.465 2.229 5.053 2.229.808 0 1.676-.075 2.561-.188l6.34 23.447c-.153 1.848.274 3.483 1.202 4.829-.684.603-1.275 1.316-1.728 2.11-1.48 2.592-1.485 5.729-.015 8.185 1.631 2.724 4.295 4.624 7.705 5.495 1.775.454 3.884.634 6.111.634 1.268 0 2.575-.064 3.88-.163-2.374.626-4.743 1.217-7.099 1.733-2.489.545-4.425 2.459-4.933 4.875-.375 1.782-.249 3.309.376 4.54l.101.2c1.778 3.52 4.213 8.339 18.65 8.339 8.081 0 20.13-3.749 29.193-7.056-4.169 2.237-8.422 4.32-12.733 6.225-.005.002-.009.005-.014.007-.001.001-.003 0-.004.001-.002.001-.003.003-.005.004-1.46.654-2.548 1.906-2.985 3.442-.421 1.478-.172 3.042.687 4.298.002.003.06.087.062.09 2.089 2.957 5.149 4.822 13.36 4.822.815 0 1.683-.019 2.604-.056 8.463-.345 29.008-10.339 29.878-10.764.497-.242.702-.841.46-1.337-.245-.5-.845-.704-1.338-.463zm-57.524-62.453c4.973-.02 9.697-.194 14.24-.508-.296 1.351-1.405 3.754-5.509 5.233-5.049 1.822-10.777-1.067-12.672-2.164.698-1.531 2.23-2.554 3.941-2.561zm-1.045 16.82c-.242-.585.906-2.913 2.041-4.364.083-.07.159-.149.217-.247.007-.011.006-.024.012-.036.162-.19.322-.359.475-.497.371-.334.836-.499 1.3-.499.53 0 1.06.216 1.441.64.348.385.524.882.497 1.4-.026.518-.253.994-.639 1.341-1.294 1.168-4.724 2.567-5.344 2.262zm1.414 5.84c.868 1.828 2.777 6.918-1.132 9.907-5.147 3.936-15.059 1.847-18.137.353-1.229-.597-2.037-1.81-2.556-2.957 1.211.585 2.639.996 4.27 1.192.923.111 1.885.166 2.855.166 4.816 0 9.836-1.358 11.166-4.068.521-1.061.74-2.423.675-3.781.948-.261 1.9-.531 2.859-.812zm-11.217-1.973c1.622-.54 3.143-1.048 4.161-.987.575.036 1.069.4 1.466 1.084.868 1.493.99 4.104.262 5.588-.927 1.886-6.252 3.484-11.988 2.797-4.203-.503-6.715-2.538-6.957-5.531.324.054.645.094.957.094.366 0 .722-.048 1.07-.122 1.479 1.825 3.503 2.752 6.06 2.752 1.076 0 2.246-.163 3.508-.488.535-.138.856-.684.718-1.218-.139-.535-.684-.854-1.218-.718-3.202.826-5.548.439-7.146-1.173.327-.229.64-.5.94-.81 2.711.53 5.596-.412 8.167-1.268zm-28.585-29.852c0-.001 0-.001 0 0l-.539-1.994c.467.109.995.194 1.634.231.272.016.555.023.845.023 1.868 0 4.078-.323 6.324-.93 2.596-.702 4.957-1.707 6.649-2.83.534-.354.946-.693 1.295-1.022l.539 1.995c.034.126-.161.807-1.728 1.846-1.518 1.007-3.672 1.918-6.065 2.565-2.395.647-4.721.947-6.531.841-1.879-.109-2.389-.6-2.423-.725zm11.799-22.831 3.737 13.821c.032.129-.166.808-1.728 1.844-1.518 1.007-3.672 1.918-6.065 2.565s-4.717.943-6.532.841c-1.878-.108-2.389-.599-2.422-.724 0-.001-.001-.001-.001-.002l-3.738-13.823c.721.166 1.546.249 2.445.249 1.952 0 4.222-.36 6.355-.937 3.113-.843 6.238-2.227 7.949-3.834zm-15.698.173c1.518-1.007 3.672-1.918 6.065-2.565 2.349-.635 4.307-.859 5.788-.859 1.948 0 3.07.389 3.166.743.169.623-2.354 2.94-7.792 4.411-5.443 1.472-8.786.739-8.955.117-.034-.126.16-.807 1.728-1.847zm5.418 28.275-.845-3.127c.467.109.995.194 1.635.231.272.016.555.023.845.023 1.868 0 4.077-.323 6.323-.93 2.596-.702 4.957-1.707 6.649-2.83.534-.354.947-.694 1.295-1.023l.845 3.127c.169.623-2.354 2.941-7.792 4.412-5.439 1.471-8.788.74-8.955.117zm9.477 1.814c.596-.161 1.191-.343 1.778-.542l6.186 22.876c-.432.44-.892.754-1.37.934-.667.252-1.396.265-2.218.037l-6.187-22.88c.608-.124 1.214-.263 1.811-.425zm35.976 50.237c-1.957 4.602-12.469 6.068-17.788 4.514-3.568-1.044-4.232-4.448-4.349-5.969 6.716-1.506 13.507-3.454 20.326-5.823.975.873 3.402 3.534 1.811 7.278zm26.718 13.811c-.714 3.238-6.322 5.173-11.332 5.173-3.361 0-5.401-2.375-6.283-3.71 4.739-2.128 9.408-4.462 13.967-6.984 1.168.735 4.219 2.934 3.648 5.521z"/><path d="m51.193 54.805c.279.142.574.206.878.206 2.472 0 5.575-4.209 6.022-5.09.477-.938.56-2.006.232-3.007-.327-1-1.023-1.814-1.962-2.291-.939-.478-2.008-.56-3.008-.232-1 .327-1.813 1.024-2.29 1.962-.501.988-2.417 7.16.128 8.452zm1.657-7.548c.342-.673 1.025-1.062 1.733-1.062.295 0 .595.067.875.21.463.235.806.635.967 1.128s.12 1.019-.114 1.481c-.779 1.535-3.427 4.031-4.152 4.031-.008 0-.017 0-.024-.001-.53-.555-.074-4.233.715-5.787z"/><path d="m29.996 76.388v-6.76c1.308-.31 2.287-1.481 2.287-2.882v-.636c0-1.402-.979-2.572-2.287-2.882v-.335c0-1.978-1.609-3.586-3.587-3.586h-12.254c-1.978 0-3.587 1.609-3.587 3.586v.335c-1.307.31-2.286 1.481-2.286 2.882v.636c0 1.401.979 2.572 2.286 2.882v6.76c-5.022 1.388-10.568 7.401-10.568 11.706v28.859c0 2.37 1.01 4.641 2.77 6.229 2.019 1.821 4.628 2.824 7.347 2.824h20.333c2.719 0 5.327-1.003 7.346-2.824 1.76-1.588 2.77-3.859 2.77-6.229v-28.859c-.002-4.305-5.547-10.318-10.57-11.706zm-15.841-15.082h12.254c.875 0 1.587.712 1.587 1.586v.248h-15.428v-.248c0-.874.712-1.586 1.587-1.586zm-3.873 5.439v-.636c0-.534.435-.969.969-.969h18.063c.534 0 .969.435.969.969v.636c0 .534-.435.969-.969.969h-18.063c-.534 0-.969-.434-.969-.969zm26.173 54.953c-1.65 1.489-3.783 2.309-6.006 2.309h-20.333c-2.224 0-4.356-.82-6.007-2.309-1.34-1.21-2.109-2.939-2.109-4.745v-23.032c.835-1.348 6.372-9.486 18.282-9.486 11.982 0 17.412 8.049 18.282 9.481v23.037c0 1.806-.768 3.535-2.109 4.745zm2.109-31.137c-2.717-3.179-8.512-8.125-18.282-8.125s-15.565 4.946-18.282 8.125v-2.467c0-3.618 5.461-9.183 9.739-9.923.479-.083.829-.499.829-.985v-7.472h15.428v7.472c0 .486.351.902.829.985 4.278.74 9.739 6.305 9.739 9.923z"/></g></g></svg>