<!-- icon666.com - MILLIONS OF FREE VECTOR ICONS --><svg id="Layer_1" enable-background="new 0 0 486.076 486.076" viewBox="0 0 486.076 486.076" xmlns="http://www.w3.org/2000/svg"><g><g><path d="m32.037 486.076v-205.938c0-49.706 40.294-90 90-90 49.706 0 90 40.294 90 90v205.938" fill="#ffceb7"/><path d="m122.037 190.138c-3.381 0-6.716.193-10 .556 44.999 4.975 80 43.119 80 89.444v205.938h20v-205.938c0-49.705-40.294-90-90-90z" fill="#ffaa81"/><path d="m122.131 333.138c-30.652 0-55.5-24.848-55.5-55.5v-134.5c0-11.046 8.954-20 20-20h71c11.046 0 20 8.954 20 20v134.5c0 30.652-24.848 55.5-55.5 55.5z" fill="#e08ea2"/><path d="m157.631 123.138h-20c11.046 0 20 8.954 20 20v134.5c0 27.236-19.624 49.873-45.5 54.584 3.246.591 6.584.916 10 .916 30.652 0 55.5-24.848 55.5-55.5v-134.5c0-11.045-8.954-20-20-20z" fill="#d15573"/><path d="m319.51 6.201-31.308 21.303 67.509 99.21 125.623-85.482z" fill="#79787d"/><path d="m454.364 35.394-109.905 74.785 11.252 16.535 125.623-85.482z" fill="#58565b"/><g><path d="m119.01 194.85 40.888.261c12.17.078 24.076-3.547 34.138-10.394l136.658-92.991-18.002-26.456-136.143 92.64c-5.031 3.423-10.984 5.236-17.069 5.197l-40.265-.257z" fill="#fff"/></g></g><g><g><path d="m159.912 377.638h-14.875v-15h14.875zm-29.875 0h-15v-15h15zm-30 0h-15v-15h15z" fill="#fff"/></g><g><path d="m185.131 205.812v-7.932c4.582-1.817 8.98-4.142 13.124-6.962l131.284-89.334 24.191 35.55 131.824-89.701-8.439-12.401-92.966 63.26-45.288-66.553-12.4 8.438 45.288 66.553-14.055 9.564-59.07-86.809 25.107-17.084-8.441-12.401-37.508 25.523 25.316 37.204-117.971 80.275c-.074-15.101-12.379-27.363-27.497-27.363h-71c-15.164 0-27.5 12.336-27.5 27.5v62.514c-22.029 18.591-34.594 45.526-34.594 74.486v205.938h15v-205.939c0-19.88 6.998-38.636 19.594-53.409v50.909c0 34.738 28.262 63 63 63s63-28.261 63-63v-50.683c12.475 14.741 19.406 33.412 19.406 53.182v205.938h15v-205.937c.001-28.862-12.495-55.74-34.405-74.326zm4.686-27.295c-8.845 6.018-19.146 9.153-29.871 9.095l-33.388-.213.108-16.999 32.765.209c7.644.052 15.019-2.198 21.336-6.496l129.943-88.423 9.563 14.055zm-67.686 147.121c-14.665 0-27.806-6.617-36.618-17.014 9.078-10.713 22.409-16.986 36.618-16.986 4.501 0 8.955.621 13.236 1.846l4.127-14.421c-5.624-1.609-11.465-2.425-17.363-2.425-16.941 0-32.941 6.783-44.658 18.563-2.149-5.444-3.342-11.364-3.342-17.562v-134.5c0-6.893 5.607-12.5 12.5-12.5h71c6.893 0 12.5 5.607 12.5 12.5v9.875c-3.262 1.718-6.881 2.618-10.604 2.595l-47.765-.305-.3 46.998 48.388.31c.147.001.292.001.438.001 3.316 0 6.603-.244 9.843-.719v75.745c0 6.2-1.195 12.123-3.344 17.568-3.123-3.139-6.567-5.955-10.326-8.402l-8.184 12.571c3.955 2.574 7.459 5.675 10.478 9.24-8.812 10.402-21.956 17.022-36.624 17.022z"/><g><g><path d="m15.522 23.851h15v15h-15z"/></g><g><path d="m15.522 53.851h15v15h-15z"/></g><g><path d="m30.522 38.851h15v15h-15z"/></g><g><path d="m.522 38.851h15v15h-15z"/></g></g><g><g><path d="m369.897 248.788h15v15h-15z"/></g><g><path d="m369.897 278.788h15v15h-15z"/></g><g><path d="m384.897 263.788h15v15h-15z"/></g><g><path d="m354.897 263.788h15v15h-15z"/></g></g><path d="m270.397 340.174h15v14.938h-15z"/><path d="m300.397 155.516h15v14.938h-15z"/><path d="m144.869 48.382h15v14.938h-15z"/></g></g></g></svg>