<!-- icon666.com - MILLIONS OF FREE VECTOR ICONS --><svg id="Layer_1" enable-background="new 0 0 451.806 451.806" viewBox="0 0 451.806 451.806" xmlns="http://www.w3.org/2000/svg"><g><g><path d="m360.419 404.337v-330.656h65.125v-20c0-11.046-8.954-20-20-20h-75.125c-11.046 0-20 8.954-20 20v370.656c0 11.046 8.954 20 20 20h75.125c11.046 0 20-8.954 20-20v-20z" fill="#c7efbc"/><path d="m425.544 73.681v-20c0-11.046-8.954-20-20-20h-20c11.046 0 20 8.954 20 20h-65.125v370.656h65.125c0 11.046-8.954 20-20 20h20c11.046 0 20-8.954 20-20v-20h-65.125v-330.656z" fill="#7bdaa9"/><path d="m26.262 330.494h247v113.062h-247z" fill="#c7efbc"/><path d="m253.262 330.494h20v113.062h-20z" fill="#7bdaa9"/><path d="m40.907 271.232h217.71v59.71h-217.71z" fill="#fff"/><path d="m238.617 271.232h20v59.71h-20z" fill="#cfdbfa"/><path d="m212.262 226.556v-10c0-27.614-22.386-50-50-50h-25.125v30c0 16.569-13.431 30-30 30h-23.875c-16.569 0-30 13.431-30 30v14.676h193v-14.676c0-16.569-13.431-30-30-30z" fill="#ffc277"/><g fill="#f69500"><path d="m216.262 226.556h-4v-10c0-27.614-22.386-50-50-50h-20c27.614 0 50 16.729 50 59v10h4c16.569 0 30 4.431 30 21v14.676h20v-14.676c0-16.568-13.431-30-30-30z"/><circle cx="150.903" cy="387.556" r="26.439"/></g></g><g><path d="m433.012 81.15v-27.469c0-15.147-12.322-27.469-27.469-27.469h-75.125c-15.146 0-27.469 12.322-27.469 27.469v98h14.938v-98c0-6.91 5.622-12.531 12.531-12.531h75.125c6.91 0 12.531 5.622 12.531 12.531v12.531h-65.124v345.594h65.125v12.531c0 6.91-5.622 12.531-12.531 12.531h-75.125c-6.91 0-12.531-5.622-12.531-12.531v-257.781h-14.938v257.781c0 15.146 12.322 27.469 27.469 27.469h75.125c15.146 0 27.469-12.322 27.469-27.469v-27.469h-65.125v-15.781h62.656v-14.937h-62.656v-15.063h62.656v-14.937h-62.656v-15.063h62.656v-14.937h-62.656v-15.063h62.656v-14.937h-62.656v-15.063h62.656v-14.937h-62.656v-15.063h62.656v-14.937h-62.656v-15.063h62.656v-14.937h-62.656v-15.063h62.656v-14.937h-62.656v-15.063h62.656v-14.937h-62.656v-15.063h62.656v-14.937h-62.656v-15z"/><path d="m265.6 307.845h7.663v-13.965h-7.663v-29.63h-12.355v-7.694c0-19.388-14.998-35.339-34-36.863v-3.137c0-31.42-25.562-56.982-56.982-56.982h-32.107v36.982c0 12.692-10.326 23.018-23.018 23.018h-23.876c-20.392 0-36.982 16.59-36.982 36.982v7.694h-12.355v29.63h-7.663v13.965h7.663v15.18h-15.131v128h261.938v-128h-15.132zm-217.71-29.63h43.013v-13.965h-30.658v-7.694c0-12.692 10.326-23.018 23.018-23.018h23.875c20.392 0 36.982-16.59 36.982-36.982v-23.018h18.143c23.72 0 43.018 19.298 43.018 43.018v31.937h13.965v-14.755c11.287 1.468 20.035 11.137 20.035 22.818v7.694h-133.253v13.965h145.607v15.666h-203.745zm217.904 157.872h-232.063v-98.125h162.172v-14.938h-148.013v-15.18h203.745v15.18h-40.732v14.938h54.891z"/><path d="m135.852 54.605h13.462v14.151h-13.462z"/><path d="m28.903 129.15h15v14.938h-15z"/><g><path d="m53.403 0h15v15h-15z"/><path d="m53.403 30h15v15h-15z"/><path d="m68.403 15h15v15h-15z"/><path d="m38.403 15h15v15h-15z"/></g><g><path d="m233.403 93.619h15v15h-15z"/><path d="m233.403 123.619h15v15h-15z"/><path d="m248.403 108.619h15v15h-15z"/><path d="m218.403 108.619h15v15h-15z"/></g><path d="m150.903 352.889c-16.184 0-29.81 11.148-33.609 26.168h-27.057v16.456h26.932c3.607 15.291 17.358 26.71 33.735 26.71 16.28 0 29.968-11.284 33.672-26.439h26.328v-16.456h-26.328c-3.705-15.155-17.393-26.439-33.673-26.439zm0 52.878c-10.042 0-18.211-8.169-18.211-18.211s8.169-18.211 18.211-18.211 18.211 8.169 18.211 18.211-8.169 18.211-18.211 18.211z"/></g></g></svg>