<!-- icon666.com - MILLIONS OF FREE VECTOR ICONS --><svg version="1.1" id="Capa_1" xmlns="http://www.w3.org/2000/svg" xmlns:xlink="http://www.w3.org/1999/xlink" x="0px" y="0px" viewBox="0 0 512 512" style="enable-background:new 0 0 512 512;" xml:space="preserve"><path style="fill:#4C4945;" d="M117.034,367.002c0,0,0.717,120.525,91.75,139.366c13.005,2.662,25.19-7.27,25.19-20.48v-73.216 l-47.718-47.309L117.034,367.002z"/><path style="fill:#221F1F;" d="M212.983,512c-1.741,0-3.584-0.205-5.325-0.512c-39.014-8.09-67.994-35.738-83.763-80.077 c-11.674-32.973-11.981-63.078-12.083-64.307c0-2.765,2.253-5.12,5.018-5.12l69.12-1.536c1.434,0,2.765,0.512,3.686,1.434 l47.718,47.309c0.922,0.922,1.536,2.253,1.536,3.686v73.216c0,7.885-3.482,15.258-9.626,20.173 C224.759,509.952,218.922,512,212.983,512z M122.359,372.019c0.614,9.83,2.867,32.461,11.366,56.218 c14.746,41.165,40.346,65.843,76.083,73.216c4.71,0.922,9.421-0.205,13.21-3.174c3.686-2.97,5.837-7.475,5.837-12.288v-71.066 l-44.646-44.237L122.359,372.019z M117.034,367.002L117.034,367.002L117.034,367.002z"/><path style="fill:#4C4945;" d="M414.506,367.002c0,0-0.717,120.525-91.75,139.366c-13.005,2.662-25.19-7.27-25.19-20.48v-73.216 l47.718-47.309L414.506,367.002z"/><path style="fill:#221F1F;" d="M318.557,512c-5.939,0-11.674-2.048-16.384-5.837c-6.144-4.915-9.626-12.288-9.626-20.173v-73.216 c0-1.331,0.512-2.662,1.536-3.686l47.718-47.309c1.024-1.024,2.355-1.536,3.686-1.434l69.12,1.536 c2.765,0.102,5.018,2.355,5.018,5.12c0,1.229-0.307,31.437-12.083,64.307c-15.77,44.339-44.749,71.987-83.763,80.077 C322.141,511.795,320.298,512,318.557,512z M302.788,414.925v71.066c0,4.813,2.15,9.216,5.837,12.288 c3.686,2.97,8.499,4.198,13.21,3.174c35.738-7.373,61.44-32.051,76.083-73.216c8.499-23.654,10.752-46.387,11.366-56.218 l-61.747-1.434L302.788,414.925z"/><path style="fill:#4C4945;" d="M336.477,409.805c31.334,0,60.826-15.77,77.619-42.291c17.101-27.034,27.034-59.187,27.034-93.594 c0-24.678-5.018-48.23-14.234-69.53c-9.728-22.426-17.818-45.67-23.859-69.325c-1.536-5.939-3.379-11.571-5.632-16.794 c-20.992-48.947-71.987-69.12-131.584-69.12c-66.048,0-121.549,24.678-137.216,85.811c-6.144,23.654-14.131,46.899-23.859,69.325 c-9.216,21.299-14.234,44.851-14.234,69.53c0,34.406,9.933,66.56,27.034,93.594c16.794,26.522,46.182,42.291,77.619,42.291h141.312 V409.805z"/><path style="fill:#35322F;" d="M419.319,185.651h-21.914c2.867,7.782,5.939,15.565,9.216,23.347h-31.642 c-38.605,0-64-12.8-78.336-23.347h-61.952c-14.438,10.445-39.936,23.347-78.131,23.347h-31.642 c3.277-7.782,6.349-15.462,9.216-23.347h-21.913c-2.458,6.246-4.915,12.493-7.578,18.637c-6.144,14.336-10.445,29.594-12.595,45.568 h64.512c54.784,0,90.317-20.89,109.158-36.557c18.842,15.565,54.374,36.557,109.158,36.557h64.512 c-2.15-15.974-6.451-31.334-12.595-45.568C424.234,198.144,421.674,192,419.319,185.651z"/><g><path style="fill:#221F1F;" d="M174.48,412.57c-0.41,0-0.717,0-1.126-0.102c-1.843-0.41-3.686-0.922-5.53-1.434 c-2.765-0.819-4.301-3.584-3.482-6.349c0.819-2.765,3.584-4.301,6.349-3.482c1.638,0.512,3.277,0.922,4.915,1.229 c2.765,0.614,4.506,3.379,3.891,6.144C178.884,410.931,176.836,412.57,174.48,412.57z"/><path style="fill:#221F1F;" d="M148.471,402.33c-0.922,0-1.741-0.205-2.56-0.717c-13.312-7.68-24.576-18.637-32.768-31.437 c-18.227-28.774-27.853-62.157-27.853-96.358c0-24.883,4.915-48.947,14.643-71.578c9.83-22.733,17.715-45.875,23.654-68.608 c14.848-57.754,65.434-89.6,142.234-89.6c2.867,0,5.12,2.253,5.12,5.12s-2.253,5.12-5.12,5.12 c-41.472,0-113.869,10.65-132.301,82.022c-5.939,23.245-14.131,46.797-24.166,70.144c-9.216,21.299-13.824,44.032-13.824,67.482 c0,32.256,9.114,63.693,26.214,90.829c7.27,11.469,17.408,21.197,29.184,28.058c2.458,1.434,3.277,4.506,1.843,6.963 C151.952,401.408,150.212,402.33,148.471,402.33z"/><path style="fill:#221F1F;" d="M383.172,402.33c-1.741,0-3.482-0.922-4.403-2.56c-1.434-2.458-0.614-5.53,1.843-6.963 c11.878-6.861,21.914-16.589,29.184-28.058c17.203-27.136,26.214-58.573,26.214-90.829c0-23.45-4.608-46.182-13.824-67.482 c-10.035-23.245-18.125-46.797-24.166-70.144c-0.717-2.765,0.922-5.53,3.686-6.246c2.765-0.717,5.53,0.922,6.246,3.686 c5.837,22.733,13.824,45.773,23.654,68.608c9.728,22.63,14.643,46.694,14.643,71.578c0,34.202-9.626,67.584-27.853,96.358 c-8.09,12.902-19.456,23.757-32.768,31.437C384.912,402.125,383.991,402.33,383.172,402.33z"/><path style="fill:#221F1F;" d="M357.06,412.57c-2.355,0-4.403-1.638-5.018-3.994c-0.614-2.765,1.126-5.53,3.891-6.144 c1.638-0.41,3.379-0.819,4.915-1.229c2.765-0.819,5.53,0.819,6.349,3.482c0.819,2.765-0.819,5.53-3.482,6.349 c-1.843,0.512-3.686,1.024-5.53,1.434C357.879,412.57,357.469,412.57,357.06,412.57z"/></g><path style="fill:#FFB69F;" d="M327.568,397.824l-36.045,34.714c-14.336,13.824-37.069,13.824-51.507,0l-36.045-34.714 c-30.106-28.877-47.411-71.27-47.411-115.917v-66.253c0-17.101,13.926-31.027,31.027-31.027h156.365 c17.101,0,31.027,13.926,31.027,31.027v66.253C374.98,326.554,357.674,368.947,327.568,397.824z"/><path style="fill:#EA8F7D;" d="M374.98,249.958L374.98,249.958v-34.304c0-2.253-0.307-4.506-0.717-6.656 c-39.424-0.205-65.024-13.722-78.95-24.269h-59.187c-14.029,10.547-39.731,24.166-78.848,24.269 c-0.512,2.15-0.717,4.403-0.717,6.656v34.304c54.784,0,90.317-20.89,109.158-36.557C284.663,228.966,320.196,249.958,374.98,249.958 z"/><path style="fill:#221F1F;" d="M265.821,448.102c-10.547,0-21.094-3.994-29.286-11.878L200.49,401.51 c-31.13-29.901-48.947-73.523-48.947-119.603v-66.253c0-19.968,16.179-36.147,36.147-36.147h156.365 c19.968,0,36.147,16.179,36.147,36.147v66.253c0,46.08-17.818,89.702-48.947,119.603l0,0l-36.147,34.714 C286.813,444.109,276.368,448.102,265.821,448.102z M187.588,189.747c-14.234,0-25.907,11.571-25.907,25.907v66.253 c0,43.315,16.691,84.173,45.773,112.128l36.045,34.714c12.39,11.981,31.949,11.981,44.339,0l36.045-34.714 c29.082-27.955,45.773-68.915,45.773-112.128v-66.253c0-14.234-11.571-25.907-25.907-25.907H187.588L187.588,189.747z M327.568,397.824L327.568,397.824L327.568,397.824z"/><g><path style="fill:#4C4945;" d="M128.605,134.963c-6.144,23.654-14.131,46.899-23.859,69.325c-3.072,7.27-5.734,14.746-7.885,22.426 v2.662h59.802c76.186,0,109.158-44.851,109.158-44.851V49.152C199.773,49.152,144.272,73.83,128.605,134.963z"/><path style="fill:#4C4945;" d="M403.037,134.963c6.144,23.654,14.131,46.899,23.859,69.325c3.072,7.27,5.734,14.746,7.885,22.426 v2.662h-59.802c-76.186,0-109.158-44.851-109.158-44.851V49.152"/></g><path style="fill:#221F1F;" d="M434.781,234.598h-59.802c-63.59,0-97.997-30.003-109.158-42.086 c-11.264,11.981-45.568,42.086-109.158,42.086H96.759c-2.867,0-5.12-2.253-5.12-5.12v-2.662c0-0.512,0.102-0.922,0.205-1.331 c2.15-7.885,4.915-15.667,8.09-23.142c9.83-22.733,17.715-45.875,23.654-68.608c14.848-57.856,65.434-89.702,142.234-89.702 c34.304,0,63.693,6.451,87.142,19.046c2.458,1.331,3.379,4.403,2.048,6.963c-1.331,2.458-4.403,3.379-6.963,2.048 c-21.914-11.776-49.664-17.818-82.227-17.818c-41.472,0-113.869,10.65-132.301,82.022c-5.939,23.245-14.131,46.797-24.166,70.144 c-2.458,5.837-4.71,11.776-6.554,18.022h53.76c37.888,0,64.41-11.571,79.974-21.299c16.896-10.547,24.986-21.299,25.088-21.402 c0.922-1.331,2.458-2.048,4.096-2.048l0,0c1.638,0,3.174,0.819,4.096,2.048c0.102,0.102,8.192,10.854,25.088,21.402 c15.565,9.728,42.086,21.299,79.974,21.299h53.76c-1.843-6.144-4.096-12.186-6.554-18.022 c-10.035-23.245-18.125-46.797-24.166-70.144c-1.638-6.246-3.686-12.186-6.144-17.715c-1.126-2.56,0-5.632,2.56-6.758 s5.632,0,6.758,2.56c2.765,6.042,5.018,12.595,6.758,19.354c5.837,22.733,13.824,45.773,23.654,68.608 c3.174,7.373,5.939,15.155,8.09,23.142c0.102,0.41,0.205,0.922,0.205,1.331v2.662C439.901,232.243,437.546,234.598,434.781,234.598z M96.759,226.816L96.759,226.816L96.759,226.816z"/><g><path style="fill:#7C7B7A;" d="M215.85,80.896c-2.253,0-4.301-1.536-4.915-3.789c-0.717-2.765,0.819-5.53,3.584-6.246 c3.891-1.024,7.885-2.048,11.981-2.765c2.765-0.512,5.427,1.229,6.042,4.096c0.512,2.765-1.229,5.427-4.096,6.042 c-3.891,0.717-7.68,1.638-11.264,2.662C216.669,80.896,216.26,80.896,215.85,80.896z"/><path style="fill:#7C7B7A;" d="M125.021,214.118c-0.614,0-1.331-0.102-1.946-0.41c-2.56-1.126-3.789-4.096-2.765-6.758 c9.523-22.63,17.408-45.568,23.142-68.198c6.349-24.883,20.685-43.827,42.496-56.32c2.458-1.434,5.632-0.512,6.963,1.843 c1.434,2.458,0.512,5.632-1.843,6.963c-19.354,11.059-32.051,27.955-37.683,49.971c-5.939,23.142-13.926,46.49-23.654,69.632 C128.912,212.89,126.967,214.118,125.021,214.118z"/></g><g><path style="fill:#221F1F;" d="M375.492,91.034c-1.331,0-2.56-0.512-3.584-1.434c-1.638-1.638-3.379-3.174-5.12-4.71 c-2.15-1.843-2.355-5.12-0.512-7.168c1.843-2.15,5.12-2.355,7.168-0.512c1.946,1.638,3.891,3.379,5.632,5.222 c2.048,1.946,2.048,5.222,0,7.27C378.052,90.522,376.72,91.034,375.492,91.034z"/><path style="fill:#221F1F;" d="M265.821,189.747c-2.867,0-5.12-2.253-5.12-5.12v-67.174c0-2.867,2.253-5.12,5.12-5.12 s5.12,2.253,5.12,5.12v67.174C270.941,187.494,268.586,189.747,265.821,189.747z"/></g><path style="fill:#FFB69F;" d="M156.56,308.326h-6.246c-14.541,0-26.214-11.776-26.214-26.214v-6.144 c0-14.541,11.776-26.214,26.214-26.214h6.246V308.326z"/><path style="fill:#221F1F;" d="M156.56,313.446h-6.246c-17.306,0-31.334-14.029-31.334-31.334v-6.144 c0-17.306,14.029-31.334,31.334-31.334h6.246c2.867,0,5.12,2.253,5.12,5.12v58.675C161.68,311.194,159.428,313.446,156.56,313.446z M150.314,254.771c-11.674,0-21.094,9.523-21.094,21.094v6.144c0,11.674,9.523,21.094,21.094,21.094h1.126v-48.435h-1.126V254.771z" /><path style="fill:#FFB69F;" d="M374.98,249.651h6.246c14.541,0,26.214,11.776,26.214,26.214v6.144 c0,14.541-11.776,26.214-26.214,26.214h-6.246V249.651z"/><g><path style="fill:#221F1F;" d="M381.226,313.446h-6.246c-2.867,0-5.12-2.253-5.12-5.12v-58.675c0-2.867,2.253-5.12,5.12-5.12h6.246 c17.306,0,31.334,14.029,31.334,31.334v6.144C412.56,299.418,398.532,313.446,381.226,313.446z M380.1,303.206h1.126 c11.674,0,21.094-9.523,21.094-21.094v-6.144c0-11.674-9.523-21.094-21.094-21.094H380.1V303.206z"/><path style="fill:#221F1F;" d="M156.56,284.16h-8.602c-2.867,0-5.12-2.253-5.12-5.12s2.253-5.12,5.12-5.12h8.602 c2.867,0,5.12,2.253,5.12,5.12S159.428,284.16,156.56,284.16z"/><path style="fill:#221F1F;" d="M383.581,284.16h-8.602c-2.867,0-5.12-2.253-5.12-5.12s2.253-5.12,5.12-5.12h8.602 c2.867,0,5.12,2.253,5.12,5.12S386.448,284.16,383.581,284.16z"/></g><path style="fill:#F0C020;" d="M152.26,33.382l4.403-1.229l-4.403-1.229c-10.445-2.867-18.534-11.059-21.402-21.402l-1.331-4.403 l-1.229,4.403c-2.867,10.445-11.059,18.534-21.402,21.402l-4.403,1.229l4.403,1.229c10.445,2.867,18.534,11.059,21.402,21.402 l1.229,4.403l1.229-4.403C133.623,44.339,141.815,36.25,152.26,33.382z"/><path style="fill:#221F1F;" d="M129.527,64.307c-2.253,0-4.301-1.536-4.915-3.789l-1.229-4.403 c-2.355-8.602-9.216-15.462-17.818-17.818l-4.403-1.229c-2.253-0.614-3.789-2.662-3.789-4.915s1.536-4.301,3.789-4.915l4.403-1.229 c8.602-2.355,15.462-9.216,17.818-17.818l1.229-4.403C125.226,1.536,127.274,0,129.527,0c2.253,0,4.301,1.536,4.915,3.789 l1.229,4.403c2.355,8.602,9.216,15.462,17.818,17.818l4.403,1.229c2.253,0.614,3.789,2.662,3.789,4.915s-1.536,4.301-3.789,4.915 l-4.403,1.229c-8.602,2.355-15.462,9.216-17.818,17.818l-1.229,4.403C133.93,62.771,131.882,64.307,129.527,64.307z M117.034,32.154 c5.12,3.072,9.523,7.373,12.595,12.595c3.072-5.12,7.373-9.523,12.595-12.595c-5.12-3.072-9.523-7.373-12.595-12.595 C126.455,24.678,122.154,29.082,117.034,32.154z"/><path style="fill:#AFAFAF;" d="M287.12,49.766c16.998-16.998,44.544-16.998,61.542,0l66.97,66.97 c16.998,16.998,16.998,44.544,0,61.542L287.12,49.766z"/><g><path style="fill:#221F1F;" d="M415.632,183.398c-1.331,0-2.662-0.512-3.584-1.536L283.536,53.35c-2.048-2.048-2.048-5.222,0-7.27 c9.216-9.216,21.402-14.234,34.406-14.234s25.19,5.018,34.406,14.234l66.97,66.97c9.216,9.216,14.234,21.402,14.234,34.406 c0,13.005-5.018,25.19-14.234,34.406C418.295,182.886,416.964,183.398,415.632,183.398z M294.596,49.971l120.832,120.832 c5.12-6.656,7.885-14.746,7.885-23.245c0-10.24-3.994-19.866-11.264-27.136l-66.97-67.072c-7.27-7.27-16.896-11.264-27.136-11.264 C309.341,42.086,301.252,44.851,294.596,49.971z"/><path style="fill:#221F1F;" d="M260.292,81.613c-1.331,0-2.662-0.512-3.584-1.536c-2.048-2.048-2.048-5.222,0-7.27l26.829-26.726 c2.048-2.048,5.222-2.048,7.27,0c2.048,2.048,2.048,5.222,0,7.27L263.978,80.18C262.954,81.101,261.623,81.613,260.292,81.613z"/><path style="fill:#221F1F;" d="M274.628,95.949c-1.331,0-2.662-0.512-3.584-1.536c-2.048-2.048-2.048-5.222,0-7.27l26.726-26.726 c2.048-2.048,5.222-2.048,7.27,0s2.048,5.222,0,7.27l-26.829,26.829C277.188,95.437,275.959,95.949,274.628,95.949z"/><path style="fill:#221F1F;" d="M288.861,110.182c-1.331,0-2.662-0.512-3.584-1.536c-2.048-2.048-2.048-5.222,0-7.27l26.829-26.829 c2.048-2.048,5.222-2.048,7.27,0s2.048,5.222,0,7.27l-26.829,26.829C291.524,109.67,290.192,110.182,288.861,110.182z"/><path style="fill:#221F1F;" d="M303.197,124.518c-1.331,0-2.662-0.512-3.584-1.536c-2.048-2.048-2.048-5.222,0-7.27l26.829-26.829 c2.048-2.048,5.222-2.048,7.27,0c2.048,2.048,2.048,5.222,0,7.27l-26.829,26.829C305.757,124.006,304.426,124.518,303.197,124.518z "/><path style="fill:#221F1F;" d="M317.431,138.752c-1.331,0-2.662-0.512-3.584-1.536c-2.048-2.048-2.048-5.222,0-7.27l26.829-26.829 c2.048-2.048,5.222-2.048,7.27,0s2.048,5.222,0,7.27l-26.829,26.829C320.093,138.24,318.762,138.752,317.431,138.752z"/><path style="fill:#221F1F;" d="M331.767,152.986c-1.331,0-2.662-0.512-3.584-1.536c-2.048-2.048-2.048-5.222,0-7.27l26.829-26.829 c2.048-2.048,5.222-2.048,7.27,0s2.048,5.222,0,7.27l-26.931,26.931C334.327,152.576,332.996,152.986,331.767,152.986z"/><path style="fill:#221F1F;" d="M346,167.322c-1.331,0-2.662-0.512-3.584-1.536c-2.048-2.048-2.048-5.222,0-7.27l26.829-26.829 c2.048-2.048,5.222-2.048,7.27,0c2.048,2.048,2.048,5.222,0,7.27l-26.829,26.829C348.663,166.81,347.332,167.322,346,167.322z"/><path style="fill:#221F1F;" d="M360.336,181.555c-1.331,0-2.662-0.512-3.584-1.536c-2.048-2.048-2.048-5.222,0-7.27l26.829-26.829 c2.048-2.048,5.222-2.048,7.27,0c2.048,2.048,2.048,5.222,0,7.27l-26.829,26.829C362.896,181.146,361.565,181.555,360.336,181.555z "/><path style="fill:#221F1F;" d="M374.57,195.891c-1.331,0-2.662-0.512-3.584-1.536c-2.048-2.048-2.048-5.222,0-7.27l26.829-26.829 c2.048-2.048,5.222-2.048,7.27,0c2.048,2.048,2.048,5.222,0,7.27l-26.829,26.829C377.232,195.379,375.901,195.891,374.57,195.891z" /><path style="fill:#221F1F;" d="M388.906,210.125c-1.331,0-2.662-0.512-3.584-1.536c-2.048-2.048-2.048-5.222,0-7.27l26.829-26.829 c2.048-2.048,5.222-2.048,7.27,0c2.048,2.048,2.048,5.222,0,7.27l-26.829,26.829C391.466,209.613,390.135,210.125,388.906,210.125z "/></g><path style="fill:#AFAFAF;" d="M409.693,106.394l-2.15,2.15l-50.79-50.79l2.15-2.15c9.83-9.83,25.702-9.83,35.43,0l15.36,15.36 C419.524,80.794,419.524,96.666,409.693,106.394z"/><path style="fill:#221F1F;" d="M407.543,113.766c-1.331,0-2.662-0.512-3.584-1.536l-50.79-50.79c-2.048-2.048-2.048-5.222,0-7.27 l2.15-2.15c5.734-5.734,13.312-8.806,21.402-8.806s15.667,3.174,21.402,8.806l15.36,15.36c11.776,11.776,11.776,30.925,0,42.701l0,0 l-2.15,2.15C410.205,113.152,408.874,113.766,407.543,113.766z M364.023,57.856l43.418,43.418 c6.349-7.885,5.939-19.456-1.331-26.726l-15.36-15.36c-3.789-3.789-8.806-5.837-14.131-5.837 C372.01,53.453,367.607,54.989,364.023,57.856z"/><path style="fill:#464A51;" d="M120.925,381.645l24.474-47.616l0,0c-22.835-19.456-51.712-19.456-74.445,0l0,0l24.474,47.616 H120.925z"/><path style="fill:#AFAFAF;" d="M120.925,381.645v116.941c0,4.608-3.686,8.294-8.294,8.294h-9.011c-4.608,0-8.294-3.686-8.294-8.294 V381.645"/><path style="fill:#221F1F;" d="M120.925,386.765h-25.6c-1.946,0-3.686-1.024-4.506-2.765l-24.474-47.616 c-1.126-2.15-0.614-4.71,1.229-6.246c24.678-20.992,56.525-20.992,81.101,0c1.843,1.536,2.355,4.096,1.229,6.246L125.431,384 C124.612,385.638,122.768,386.765,120.925,386.765z M98.397,376.525h19.354l21.094-41.062c-19.251-14.438-42.291-14.438-61.542,0 L98.397,376.525z"/><path style="fill:#F0C020;" d="M135.568,352.973l9.728-18.944l0,0c-22.835-19.456-51.712-19.456-74.445,0l0,0l9.728,18.944 C98.192,342.835,118.058,342.835,135.568,352.973z"/><g><path style="fill:#221F1F;" d="M135.568,358.093c-0.922,0-1.741-0.205-2.56-0.717c-16.077-9.318-33.792-9.318-49.869,0 c-1.229,0.717-2.662,0.922-3.994,0.512c-1.331-0.41-2.458-1.331-3.072-2.56l-9.728-18.944c-1.126-2.15-0.614-4.71,1.229-6.246 c24.678-20.992,56.525-20.992,81.101,0c1.843,1.536,2.355,4.096,1.229,6.246l-9.728,18.944c-0.614,1.229-1.741,2.15-3.072,2.56 C136.592,357.99,136.08,358.093,135.568,358.093z M108.125,340.275c8.602,0,17.203,1.946,25.293,5.837l5.427-10.65 c-19.251-14.438-42.291-14.438-61.542,0l5.427,10.65C90.922,342.221,99.524,340.275,108.125,340.275z"/><path style="fill:#221F1F;" d="M112.631,512h-9.011c-7.373,0-13.414-6.042-13.414-13.414V381.645c0-2.867,2.253-5.12,5.12-5.12 s5.12,2.253,5.12,5.12v116.941c0,1.741,1.434,3.174,3.174,3.174h9.011c1.741,0,3.174-1.434,3.174-3.174V381.645 c0-2.867,2.253-5.12,5.12-5.12s5.12,2.253,5.12,5.12v116.941C126.045,505.958,120.004,512,112.631,512z"/></g><path style="fill:#231F20;" d="M237.968,270.643c-1.536,0-3.072-0.717-4.096-2.048c-4.403-5.837-11.059-9.216-18.33-9.216 c-0.102,0-0.205,0-0.307,0c-7.168,0.102-13.824,3.482-18.125,9.216c-1.638,2.253-4.915,2.765-7.168,1.024 c-2.253-1.638-2.765-4.915-1.024-7.168c6.246-8.397,16.179-13.414,26.624-13.414c0.102,0,0.205,0,0.307,0 c10.342,0.102,20.173,5.12,26.317,13.414c1.638,2.253,1.229,5.427-1.024,7.168C240.119,270.336,239.095,270.643,237.968,270.643z"/><path style="fill:#F2203A;" d="M265.821,381.44c-0.102,0-0.205,0-0.307,0c-9.933-0.102-19.456-4.915-25.395-13.005 c-1.638-2.253-1.229-5.427,1.024-7.168c2.253-1.638,5.427-1.229,7.168,1.024c4.198,5.632,10.547,8.806,17.51,8.806 c0.102,0,0.205,0,0.205,0c6.861-0.102,13.107-3.277,17.203-8.806c1.638-2.253,4.915-2.765,7.168-1.024 c2.253,1.638,2.765,4.915,1.024,7.168C285.482,376.627,275.856,381.44,265.821,381.44z"/><circle style="fill:#231F20;" cx="215.541" cy="282.11" r="10.04"/><g><ellipse style="fill:#FF7364;" cx="215.541" cy="312.52" rx="22.528" ry="11.469"/><ellipse style="fill:#FF7364;" cx="316.101" cy="312.52" rx="22.528" ry="11.469"/></g><g><path style="fill:#231F20;" d="M338.525,270.643c-1.536,0-3.072-0.717-4.096-2.048c-4.403-5.837-11.059-9.216-18.33-9.216 c-0.102,0-0.205,0-0.307,0c-7.168,0.102-13.824,3.482-18.125,9.216c-1.638,2.253-4.915,2.765-7.168,1.024 c-2.253-1.638-2.765-4.915-1.024-7.168c6.246-8.397,16.179-13.414,26.624-13.414c0.102,0,0.205,0,0.307,0 c10.342,0.102,20.173,5.12,26.317,13.414c1.638,2.253,1.229,5.427-1.024,7.168C340.676,270.336,339.652,270.643,338.525,270.643z" /><circle style="fill:#231F20;" cx="316.101" cy="282.11" r="10.04"/><path style="fill:#231F20;" d="M265.821,346.112L265.821,346.112c-4.301,0-8.192-1.946-10.854-5.325l-4.813-6.246 c-1.741-2.253-1.331-5.427,0.922-7.168c2.253-1.741,5.427-1.331,7.168,0.922l4.813,6.246c0.922,1.126,2.048,1.331,2.662,1.331 s1.843-0.205,2.662-1.331l4.813-6.246c1.741-2.253,4.915-2.662,7.168-0.922s2.662,4.915,0.922,7.168l-4.813,6.246 C274.013,344.166,270.02,346.112,265.821,346.112z"/></g></svg>