<!-- icon666.com - MILLIONS OF FREE VECTOR ICONS --><svg version="1.1" id="Capa_1" xmlns="http://www.w3.org/2000/svg" xmlns:xlink="http://www.w3.org/1999/xlink" x="0px" y="0px" viewBox="0 0 512 512" style="enable-background:new 0 0 512 512;" xml:space="preserve"><path style="fill:#4D4A46;" d="M126.976,506.88c22.221,0,40.243-18.022,40.243-40.346V256.41c0-22.323,18.022-40.346,40.243-40.346 h-81.101c-22.221,0-40.243,18.022-40.243,40.346v210.227c0,22.323-18.022,40.346-40.243,40.346h81.101V506.88z"/><path style="fill:#35322F;" d="M126.464,216.064c-22.221,0-40.243,18.022-40.243,40.346v35.226 c11.059,14.95,28.877,24.678,48.947,24.678h6.656c0.41,0,0.922,0,1.331,0c13.619,0.614,24.166,12.186,24.166,25.805v-94.106 c0-13.926,18.022-32.051,40.243-32.051h-81.101L126.464,216.064L126.464,216.064z"/><g><path style="fill:#211E1F;" d="M126.976,512H45.875c-2.867,0-5.12-2.253-5.12-5.12s2.253-5.12,5.12-5.12 c19.354,0,35.123-15.77,35.123-35.226v-30.31c0-2.867,2.253-5.12,5.12-5.12s5.12,2.253,5.12,5.12v30.413 c0,14.234-6.554,26.829-16.691,35.226h52.429c19.354,0,35.123-15.77,35.123-35.226V256.41c0-14.234,6.554-26.829,16.691-35.226 h-52.429c-19.354,0-35.123,15.77-35.123,35.226v51.712c0,2.867-2.253,5.12-5.12,5.12s-5.12-2.253-5.12-5.12V256.41 c0-25.088,20.378-45.466,45.363-45.466h81.101c2.867,0,5.12,2.253,5.12,5.12s-2.253,5.12-5.12,5.12 c-19.354,0-35.123,15.77-35.123,35.226v210.227C172.442,491.622,152.064,512,126.976,512z"/><path style="fill:#211E1F;" d="M86.118,419.84c-2.867,0-5.12-2.253-5.12-5.12v-60.416c0-2.867,2.253-5.12,5.12-5.12 s5.12,2.253,5.12,5.12v60.416C91.238,417.587,88.986,419.84,86.118,419.84z"/><path style="fill:#211E1F;" d="M86.118,340.48c-2.867,0-5.12-2.253-5.12-5.12v-5.632c0-2.867,2.253-5.12,5.12-5.12 s5.12,2.253,5.12,5.12v5.632C91.238,338.227,88.986,340.48,86.118,340.48z"/></g><path style="fill:#F8B39E;" d="M167.219,436.224V323.072c0-13.619-10.547-25.19-24.166-25.805c-0.41,0-0.922,0-1.331,0h-6.656 c-33.69,0-60.928-27.341-60.928-61.03v-24.474c0-4.403-3.584-7.885-7.885-7.885h-3.994c-6.246,0-10.035-6.758-6.758-12.083 l11.162-18.227c4.915-7.987,7.475-17.101,7.475-26.419V84.685c0-43.93,35.635-79.565,79.462-79.565l0,0h138.547v431.104"/><path style="fill:#E98E7E;" d="M292.147,132.403V5.12H153.6c-43.827,0-79.462,35.635-79.462,79.565v47.821h218.01v-0.103H292.147z" /><path style="fill:#211E1F;" d="M292.147,441.344c-2.867,0-5.12-2.253-5.12-5.12V10.24H153.6c-40.96,0-74.342,33.382-74.342,74.445 v62.464c0,10.342-2.867,20.378-8.192,29.184L59.904,194.56c-0.819,1.229-0.307,2.458-0.102,2.867 c0.205,0.41,0.922,1.434,2.458,1.434h3.994c7.168,0,13.005,5.837,13.005,13.005v24.474c0,30.822,25.088,55.91,55.808,55.91h6.656 c0.512,0,1.024,0,1.536,0c16.282,0.717,29.082,14.234,29.082,30.925v113.05c0,2.867-2.253,5.12-5.12,5.12s-5.12-2.253-5.12-5.12 V323.072c0-11.162-8.499-20.173-19.251-20.685c-0.41,0-0.717,0-1.126,0h-6.656c-36.454,0-66.048-29.696-66.048-66.15v-24.474 c0-1.536-1.229-2.765-2.765-2.765h-3.994c-4.813,0-9.011-2.458-11.366-6.656c-2.355-4.198-2.253-9.114,0.307-13.21l11.162-18.227 c4.403-7.168,6.758-15.36,6.758-23.757V84.685C69.018,37.99,107.008,0,153.6,0h138.547c2.867,0,5.12,2.253,5.12,5.12v431.104 C297.267,438.989,294.912,441.344,292.147,441.344z"/><path style="fill:#4D4A46;" d="M379.597,431.821V101.99c0-53.453-43.315-96.87-96.666-96.87H153.6 c-43.827,0-79.462,35.635-79.462,79.565v27.546h57.139c23.04,0,41.779,18.739,41.779,41.882v33.792 c0,20.173,16.282,36.454,36.454,36.454l0,0c10.547,0,19.046,8.499,19.046,19.046v188.416c0,41.472,33.587,75.059,74.957,75.059 h151.04C413.184,506.88,379.597,473.293,379.597,431.821z"/><g><path style="fill:#7D7B7A;" d="M282.829,30.72h-3.789c-2.867,0-5.12-2.253-5.12-5.12s2.253-5.12,5.12-5.12h3.789 c2.867,0,5.12,2.253,5.12,5.12S285.696,30.72,282.829,30.72z"/><path style="fill:#7D7B7A;" d="M94.618,96.87c-2.867,0-5.12-2.253-5.12-5.12v-7.066c0-35.43,28.774-64.205,64.102-64.205h105.472 c2.867,0,5.12,2.253,5.12,5.12s-2.253,5.12-5.12,5.12H153.6c-29.696,0-53.862,24.166-53.862,53.965v7.066 C99.738,94.618,97.485,96.87,94.618,96.87z"/></g><path style="fill:#211E1F;" d="M454.554,512h-151.04c-44.134,0-80.077-35.942-80.077-80.179V243.405 c0-7.68-6.246-13.926-13.926-13.926c-22.938,0-41.574-18.637-41.574-41.574v-33.792c0-20.275-16.486-36.762-36.659-36.762h-57.14 c-2.867,0-5.12-2.253-5.12-5.12V84.685C69.018,37.99,107.008,0,153.6,0h129.229c56.115,0,101.786,45.773,101.786,101.99v329.933 c0,38.605,31.334,69.939,69.837,69.939c2.867,0,5.12,2.253,5.12,5.12S457.318,512,454.554,512z M79.258,107.11h52.019 c25.907,0,46.899,21.094,46.899,47.002v33.792c0,17.306,14.029,31.334,31.334,31.334c13.312,0,24.166,10.854,24.166,24.166V431.82 c0,38.605,31.334,69.939,69.837,69.939h111.923c-24.371-13.722-40.96-39.936-40.96-69.939V101.99 c0-50.586-41.062-91.75-91.546-91.75H153.6c-40.96,0-74.342,33.382-74.342,74.445V107.11z"/><g><path style="fill:#7D7B7A;" d="M255.181,411.238c-2.867,0-5.12-2.253-5.12-5.12V187.29c0-2.867,2.253-5.12,5.12-5.12 c2.867,0,5.12,2.253,5.12,5.12v218.829C260.301,408.883,257.946,411.238,255.181,411.238z"/><path style="fill:#7D7B7A;" d="M282.931,411.238c-2.867,0-5.12-2.253-5.12-5.12V187.29c0-2.867,2.253-5.12,5.12-5.12 s5.12,2.253,5.12,5.12v218.829C288.051,408.883,285.798,411.238,282.931,411.238z"/><path style="fill:#7D7B7A;" d="M309.146,411.238c-2.867,0-5.12-2.253-5.12-5.12V187.29c0-2.867,2.253-5.12,5.12-5.12 s5.12,2.253,5.12,5.12v218.829C314.266,408.883,312.013,411.238,309.146,411.238z"/><path style="fill:#7D7B7A;" d="M309.146,167.322c-2.867,0-5.12-2.253-5.12-5.12v-4.71c0-2.867,2.253-5.12,5.12-5.12 s5.12,2.253,5.12,5.12v4.71C314.266,164.966,312.013,167.322,309.146,167.322z"/></g><path style="fill:#AEAEAF;" d="M474.829,283.238H247.91c-17.715,0-32.051,14.336-32.051,32.154v4.915 c0,17.715,14.336,32.154,32.051,32.154h226.918c17.715,0,32.051-14.336,32.051-32.154v-4.915 C506.88,297.677,492.544,283.238,474.829,283.238z"/><path style="fill:#211E1F;" d="M474.829,357.581H247.91c-20.48,0-37.171-16.691-37.171-37.274v-4.915 c0-20.48,16.691-37.274,37.171-37.274h226.918c20.48,0,37.171,16.691,37.171,37.274v4.915 C512,340.787,495.309,357.581,474.829,357.581z M247.91,288.358c-14.848,0-26.931,12.083-26.931,27.034v4.915 c0,14.848,12.083,27.034,26.931,27.034h226.918c14.848,0,26.931-12.083,26.931-27.034v-4.915c0-14.848-12.083-27.034-26.931-27.034 H247.91z"/><path style="fill:#EFEEEE;" d="M247.91,337.101c-9.216,0-16.691-7.475-16.691-16.794v-4.915c0-9.216,7.475-16.794,16.691-16.794 h53.658c2.867,0,5.12,2.253,5.12,5.12s-2.253,5.12-5.12,5.12H247.91c-3.584,0-6.451,2.97-6.451,6.554v4.915 c0,3.584,2.867,6.554,6.451,6.554c2.867,0,5.12,2.253,5.12,5.12S250.675,337.101,247.91,337.101z"/><path style="fill:#211E1F;" d="M474.829,357.581h-74.65c-2.867,0-5.12-2.253-5.12-5.12v-69.12c0-2.867,2.253-5.12,5.12-5.12h74.65 c20.48,0,37.171,16.691,37.171,37.274v4.915C512,340.787,495.309,357.581,474.829,357.581z M405.299,347.341h69.53 c14.848,0,26.931-12.083,26.931-27.034v-4.915c0-14.848-12.083-27.034-26.931-27.034h-69.53V347.341z"/><ellipse style="fill:#F05E40;" cx="434.79" cy="317.85" rx="12.08" ry="12.08"/><path style="fill:#211E1F;" d="M434.79,335.053c-9.523,0-17.203-7.68-17.203-17.203s7.68-17.203,17.203-17.203 s17.203,7.68,17.203,17.203S444.211,335.053,434.79,335.053z M434.79,310.886c-3.891,0-6.963,3.174-6.963,6.963 s3.174,6.963,6.963,6.963s6.963-3.174,6.963-6.963S438.579,310.886,434.79,310.886z"/><ellipse style="fill:#F05E40;" cx="458.96" cy="317.85" rx="12.08" ry="12.08"/><path style="fill:#211E1F;" d="M458.957,335.053c-9.523,0-17.203-7.68-17.203-17.203s7.68-17.203,17.203-17.203 s17.203,7.68,17.203,17.203S468.378,335.053,458.957,335.053z M458.957,310.886c-3.891,0-6.963,3.174-6.963,6.963 s3.174,6.963,6.963,6.963s6.963-3.174,6.963-6.963S462.746,310.886,458.957,310.886z"/><g><path style="fill:#7D7B7A;" d="M282.931,167.322c-2.867,0-5.12-2.253-5.12-5.12v-4.71c0-2.867,2.253-5.12,5.12-5.12 s5.12,2.253,5.12,5.12v4.71C288.051,164.966,285.798,167.322,282.931,167.322z"/><path style="fill:#7D7B7A;" d="M255.181,167.322c-2.867,0-5.12-2.253-5.12-5.12v-4.71c0-2.867,2.253-5.12,5.12-5.12 c2.867,0,5.12,2.253,5.12,5.12v4.71C260.301,164.966,257.946,167.322,255.181,167.322z"/></g><path style="fill:#EEBE1F;" d="M237.056,77.005l4.403-1.229l-4.403-1.229c-10.445-2.867-18.534-11.059-21.402-21.402l-1.229-4.403 l-1.229,4.403C210.33,63.59,202.24,71.68,191.795,74.547l-4.403,1.229l4.403,1.229c10.445,2.867,18.534,11.059,21.402,21.402 l1.229,4.403l1.229-4.403C218.624,87.962,226.714,79.872,237.056,77.005z"/><path style="fill:#211E1F;" d="M214.528,107.93c-2.253,0-4.301-1.536-4.915-3.789l-1.229-4.403 c-2.355-8.602-9.216-15.462-17.818-17.818l-4.403-1.229c-2.253-0.614-3.789-2.662-3.789-4.915s1.536-4.301,3.789-4.915l4.301-1.229 c8.602-2.355,15.462-9.216,17.818-17.818l1.229-4.403c0.614-2.253,2.662-3.789,4.915-3.789c2.253,0,4.301,1.536,4.915,3.789 l1.229,4.403c2.355,8.602,9.216,15.462,17.818,17.818l4.403,1.229c2.253,0.614,3.789,2.662,3.789,4.915s-1.536,4.301-3.789,4.915 l-4.403,1.229l0,0c-8.602,2.355-15.462,9.216-17.818,17.818l-1.229,4.403C218.829,106.394,216.781,107.93,214.528,107.93z M201.933,75.776c5.12,3.072,9.523,7.373,12.595,12.595c3.072-5.12,7.373-9.523,12.595-12.595 c-5.12-3.072-9.523-7.373-12.595-12.595C211.456,68.403,207.053,72.704,201.933,75.776z"/><path style="fill:#EEBE1F;" d="M402.842,180.019l4.403-1.229l-4.403-1.229c-10.445-2.867-18.534-11.059-21.402-21.402l-1.229-4.403 l-1.229,4.403c-2.867,10.445-10.957,18.534-21.402,21.402l-4.403,1.229l4.403,1.229c10.445,2.867,18.534,11.059,21.402,21.402 l1.229,4.403l1.229-4.403C384.307,191.078,392.397,182.989,402.842,180.019z"/><path style="fill:#211E1F;" d="M380.211,210.944c-2.253,0-4.301-1.536-4.915-3.789l-1.229-4.403 c-2.355-8.602-9.216-15.462-17.818-17.818l-4.403-1.229c-2.253-0.614-3.789-2.662-3.789-4.915c0-2.253,1.536-4.301,3.789-4.915 l4.403-1.229c8.602-2.355,15.462-9.216,17.818-17.818l1.229-4.403c0.614-2.253,2.662-3.789,4.915-3.789s4.301,1.536,4.915,3.789 l1.229,4.403c2.355,8.602,9.216,15.462,17.818,17.818l4.403,1.229c2.253,0.614,3.789,2.662,3.789,4.915 c0,2.253-1.536,4.301-3.789,4.915l-4.403,1.229l0,0c-8.602,2.355-15.462,9.216-17.818,17.818l-1.229,4.403 C384.512,209.408,382.464,210.944,380.211,210.944z M367.616,178.893c5.12,3.072,9.523,7.373,12.595,12.595 c3.072-5.12,7.373-9.523,12.595-12.595c-5.12-3.072-9.523-7.373-12.595-12.595C377.139,171.418,372.838,175.821,367.616,178.893z"/><path style="fill:#AEAEAF;" d="M28.16,248.013c-12.698,0-23.04,10.342-23.04,23.04V483.84c0,12.698,10.342,23.04,23.04,23.04 v-88.269V248.013z"/><g><path style="fill:#211E1F;" d="M28.16,512C12.595,512,0,499.405,0,483.84V271.053c0-15.565,12.595-28.16,28.16-28.16 c2.867,0,5.12,2.253,5.12,5.12V506.88C33.28,509.747,30.925,512,28.16,512z M23.04,253.85c-7.373,2.253-12.8,9.011-12.8,17.101 v212.787c0,8.09,5.427,14.95,12.8,17.101V253.85z"/><path style="fill:#211E1F;" d="M50.381,253.133H28.16c-2.867,0-5.12-2.253-5.12-5.12s2.253-5.12,5.12-5.12h22.221 c2.867,0,5.12,2.253,5.12,5.12S53.146,253.133,50.381,253.133z"/><path style="fill:#211E1F;" d="M50.381,274.534H28.16c-2.867,0-5.12-2.253-5.12-5.12s2.253-5.12,5.12-5.12h22.221 c2.867,0,5.12,2.253,5.12,5.12S53.146,274.534,50.381,274.534z"/><path style="fill:#211E1F;" d="M50.381,295.936H28.16c-2.867,0-5.12-2.253-5.12-5.12s2.253-5.12,5.12-5.12h22.221 c2.867,0,5.12,2.253,5.12,5.12S53.146,295.936,50.381,295.936z"/><path style="fill:#211E1F;" d="M50.381,317.338H28.16c-2.867,0-5.12-2.253-5.12-5.12s2.253-5.12,5.12-5.12h22.221 c2.867,0,5.12,2.253,5.12,5.12S53.146,317.338,50.381,317.338z"/><path style="fill:#211E1F;" d="M50.381,338.739H28.16c-2.867,0-5.12-2.253-5.12-5.12s2.253-5.12,5.12-5.12h22.221 c2.867,0,5.12,2.253,5.12,5.12S53.146,338.739,50.381,338.739z"/><path style="fill:#211E1F;" d="M50.381,360.141H28.16c-2.867,0-5.12-2.253-5.12-5.12s2.253-5.12,5.12-5.12h22.221 c2.867,0,5.12,2.253,5.12,5.12S53.146,360.141,50.381,360.141z"/><path style="fill:#211E1F;" d="M50.381,381.542H28.16c-2.867,0-5.12-2.253-5.12-5.12s2.253-5.12,5.12-5.12h22.221 c2.867,0,5.12,2.253,5.12,5.12S53.146,381.542,50.381,381.542z"/><path style="fill:#211E1F;" d="M50.381,402.842H28.16c-2.867,0-5.12-2.253-5.12-5.12s2.253-5.12,5.12-5.12h22.221 c2.867,0,5.12,2.253,5.12,5.12S53.146,402.842,50.381,402.842z"/></g><path style="fill:#EFEEEE;" d="M323.277,308.838h-4.301c-2.867,0-5.12-2.253-5.12-5.12s2.253-5.12,5.12-5.12h4.301 c2.867,0,5.12,2.253,5.12,5.12S326.042,308.838,323.277,308.838z"/><ellipse style="fill:#F27366;" cx="113.97" cy="206.64" rx="22.528" ry="11.469"/><g><path style="fill:#221F1F;" d="M119.194,149.504c-1.536,0-3.072-0.717-4.096-2.048c-4.403-5.837-11.059-9.216-18.33-9.216 c-0.102,0-0.205,0-0.307,0c-7.168,0.102-13.824,3.482-18.125,9.216c-1.638,2.253-4.915,2.765-7.168,1.024 c-2.253-1.638-2.765-4.915-1.024-7.168c6.246-8.397,16.179-13.414,26.624-13.414c0.102,0,0.205,0,0.307,0 c10.342,0.102,20.173,5.12,26.317,13.414c1.638,2.253,1.229,5.427-1.024,7.168C121.242,149.197,120.218,149.504,119.194,149.504z" /><circle style="fill:#221F1F;" cx="95.54" cy="162" r="10.04"/></g></svg>