<!-- icon666.com - MILLIONS OF FREE VECTOR ICONS --><svg version="1.1" id="Capa_1" xmlns="http://www.w3.org/2000/svg" xmlns:xlink="http://www.w3.org/1999/xlink" x="0px" y="0px" viewBox="0 0 512 512" style="enable-background:new 0 0 512 512;" xml:space="preserve"><path style="fill:#4D4A46;" d="M132.863,506.88c22.221,0,40.243-18.022,40.243-40.346V256.41c0-22.323,18.022-40.346,40.243-40.346 h-81.1c-22.221,0-40.243,18.022-40.243,40.346v210.227c0,22.323-18.022,40.346-40.243,40.346h81.101v-0.103H132.863z"/><path style="fill:#35322F;" d="M132.146,216.064c-22.221,0-40.243,18.022-40.243,40.346v35.226 c11.059,14.95,28.877,24.678,48.947,24.678h6.656c0.41,0,0.922,0,1.331,0c13.619,0.614,24.166,12.186,24.166,25.805v-94.106 c0-13.926,18.022-32.051,40.243-32.051h-81.101L132.146,216.064L132.146,216.064z"/><path style="fill:#211E1F;" d="M132.863,512H51.66c-2.867,0-5.12-2.253-5.12-5.12s2.253-5.12,5.12-5.12 c19.354,0,35.123-15.77,35.123-35.226V256.41c0-25.088,20.378-45.466,45.363-45.466h81.101c2.867,0,5.12,2.253,5.12,5.12 s-2.253,5.12-5.12,5.12c-19.354,0-35.123,15.77-35.123,35.226v210.227C178.227,491.622,157.849,512,132.863,512z M80.434,501.76 h52.429c19.354,0,35.123-15.77,35.123-35.226V256.41c0-14.234,6.554-26.829,16.691-35.226h-52.428 c-19.354,0-35.123,15.77-35.123,35.226v210.227C97.125,480.768,90.572,493.466,80.434,501.76z"/><path style="fill:#F8B39E;" d="M173.106,436.224V323.072c0-13.619-10.547-25.19-24.166-25.805c-0.41,0-0.922,0-1.331,0h-6.656 c-33.69,0-60.928-27.341-60.928-61.03v-24.474c0-4.403-3.584-7.885-7.885-7.885h-3.994c-6.246,0-10.035-6.758-6.758-12.083 l11.162-18.227c4.915-7.987,7.475-17.101,7.475-26.419V84.685c0-43.93,35.533-79.565,79.462-79.565l0,0h138.547v431.104"/><path style="fill:#E98E7E;" d="M159.487,5.12c-43.827,0-79.462,35.635-79.462,79.565v61.133c0.41,0,0.717,0,1.126,0 c9.318,0,18.125-2.662,25.702-7.475c7.578,4.813,16.384,7.475,25.702,7.475c7.475,0,14.746-1.741,21.299-5.018 c2.97,3.686,4.608,8.294,4.608,13.312v33.792c0,30.925,24.781,56.115,55.501,56.934V431.82c0,1.434,0,2.867,0.102,4.301h83.968V5.12 H159.487L159.487,5.12z"/><path style="fill:#211E1F;" d="M297.932,441.344c-2.867,0-5.12-2.253-5.12-5.12V10.24H159.487c-40.96,0-74.342,33.382-74.342,74.445 v62.464c0,10.342-2.867,20.378-8.192,29.184L65.791,194.56c-0.819,1.229-0.307,2.458-0.102,2.867 c0.205,0.41,0.922,1.434,2.458,1.434h3.994c7.168,0,13.005,5.837,13.005,13.005v24.474c0,30.822,25.088,55.91,55.808,55.91h6.656 c0.512,0,1.024,0,1.536,0c16.282,0.717,29.082,14.234,29.082,30.925v113.05c0,2.867-2.253,5.12-5.12,5.12 c-2.867,0-5.12-2.253-5.12-5.12V323.072c0-11.162-8.499-20.173-19.251-20.685c-0.41,0-0.717,0-1.126,0h-6.656 c-36.454,0-66.048-29.696-66.048-66.15v-24.474c0-1.536-1.229-2.765-2.765-2.765h-3.994c-4.813,0-9.011-2.458-11.366-6.656 c-2.355-4.198-2.253-9.114,0.307-13.21l11.162-18.227c4.403-7.168,6.758-15.36,6.758-23.757V84.685 C75.007,37.99,112.895,0,159.589,0h138.547c2.867,0,5.12,2.253,5.12,5.12v431.104C303.052,438.989,300.799,441.344,297.932,441.344z "/><path style="fill:#4D4A46;" d="M385.381,431.821V101.99c0-53.453-43.315-96.87-96.666-96.87H159.487 c-43.827,0-79.462,35.635-79.462,79.565v27.546h57.139c23.04,0,41.779,18.739,41.779,41.882v33.792 c0,20.173,16.282,36.454,36.454,36.454l0,0c10.547,0,19.046,8.499,19.046,19.046v188.416c0,41.472,33.587,75.059,74.957,75.059 h151.04C418.969,506.88,385.381,473.293,385.381,431.821z"/><path style="fill:#211E1F;" d="M460.441,512h-151.04c-44.134,0-80.077-35.942-80.077-80.179V243.405 c0-7.68-6.246-13.926-13.926-13.926c-22.938,0-41.574-18.637-41.574-41.574v-33.792c0-20.275-16.486-36.762-36.659-36.762h-57.14 c-2.867,0-5.12-2.253-5.12-5.12V84.685C74.905,37.99,112.793,0,159.487,0h129.229c56.115,0,101.786,45.773,101.786,101.99v329.933 c0,38.605,31.334,69.939,69.837,69.939c2.867,0,5.12,2.253,5.12,5.12S463.205,512,460.441,512z M85.145,107.11h52.019 c25.907,0,46.899,21.094,46.899,47.002v33.792c0,17.306,14.029,31.334,31.334,31.334c13.312,0,24.166,10.854,24.166,24.166V431.82 c0,38.605,31.334,69.939,69.837,69.939h111.923c-24.371-13.722-40.96-39.936-40.96-69.939V101.99 c0-50.586-41.062-91.75-91.546-91.75h-129.33c-40.96,0-74.342,33.382-74.342,74.445V107.11z"/><g><circle style="fill:#4D4A46;" cx="385.489" cy="131.48" r="27.341"/><circle style="fill:#4D4A46;" cx="385.489" cy="186.16" r="27.341"/><circle style="fill:#4D4A46;" cx="81.149" cy="98" r="27.341"/></g><path style="fill:#211E1F;" d="M81.151,130.458c-17.92,0-32.461-14.541-32.461-32.461s14.541-32.461,32.461-32.461 c2.867,0,5.12,2.253,5.12,5.12s-2.253,5.12-5.12,5.12c-12.288,0-22.221,9.933-22.221,22.221s9.933,22.221,22.221,22.221 c7.782,0,14.95-3.994,18.944-10.65c1.434-2.458,4.608-3.174,7.066-1.741c2.458,1.434,3.174,4.608,1.741,7.066 C102.962,124.621,92.62,130.458,81.151,130.458z"/><circle style="fill:#4D4A46;" cx="132.559" cy="98" r="27.341"/><path style="fill:#211E1F;" d="M132.556,130.458c-17.92,0-32.461-14.541-32.461-32.461s14.541-32.461,32.461-32.461 c2.867,0,5.12,2.253,5.12,5.12s-2.253,5.12-5.12,5.12c-12.288,0-22.221,9.933-22.221,22.221s9.933,22.221,22.221,22.221 c7.782,0,14.95-3.994,18.944-10.65c1.434-2.458,4.608-3.174,7.066-1.741c2.458,1.433,3.174,4.608,1.741,7.066 C154.367,124.621,143.922,130.458,132.556,130.458z"/><g><circle style="fill:#4D4A46;" cx="385.489" cy="240.84" r="27.341"/><circle style="fill:#4D4A46;" cx="385.489" cy="295.53" r="27.341"/><circle style="fill:#4D4A46;" cx="385.489" cy="350.21" r="27.341"/><circle style="fill:#4D4A46;" cx="385.489" cy="404.89" r="27.341"/></g><g><path style="fill:#211E1F;" d="M385.484,437.35c-17.92,0-32.461-14.541-32.461-32.461c0-2.867,2.253-5.12,5.12-5.12 s5.12,2.253,5.12,5.12c0,12.288,9.933,22.221,22.221,22.221s22.221-9.933,22.221-22.221s-9.933-22.221-22.221-22.221 c-2.867,0-5.12-2.253-5.12-5.12s2.253-5.12,5.12-5.12c17.92,0,32.461,14.541,32.461,32.461 C417.945,422.81,403.301,437.35,385.484,437.35z"/><path style="fill:#211E1F;" d="M385.484,382.669c-17.92,0-32.461-14.541-32.461-32.461c0-2.867,2.253-5.12,5.12-5.12 s5.12,2.253,5.12,5.12c0,12.288,9.933,22.221,22.221,22.221s22.221-9.933,22.221-22.221s-9.933-22.221-22.221-22.221 c-2.867,0-5.12-2.253-5.12-5.12s2.253-5.12,5.12-5.12c17.92,0,32.461,14.541,32.461,32.461 C417.945,368.128,403.301,382.669,385.484,382.669z"/><path style="fill:#211E1F;" d="M385.484,327.987c-17.92,0-32.461-14.541-32.461-32.461c0-2.867,2.253-5.12,5.12-5.12 s5.12,2.253,5.12,5.12c0,12.288,9.933,22.221,22.221,22.221s22.221-9.933,22.221-22.221s-9.933-22.221-22.221-22.221 c-2.867,0-5.12-2.253-5.12-5.12s2.253-5.12,5.12-5.12c17.92,0,32.461,14.541,32.461,32.461 C417.945,313.446,403.301,327.987,385.484,327.987z"/></g><g><circle style="fill:#4D4A46;" cx="91.899" cy="330.04" r="27.341"/><circle style="fill:#4D4A46;" cx="91.899" cy="384.72" r="27.341"/><circle style="fill:#4D4A46;" cx="91.899" cy="439.5" r="27.341"/></g><g><path style="fill:#211E1F;" d="M91.903,471.962c-17.92,0-32.461-14.541-32.461-32.461s14.541-32.461,32.461-32.461 c2.867,0,5.12,2.253,5.12,5.12s-2.253,5.12-5.12,5.12c-12.288,0-22.221,9.933-22.221,22.221s9.933,22.221,22.221,22.221 s22.221-9.933,22.221-22.221c0-2.867,2.253-5.12,5.12-5.12s5.12,2.253,5.12,5.12C124.364,457.318,109.721,471.962,91.903,471.962z" /><path style="fill:#211E1F;" d="M91.903,417.28c-17.92,0-32.461-14.541-32.461-32.461s14.541-32.563,32.461-32.563 c2.867,0,5.12,2.253,5.12,5.12s-2.253,5.12-5.12,5.12c-12.288,0-22.221,9.933-22.221,22.221s9.933,22.221,22.221,22.221 s22.221-9.933,22.221-22.221c0-2.867,2.253-5.12,5.12-5.12s5.12,2.253,5.12,5.12C124.364,402.637,109.721,417.28,91.903,417.28z"/><path style="fill:#211E1F;" d="M91.903,362.496c-17.92,0-32.461-14.541-32.461-32.461s14.541-32.461,32.461-32.461 c2.867,0,5.12,2.253,5.12,5.12s-2.253,5.12-5.12,5.12c-12.288,0-22.221,9.933-22.221,22.221s9.933,22.221,22.221,22.221 s22.221-9.933,22.221-22.221c0-2.867,2.253-5.12,5.12-5.12s5.12,2.253,5.12,5.12C124.364,347.955,109.721,362.496,91.903,362.496z" /></g><g><circle style="fill:#4D4A46;" cx="234.549" cy="283.34" r="27.341"/><circle style="fill:#4D4A46;" cx="234.549" cy="338.02" r="27.341"/><circle style="fill:#4D4A46;" cx="234.549" cy="392.7" r="27.341"/><circle style="fill:#4D4A46;" cx="234.549" cy="447.49" r="27.341"/></g><g><path style="fill:#211E1F;" d="M234.546,479.949c-17.92,0-32.461-14.541-32.461-32.461s14.541-32.461,32.461-32.461 c2.867,0,5.12,2.253,5.12,5.12s-2.253,5.12-5.12,5.12c-12.288,0-22.221,9.933-22.221,22.221s9.933,22.221,22.221,22.221 c12.288,0,22.221-9.933,22.221-22.221c0-2.867,2.253-5.12,5.12-5.12s5.12,2.253,5.12,5.12 C267.007,465.306,252.365,479.949,234.546,479.949z"/><path style="fill:#211E1F;" d="M234.546,425.165c-17.92,0-32.461-14.541-32.461-32.461s14.541-32.461,32.461-32.461 c2.867,0,5.12,2.253,5.12,5.12s-2.253,5.12-5.12,5.12c-12.288,0-22.221,9.933-22.221,22.221s9.933,22.221,22.221,22.221 c12.288,0,22.221-9.933,22.221-22.221c0-2.867,2.253-5.12,5.12-5.12s5.12,2.253,5.12,5.12 C267.007,410.624,252.365,425.165,234.546,425.165z"/><path style="fill:#211E1F;" d="M234.546,370.483c-17.92,0-32.461-14.541-32.461-32.461s14.541-32.461,32.461-32.461 c2.867,0,5.12,2.253,5.12,5.12s-2.253,5.12-5.12,5.12c-12.288,0-22.221,9.933-22.221,22.221s9.933,22.221,22.221,22.221 c12.288,0,22.221-9.933,22.221-22.221c0-2.867,2.253-5.12,5.12-5.12s5.12,2.253,5.12,5.12 C267.007,355.942,252.365,370.483,234.546,370.483z"/><path style="fill:#211E1F;" d="M234.546,315.802c-17.92,0-32.461-14.541-32.461-32.461c0-17.92,14.541-32.461,32.461-32.461 c2.867,0,5.12,2.253,5.12,5.12c0,2.867-2.253,5.12-5.12,5.12c-12.288,0-22.221,9.933-22.221,22.221s9.933,22.221,22.221,22.221 c12.288,0,22.221-9.933,22.221-22.221c0-2.867,2.253-5.12,5.12-5.12s5.12,2.253,5.12,5.12 C267.007,301.261,252.365,315.802,234.546,315.802z"/><path style="fill:#211E1F;" d="M385.484,273.306c-17.92,0-32.461-14.541-32.461-32.461c0-2.867,2.253-5.12,5.12-5.12 s5.12,2.253,5.12,5.12c0,12.288,9.933,22.221,22.221,22.221s22.221-9.933,22.221-22.221c0-12.288-9.933-22.221-22.221-22.221 c-2.867,0-5.12-2.253-5.12-5.12s2.253-5.12,5.12-5.12c17.92,0,32.461,14.541,32.461,32.461S403.301,273.306,385.484,273.306z"/><path style="fill:#211E1F;" d="M385.484,218.624c-17.92,0-32.461-14.541-32.461-32.461c0-2.867,2.253-5.12,5.12-5.12 s5.12,2.253,5.12,5.12c0,12.288,9.933,22.221,22.221,22.221s22.221-9.933,22.221-22.221c0-12.288-9.933-22.221-22.221-22.221 c-2.867,0-5.12-2.253-5.12-5.12s2.253-5.12,5.12-5.12c17.92,0,32.461,14.541,32.461,32.461S403.301,218.624,385.484,218.624z"/><path style="fill:#211E1F;" d="M385.484,163.942c-17.92,0-32.461-14.541-32.461-32.461c0-2.867,2.253-5.12,5.12-5.12 s5.12,2.253,5.12,5.12c0,12.288,9.933,22.221,22.221,22.221s22.221-9.933,22.221-22.221s-9.933-22.221-22.221-22.221 c-2.867,0-5.12-2.253-5.12-5.12s2.253-5.12,5.12-5.12c17.92,0,32.461,14.541,32.461,32.461S403.301,163.942,385.484,163.942z"/></g><g><path style="fill:#7D7B7A;" d="M288.716,30.72h-3.789c-2.867,0-5.12-2.253-5.12-5.12s2.253-5.12,5.12-5.12h3.789 c2.867,0,5.12,2.253,5.12,5.12S291.583,30.72,288.716,30.72z"/><path style="fill:#7D7B7A;" d="M108.492,60.109c-0.922,0-1.741-0.205-2.56-0.717c-2.458-1.434-3.277-4.608-1.843-6.963 c11.469-19.763,32.666-31.949,55.398-31.949h105.472c2.867,0,5.12,2.253,5.12,5.12s-2.253,5.12-5.12,5.12H159.487 c-19.046,0-36.864,10.24-46.49,26.829C111.973,59.187,110.233,60.109,108.492,60.109z"/></g><path style="fill:#EEBE1F;" d="M279.602,105.267l4.403-1.229l-4.403-1.229c-10.445-2.867-18.534-11.059-21.402-21.402l-1.229-4.403 l-1.229,4.403c-2.867,10.445-10.957,18.534-21.402,21.402l-4.403,1.229l4.403,1.229c10.445,2.867,18.534,11.059,21.402,21.402 l1.229,4.403l1.229-4.403C261.068,116.326,269.26,108.237,279.602,105.267z"/><path style="fill:#211E1F;" d="M256.972,136.192c-2.253,0-4.301-1.536-4.915-3.789L250.828,128 c-2.355-8.602-9.216-15.462-17.818-17.818l-4.403-1.229c-2.253-0.614-3.789-2.662-3.789-4.915s1.536-4.301,3.789-4.915l4.403-1.229 c8.602-2.355,15.462-9.216,17.818-17.818l1.229-4.403c0.614-2.253,2.662-3.789,4.915-3.789c2.253,0,4.301,1.536,4.915,3.789 l1.229,4.403c2.355,8.602,9.216,15.462,17.818,17.818l4.403,1.229c2.253,0.614,3.789,2.662,3.789,4.915s-1.536,4.301-3.789,4.915 l-4.403,1.229l0,0c-8.602,2.355-15.462,9.216-17.818,17.818l-1.229,4.403C261.375,134.656,259.327,136.192,256.972,136.192z M244.479,104.141c5.12,3.072,9.523,7.373,12.595,12.595c3.072-5.12,7.373-9.523,12.595-12.595 c-5.12-3.072-9.523-7.373-12.595-12.595C253.9,96.666,249.599,101.069,244.479,104.141z"/><path style="fill:#EEBE1F;" d="M336.434,346.829l4.403-1.229l-4.403-1.229c-10.445-2.867-18.534-11.059-21.402-21.402l-1.229-4.403 l-1.229,4.403c-2.867,10.445-10.957,18.534-21.402,21.402l-4.403,1.229l4.403,1.229c10.445,2.867,18.534,11.059,21.402,21.402 l1.229,4.403l1.229-4.403C317.9,357.786,325.989,349.696,336.434,346.829z"/><path style="fill:#211E1F;" d="M313.804,377.754c-2.253,0-4.301-1.536-4.915-3.789l-1.229-4.403 c-2.355-8.602-9.216-15.462-17.818-17.818l-4.403-1.229c-2.253-0.614-3.789-2.662-3.789-4.915s1.536-4.301,3.789-4.915l4.403-1.229 c8.602-2.355,15.462-9.216,17.818-17.818l1.229-4.403c0.614-2.253,2.662-3.789,4.915-3.789s4.301,1.536,4.915,3.789l1.229,4.403 c2.355,8.602,9.216,15.462,17.818,17.818l4.403,1.229c2.253,0.614,3.789,2.662,3.789,4.915s-1.536,4.301-3.789,4.915l-4.403,1.229 l0,0c-8.602,2.355-15.462,9.216-17.818,17.818l-1.229,4.403C318.105,376.218,316.057,377.754,313.804,377.754z M301.209,345.6 c5.12,3.072,9.523,7.373,12.595,12.595c3.072-5.12,7.373-9.523,12.595-12.595c-5.12-3.072-9.523-7.373-12.595-12.595 C310.732,338.227,306.431,342.528,301.209,345.6z"/><ellipse style="fill:#F27366;" cx="119.859" cy="206.64" rx="22.528" ry="11.469"/><g><path style="fill:#221F1F;" d="M124.978,153.702c-1.536,0-3.072-0.717-4.096-2.048c-4.403-5.837-11.059-9.216-18.33-9.216 c-0.102,0-0.205,0-0.307,0c-7.168,0.102-13.824,3.482-18.125,9.216c-1.638,2.253-4.915,2.765-7.168,1.024 c-2.253-1.638-2.765-4.915-1.024-7.168c6.246-8.397,16.179-13.414,26.624-13.414c0.102,0,0.205,0,0.307,0 c10.342,0.102,20.173,5.12,26.317,13.414c1.638,2.253,1.229,5.427-1.024,7.168C127.129,153.395,126.105,153.702,124.978,153.702z" /><circle style="fill:#221F1F;" cx="101.429" cy="166.19" r="10.04"/></g></svg>