<!-- icon666.com - MILLIONS OF FREE VECTOR ICONS --><svg version="1.1" id="Capa_1" xmlns="http://www.w3.org/2000/svg" xmlns:xlink="http://www.w3.org/1999/xlink" x="0px" y="0px" viewBox="0 0 512 512" style="enable-background:new 0 0 512 512;" xml:space="preserve"><path style="fill:#4C4945;" d="M341.094,159.744c-9.83-22.63-17.51-46.08-23.859-69.837c-1.434-5.53-3.277-10.65-5.325-15.565 C290.918,25.395,239.923,5.325,180.326,5.325c-65.946,0-121.446,24.678-137.114,85.811c-6.144,23.654-14.131,46.797-23.859,69.325 C10.138,181.658,5.12,205.107,5.12,229.786c0,34.406,9.933,207.565,27.034,234.598c16.794,26.522,46.182,42.291,77.517,42.291 h19.968c10.445,0,18.842-8.397,18.842-18.842v-122.47h63.693v122.47c0,10.445,8.397,18.842,18.842,18.842h19.968 c31.334,0,60.826-15.77,77.517-42.291c17.101-27.034,27.034-200.192,27.034-234.598 C355.533,204.902,350.413,181.146,341.094,159.744z"/><path style="fill:#35322F;" d="M333.722,141.722H311.91c2.867,7.782,5.939,15.565,9.114,23.245h-31.539 c-38.605,0-64-12.8-78.234-23.245h-61.85c-14.438,10.445-39.936,23.245-78.131,23.245H39.629c3.277-7.782,6.349-15.462,9.114-23.245 H26.931c-2.355,6.246-4.915,12.493-7.578,18.637c-6.144,14.336-10.445,29.594-12.595,45.568H71.27 c54.784,0,90.317-20.89,109.158-36.557c18.842,15.565,54.374,36.557,109.158,36.557h64.512c-2.15-15.974-6.451-31.232-12.595-45.568 C338.637,154.214,336.179,147.968,333.722,141.722z"/><path style="fill:#221F1F;" d="M250.982,511.795h-19.968c-13.21,0-23.962-10.752-23.962-23.962v-117.35H153.6v117.35 c0,13.21-10.752,23.962-23.962,23.962H109.67c-33.587,0-64.205-16.691-81.92-44.646C9.318,437.965,0,262.451,0,229.786 c0-24.883,4.915-48.947,14.643-71.475c9.83-22.733,17.715-45.773,23.552-68.506c14.95-57.754,65.434-89.6,142.131-89.6 c67.891,0,116.224,25.6,136.192,72.09c2.253,5.12,4.096,10.65,5.632,16.282c6.963,26.01,14.746,48.64,23.654,69.12l0,0 c9.933,22.733,14.95,47.002,14.95,72.192c0,32.666-9.318,208.077-27.853,237.363C315.187,495.104,284.57,511.795,250.982,511.795z M148.48,360.243h63.693c2.867,0,5.12,2.253,5.12,5.12v122.47c0,7.578,6.144,13.722,13.722,13.722h19.968 c30.003,0,57.446-14.95,73.216-39.936c15.77-24.883,26.214-195.072,26.214-231.834c0-23.654-4.71-46.592-14.131-68.096l0,0 c-9.114-20.992-16.998-44.032-24.166-70.554c-1.434-5.222-3.072-10.138-5.12-14.848c-18.125-42.496-63.078-65.843-126.669-65.843 c-41.472,0-113.766,10.65-132.198,81.92c-5.939,23.245-14.131,46.797-24.064,70.042c-9.216,21.299-13.824,43.93-13.824,67.482 c0,36.864,10.445,206.95,26.214,231.834c15.77,24.986,43.213,39.936,73.216,39.936h19.968c7.578,0,13.722-6.144,13.722-13.722 V365.363C143.36,362.598,145.613,360.243,148.48,360.243z"/><path style="fill:#FFB69F;" d="M242.176,353.69l-36.045,34.714c-14.336,13.824-37.069,13.824-51.405,0l-36.045-34.714 c-30.003-28.877-47.309-71.168-47.309-115.814v-66.253c0-17.101,13.824-31.027,31.027-31.027h156.262 c17.101,0,31.027,13.824,31.027,31.027v66.253C289.485,282.522,272.179,324.813,242.176,353.69z"/><path style="fill:#EA8F7D;" d="M289.485,205.926L289.485,205.926v-34.202c0-2.253-0.307-4.506-0.717-6.656 c-39.424-0.205-65.024-13.722-78.95-24.269h-59.085c-14.029,10.547-39.731,24.166-78.746,24.269 c-0.512,2.15-0.717,4.403-0.717,6.656v34.202c54.784,0,90.317-20.89,109.158-36.557 C199.168,185.037,234.701,205.926,289.485,205.926z"/><path style="fill:#221F1F;" d="M180.326,403.968c-10.547,0-21.094-3.994-29.286-11.878l-36.045-34.714 c-31.027-29.798-48.947-73.421-48.947-119.398v-66.253c0-19.866,16.179-36.147,36.147-36.147h156.262 c19.866,0,36.147,16.179,36.147,36.147v66.253c0,46.08-17.818,89.6-48.947,119.501l0,0l-36.045,34.714 C201.421,399.974,190.874,403.968,180.326,403.968z M102.195,145.818c-14.234,0-25.907,11.571-25.907,25.907v66.253 c0,43.315,16.691,84.173,45.773,112.128l36.045,34.714c12.39,11.981,31.949,11.981,44.339,0l36.045-34.714l3.584,3.686l-3.584-3.686 c29.082-27.955,45.773-68.813,45.773-112.128v-66.253c0-14.234-11.571-25.907-25.907-25.907L102.195,145.818L102.195,145.818z"/><path style="fill:#4C4945;" d="M341.299,160.358c-9.728-22.426-17.715-45.568-23.859-69.325 c-15.667-61.03-71.168-85.709-137.114-85.709S58.88,30.003,43.213,91.136c-6.144,23.654-14.131,46.797-23.859,69.325 c-3.072,7.27-5.734,14.746-7.885,22.426v2.662h59.699c76.083,0,109.158-44.749,109.158-44.749s32.973,44.749,109.158,44.749h59.699 v-2.662C347.034,175.104,344.474,167.629,341.299,160.358z"/><path style="fill:#221F1F;" d="M349.184,190.566h-59.699c-63.59,0-97.894-30.003-109.158-41.984 c-11.264,11.981-45.568,41.984-109.158,41.984h-59.7c-2.867,0-5.12-2.253-5.12-5.12v-2.662c0-0.512,0.102-0.922,0.205-1.331 c2.15-7.885,4.915-15.667,8.09-23.04c9.83-22.733,17.715-45.773,23.552-68.506C53.146,32.051,103.63,0.205,180.327,0.205 s127.181,31.846,142.131,89.6c5.837,22.733,13.824,45.773,23.552,68.506c3.174,7.373,5.939,15.155,8.09,23.04 c0.102,0.41,0.205,0.922,0.205,1.331v2.662C354.304,188.314,352.051,190.566,349.184,190.566z M11.469,182.784L11.469,182.784 L11.469,182.784z M180.326,135.578L180.326,135.578c1.638,0,3.174,0.819,4.096,2.048c0.102,0.102,8.192,10.854,25.088,21.402 c15.565,9.728,42.086,21.299,79.974,21.299h53.658c-1.843-6.144-4.096-12.186-6.554-17.92l0,0 c-10.035-23.245-18.125-46.797-24.064-70.042c-18.33-71.27-90.726-81.92-132.198-81.92S66.56,21.094,48.128,92.365 c-5.939,23.245-14.131,46.797-24.064,70.042c-2.458,5.837-4.71,11.776-6.554,17.92h53.658c37.888,0,64.307-11.571,79.974-21.299 c16.896-10.547,24.986-21.299,25.088-21.402C177.152,136.397,178.688,135.578,180.326,135.578z"/><g><path style="fill:#7C7B7A;" d="M130.355,37.069c-2.253,0-4.301-1.536-4.915-3.789c-0.717-2.765,0.819-5.53,3.584-6.246 c3.891-1.024,7.885-2.048,11.981-2.765c2.765-0.512,5.427,1.229,6.042,4.096c0.512,2.765-1.229,5.427-4.096,6.042 c-3.891,0.717-7.578,1.638-11.264,2.662C131.277,36.966,130.867,37.069,130.355,37.069z"/><path style="fill:#7C7B7A;" d="M39.629,170.086c-0.614,0-1.331-0.102-1.946-0.41c-2.56-1.126-3.789-4.096-2.765-6.758 c9.523-22.63,17.306-45.568,23.142-68.096c6.349-24.883,20.685-43.827,42.496-56.32c2.458-1.434,5.632-0.512,6.963,1.843 c1.434,2.458,0.512,5.632-1.843,6.963c-19.353,11.265-32.05,28.058-37.682,50.177c-5.939,23.04-13.926,46.49-23.654,69.53 C43.52,168.96,41.677,170.086,39.629,170.086z"/></g><g><path style="fill:#221F1F;" d="M180.326,145.818c-2.867,0-5.12-2.253-5.12-5.12V73.523c0-2.867,2.253-5.12,5.12-5.12 s5.12,2.253,5.12,5.12v67.174C185.446,143.565,183.194,145.818,180.326,145.818z"/><path style="fill:#221F1F;" d="M180.326,54.886c-2.867,0-5.12-2.253-5.12-5.12V43.93c0-2.867,2.253-5.12,5.12-5.12 s5.12,2.253,5.12,5.12v5.837C185.446,52.634,183.194,54.886,180.326,54.886z"/></g><path style="fill:#FFB69F;" d="M71.168,264.294h-6.246c-14.541,0-26.214-11.776-26.214-26.214v-6.144 c0-14.541,11.776-26.214,26.214-26.214h6.246V264.294z"/><path style="fill:#221F1F;" d="M71.168,269.414h-6.246c-17.306,0-31.334-14.029-31.334-31.334v-6.144 c0-17.306,14.029-31.334,31.334-31.334h6.246c2.867,0,5.12,2.253,5.12,5.12v58.675C76.288,267.162,74.035,269.414,71.168,269.414z M65.024,210.842c-11.674,0-21.094,9.523-21.094,21.094v6.144c0,11.674,9.523,21.094,21.094,21.094h1.126v-48.435h-1.126V210.842z" /><path style="fill:#FFB69F;" d="M289.485,205.722h6.246c14.541,0,26.214,11.776,26.214,26.214v6.144 c0,14.541-11.776,26.214-26.214,26.214h-6.246V205.722z"/><g><path style="fill:#221F1F;" d="M295.629,269.414h-6.246c-2.867,0-5.12-2.253-5.12-5.12v-58.675c0-2.867,2.253-5.12,5.12-5.12h6.246 c17.306,0,31.334,14.029,31.334,31.334v6.144C327.066,255.386,312.934,269.414,295.629,269.414z M294.605,259.174h1.126 c11.674,0,21.094-9.523,21.094-21.094v-6.144c0-11.674-9.523-21.094-21.094-21.094h-1.126V259.174z"/><path style="fill:#221F1F;" d="M71.168,240.128h-8.602c-2.867,0-5.12-2.253-5.12-5.12s2.253-5.12,5.12-5.12h8.602 c2.867,0,5.12,2.253,5.12,5.12S74.035,240.128,71.168,240.128z"/><path style="fill:#221F1F;" d="M298.086,240.128h-8.602c-2.867,0-5.12-2.253-5.12-5.12s2.253-5.12,5.12-5.12h8.602 c2.867,0,5.12,2.253,5.12,5.12S300.851,240.128,298.086,240.128z"/></g><path style="fill:#AFAFAF;" d="M394.854,249.856v-12.698c0-30.413,2.867-46.694,8.704-76.595l4.608-23.962h46.182l-4.608,23.962 c-5.837,29.798-8.704,46.182-8.704,76.595v12.698c0,5.734-4.71,10.445-10.445,10.445h-25.293 C399.565,260.301,394.854,255.59,394.854,249.856z"/><path style="fill:#221F1F;" d="M430.592,265.421h-25.293c-8.602,0-15.565-6.963-15.565-15.565v-12.698 c0-30.72,2.97-47.718,8.806-77.517l4.608-23.962c0.512-2.458,2.56-4.096,5.018-4.096h46.182c1.536,0,2.97,0.717,3.994,1.843 c1.024,1.229,1.331,2.765,1.126,4.198l-4.608,23.962c-5.837,30.003-8.602,45.67-8.602,75.571v12.698 C446.157,258.458,439.194,265.421,430.592,265.421z M412.467,141.722l-3.891,19.866c-5.837,30.003-8.602,45.67-8.602,75.571v12.698 c0,2.97,2.355,5.325,5.325,5.325h25.293c2.97,0,5.325-2.355,5.325-5.325v-12.698c0-30.72,2.97-47.718,8.806-77.517l3.482-17.92 H412.467L412.467,141.722z"/><path style="fill:#AFAFAF;" d="M441.037,145.715l53.146-19.046c7.578-2.765,12.698-9.933,12.698-18.022V82.432 c0-8.09-5.12-15.258-12.698-18.022l-53.146-19.046V145.715z"/><path style="fill:#221F1F;" d="M441.037,150.835c-1.024,0-2.048-0.307-2.97-0.922c-1.331-0.922-2.15-2.56-2.15-4.198V45.363 c0-1.638,0.819-3.277,2.15-4.198c1.331-0.922,3.072-1.229,4.71-0.614l53.146,19.046C505.549,63.078,512,72.192,512,82.432v26.214 c0,10.24-6.451,19.354-16.077,22.835l-53.146,19.046C442.163,150.733,441.549,150.835,441.037,150.835z M446.157,52.634v85.811 l46.387-16.589c5.53-1.946,9.318-7.27,9.318-13.21V82.432c0-5.939-3.686-11.162-9.318-13.21L446.157,52.634z"/><path style="fill:#AFAFAF;" d="M393.626,145.715l-110.49-32.563c-3.789-0.922-6.349-4.301-6.349-8.09V86.016 c0-3.891,2.662-7.168,6.349-8.09l110.49-32.563V145.715z"/><path style="fill:#221F1F;" d="M393.626,150.835c-0.512,0-0.922-0.102-1.434-0.205l-110.387-32.46 c-6.042-1.536-10.138-6.861-10.138-13.107V86.016c0-6.246,4.198-11.571,10.138-13.107l110.387-32.461 c1.536-0.41,3.174-0.205,4.506,0.819c1.331,0.922,2.048,2.458,2.048,4.096v100.454c0,1.638-0.717,3.174-2.048,4.096 C395.776,150.528,394.65,150.835,393.626,150.835z M388.506,52.224L284.57,82.739c-0.102,0-0.205,0-0.205,0.102 c-1.434,0.307-2.458,1.638-2.458,3.174v19.149c0,1.536,1.024,2.765,2.458,3.174c0.102,0,0.205,0,0.205,0.102l103.936,30.618V52.224z "/><circle style="fill:#AFAFAF;" cx="416.56" cy="95.54" r="55.808"/><path style="fill:#221F1F;" d="M416.563,156.467c-33.587,0-60.928-27.341-60.928-60.928s27.341-60.928,60.928-60.928 s60.928,27.341,60.928,60.928S450.15,156.467,416.563,156.467z M416.563,44.851c-27.955,0-50.688,22.733-50.688,50.688 s22.733,50.688,50.688,50.688s50.688-22.733,50.688-50.688S444.518,44.851,416.563,44.851z"/><circle style="fill:#FFFFFF;" cx="416.56" cy="95.54" r="14.95"/><path style="fill:#221F1F;" d="M416.563,115.61c-11.059,0-20.07-9.011-20.07-20.07c0-11.059,9.011-20.07,20.07-20.07 s20.07,9.011,20.07,20.07C436.633,106.599,427.622,115.61,416.563,115.61z M416.563,85.709c-5.427,0-9.83,4.403-9.83,9.83 s4.403,9.83,9.83,9.83s9.83-4.403,9.83-9.83C426.394,90.112,421.99,85.709,416.563,85.709z"/><path style="fill:#FFFFFF;" d="M404.378,205.414h-11.264c-4.403,0-7.987-3.584-7.987-7.987V181.76c0-4.403,3.584-7.987,7.987-7.987 h11.264c4.403,0,7.987,3.584,7.987,7.987v15.667C412.365,201.83,408.781,205.414,404.378,205.414z"/><g><path style="fill:#221F1F;" d="M404.378,210.534h-11.264c-7.168,0-13.107-5.837-13.107-13.107V181.76 c0-7.168,5.837-13.107,13.107-13.107h11.264c7.168,0,13.107,5.837,13.107,13.107v15.667 C417.485,204.698,411.648,210.534,404.378,210.534z M393.114,178.995c-1.536,0-2.867,1.229-2.867,2.867v15.667 c0,1.536,1.229,2.867,2.867,2.867h11.264c1.536,0,2.867-1.229,2.867-2.867v-15.667c0-1.536-1.229-2.867-2.867-2.867H393.114z"/><path style="fill:#221F1F;" d="M302.387,124.006c-0.512,0-0.922-0.102-1.434-0.205l-19.149-5.632 c-6.042-1.536-10.138-6.861-10.138-13.107V86.016c0-6.246,4.198-11.571,10.138-13.107l19.149-5.632 c1.536-0.41,3.174-0.205,4.506,0.819c1.331,0.922,2.048,2.458,2.048,4.096v46.694c0,1.638-0.717,3.174-2.048,4.096 C304.538,123.699,303.514,124.006,302.387,124.006z M297.267,79.053l-12.698,3.789c-0.102,0-0.205,0-0.205,0.102 c-1.434,0.307-2.458,1.638-2.458,3.174v19.149c0,1.536,1.024,2.765,2.458,3.174c0.102,0,0.205,0,0.205,0.102l12.698,3.789V79.053z" /></g><g><path style="fill:#FFFFFF;" d="M246.272,76.288c-4.198,0-8.397-1.331-11.981-3.891s-8.397-2.56-11.981,0 c-2.253,1.638-5.53,1.126-7.168-1.126c-1.638-2.253-1.126-5.53,1.126-7.168c7.168-5.12,16.794-5.12,23.962,0 c3.584,2.56,8.397,2.56,11.981,0c2.253-1.638,5.53-1.126,7.168,1.126c1.638,2.253,1.126,5.53-1.126,7.168 C254.669,74.957,250.47,76.288,246.272,76.288z"/><path style="fill:#FFFFFF;" d="M246.272,103.526c-4.198,0-8.397-1.331-11.981-3.891s-8.397-2.56-11.981,0 c-2.253,1.638-5.53,1.126-7.168-1.126c-1.638-2.253-1.126-5.53,1.126-7.168c7.168-5.12,16.794-5.12,23.962,0 c3.584,2.56,8.397,2.56,11.981,0c2.253-1.638,5.53-1.126,7.168,1.126c1.638,2.253,1.126,5.53-1.126,7.168 C254.669,102.298,250.47,103.526,246.272,103.526z"/><path style="fill:#FFFFFF;" d="M246.272,130.867c-4.198,0-8.397-1.331-11.981-3.891c-3.584-2.56-8.397-2.56-11.981,0 c-2.253,1.638-5.53,1.126-7.168-1.126c-1.638-2.253-1.126-5.53,1.126-7.168c7.168-5.12,16.794-5.12,23.962,0 c3.584,2.56,8.397,2.56,11.981,0c2.253-1.638,5.53-1.126,7.168,1.126c1.638,2.253,1.126,5.53-1.126,7.168 C254.669,129.536,250.47,130.867,246.272,130.867z"/></g><g><path style="fill:#221F1F;" d="M430.899,314.266c-10.752,0-19.558-8.806-19.558-19.558s8.806-19.558,19.558-19.558 s19.558,8.806,19.558,19.558C450.458,305.459,441.754,314.266,430.899,314.266z M430.899,285.389c-5.12,0-9.318,4.198-9.318,9.318 s4.198,9.318,9.318,9.318s9.318-4.198,9.318-9.318C440.218,289.587,436.122,285.389,430.899,285.389z"/><path style="fill:#221F1F;" d="M430.899,343.142c-10.752,0-19.558-8.806-19.558-19.558s8.806-19.558,19.558-19.558 s19.558,8.806,19.558,19.558C450.458,334.336,441.754,343.142,430.899,343.142z M430.899,314.266c-5.12,0-9.318,4.198-9.318,9.318 s4.198,9.318,9.318,9.318s9.318-4.198,9.318-9.318S436.122,314.266,430.899,314.266z"/><path style="fill:#221F1F;" d="M416.563,299.827c-2.867,0-5.12-2.253-5.12-5.12v-34.406c0-2.867,2.253-5.12,5.12-5.12 s5.12,2.253,5.12,5.12v34.406C421.683,297.574,419.328,299.827,416.563,299.827z"/><path style="fill:#221F1F;" d="M445.338,363.11c-2.867,0-5.12-2.253-5.12-5.12v-34.406c0-2.867,2.253-5.12,5.12-5.12 s5.12,2.253,5.12,5.12v34.406C450.458,360.858,448.205,363.11,445.338,363.11z"/></g><path style="fill:#F0C020;" d="M298.086,397.517l4.403-1.229l-4.403-1.229c-10.445-2.867-18.534-11.059-21.402-21.402l-1.229-4.403 l-1.229,4.403c-2.867,10.445-11.059,18.534-21.402,21.402l-4.403,1.229l4.403,1.229c10.445,2.867,18.534,11.059,21.402,21.402 l1.229,4.403l1.229-4.403C279.552,408.474,287.642,400.384,298.086,397.517z"/><path style="fill:#221F1F;" d="M275.456,428.442c-2.253,0-4.301-1.536-4.915-3.789l-1.229-4.403 c-2.355-8.602-9.216-15.462-17.818-17.818l-4.403-1.229c-2.253-0.614-3.789-2.662-3.789-4.915c0-2.253,1.536-4.301,3.789-4.915 l4.403-1.229c8.602-2.355,15.462-9.216,17.818-17.818l1.229-4.403c0.614-2.253,2.662-3.789,4.915-3.789 c2.253,0,4.301,1.536,4.915,3.789l1.229,4.403c2.355,8.602,9.216,15.462,17.818,17.818l4.403,1.229 c2.253,0.614,3.789,2.662,3.789,4.915c0,2.253-1.536,4.301-3.789,4.915l-4.403,1.229l0,0c-8.602,2.355-15.462,9.216-17.818,17.818 l-1.229,4.403C279.757,426.906,277.709,428.442,275.456,428.442z M262.861,396.288c5.12,3.072,9.523,7.373,12.595,12.595 c3.072-5.12,7.373-9.523,12.595-12.595c-5.12-3.072-9.523-7.373-12.595-12.595C272.384,388.915,268.083,393.216,262.861,396.288z"/><path style="fill:#F0C020;" d="M139.776,115.098l4.403-1.229l-4.403-1.229c-10.445-2.867-18.534-11.059-21.402-21.402l-1.229-4.403 l-1.229,4.403c-2.867,10.445-11.059,18.534-21.402,21.402l-4.403,1.229l4.403,1.229c10.445,2.867,18.534,11.059,21.402,21.402 l1.229,4.403l1.229-4.403C121.242,126.157,129.331,118.067,139.776,115.098z"/><path style="fill:#221F1F;" d="M117.146,146.022c-2.253,0-4.301-1.536-4.915-3.789l-1.229-4.403 c-2.355-8.602-9.216-15.462-17.818-17.818l-4.403-1.229c-2.253-0.614-3.789-2.662-3.789-4.915c0-2.253,1.536-4.301,3.789-4.915 l4.403-1.229c8.602-2.355,15.462-9.216,17.818-17.818l1.229-4.403c0.614-2.253,2.662-3.789,4.915-3.789l0,0 c2.253,0,4.301,1.536,4.915,3.789l1.229,4.403c2.355,8.602,9.216,15.462,17.818,17.818l4.403,1.229 c2.253,0.614,3.789,2.662,3.789,4.915c0,2.253-1.536,4.301-3.789,4.915l-4.403,1.229c-8.602,2.355-15.462,9.216-17.818,17.818 l-1.229,4.403C121.446,144.486,119.398,146.022,117.146,146.022z M104.55,113.971c5.12,3.072,9.523,7.373,12.595,12.595 c3.072-5.12,7.373-9.523,12.595-12.595c-5.12-3.072-9.523-7.373-12.595-12.595C114.074,106.496,109.67,110.899,104.55,113.971z"/><path style="fill:#231F20;" d="M152.576,226.509c-1.536,0-3.072-0.717-4.096-2.048c-4.403-5.837-11.059-9.216-18.33-9.216 c-0.102,0-0.205,0-0.307,0c-7.168,0.102-13.824,3.482-18.125,9.216c-1.638,2.253-4.915,2.765-7.168,1.024 c-2.253-1.638-2.765-4.915-1.024-7.168c6.246-8.397,16.179-13.414,26.624-13.414c0.102,0,0.205,0,0.307,0 c10.342,0.102,20.173,5.12,26.317,13.414c1.638,2.253,1.229,5.427-1.024,7.168C154.726,226.202,153.6,226.509,152.576,226.509z"/><path style="fill:#F2203A;" d="M180.326,337.306c-0.102,0-0.205,0-0.307,0c-9.933-0.102-19.456-4.915-25.395-13.005 c-1.638-2.253-1.229-5.427,1.024-7.168c2.253-1.638,5.427-1.229,7.168,1.024c4.198,5.632,10.547,8.806,17.51,8.806 c0.102,0,0.205,0,0.205,0c6.861-0.102,13.107-3.277,17.203-8.806c1.638-2.253,4.915-2.765,7.168-1.024 c2.253,1.638,2.765,4.915,1.024,7.168C200.09,332.493,190.464,337.306,180.326,337.306z"/><circle style="fill:#231F20;" cx="130.05" cy="237.98" r="10.04"/><g><ellipse style="fill:#FF7364;" cx="130.05" cy="268.39" rx="22.528" ry="11.469"/><ellipse style="fill:#FF7364;" cx="230.6" cy="268.39" rx="22.528" ry="11.469"/></g><g><path style="fill:#231F20;" d="M253.133,226.509c-1.536,0-3.072-0.717-4.096-2.048c-4.403-5.837-11.059-9.216-18.33-9.216 c-0.102,0-0.205,0-0.307,0c-7.168,0.102-13.824,3.482-18.125,9.216c-1.638,2.253-4.915,2.765-7.168,1.024 c-2.253-1.638-2.765-4.915-1.024-7.168c6.246-8.397,16.179-13.414,26.624-13.414c0.102,0,0.205,0,0.307,0 c10.342,0.102,20.173,5.12,26.317,13.414c1.638,2.253,1.229,5.427-1.024,7.168C255.283,226.202,254.157,226.509,253.133,226.509z" /><circle style="fill:#231F20;" cx="230.6" cy="237.98" r="10.04"/><path style="fill:#231F20;" d="M180.326,301.978c-4.301,0-8.192-1.946-10.854-5.325l-4.813-6.246 c-1.741-2.253-1.331-5.427,0.922-7.168c2.253-1.741,5.427-1.331,7.168,0.922l4.813,6.246c0.922,1.126,2.048,1.331,2.662,1.331 s1.843-0.205,2.662-1.331l4.813-6.246c1.741-2.253,4.915-2.662,7.168-0.922c2.253,1.741,2.662,4.915,0.922,7.168l-4.813,6.246 C188.518,300.032,184.627,301.978,180.326,301.978z"/></g></svg>