<!-- icon666.com - MILLIONS OF FREE VECTOR ICONS --><svg id="Layer_1" enable-background="new 0 0 501.46 501.46" viewBox="0 0 501.46 501.46" xmlns="http://www.w3.org/2000/svg"><g><g><path d="m334.353 161.49c0-33.137-26.863-60-60-60h-30c-16.569 0-30-13.431-30-30v29.063c0 5.523-4.477 10-10 10h-9.786c-49.706 0-90 40.294-90 90v223.837l229.786 2.929z" fill="#79787d"/><path d="m274.353 101.49h-20c33.137 0 60 26.863 60 60v265.573l20 .255v-265.828c0-33.137-26.863-60-60-60z" fill="#58565b"/><path d="m384.982 436.384-123.33-29.007v-44.432c19.915-13.35 42.3-33.286 42.3-55.463v-68.3h-46.6c-33.137 0-60-26.863-60-60 0 33.137-26.863 60-60 60h-2.776v68.3c0 22.242 22.517 42.231 42.477 55.581v44.225l-123.33 29.096c-27.086 6.39-46.223 30.567-46.223 58.397h423.705c0-27.83-19.137-52.007-46.223-58.397z" fill="#d69660"/><path d="m384.982 436.384-123.33-29.007v-44.432c19.915-13.35 42.3-33.286 42.3-55.463v-68.3h-20v68.3c0 31.176-44.24 57.928-63.664 68.171-3.472 1.831-7.191 3.11-11.024 3.815 2.315.425 4.672.642 7.043.642h5.914c6.296 0 12.498-1.52 18.067-4.456.441-.232.898-.476 1.364-.725v32.448 12l123.33 29.007c27.086 6.39 46.223 18.567 46.223 46.397h20c0-27.83-19.137-52.007-46.223-58.397z" fill="#a06d47"/><g fill="#a06d47"><path d="m134.576 282.838h-11.291c-10.338 0-18.719-8.381-18.719-18.719v-6.217c0-10.338 8.381-18.719 18.719-18.719h11.291z"/><path d="m304.456 239.183h11.291c10.338 0 18.719 8.381 18.719 18.719v6.217c0 10.338-8.381 18.719-18.719 18.719h-11.291z"/></g><path d="m493.96 63.629c0-24.316-17.573-44.515-40.709-48.625l-127.659-.778v60.328l72.427 5.675c2.97 8.326 8.111 15.621 14.74 21.204l-12.494 60.469c-1.118 5.409 2.361 10.699 7.77 11.817l26.086 5.39c5.409 1.118 10.699-2.361 11.817-7.77l12.456-60.285c20.547-5.986 35.566-24.946 35.566-47.425z" fill="#e08ea2"/><path d="m453.251 15.003h-20c23.136 4.11 43.101 20.171 43.101 44.487 0 22.479-16.333 37.28-35.333 42l-15.082 69.848c-.452 2.187-1.594 4.05-3.142 5.429l11.325 2.34c5.408 1.118 10.699-2.361 11.817-7.77l12.456-60.285c20.547-5.986 35.566-24.945 35.566-47.425.001-24.315-17.572-44.513-40.708-48.624z" fill="#d15573"/><circle cx="444.353" cy="63.49" fill="#79787d" r="18.5"/></g><g><path d="m386.698 429.083-44.846-10.548v-44.712h-15v41.184l-57.7-13.571v-34.532c5.133-3.586 10.31-7.548 15.206-11.854 17.978-15.815 27.094-31.819 27.094-47.567v-17.145h4.295c3.968 0 7.731-.891 11.105-2.476v71.628h15v-198c0-37.22-30.28-67.5-67.5-67.5h-30c-12.406 0-22.5-10.094-22.5-22.5h-15c0 20.678 16.822 37.5 37.5 37.5h30c21.333 0 39.721 12.797 47.927 31.111-7.845-5.723-17.495-9.111-27.927-9.111h-50c-9.064 0-17.203-5.395-20.735-13.744l-13.814 5.844c5.885 13.911 19.446 22.9 34.55 22.9h50c17.921 0 32.5 14.579 32.5 32.5v2.406c-8.504-7.994-19.936-12.906-32.5-12.906h-50c-7.055 0-13.568-3.216-17.869-8.824l-11.902 9.129c7.163 9.339 18.014 14.695 29.771 14.695h50c17.921 0 32.5 14.579 32.5 32.5v18.669c-3.375-1.585-7.137-2.476-11.105-2.476h-4.295-14.496-39.604c-28.948 0-52.5-23.552-52.5-52.5h-15c0 28.948-23.552 52.5-52.5 52.5h-10.276-3.791c-4.012 0-7.815.909-11.219 2.527v-33.658c0-45.49 37.01-82.5 82.5-82.5v-15c-53.762 0-97.5 43.738-97.5 97.5v217.9l-45.065 10.631c-30.618 7.225-52.002 34.24-52.002 65.698h15c0-24.467 16.632-45.479 40.445-51.098l129.107-30.458v-36.614c3.678 2.159 7.132 4.065 10.189 5.677 6.603 3.481 14.061 5.321 21.565 5.321h5.913c7.507 0 14.964-1.84 21.565-5.322 3.106-1.638 6.622-3.579 10.366-5.78v36.81l129.106 30.366c23.814 5.618 40.446 26.631 40.446 51.098h15c.003-31.458-21.381-58.473-52.004-65.698zm-74.742-182.399h3.791c5.674 0 10.366 4.238 11.105 9.713v9.229c-.74 5.474-5.432 9.713-11.105 9.713h-3.791zm-188.671 0h3.791v28.654h-3.791c-6.186 0-11.219-5.033-11.219-11.219v-6.217c0-6.185 5.034-11.218 11.219-11.218zm46.268 154.669-57.486 13.562v-127.104c3.403 1.618 7.206 2.527 11.219 2.527h3.791v17.145c0 15.748 9.115 31.752 27.094 47.567 4.952 4.356 10.192 8.361 15.383 11.979v34.324zm67.237-32.332c-4.454 2.349-9.492 3.59-14.569 3.59h-5.913c-5.076 0-10.114-1.241-14.569-3.59-8.37-4.414-24.394-13.562-37.66-25.233-14.6-12.843-22.002-25.058-22.002-36.305v-17.145-43.817c24.083-1.673 44.729-16.037 55.276-36.431 11.231 21.716 33.912 36.594 60 36.594h39.1v60.799c0 11.247-7.402 23.462-22.002 36.305-13.267 11.671-29.291 20.818-37.661 25.233z"/><path d="m174.503 262.701h15v15h-15z"/><path d="m244.32 262.701h15v15h-15z"/><path d="m454.563 7.618-.628-.111-135.843-.828v74.81l74.734 5.856c2.86 6.227 6.836 11.904 11.726 16.742l-.29 1.403h-16.909v15h13.81l-8.242 39.893c-.946 4.578-.054 9.25 2.515 13.156s6.504 6.578 11.082 7.523l26.085 5.39c1.191.246 2.39.368 3.578.368 3.38 0 6.688-.983 9.578-2.883 3.906-2.568 6.578-6.504 7.523-11.082l11.586-56.074c21.76-8.335 36.592-29.567 36.592-53.152 0-27.627-19.723-51.183-46.897-56.011zm-121.471 14.153 16.761.102v47.058l-16.761-1.313zm123.204 82.083-4.334 1.262-13.369 64.706c-.183.882-.752 1.37-1.075 1.582-.322.212-.997.542-1.879.359l-26.087-5.39c-.882-.183-1.37-.752-1.582-1.074-.213-.323-.542-.997-.359-1.88l13.397-64.844-3.417-2.878c-5.697-4.8-10.021-11.021-12.507-17.988l-1.633-4.578-38.599-3.025v-48.142l87.688.535c19.691 3.792 33.919 20.991 33.919 41.13.001 18.509-12.403 35.05-30.163 40.225z"/><path d="m454.859 60.219c.327 1.051.493 2.151.493 3.271 0 6.065-4.935 11-11 11s-11-4.935-11-11 4.935-11 11-11c1.678 0 3.285.366 4.777 1.087l6.529-13.504c-3.544-1.714-7.349-2.583-11.307-2.583-14.337 0-26 11.663-26 26s11.663 26 26 26 26-11.663 26-26c0-2.634-.395-5.235-1.171-7.73z"/><path d="m277.415 7.053h24.604v15h-24.604z"/><path d="m277.415 37.053h24.604v15h-24.604z"/><path d="m277.415 67.053h24.604v15h-24.604z"/><g><g><path d="m49.853 66.834h15v15h-15z"/></g><g><path d="m49.853 96.834h15v15h-15z"/></g><g><path d="m64.853 81.834h15v15h-15z"/></g><g><path d="m34.853 81.834h15v15h-15z"/></g></g><g><g><path d="m402.275 276.99h15v15h-15z"/></g><g><path d="m402.275 306.99h15v15h-15z"/></g><g><path d="m417.275 291.99h15v15h-15z"/></g><g><path d="m387.275 291.99h15v15h-15z"/></g></g><path d="m10.353 202.021h15v14.938h-15z"/><path d="m462.353 382.021h15v14.938h-15z"/></g></g></svg>