<!-- icon666.com - MILLIONS OF FREE VECTOR ICONS --><svg id="Layer_1" enable-background="new 0 0 501.951 501.951" viewBox="0 0 501.951 501.951" xmlns="http://www.w3.org/2000/svg"><g><g><path d="m261.932 117.723h-6.748-36.289-6.748c-49.706 0-90 40.294-90 90v223.837h229.786v-223.837c-.001-49.706-40.295-90-90.001-90z" fill="#e08ea2"/><path d="m261.932 117.723h-6.748-13.252c49.706 0 90 40.294 90 90v223.837h20v-223.837c0-49.706-40.294-90-90-90z" fill="#d15573"/><path d="m402.561 443.554-19.927-4.701c27.086 6.39 46.15 35.268 46.15 63.098h20c.001-27.83-19.136-52.007-46.223-58.397z" fill="#ffaa81"/><path d="m402.561 443.554-123.329-29.095v-44.343c-.003.002-.005.003-.008.005 19.917-13.35 42.308-33.288 42.308-55.468v-68.3h-46.6c-33.137 0-60-26.863-60-60 0 33.137-26.863 60-60 60h-2.776v68.3c0 22.242 22.517 42.231 42.476 55.581v44.225l-123.329 29.095c-27.086 6.39-46.223 30.567-46.223 58.397h423.705c0-27.83-19.137-52.007-46.224-58.397zm-199.16-67.748c-.006-.004-.013-.008-.019-.012.006.004.013.008.019.012zm10.308 5.892c-.053-.029-.106-.058-.16-.087.053.029.107.058.16.087zm-2.334-1.277c-.052-.029-.103-.057-.156-.086.053.028.104.057.156.086zm51.12-.101c-.047.026-.093.052-.141.078.047-.027.094-.052.141-.078zm-2.339 1.282c-.055.03-.109.059-.164.089.054-.03.11-.06.164-.089z" fill="#ffceb7"/><path d="m301.532 246.354v68.3c0 31.176-44.24 57.928-63.664 68.171-3.472 1.831-7.191 3.11-11.024 3.815 2.315.425 4.672.642 7.043.642h5.914c6.296 0 12.498-1.52 18.067-4.456 19.424-10.243 63.664-36.995 63.664-68.171v-68.3h-20z" fill="#ffaa81"/><g fill="#ffaa81"><path d="m152.156 290.008h-11.291c-10.338 0-18.719-8.381-18.719-18.719v-6.217c0-10.338 8.381-18.719 18.719-18.719h11.291z"/><path d="m322.036 246.354h11.291c10.338 0 18.719 8.381 18.719 18.719v6.217c0 10.338-8.381 18.719-18.719 18.719h-11.291z"/></g><path d="m360.205 166.343c0 19.478-11.657 28.785-26.036 28.785s-26.036-9.308-26.036-28.785 26.036-41.749 26.036-41.749 26.036 22.271 26.036 41.749z" fill="#cfdbfa"/><path d="m334.169 124.594s-4.64 3.975-10 10.024c7.341 8.285 16.036 20.467 16.036 31.725 0 14.677-6.621 23.577-16.036 27.074 3.079 1.143 6.456 1.712 10 1.712 14.379 0 26.036-9.308 26.036-28.785s-26.036-41.75-26.036-41.75z" fill="#9eb6f4"/><path d="m351.853 98.558 26.643.757 44.937 37.275c8.049 6.677 19.987 5.564 26.663-2.485l30.223-36.435c6.677-8.049 5.564-19.987-2.485-26.663l-72.87-60.446-60.129 72.488c-5.038 6.074-.87 15.285 7.018 15.509z" fill="#cfdbfa"/><path d="m477.834 71.007-72.87-60.446-12.769 15.393 64.354 53.382c4.251 3.526 4.838 9.83 1.312 14.081l-35.248 42.493.82.68c8.049 6.677 19.987 5.564 26.663-2.485l30.223-36.435c6.677-8.049 5.564-19.987-2.485-26.663z" fill="#9eb6f4"/><path d="m384.119 103.979 39.314 32.611c8.049 6.677 19.987 5.564 26.663-2.485l30.223-36.435c6.677-8.049 5.564-19.987-2.485-26.663z" fill="#e08ea2"/><path d="m477.834 71.007-21.997 7.739.712.59c4.251 3.526 4.838 9.83 1.312 14.081l-35.248 42.493.82.68c8.049 6.677 19.987 5.564 26.663-2.485l30.223-36.435c6.677-8.049 5.564-19.987-2.485-26.663z" fill="#d15573"/></g><g><path d="m404.279 436.253-44.847-10.548v-36.477h-15v32.949l-57.7-13.571v-34.533c5.133-3.586 10.31-7.548 15.206-11.854 17.979-15.815 27.094-31.819 27.094-47.566v-17.146h4.295c3.968 0 7.731-.891 11.105-2.475v78.697h15v-166.006c0-4.971-.381-9.941-1.127-14.83 6.147-6.457 9.4-15.617 9.4-26.55 0-22.288-25.728-44.939-28.661-47.448l-4.875-4.17-4.875 4.17c-1.079.923-5.247 4.579-10.08 9.934-16.582-12.044-36.624-18.606-57.281-18.606h-49.786c-27.97 0-54.629 12.039-73.144 33.03l11.249 9.922c15.668-17.764 38.229-27.952 61.895-27.952h49.786c17.292 0 34.075 5.43 48.015 15.412-5.159 7.742-9.315 16.753-9.315 25.708 0 11.169 3.387 20.496 9.794 26.972 5.943 6.006 14.375 9.313 23.742 9.313 3.487 0 6.843-.46 9.991-1.345.165 2.141.272 4.289.272 6.44v33.606c-3.374-1.585-7.137-2.475-11.105-2.475h-4.295-14.496-39.604c-28.949 0-52.5-23.551-52.5-52.5h-15c0 28.949-23.551 52.5-52.5 52.5h-10.276-3.791c-4.012 0-7.815.909-11.219 2.527v-33.657c0-15.36 4.248-30.346 12.285-43.337l-12.757-7.892c-9.504 15.364-14.528 33.079-14.528 51.229v217.932l-45.065 10.599c-30.618 7.224-52.001 34.239-52.001 65.697h15c0-24.467 16.632-45.479 40.441-51.096l129.112-30.367v-36.706c3.678 2.159 7.132 4.065 10.189 5.677 6.603 3.481 14.06 5.322 21.565 5.322h5.914c7.506 0 14.963-1.84 21.566-5.322 3.106-1.638 6.622-3.579 10.366-5.781v36.81l129.107 30.366c23.813 5.618 40.445 26.63 40.445 51.097h15c-.001-31.459-21.384-58.474-52.006-65.699zm-88.646-269.91c0-10.487 10.854-23.729 18.516-31.451 2.147 2.165 4.77 4.977 7.365 8.184 7.217 8.916 11.191 17.179 11.191 23.267 0 13.527-6.756 21.286-18.536 21.286s-18.536-7.759-18.536-21.286zm13.903 87.511h3.791c5.673 0 10.364 4.236 11.105 9.709v9.236c-.741 5.473-5.432 9.709-11.105 9.709h-3.791zm-188.671 0h3.791v28.654h-3.791c-6.186 0-11.219-5.033-11.219-11.219v-6.217c0-6.186 5.033-11.218 11.219-11.218zm46.267 154.753-57.486 13.52v-127.146c3.403 1.618 7.206 2.527 11.219 2.527h3.791v17.146c0 15.747 9.116 31.751 27.094 47.566 4.952 4.356 10.192 8.36 15.382 11.979zm67.238-32.417c-4.455 2.349-9.492 3.59-14.569 3.59h-5.914c-5.077 0-10.115-1.242-14.569-3.59-8.371-4.414-24.394-13.562-37.661-25.233-14.599-12.843-22.001-25.058-22.001-36.304v-17.146-43.817c24.083-1.673 44.728-16.037 55.276-36.43 11.232 21.715 33.912 36.594 60 36.594h39.1v60.8c0 11.247-7.402 23.461-22.001 36.304-13.268 11.67-29.291 20.818-37.661 25.232z"/><path d="m192.082 269.871h15v15h-15z"/><path d="m261.9 269.871h15v15h-15z"/><path d="m482.622 65.234-78.642-65.234-64.917 78.261c-4.177 5.036-5.096 11.868-2.398 17.829 2.697 5.96 8.436 9.779 14.976 9.965l24.059.684 42.946 35.624c4.789 3.972 10.687 6.092 16.831 6.092.829 0 1.664-.039 2.5-.117 7.031-.655 13.386-4.009 17.894-9.444l30.223-36.435c9.304-11.22 7.748-27.918-3.472-37.225zm-130.555 25.827c-1.017-.029-1.505-.644-1.737-1.155s-.371-1.285.278-2.068l55.341-66.715 56.907 47.204-77.218 27.168-4.343-3.602zm122.48 1.82-30.223 36.436c-1.95 2.351-4.699 3.802-7.74 4.085-3.042.284-6.011-.634-8.362-2.584l-29.124-24.158 76.472-26.906c2.39 4.039 2.141 9.313-1.023 13.127z"/><g><path d="m49.282 66.729h15v15h-15z"/><path d="m49.282 96.729h15v15h-15z"/><path d="m64.282 81.729h15v15h-15z"/><path d="m34.282 81.729h15v15h-15z"/></g><path d="m266.688 66.792h15v15h-15z"/><path d="m9.782 276.667h15v15h-15z"/><path d="m446.147 216.792h15v15h-15z"/></g></g></svg>