<!-- icon666.com - MILLIONS OF FREE VECTOR ICONS --><svg version="1.1" id="Capa_1" xmlns="http://www.w3.org/2000/svg" xmlns:xlink="http://www.w3.org/1999/xlink" x="0px" y="0px" viewBox="0 0 512 512" style="enable-background:new 0 0 512 512;" xml:space="preserve"><path style="fill:#FC5D3D;" d="M35.226,185.445c-3.686,14.131-5.632,29.082-5.632,44.339c0,34.304,9.933,207.258,27.034,234.291 c16.691,26.419,46.182,42.189,77.414,42.189h19.866c10.445,0,18.842-8.397,18.842-18.842V365.26h63.693v122.266 c0,10.445,8.397,18.842,18.842,18.842h19.866c31.334,0,60.723-15.77,77.414-42.189c17.101-27.034,27.034-199.987,27.034-234.291 c0-15.36-1.946-30.208-5.632-44.339H35.226V185.445z"/><g><path style="fill:#E53017;" d="M162.714,390.245c-5.325,0.307-9.318,4.915-9.318,10.24v21.402c0,4.403-3.482,7.885-7.885,7.885l0,0 c-4.403,0-7.885-3.482-7.885-7.885v-21.299c0-5.325-3.994-9.933-9.318-10.24c-5.837-0.41-10.65,4.198-10.65,9.933v21.606 c0,4.403-3.482,7.885-7.885,7.885l0,0c-4.403,0-7.885-3.482-7.885-7.885v-21.299c0-5.325-3.994-9.933-9.318-10.24 c-5.837-0.41-10.65,4.198-10.65,9.933v21.606c0,4.403-3.482,7.885-7.885,7.885l0,0c-4.403,0-7.885-3.482-7.885-7.885v-21.299 c0-5.325-3.994-9.933-9.318-10.24c-5.837-0.41-10.65,4.198-10.65,9.933v27.034c1.331,7.782,2.765,14.746,4.301,20.582l0,0 c1.946,7.373,3.891,13.005,6.042,16.384c16.691,26.419,46.182,42.189,77.414,42.189h19.866c10.445,0,18.842-8.397,18.842-18.842 v-39.731v-50.586C171.52,393.01,167.424,389.938,162.714,390.245z"/><path style="fill:#E53017;" d="M246.477,390.245c5.325,0.307,9.318,4.915,9.318,10.24v21.299c0,4.403,3.482,7.885,7.885,7.885l0,0 c4.403,0,7.885-3.482,7.885-7.885v-21.299c0-5.325,3.994-9.933,9.318-10.24c5.837-0.41,10.65,4.198,10.65,9.933v21.709 c0,4.403,3.482,7.885,7.885,7.885l0,0c4.403,0,7.885-3.482,7.885-7.885v-21.299c0-5.325,3.994-9.933,9.318-10.24 c5.837-0.41,10.65,4.198,10.65,9.933v21.606c0,4.403,3.482,7.885,7.885,7.885l0,0c4.403,0,7.885-3.482,7.885-7.885v-21.299 c0-5.325,3.994-9.933,9.318-10.24c5.837-0.41,10.65,4.198,10.65,9.933v27.034c-1.331,7.782-2.765,14.746-4.301,20.582l0,0 c-1.946,7.373-3.891,13.005-6.042,16.384c-16.691,26.419-46.182,42.189-77.414,42.189h-19.866 c-10.445,0-18.842-8.397-18.842-18.842v-39.731v-50.586C237.67,393.01,241.766,389.938,246.477,390.245z"/><path style="fill:#E53017;" d="M357.786,141.824h-21.811c2.867,7.782,5.939,15.565,9.114,23.245H313.55 c-38.502,0-63.898-12.8-78.234-23.245h-61.747c-14.438,10.445-39.834,23.245-78.029,23.245H64 c3.277-7.68,6.349-15.462,9.114-23.245H51.405c-2.355,6.246-4.915,12.493-7.578,18.637c-6.144,14.234-10.445,29.594-12.595,45.466 h64.41c54.682,0,90.112-20.89,108.954-36.454c18.842,15.565,54.272,36.454,108.954,36.454h64.41 c-2.15-15.974-6.451-31.232-12.595-45.466C362.701,154.316,360.141,148.173,357.786,141.824z"/></g><path style="fill:#221F1F;" d="M275.149,511.487h-19.866c-13.21,0-23.962-10.752-23.962-23.962V370.38h-53.453v117.146 c0,13.21-10.752,23.962-23.962,23.962H134.04c-33.587,0-64.102-16.691-81.818-44.646c-18.432-29.184-27.75-204.39-27.75-237.056 c0-24.883,4.915-48.845,14.643-71.373c9.83-22.733,17.715-45.773,23.552-68.506c14.85-57.652,65.231-89.396,141.928-89.396 c67.789,0,116.122,25.6,135.987,71.987c2.15,5.12,4.096,10.65,5.632,16.282c6.963,26.01,14.643,48.538,23.654,69.018l0,0 c9.933,22.733,14.95,47.002,14.95,72.09c0,32.563-9.318,207.872-27.75,237.056C339.251,494.796,308.634,511.487,275.149,511.487z M172.749,360.14h63.693c2.867,0,5.12,2.253,5.12,5.12v122.266c0,7.578,6.144,13.722,13.722,13.722h19.866 c30.003,0,57.344-14.848,73.114-39.834c15.77-24.883,26.214-194.765,26.214-231.526c0-23.654-4.71-46.49-14.029-67.994l0,0 c-9.114-20.992-16.998-44.032-24.064-70.451c-1.434-5.12-3.072-10.138-5.12-14.848c-18.125-42.394-63.078-65.843-126.566-65.843 c-41.472,0-113.664,10.65-131.994,81.818c-6.144,23.142-14.234,46.694-24.166,69.939c-9.114,21.299-13.824,43.93-13.824,67.379 c0,36.762,10.445,206.643,26.214,231.526c15.77,24.986,43.11,39.834,73.114,39.834h19.866c7.578,0,13.722-6.144,13.722-13.722 V365.26C167.629,362.393,169.882,360.14,172.749,360.14z"/><path style="fill:#FFB69F;" d="M266.24,353.586l-36.045,34.611c-14.336,13.824-37.069,13.824-51.405,0l-36.045-34.611 c-30.003-28.877-47.309-71.066-47.309-115.61v-66.15c0-17.101,13.824-30.925,30.925-30.925h156.262 c17.101,0,30.925,13.824,30.925,30.925v66.15C313.549,282.521,296.243,324.709,266.24,353.586z"/><path style="fill:#EA8F7D;" d="M313.549,206.029L313.549,206.029v-34.202c0-2.253-0.307-4.506-0.717-6.656 c-39.424-0.205-64.922-13.722-78.848-24.269h-58.982c-14.029,10.547-39.629,24.064-78.643,24.269 c-0.512,2.15-0.717,4.403-0.717,6.656v34.202c54.682,0,90.112-20.89,108.954-36.454 C223.437,185.139,258.867,206.029,313.549,206.029z"/><path style="fill:#221F1F;" d="M204.595,403.762c-10.547,0-20.992-3.891-29.184-11.776l-36.045-34.611 c-31.027-29.798-48.845-73.318-48.845-119.296v-66.15c0-19.866,16.179-36.045,36.045-36.045h156.058 c19.866,0,36.045,16.179,36.045,36.045v66.15c0,45.978-17.818,89.498-48.845,119.296l-36.045,34.611 C225.587,399.769,215.04,403.762,204.595,403.762z M126.566,145.919c-14.234,0-25.805,11.571-25.805,25.805v66.15 c0,43.213,16.691,84.07,45.67,111.923l36.045,34.611c12.39,11.981,31.846,11.981,44.237,0l36.045-34.611l0,0 c29.082-27.955,45.67-68.71,45.67-111.923v-66.15c0-14.234-11.571-25.805-25.805-25.805L126.566,145.919L126.566,145.919z"/><path style="fill:#FC5D3D;" d="M365.363,160.46c-9.626-22.426-17.715-45.568-23.859-69.222 C325.837,30.309,270.438,5.631,204.595,5.631S83.354,30.309,67.584,91.237c-6.042,23.654-14.131,46.797-23.859,69.222 c-3.072,7.27-5.734,14.746-7.885,22.426v2.662h59.699c75.981,0,108.954-44.749,108.954-44.749s32.973,44.749,108.954,44.749h59.699 v-2.662C371.098,175.205,368.435,167.73,365.363,160.46z"/><path style="fill:#221F1F;" d="M373.248,190.669h-59.699c-63.488,0-97.792-29.901-108.954-41.984 c-11.162,11.981-45.466,41.984-108.954,41.984H35.942c-2.867,0-5.12-2.253-5.12-5.12v-2.662c0-0.512,0.102-0.922,0.205-1.331 c2.15-7.885,4.915-15.667,8.09-23.04c9.83-22.733,17.715-45.773,23.552-68.506C77.517,32.255,127.898,0.511,204.595,0.511 s127.079,31.744,141.927,89.498c5.837,22.733,13.722,45.773,23.552,68.506c3.174,7.373,5.939,15.155,8.09,23.04 c0.102,0.41,0.205,0.922,0.205,1.331v2.662C378.368,188.415,376.013,190.669,373.248,190.669z M35.942,182.885L35.942,182.885 L35.942,182.885z M204.595,135.679L204.595,135.679c1.638,0,3.174,0.819,4.096,2.048c0.102,0.102,8.192,10.752,24.986,21.299 c15.565,9.728,42.086,21.299,79.872,21.299h53.658c-1.843-6.144-4.096-12.186-6.554-17.92 c-10.035-23.245-18.125-46.797-24.064-69.939c-18.33-71.168-90.522-81.818-131.994-81.818S90.931,21.298,72.602,92.466 c-6.042,23.245-14.131,46.797-24.064,70.042c-2.458,5.734-4.71,11.776-6.554,17.92h53.658c37.786,0,64.307-11.571,79.872-21.299 c16.896-10.547,24.986-21.197,25.088-21.299C201.421,136.498,202.957,135.679,204.595,135.679z"/><g><path style="fill:#FFCBC2;" d="M154.726,37.375c-2.253,0-4.301-1.536-4.915-3.789c-0.717-2.765,0.819-5.53,3.584-6.246 c3.891-1.024,7.885-2.048,11.981-2.765c2.765-0.512,5.427,1.229,6.042,4.096c0.512,2.765-1.229,5.427-4.096,6.042 c-3.891,0.717-7.578,1.638-11.162,2.662C155.648,37.273,155.136,37.375,154.726,37.375z"/><path style="fill:#FFCBC2;" d="M64,170.29c-0.614,0-1.331-0.102-1.946-0.41c-2.56-1.126-3.789-4.096-2.765-6.758 c9.523-22.63,17.306-45.466,23.142-67.994c6.451-24.883,20.685-43.725,42.496-56.218c2.458-1.434,5.632-0.512,6.963,1.843 c1.434,2.458,0.512,5.632-1.843,6.963c-19.251,11.059-31.949,27.853-37.581,49.869c-5.939,23.04-13.824,46.387-23.654,69.427 C67.891,169.061,66.048,170.29,64,170.29z"/></g><g><path style="fill:#221F1F;" d="M204.595,145.919c-2.867,0-5.12-2.253-5.12-5.12v-66.97c0-2.867,2.253-5.12,5.12-5.12 s5.12,2.253,5.12,5.12v67.072C209.715,143.667,207.36,145.919,204.595,145.919z"/><path style="fill:#221F1F;" d="M204.595,55.193c-2.867,0-5.12-2.253-5.12-5.12v-5.837c0-2.867,2.253-5.12,5.12-5.12 s5.12,2.253,5.12,5.12v5.837C209.715,52.837,207.36,55.193,204.595,55.193z"/></g><path style="fill:#FFB69F;" d="M95.539,264.293h-6.144c-14.541,0-26.214-11.776-26.214-26.214v-6.042 c0-14.541,11.776-26.214,26.214-26.214h6.144V264.293z"/><path style="fill:#221F1F;" d="M95.539,269.413h-6.144c-17.306,0-31.334-14.029-31.334-31.334v-6.042 c0-17.306,14.029-31.334,31.334-31.334h6.144c2.867,0,5.12,2.253,5.12,5.12v58.573C100.659,267.161,98.406,269.413,95.539,269.413z M89.395,210.841c-11.674,0-21.094,9.523-21.094,21.094v6.042c0,11.674,9.523,21.094,21.094,21.094h1.024v-48.333h-1.024V210.841z" /><path style="fill:#FFB69F;" d="M313.549,205.721h6.144c14.541,0,26.214,11.776,26.214,26.214v6.042 c0,14.541-11.776,26.214-26.214,26.214h-6.144V205.721z"/><g><path style="fill:#221F1F;" d="M319.693,269.413h-6.144c-2.867,0-5.12-2.253-5.12-5.12v-58.573c0-2.867,2.253-5.12,5.12-5.12h6.144 c17.306,0,31.334,14.029,31.334,31.334v6.042C351.13,255.385,336.998,269.413,319.693,269.413z M318.669,259.173h1.024 c11.674,0,21.094-9.523,21.094-21.094v-6.042c0-11.674-9.523-21.094-21.094-21.094h-1.024V259.173z"/><path style="fill:#221F1F;" d="M95.539,240.128H87.04c-2.867,0-5.12-2.253-5.12-5.12s2.253-5.12,5.12-5.12h8.602 c2.867,0,5.12,2.253,5.12,5.12S98.406,240.128,95.539,240.128z"/><path style="fill:#221F1F;" d="M322.15,240.128h-8.602c-2.867,0-5.12-2.253-5.12-5.12s2.253-5.12,5.12-5.12h8.602 c2.867,0,5.12,2.253,5.12,5.12S324.915,240.128,322.15,240.128z"/></g><path style="fill:#AFAFAF;" d="M502.886,502.373L502.886,502.373c-5.427,5.427-14.131,5.427-19.558,0l-70.656-70.656l19.558-19.558 l70.656,70.656C508.211,488.242,508.211,496.946,502.886,502.373z"/><path style="fill:#464A51;" d="M406.118,353.586l12.595,12.595c8.602,8.602,13.414,20.173,13.414,32.358v13.619l-19.456,19.456 h-13.619c-12.083,0-23.757-4.813-32.358-13.414l-12.595-12.595L406.118,353.586z"/><g><path style="fill:#E53017;" d="M316.211,354.815L316.211,354.815c-3.584,3.584-3.584,9.421,0,13.005l37.888,37.888l13.005-13.005 l-37.888-37.888C325.632,351.231,319.795,351.231,316.211,354.815z"/><path style="fill:#E53017;" d="M329.216,341.81c-3.584,3.584-3.584,9.421,0,13.005l37.888,37.888l13.005-13.005l-37.888-37.888 C338.637,338.124,332.902,338.124,329.216,341.81z"/><path style="fill:#E53017;" d="M342.221,328.805c-3.584,3.584-3.584,9.421,0,13.005l37.888,37.888l13.005-13.005l-37.888-37.888 C351.642,325.119,345.907,325.119,342.221,328.805z"/><path style="fill:#E53017;" d="M355.226,315.801L355.226,315.801c-3.584,3.584-3.584,9.421,0,13.005l37.888,37.888l13.005-13.005 l-37.888-37.888C364.646,312.114,358.912,312.114,355.226,315.801z"/></g><g><path style="fill:#FC5D3D;" d="M349.389,374.885l-20.173-20.173c-3.584-3.584-9.421-3.584-13.005,0s-3.584,9.421,0,13.005 l20.173,20.173L349.389,374.885z"/><path style="fill:#FC5D3D;" d="M362.394,361.881l-20.173-20.173c-3.584-3.584-9.421-3.584-13.005,0s-3.584,9.421,0,13.005 l20.173,20.173L362.394,361.881z"/><path style="fill:#FC5D3D;" d="M375.398,348.876l-20.173-20.173c-3.584-3.584-9.421-3.584-13.005,0s-3.584,9.421,0,13.005 l20.173,20.173L375.398,348.876z"/><path style="fill:#FC5D3D;" d="M388.403,335.871l-20.173-20.173c-3.584-3.584-9.421-3.584-13.005,0l0,0 c-3.584,3.584-3.584,9.421,0,13.005l20.173,20.173L388.403,335.871z"/></g><g><path style="fill:#221F1F;" d="M412.672,436.735h-13.619c-13.619,0-26.317-5.325-35.942-14.848l-12.595-12.595 c-0.922-0.922-1.536-2.253-1.536-3.584s0.512-2.662,1.536-3.584l52.019-52.019c2.048-2.048,5.222-2.048,7.27,0L422.4,362.7 c9.626,9.626,14.848,22.323,14.848,35.942v13.619c0,1.331-0.512,2.662-1.536,3.584l-19.558,19.558 C415.334,436.223,414.003,436.735,412.672,436.735z M361.37,405.605l9.011,9.011c7.68,7.68,17.818,11.878,28.672,11.878h11.469 l16.486-16.486v-11.469c0-10.854-4.198-20.992-11.878-28.672l-9.011-9.011L361.37,405.605z"/><path style="fill:#221F1F;" d="M493.056,511.487c-4.813,0-9.728-1.843-13.414-5.53l-70.656-70.656 c-0.922-0.922-1.536-2.253-1.536-3.584c0-1.331,0.512-2.662,1.536-3.584l19.558-19.558c2.048-2.048,5.222-2.048,7.27,0 l70.656,70.656c3.584,3.584,5.53,8.294,5.53,13.414c0,5.018-1.946,9.83-5.53,13.414 C502.784,509.644,497.971,511.487,493.056,511.487z M419.84,431.615l67.072,67.072c3.379,3.379,8.909,3.379,12.288,0 c1.638-1.638,2.56-3.789,2.56-6.144s-0.922-4.506-2.56-6.144l-67.072-67.072L419.84,431.615z"/><path style="fill:#221F1F;" d="M354.099,410.725c-1.331,0-2.662-0.512-3.584-1.536l-37.888-37.888 c-2.662-2.662-4.198-6.349-4.198-10.138s1.536-7.373,4.198-10.138l0,0c2.662-2.662,6.349-4.198,10.138-4.198 s7.373,1.536,10.138,4.198l37.888,37.888c0.922,0.922,1.536,2.253,1.536,3.584s-0.512,2.662-1.536,3.584l-13.005,13.005 C356.762,410.213,355.43,410.725,354.099,410.725z M322.765,357.17c-1.126,0-2.15,0.41-2.867,1.229 c-0.819,0.819-1.229,1.843-1.229,2.867c0,1.126,0.41,2.15,1.229,2.867l34.202,34.202l5.734-5.734l-34.202-34.202 C324.915,357.58,323.891,357.17,322.765,357.17z M316.211,354.815L316.211,354.815L316.211,354.815z"/><path style="fill:#221F1F;" d="M367.104,397.721c-1.331,0-2.662-0.512-3.584-1.536l-37.888-37.888 c-5.632-5.632-5.632-14.643,0-20.275s14.643-5.632,20.275,0l37.888,37.888c2.048,2.048,2.048,5.222,0,7.27l-13.107,13.107 C369.766,397.209,368.435,397.721,367.104,397.721z M335.77,344.165c-1.024,0-2.048,0.41-2.867,1.229l0,0 c-1.638,1.638-1.638,4.198,0,5.734l34.202,34.202l5.734-5.734l-34.202-34.202C337.818,344.575,336.794,344.165,335.77,344.165z M329.216,341.81L329.216,341.81L329.216,341.81z"/><path style="fill:#221F1F;" d="M380.109,384.716c-1.331,0-2.662-0.512-3.584-1.536l-37.888-37.888 c-2.662-2.662-4.198-6.349-4.198-10.138s1.536-7.373,4.198-10.138c5.632-5.632,14.643-5.632,20.275,0l37.888,37.888 c2.048,2.048,2.048,5.222,0,7.27l-13.005,13.005C382.771,384.204,381.44,384.716,380.109,384.716z M348.774,331.161 c-1.024,0-2.048,0.41-2.867,1.229s-1.229,1.843-1.229,2.867c0,1.126,0.41,2.15,1.229,2.867l34.202,34.202l5.734-5.734 l-34.202-34.202C350.822,331.57,349.798,331.161,348.774,331.161z"/><path style="fill:#221F1F;" d="M393.114,371.711c-1.331,0-2.662-0.512-3.584-1.536l-37.888-37.888 c-2.662-2.662-4.198-6.349-4.198-10.138s1.536-7.373,4.198-10.138c5.632-5.632,14.643-5.632,20.275,0l37.888,37.888 c0.922,0.922,1.536,2.253,1.536,3.584s-0.512,2.662-1.536,3.584L396.8,370.073C395.776,371.199,394.445,371.711,393.114,371.711z M361.779,318.156c-1.024,0-2.048,0.41-2.867,1.229s-1.229,1.843-1.229,2.867c0,1.126,0.41,2.15,1.229,2.867l34.202,34.202 l5.734-5.734l-34.202-34.202C363.827,318.565,362.803,318.156,361.779,318.156z"/></g><path style="fill:#F0C020;" d="M463.462,303.615l4.403-1.229l-4.403-1.229c-10.342-2.867-18.534-10.957-21.402-21.402l-1.229-4.403 l-1.229,4.403c-2.867,10.342-10.957,18.534-21.402,21.402l-4.403,1.229l4.403,1.229c10.342,2.867,18.534,10.957,21.402,21.402 l1.229,4.403l1.229-4.403C444.928,314.674,453.12,306.482,463.462,303.615z"/><path style="fill:#221F1F;" d="M440.832,334.54c-2.253,0-4.301-1.536-4.915-3.789l-1.229-4.403 c-2.355-8.602-9.216-15.462-17.818-17.818l-4.403-1.229c-2.253-0.614-3.789-2.662-3.789-4.915c0-2.253,1.536-4.301,3.789-4.915 l4.403-1.229c8.602-2.355,15.462-9.216,17.818-17.818l1.229-4.403c0.614-2.253,2.662-3.789,4.915-3.789s4.301,1.536,4.915,3.789 l1.229,4.403c2.355,8.602,9.216,15.462,17.818,17.818l4.403,1.229c2.253,0.614,3.789,2.662,3.789,4.915 c0,2.253-1.536,4.301-3.789,4.915l-4.403,1.229c-8.602,2.355-15.462,9.216-17.818,17.818l-1.229,4.403 C445.235,333.004,443.187,334.54,440.832,334.54z M428.339,302.489c5.12,3.072,9.421,7.373,12.493,12.493 c3.072-5.12,7.373-9.421,12.493-12.493c-5.12-3.072-9.421-7.373-12.493-12.493C437.862,295.013,433.459,299.417,428.339,302.489z"/><path style="fill:#F0C020;" d="M54.682,314.265l4.403-1.229l-4.403-1.229C44.34,308.94,36.148,300.85,33.28,290.405l-1.229-4.403 l-1.229,4.403c-2.867,10.342-10.957,18.534-21.402,21.402l-4.301,1.229l4.403,1.229c10.342,2.867,18.534,10.957,21.402,21.402 l1.229,4.403l1.229-4.403C36.147,325.221,44.237,317.132,54.682,314.265z"/><path style="fill:#221F1F;" d="M32.051,345.087c-2.253,0-4.301-1.536-4.915-3.789l-1.229-4.403 c-2.355-8.602-9.216-15.462-17.818-17.818l-4.403-1.229C1.536,317.337,0,315.391,0,313.036c0-2.253,1.536-4.301,3.789-4.915 l4.403-1.229c8.602-2.355,15.462-9.216,17.818-17.818l1.229-4.403c0.614-2.253,2.662-3.789,4.915-3.789l0,0 c2.253,0,4.301,1.536,4.915,3.789l1.229,4.403c2.355,8.602,9.216,15.462,17.818,17.818l4.403,1.229 c2.253,0.614,3.789,2.662,3.789,4.915c0,2.253-1.536,4.301-3.789,4.915l-4.403,1.229l0,0c-8.602,2.355-15.462,9.216-17.818,17.818 l-1.229,4.403C36.352,343.551,34.406,345.087,32.051,345.087z M19.558,313.036c5.12,3.072,9.421,7.373,12.493,12.493 c3.072-5.12,7.373-9.421,12.493-12.493c-5.12-3.072-9.421-7.373-12.493-12.493C28.979,305.663,24.678,309.964,19.558,313.036z"/><path style="fill:#F0C020;" d="M294.298,101.989l4.403-1.229l-4.403-1.229c-10.342-2.867-18.534-10.957-21.402-21.402l-1.229-4.403 l-1.229,4.403c-2.867,10.342-10.957,18.534-21.402,21.402l-4.403,1.229l4.403,1.229c10.342,2.867,18.534,10.957,21.402,21.402 l1.229,4.403l1.229-4.403C275.763,112.946,283.853,104.857,294.298,101.989z"/><path style="fill:#221F1F;" d="M271.667,132.813c-2.253,0-4.301-1.536-4.915-3.789l-1.229-4.403 c-2.355-8.602-9.216-15.462-17.818-17.818l-4.403-1.229c-2.253-0.614-3.789-2.662-3.789-4.915s1.536-4.301,3.789-4.915l4.403-1.229 c8.602-2.355,15.462-9.216,17.818-17.818l1.229-4.403c0.614-2.253,2.662-3.789,4.915-3.789s4.301,1.536,4.915,3.789l1.229,4.403 c2.355,8.602,9.216,15.462,17.818,17.818l4.403,1.229c2.253,0.614,3.789,2.662,3.789,4.915s-1.536,4.301-3.789,4.915l-4.403,1.229 c-8.602,2.355-15.462,9.216-17.818,17.818l-1.229,4.403C275.968,131.276,274.022,132.813,271.667,132.813z M259.174,100.761 c5.12,3.072,9.421,7.373,12.493,12.493c3.072-5.12,7.373-9.421,12.493-12.493c-5.12-3.072-9.421-7.373-12.493-12.493 C268.595,93.388,264.294,97.689,259.174,100.761z"/><path style="fill:#231F20;" d="M176.742,226.303c-1.536,0-3.072-0.717-4.096-2.048c-4.403-5.837-11.059-9.216-18.33-9.216 c-0.102,0-0.205,0-0.307,0c-7.168,0.102-13.824,3.482-18.125,9.216c-1.638,2.253-4.915,2.765-7.168,1.024 c-2.253-1.638-2.765-4.915-1.024-7.168c6.246-8.397,16.179-13.414,26.624-13.414c0.102,0,0.205,0,0.307,0 c10.342,0.102,20.173,5.12,26.317,13.414c1.638,2.253,1.229,5.427-1.024,7.168C178.893,225.996,177.869,226.303,176.742,226.303z"/><path style="fill:#F2203A;" d="M204.595,337.202c-0.102,0-0.205,0-0.307,0c-9.933-0.102-19.456-4.915-25.395-13.005 c-1.638-2.253-1.229-5.427,1.024-7.168c2.253-1.638,5.427-1.229,7.168,1.024c4.198,5.632,10.547,8.806,17.51,8.806 c0.102,0,0.205,0,0.205,0c6.861-0.102,13.107-3.277,17.203-8.806c1.638-2.253,4.915-2.765,7.168-1.024 c2.253,1.638,2.765,4.915,1.024,7.168C224.256,332.287,214.63,337.202,204.595,337.202z"/><circle style="fill:#231F20;" cx="154.32" cy="237.77" r="10.04"/><g><ellipse style="fill:#FF7364;" cx="154.32" cy="268.189" rx="22.528" ry="11.469"/><ellipse style="fill:#FF7364;" cx="254.87" cy="268.189" rx="22.528" ry="11.469"/></g><g><path style="fill:#231F20;" d="M277.299,226.303c-1.536,0-3.072-0.717-4.096-2.048c-4.403-5.837-11.059-9.216-18.33-9.216 c-0.102,0-0.205,0-0.307,0c-7.168,0.102-13.824,3.482-18.125,9.216c-1.638,2.253-4.915,2.765-7.168,1.024 c-2.253-1.638-2.765-4.915-1.024-7.168c6.246-8.397,16.179-13.414,26.624-13.414c0.102,0,0.205,0,0.307,0 c10.342,0.102,20.173,5.12,26.317,13.414c1.638,2.253,1.229,5.427-1.024,7.168C279.45,225.996,278.426,226.303,277.299,226.303z"/><circle style="fill:#231F20;" cx="254.87" cy="237.77" r="10.04"/><path style="fill:#231F20;" d="M204.595,301.772c-4.301,0-8.192-1.946-10.854-5.325l-4.813-6.246 c-1.741-2.253-1.331-5.427,0.922-7.168c2.253-1.741,5.427-1.331,7.168,0.922l4.813,6.246c0.922,1.126,2.048,1.331,2.662,1.331 s1.843-0.205,2.662-1.331l4.813-6.246c1.741-2.253,4.915-2.662,7.168-0.922c2.253,1.741,2.662,4.915,0.922,7.168l-4.813,6.246 C212.787,299.826,208.896,301.772,204.595,301.772z"/></g></svg>