<!-- icon666.com - MILLIONS OF FREE VECTOR ICONS --><svg version="1.1" id="Capa_1" xmlns="http://www.w3.org/2000/svg" xmlns:xlink="http://www.w3.org/1999/xlink" x="0px" y="0px" viewBox="0 0 511.59 511.59" style="enable-background:new 0 0 511.59 511.59;" xml:space="preserve"><path style="fill:#4C4945;" d="M407.91,159.539c-9.83-22.63-17.51-46.08-23.859-69.837c-1.434-5.53-3.277-10.65-5.325-15.565 C357.734,25.19,306.74,5.12,247.245,5.12c-65.946,0-121.446,24.678-137.114,85.811c-6.144,23.654-14.131,46.797-23.859,69.325 c-9.216,21.299-14.234,44.749-14.234,69.427c0,34.406,9.933,207.565,27.034,234.598c16.794,26.522,46.182,42.291,77.517,42.291 h19.968c10.445,0,18.842-8.397,18.842-18.842V365.158h63.693v122.47c0,10.445,8.397,18.842,18.842,18.842h19.968 c31.334,0,60.826-15.77,77.517-42.291c17.101-27.034,27.034-200.192,27.034-234.598C422.451,204.698,417.229,180.941,407.91,159.539 z"/><path style="fill:#35322F;" d="M400.641,141.517h-21.811c2.867,7.782,5.939,15.565,9.114,23.245h-31.539 c-38.605,0-64-12.8-78.234-23.245h-61.85c-14.438,10.445-39.936,23.245-78.131,23.245H106.65c3.277-7.782,6.349-15.462,9.114-23.245 H93.85c-2.355,6.246-4.915,12.493-7.578,18.637c-6.144,14.336-10.445,29.594-12.595,45.568h64.512 c54.784,0,90.317-20.89,109.158-36.557c18.842,15.565,54.374,36.557,109.158,36.557h64.512c-2.15-15.974-6.451-31.232-12.595-45.568 C405.555,154.01,402.995,147.763,400.641,141.517z"/><path style="fill:#221F1F;" d="M317.901,511.59h-19.968c-13.21,0-23.962-10.752-23.962-23.962v-117.35h-53.453v117.35 c0,13.21-10.752,23.962-23.962,23.962h-19.968c-33.587,0-64.205-16.691-81.92-44.646C76.237,437.76,66.816,262.246,66.816,229.581 c0-24.883,4.915-48.947,14.643-71.475c9.83-22.733,17.715-45.773,23.552-68.506C119.859,31.846,170.342,0,247.142,0 c67.891,0,116.224,25.6,136.192,72.09c2.253,5.12,4.096,10.65,5.632,16.282c6.963,26.01,14.746,48.64,23.654,69.12l0,0 c9.933,22.733,14.95,47.002,14.95,72.192c0,32.666-9.318,208.077-27.853,237.363C382.003,494.899,351.488,511.59,317.901,511.59z M215.296,360.038h63.693c2.867,0,5.12,2.253,5.12,5.12v122.47c0,7.578,6.144,13.722,13.722,13.722h19.968 c30.003,0,57.446-14.95,73.216-39.936c15.77-24.883,26.214-195.072,26.214-231.834c0-23.654-4.71-46.592-14.131-68.096l0,0 c-9.114-20.992-16.998-44.032-24.166-70.554c-1.434-5.222-3.072-10.138-5.12-14.848C355.789,33.587,310.733,10.24,247.245,10.24 c-41.472,0-113.869,10.65-132.198,81.92c-5.939,23.245-14.131,46.797-24.064,70.042c-9.216,21.299-13.824,43.93-13.824,67.482 c0,36.864,10.445,206.95,26.214,231.834c15.77,24.986,43.213,39.936,73.216,39.936h19.968c7.578,0,13.722-6.144,13.722-13.722 V365.158C210.176,362.394,212.531,360.038,215.296,360.038z"/><path style="fill:#FFB69F;" d="M308.992,353.485l-36.045,34.714c-14.336,13.824-37.069,13.824-51.405,0l-36.045-34.714 c-30.003-28.877-47.309-71.168-47.309-115.814v-66.253c0-17.101,13.824-31.027,31.027-31.027h156.16 c17.101,0,31.027,13.824,31.027,31.027v66.253C356.301,282.317,338.995,324.608,308.992,353.485z"/><path style="fill:#EA8F7D;" d="M356.301,205.722L356.301,205.722V171.52c0-2.253-0.307-4.506-0.717-6.656 c-39.424-0.205-65.024-13.722-78.95-24.269h-59.085c-14.029,10.547-39.731,24.166-78.746,24.269 c-0.512,2.15-0.717,4.403-0.717,6.656v34.202c54.784,0,90.317-20.89,109.158-36.557 C266.086,184.832,301.517,205.722,356.301,205.722z"/><path style="fill:#221F1F;" d="M247.245,403.763c-10.547,0-21.094-3.994-29.286-11.878l-36.045-34.714 c-31.13-29.901-48.947-73.421-48.947-119.501v-66.253c0-19.866,16.179-36.147,36.147-36.147h156.262 c19.866,0,36.147,16.179,36.147,36.147v66.253c0,46.08-17.818,89.6-48.947,119.501l0,0l-36.045,34.714 C268.237,399.77,257.792,403.763,247.245,403.763z M169.114,145.613c-14.234,0-25.907,11.571-25.907,25.907v66.253 c0,43.315,16.691,84.173,45.773,112.128l36.045,34.714c12.39,11.981,31.949,11.981,44.339,0l36.045-34.714l3.584,3.686l-3.584-3.686 c29.082-27.955,45.773-68.813,45.773-112.128V171.52c0-14.234-11.571-25.907-25.907-25.907H169.114z"/><path style="fill:#4C4945;" d="M408.218,160.154c-9.728-22.426-17.715-45.568-23.859-69.325 C368.589,29.798,313.19,5.12,247.245,5.12S125.798,29.798,110.131,90.931c-6.144,23.654-14.131,46.797-23.859,69.325 c-3.072,7.27-5.734,14.746-7.885,22.426v2.662h59.699c76.083,0,109.158-44.749,109.158-44.749s32.973,44.749,109.158,44.749h59.699 v-2.662C413.952,174.899,411.29,167.424,408.218,160.154z"/><path style="fill:#221F1F;" d="M416.102,190.362h-59.699c-63.59,0-97.894-30.003-109.158-41.984 c-11.264,11.981-45.568,41.984-109.158,41.984h-59.7c-2.867,0-5.12-2.253-5.12-5.12v-2.662c0-0.512,0.102-0.922,0.205-1.331 c2.15-7.885,4.915-15.667,8.09-23.04c9.83-22.733,17.715-45.773,23.552-68.506c14.848-57.754,65.331-89.6,142.131-89.6 s127.181,31.846,142.131,89.6c5.837,22.733,13.824,45.773,23.552,68.506l0,0c3.174,7.373,5.939,15.155,8.09,23.04 c0.102,0.41,0.205,0.922,0.205,1.331v2.662C421.222,188.109,418.867,190.362,416.102,190.362z M78.387,182.579L78.387,182.579 L78.387,182.579z M247.245,135.373c1.638,0,3.174,0.819,4.096,2.048c0.102,0.102,8.192,10.854,25.088,21.402 c15.565,9.728,42.086,21.299,79.974,21.299h53.658c-1.843-6.144-4.096-12.186-6.554-17.92 c-10.035-23.245-18.125-46.797-24.064-70.042c-18.33-71.27-90.726-81.92-132.198-81.92S133.376,20.89,115.046,92.16 c-5.939,23.245-14.131,46.797-24.064,70.042c-2.458,5.837-4.71,11.776-6.554,17.92h53.658c72.704,0,104.653-42.291,104.96-42.701 C244.07,136.192,245.606,135.373,247.245,135.373z"/><g><path style="fill:#7C7B7A;" d="M197.274,36.864c-2.253,0-4.301-1.536-4.915-3.789c-0.717-2.765,0.819-5.53,3.584-6.246 c3.891-1.024,7.885-2.048,11.981-2.765c2.765-0.512,5.427,1.229,6.042,4.096c0.512,2.765-1.229,5.427-4.096,6.042 c-3.891,0.717-7.578,1.638-11.264,2.662C198.195,36.762,197.683,36.864,197.274,36.864z"/><path style="fill:#7C7B7A;" d="M106.547,169.882c-0.614,0-1.331-0.102-1.946-0.41c-2.56-1.126-3.789-4.096-2.765-6.758 c9.523-22.63,17.306-45.568,23.142-68.096c6.349-24.883,20.685-43.827,42.496-56.32c2.458-1.434,5.632-0.512,6.963,1.843 c1.434,2.458,0.512,5.632-1.843,6.963c-19.354,11.059-31.949,27.853-37.683,49.971c-5.939,23.04-13.926,46.49-23.654,69.53 C110.438,168.755,108.493,169.882,106.547,169.882z"/></g><g><path style="fill:#221F1F;" d="M247.245,145.613c-2.867,0-5.12-2.253-5.12-5.12V73.318c0-2.867,2.253-5.12,5.12-5.12 s5.12,2.253,5.12,5.12v67.174C252.365,143.36,250.01,145.613,247.245,145.613z"/><path style="fill:#221F1F;" d="M247.245,54.682c-2.867,0-5.12-2.253-5.12-5.12v-5.837c0-2.867,2.253-5.12,5.12-5.12 s5.12,2.253,5.12,5.12v5.837C252.365,52.429,250.01,54.682,247.245,54.682z"/></g><path style="fill:#FFB69F;" d="M138.086,264.09h-6.246c-14.541,0-26.214-11.776-26.214-26.214v-6.144 c0-14.541,11.776-26.214,26.214-26.214h6.246V264.09z"/><path style="fill:#221F1F;" d="M138.086,269.21h-6.246c-17.306,0-31.334-14.029-31.334-31.334v-6.144 c0-17.306,14.029-31.334,31.334-31.334h6.246c2.867,0,5.12,2.253,5.12,5.12v58.675C143.206,266.957,140.954,269.21,138.086,269.21z M131.84,210.637c-11.674,0-21.094,9.523-21.094,21.094v6.144c0,11.674,9.523,21.094,21.094,21.094h1.126v-48.435h-1.126V210.637z" /><path style="fill:#FFB69F;" d="M356.301,205.517h6.246c14.541,0,26.214,11.776,26.214,26.214v6.144 c0,14.541-11.776,26.214-26.214,26.214h-6.246V205.517z"/><g><path style="fill:#221F1F;" d="M362.547,269.21h-6.246c-2.867,0-5.12-2.253-5.12-5.12v-58.675c0-2.867,2.253-5.12,5.12-5.12h6.246 c17.306,0,31.334,14.029,31.334,31.334v6.144C393.882,255.181,379.853,269.21,362.547,269.21z M361.421,258.97h1.126 c11.674,0,21.094-9.523,21.094-21.094v-6.144c0-11.674-9.523-21.094-21.094-21.094h-1.126V258.97z"/><path style="fill:#221F1F;" d="M138.086,239.923h-8.602c-2.867,0-5.12-2.253-5.12-5.12s2.253-5.12,5.12-5.12h8.602 c2.867,0,5.12,2.253,5.12,5.12S140.954,239.923,138.086,239.923z"/><path style="fill:#221F1F;" d="M364.902,239.923h-8.602c-2.867,0-5.12-2.253-5.12-5.12s2.253-5.12,5.12-5.12h8.602 c2.867,0,5.12,2.253,5.12,5.12S367.77,239.923,364.902,239.923z"/></g><g><path style="fill:#7C7B7A;" d="M184.474,414.003c-2.867,0-5.12-2.253-5.12-5.12v-8.09c0-2.867,2.253-5.12,5.12-5.12 s5.12,2.253,5.12,5.12v8.09C189.594,411.75,187.341,414.003,184.474,414.003z"/><path style="fill:#7C7B7A;" d="M153.242,366.387c-2.867,0-5.12-2.253-5.12-5.12v-8.09c0-2.867,2.253-5.12,5.12-5.12 s5.12,2.253,5.12,5.12v8.09C158.362,364.134,156.109,366.387,153.242,366.387z"/><path style="fill:#7C7B7A;" d="M184.474,478.72c-2.867,0-5.12-2.253-5.12-5.12v-40.243c0-2.867,2.253-5.12,5.12-5.12 s5.12,2.253,5.12,5.12V473.6C189.594,476.365,187.341,478.72,184.474,478.72z"/><path style="fill:#7C7B7A;" d="M153.242,478.72c-2.867,0-5.12-2.253-5.12-5.12v-89.293c0-2.867,2.253-5.12,5.12-5.12 s5.12,2.253,5.12,5.12V473.6C158.362,476.365,156.109,478.72,153.242,478.72z"/><path style="fill:#7C7B7A;" d="M122.214,329.728c-2.867,0-5.12-2.253-5.12-5.12v-8.09c0-2.867,2.253-5.12,5.12-5.12 c2.867,0,5.12,2.253,5.12,5.12v8.09C127.334,327.373,125.082,329.728,122.214,329.728z"/><path style="fill:#7C7B7A;" d="M122.214,458.547c-2.867,0-5.12-2.253-5.12-5.12V347.648c0-2.867,2.253-5.12,5.12-5.12 c2.867,0,5.12,2.253,5.12,5.12v105.779C127.334,456.294,125.082,458.547,122.214,458.547z"/><path style="fill:#7C7B7A;" d="M309.914,414.003c-2.867,0-5.12-2.253-5.12-5.12v-8.09c0-2.867,2.253-5.12,5.12-5.12 s5.12,2.253,5.12,5.12v8.09C315.034,411.75,312.781,414.003,309.914,414.003z"/><path style="fill:#7C7B7A;" d="M341.146,366.387c-2.867,0-5.12-2.253-5.12-5.12v-8.09c0-2.867,2.253-5.12,5.12-5.12 s5.12,2.253,5.12,5.12v8.09C346.266,364.134,344.013,366.387,341.146,366.387z"/><path style="fill:#7C7B7A;" d="M309.914,478.72c-2.867,0-5.12-2.253-5.12-5.12v-40.243c0-2.867,2.253-5.12,5.12-5.12 s5.12,2.253,5.12,5.12V473.6C315.034,476.365,312.781,478.72,309.914,478.72z"/><path style="fill:#7C7B7A;" d="M341.146,478.72c-2.867,0-5.12-2.253-5.12-5.12v-89.293c0-2.867,2.253-5.12,5.12-5.12 s5.12,2.253,5.12,5.12V473.6C346.266,476.365,344.013,478.72,341.146,478.72z"/><path style="fill:#7C7B7A;" d="M372.173,329.728c-2.867,0-5.12-2.253-5.12-5.12v-8.09c0-2.867,2.253-5.12,5.12-5.12 s5.12,2.253,5.12,5.12v8.09C377.293,327.373,375.04,329.728,372.173,329.728z"/><path style="fill:#7C7B7A;" d="M372.173,458.547c-2.867,0-5.12-2.253-5.12-5.12V347.648c0-2.867,2.253-5.12,5.12-5.12 s5.12,2.253,5.12,5.12v105.779C377.293,456.294,375.04,458.547,372.173,458.547z"/></g><path style="fill:#72C1E8;" d="M431.462,332.493v-21.197h-30.72v21.197c0,11.162-5.427,21.709-14.848,27.648 c-8.294,5.222-13.722,14.336-13.722,24.781v105.984c0,8.602,6.963,15.565,15.565,15.565h56.73c8.602,0,15.565-6.963,15.565-15.565 V384.922c0-10.445-5.53-19.661-13.722-24.781C436.891,354.202,431.462,343.552,431.462,332.493z"/><path style="fill:#221F1F;" d="M444.467,511.59h-56.73c-11.469,0-20.685-9.318-20.685-20.685V384.922 c0-11.878,6.042-22.835,16.179-29.184c7.68-4.813,12.493-13.722,12.493-23.245v-21.197c0-2.867,2.253-5.12,5.12-5.12h30.72 c2.867,0,5.12,2.253,5.12,5.12v21.197c0,9.523,4.813,18.432,12.493,23.245c10.138,6.349,16.179,17.203,16.179,29.184v105.984 C465.152,502.374,455.936,511.59,444.467,511.59z M405.862,316.416v16.077c0,13.005-6.656,25.293-17.203,31.949 c-7.066,4.506-11.366,12.083-11.366,20.48v105.984c0,5.734,4.71,10.445,10.445,10.445h56.73c5.734,0,10.445-4.71,10.445-10.445 V384.922c0-8.397-4.198-15.974-11.366-20.48c-10.65-6.656-17.203-18.944-17.203-31.949v-16.077H405.862L405.862,316.416z"/><g><path style="fill:#C5E5FF;" d="M410.061,370.381c-1.126,0-2.15-0.307-3.072-1.024c-2.253-1.741-2.662-4.915-0.922-7.168 c0.717-0.922,1.331-1.843,1.946-2.765c1.536-2.355,4.71-2.97,7.066-1.434c2.355,1.536,2.97,4.71,1.434,7.066 c-0.717,1.126-1.536,2.253-2.458,3.379C413.133,369.664,411.597,370.381,410.061,370.381z"/><path style="fill:#C5E5FF;" d="M392.654,491.11c-2.867,0-5.12-2.253-5.12-5.12V384.819c0-4.813,2.458-9.216,6.554-11.776 c2.355-1.536,5.53-0.819,7.066,1.638c1.536,2.355,0.819,5.53-1.638,7.066c-1.126,0.717-1.741,1.843-1.741,3.174v101.171 C397.773,488.858,395.52,491.11,392.654,491.11z"/></g><g><rect x="372.171" y="400.79" style="fill:#FC5D3D;" width="87.86" height="56.627"/><path style="fill:#FC5D3D;" d="M432.896,311.296h-33.587c-3.379,0-6.144-2.765-6.144-6.144v-11.878 c0-3.379,2.765-6.144,6.144-6.144h33.587c3.379,0,6.144,2.765,6.144,6.144v11.878C439.04,308.531,436.275,311.296,432.896,311.296z "/></g><path style="fill:#221F1F;" d="M432.896,316.416h-33.587c-6.246,0-11.264-5.018-11.264-11.264v-11.878 c0-6.246,5.018-11.264,11.264-11.264h33.587c6.246,0,11.264,5.018,11.264,11.264v11.878 C444.16,311.398,439.142,316.416,432.896,316.416z M399.309,292.25c-0.614,0-1.024,0.41-1.024,1.024v11.878 c0,0.614,0.41,1.024,1.024,1.024h33.587c0.614,0,1.024-0.41,1.024-1.024v-11.878c0-0.614-0.41-1.024-1.024-1.024H399.309z"/><path style="fill:#F0C020;" d="M407.706,121.446l4.403-1.229l-4.403-1.229c-10.445-2.867-18.534-11.059-21.402-21.402l-1.229-4.403 l-1.229,4.403c-2.867,10.445-11.059,18.534-21.402,21.402l-4.403,1.229l4.403,1.229c10.445,2.867,18.534,11.059,21.402,21.402 l1.229,4.403l1.229-4.403C389.171,132.506,397.261,124.314,407.706,121.446z"/><path style="fill:#221F1F;" d="M385.076,152.371c-2.253,0-4.301-1.536-4.915-3.789l-1.229-4.403 c-2.355-8.602-9.216-15.462-17.818-17.818l-4.403-1.229c-2.253-0.614-3.789-2.662-3.789-4.915s1.536-4.301,3.789-4.915l4.403-1.229 c8.602-2.355,15.462-9.216,17.818-17.818l1.229-4.403c0.614-2.253,2.662-3.789,4.915-3.789l0,0c2.253,0,4.301,1.536,4.915,3.789 l1.229,4.403c2.355,8.602,9.216,15.462,17.818,17.818l4.403,1.229c2.253,0.614,3.789,2.662,3.789,4.915s-1.536,4.301-3.789,4.915 l-4.403,1.229l0,0c-8.602,2.355-15.462,9.216-17.818,17.818l-1.229,4.403C389.376,150.835,387.328,152.371,385.076,152.371z M372.48,120.218c5.12,3.072,9.523,7.373,12.595,12.595c3.072-5.12,7.373-9.523,12.595-12.595 c-5.12-3.072-9.523-7.373-12.595-12.595C382.003,112.845,377.702,117.146,372.48,120.218z"/><path style="fill:#F0C020;" d="M101.018,370.483l4.403-1.229l-4.403-1.229c-10.445-2.867-18.534-11.059-21.402-21.402l-1.229-4.403 l-1.229,4.403c-2.867,10.445-11.059,18.534-21.402,21.402l-4.403,1.229l4.403,1.229c10.445,2.867,18.534,11.059,21.402,21.402 l1.229,4.403l1.229-4.403C82.483,381.44,90.675,373.35,101.018,370.483z"/><path style="fill:#221F1F;" d="M78.387,401.408L78.387,401.408c-2.253,0-4.301-1.536-4.915-3.789l-1.229-4.403 c-2.355-8.602-9.216-15.462-17.818-17.818l-4.403-1.229c-2.253-0.614-3.789-2.662-3.789-4.915c0-2.253,1.536-4.301,3.789-4.915 l4.403-1.229c8.602-2.355,15.462-9.216,17.818-17.818l1.229-4.403c0.614-2.253,2.662-3.789,4.915-3.789s4.301,1.536,4.915,3.789 l1.229,4.403c2.355,8.602,9.216,15.462,17.818,17.818l4.403,1.229c2.253,0.614,3.789,2.662,3.789,4.915 c0,2.253-1.536,4.301-3.789,4.915l-4.403,1.229c-8.602,2.355-15.462,9.216-17.818,17.818l-1.229,4.403 C82.79,399.872,80.742,401.408,78.387,401.408z M65.894,369.254c5.12,3.072,9.523,7.373,12.595,12.595 c3.072-5.12,7.373-9.523,12.595-12.595c-5.12-3.072-9.523-7.373-12.595-12.595C75.315,361.882,71.014,366.182,65.894,369.254z"/><path style="fill:#F0C020;" d="M219.597,93.594L224,92.365l-4.403-1.229c-10.445-2.867-18.534-11.059-21.402-21.402l-1.229-4.403 l-1.229,4.403c-2.867,10.445-11.059,18.534-21.402,21.402l-4.403,1.229l4.403,1.229c10.445,2.867,18.534,11.059,21.402,21.402 l1.229,4.403l1.229-4.403C201.062,104.653,209.152,96.461,219.597,93.594z"/><path style="fill:#221F1F;" d="M196.966,124.518c-2.253,0-4.301-1.536-4.915-3.789l-1.229-4.403 c-2.355-8.602-9.216-15.462-17.818-17.818l-4.403-1.229c-2.253-0.614-3.789-2.662-3.789-4.915s1.536-4.301,3.789-4.915l4.403-1.229 c8.602-2.355,15.462-9.216,17.818-17.818L192.051,64c0.614-2.253,2.662-3.789,4.915-3.789l0,0c2.253,0,4.301,1.536,4.915,3.789 l1.229,4.403c2.355,8.602,9.216,15.462,17.818,17.818l4.403,1.229c2.253,0.614,3.789,2.662,3.789,4.915s-1.536,4.301-3.789,4.915 l-4.403,1.229c-8.602,2.355-15.462,9.216-17.818,17.818l-1.229,4.403C201.267,122.982,199.219,124.518,196.966,124.518z M184.371,92.467c5.12,3.072,9.523,7.373,12.595,12.595c3.072-5.12,7.373-9.523,12.595-12.595 c-5.12-3.072-9.523-7.373-12.595-12.595C193.894,84.992,189.594,89.395,184.371,92.467z"/><path style="fill:#FFCBC2;" d="M392.654,462.643c-2.867,0-5.12-2.253-5.12-5.12v-56.627c0-2.867,2.253-5.12,5.12-5.12 s5.12,2.253,5.12,5.12v56.627C397.773,460.288,395.52,462.643,392.654,462.643z"/><path style="fill:#221F1F;" d="M460.033,462.643h-87.859c-2.867,0-5.12-2.253-5.12-5.12v-56.627c0-2.867,2.253-5.12,5.12-5.12 h87.859c2.867,0,5.12,2.253,5.12,5.12v56.627C465.152,460.288,462.899,462.643,460.033,462.643z M377.293,452.403h77.619v-46.387 h-77.619L377.293,452.403L377.293,452.403z"/><path style="fill:#231F20;" d="M219.392,226.304c-1.536,0-3.072-0.717-4.096-2.048c-4.403-5.837-11.059-9.216-18.33-9.216 c-0.102,0-0.205,0-0.307,0c-7.168,0.102-13.824,3.482-18.125,9.216c-1.638,2.253-4.915,2.765-7.168,1.024 c-2.253-1.638-2.765-4.915-1.024-7.168c6.246-8.397,16.179-13.414,26.624-13.414c0.102,0,0.205,0,0.307,0 c10.342,0.102,20.173,5.12,26.317,13.414c1.638,2.253,1.229,5.427-1.024,7.168C221.542,225.997,220.518,226.304,219.392,226.304z"/><path style="fill:#F2203A;" d="M247.245,337.101c-0.102,0-0.205,0-0.307,0c-9.933-0.102-19.456-4.915-25.395-13.005 c-1.638-2.253-1.229-5.427,1.024-7.168c2.253-1.638,5.53-1.229,7.168,1.024c4.198,5.632,10.547,8.806,17.51,8.806 c0.102,0,0.205,0,0.205,0c6.861-0.102,13.107-3.277,17.203-8.806c1.638-2.253,4.915-2.765,7.168-1.024 c2.253,1.638,2.765,4.915,1.024,7.168C266.906,332.288,257.28,337.101,247.245,337.101z"/><circle style="fill:#231F20;" cx="196.97" cy="237.77" r="10.04"/><g><ellipse style="fill:#FF7364;" cx="196.97" cy="268.19" rx="22.528" ry="11.469"/><ellipse style="fill:#FF7364;" cx="297.52" cy="268.19" rx="22.528" ry="11.469"/></g><g><path style="fill:#231F20;" d="M319.949,226.304c-1.536,0-3.072-0.717-4.096-2.048c-4.403-5.837-11.059-9.216-18.33-9.216 c-0.102,0-0.205,0-0.307,0c-7.168,0.102-13.824,3.482-18.125,9.216c-1.638,2.253-4.915,2.765-7.168,1.024 c-2.253-1.638-2.765-4.915-1.024-7.168c6.246-8.397,16.179-13.414,26.624-13.414c0.102,0,0.205,0,0.307,0 c10.342,0.102,20.173,5.12,26.317,13.414c1.638,2.253,1.229,5.427-1.024,7.168C322.099,225.997,321.076,226.304,319.949,226.304z" /><circle style="fill:#231F20;" cx="297.52" cy="237.77" r="10.04"/><path style="fill:#231F20;" d="M247.245,301.773L247.245,301.773c-4.301,0-8.192-1.946-10.854-5.325l-4.813-6.246 c-1.741-2.253-1.331-5.427,0.922-7.168c2.253-1.741,5.427-1.331,7.168,0.922l4.813,6.246c0.922,1.126,2.048,1.331,2.662,1.331l0,0 c0.614,0,1.843-0.205,2.662-1.331l4.813-6.246c1.741-2.253,4.915-2.662,7.168-0.922c2.253,1.741,2.662,4.915,0.922,7.168 l-4.813,6.246C255.437,299.827,251.443,301.773,247.245,301.773z"/></g></svg>